<svg xmlns="http://www.w3.org/2000/svg" xmlns:xlink="http://www.w3.org/1999/xlink" width="500" zoomAndPan="magnify" viewBox="0 0 375 374.999991" height="500" preserveAspectRatio="xMidYMid meet" version="1.0"><defs><clipPath id="e556e470a0"><path d="M 58 81 L 318.75 81 L 318.75 293 L 58 293 Z M 58 81 " clip-rule="nonzero"/></clipPath></defs><path fill="#000000" d="M 158.246094 260.34375 L 158.191406 260.289062 Z M 158.246094 260.34375 " fill-opacity="1" fill-rule="nonzero"/><path fill="#000000" d="M 317.9375 196.449219 C 317.949219 196.523438 317.9375 196.601562 317.949219 196.664062 C 317.957031 196.730469 317.980469 196.796875 317.980469 196.859375 Z M 317.9375 196.449219 " fill-opacity="1" fill-rule="nonzero"/><path fill="#000000" d="M 306.785156 166.429688 C 306.839844 166.515625 306.882812 166.613281 306.949219 166.710938 C 306.960938 166.722656 306.96875 166.734375 306.96875 166.742188 Z M 306.785156 166.429688 " fill-opacity="1" fill-rule="nonzero"/><path fill="#1976d2" d="M 229.28125 170.222656 C 229.183594 170.222656 229.109375 170.222656 229.011719 170.222656 C 219.953125 170.222656 211.667969 173.449219 205.277344 178.78125 C 198.855469 184.195312 194.605469 191.84375 194.105469 200.511719 L 194.117188 200.511719 C 193.628906 209.414062 197.207031 217.671875 203.5 223.8125 C 210.117188 230.117188 219.066406 233.984375 228.925781 233.984375 C 229.042969 233.984375 229.164062 233.984375 229.273438 233.984375 C 229.273438 233.984375 229.28125 233.984375 229.292969 233.984375 C 229.414062 233.984375 229.53125 233.984375 229.652344 233.984375 C 239.511719 233.984375 248.460938 230.117188 255.046875 223.824219 C 261.335938 217.679688 264.914062 209.414062 264.425781 200.5 C 263.941406 191.84375 259.699219 184.195312 253.277344 178.78125 C 246.976562 173.472656 238.503906 170.222656 229.28125 170.222656 Z M 229.28125 170.222656 " fill-opacity="1" fill-rule="nonzero"/><g clip-path="url(#e556e470a0)"><path fill="#ff9800" d="M 298.011719 262.8125 C 305.613281 254.503906 311.535156 244.503906 315.117188 233.464844 L 315.277344 232.890625 C 317.480469 226.132812 318.75 218.351562 318.75 210.28125 C 318.75 206.589844 318.457031 202.960938 317.957031 199.40625 C 316.308594 188.269531 312.492188 178.269531 306.949219 169.464844 C 301.480469 160.828125 294.820312 153.496094 287.078125 147.503906 L 286.882812 147.363281 L 286.902344 147.363281 L 205.355469 84.835938 C 200.015625 80.738281 191.046875 80.761719 185.179688 84.855469 C 179.246094 88.996094 178.574219 95.851562 183.84375 100.183594 L 183.832031 100.195312 L 217.742188 127.746094 L 114.226562 127.851562 C 105.679688 127.863281 97.46875 133.464844 95.84375 140.550781 C 94.171875 147.753906 99.964844 153.734375 108.859375 153.765625 L 108.859375 153.789062 L 161.25 153.679688 L 67.378906 225.632812 C 58.558594 232.371094 55.71875 243.59375 61.273438 250.691406 C 66.914062 257.914062 78.898438 257.925781 87.816406 250.734375 L 138.839844 209.035156 C 138.839844 209.035156 138.089844 214.667969 138.15625 218.039062 L 138.136719 218.027344 C 138.199219 221.429688 139.285156 228.015625 140.910156 233.171875 C 144.652344 244.773438 150.566406 254.753906 158.246094 263.09375 C 166.53125 272.160156 176.578125 279.460938 187.859375 284.488281 L 188.421875 284.71875 C 199.941406 289.917969 213.402344 292.949219 227.570312 292.949219 C 227.753906 292.949219 227.9375 292.949219 228.121094 292.949219 C 228.132812 292.949219 228.144531 292.949219 228.15625 292.949219 C 228.199219 292.949219 228.253906 292.949219 228.316406 292.949219 C 242.417969 292.949219 255.804688 289.925781 267.898438 284.53125 C 279.710938 279.214844 289.734375 271.890625 297.945312 262.886719 Z M 280.46875 219.359375 C 277.890625 226.195312 274.09375 232.035156 269.289062 236.878906 L 269.265625 236.886719 C 258.742188 247.589844 244.035156 253.660156 228.101562 253.679688 C 212.15625 253.722656 197.4375 247.699219 186.914062 237.019531 C 182.078125 232.164062 178.257812 226.304688 175.785156 219.78125 L 175.675781 219.445312 C 173.941406 214.777344 172.941406 209.382812 172.941406 203.761719 C 172.941406 195.613281 175.058594 187.964844 178.746094 181.304688 C 182.03125 175.476562 186.199219 170.558594 191.144531 166.550781 L 191.242188 166.472656 C 201.460938 158.152344 214.464844 153.65625 228.078125 153.636719 C 241.691406 153.613281 254.707031 158.078125 264.9375 166.363281 C 270.144531 170.601562 274.375 175.617188 277.433594 181.171875 C 280.460938 186.503906 282.476562 192.785156 283.085938 199.472656 L 283.09375 199.644531 C 283.203125 200.824219 283.269531 202.199219 283.269531 203.585938 C 283.28125 209.132812 282.28125 214.429688 280.46875 219.359375 Z M 280.46875 219.359375 " fill-opacity="1" fill-rule="nonzero"/></g><path fill="#000000" d="M 268.410156 281.585938 C 268.246094 281.660156 268.074219 281.707031 267.898438 281.78125 C 267.867188 281.792969 267.832031 281.8125 267.800781 281.835938 Z M 268.410156 281.585938 " fill-opacity="1" fill-rule="nonzero"/></svg>