<svg xmlns="http://www.w3.org/2000/svg" xmlns:xlink="http://www.w3.org/1999/xlink" width="500" zoomAndPan="magnify" viewBox="0 0 375 374.999991" height="500" preserveAspectRatio="xMidYMid meet" version="1.0"><defs><clipPath id="f264e55530"><path d="M 95 56.25 L 280 56.25 L 280 318.75 L 95 318.75 Z M 95 56.25 " clip-rule="nonzero"/></clipPath></defs><g clip-path="url(#f264e55530)"><path stroke-linecap="round" transform="matrix(13.124999, 0, 0, 13.124999, 30.000003, 29.999998)" fill="none" stroke-linejoin="round" d="M 9 15.000001 L 12.000001 15.000001 M 9 15.000001 C 7.343155 15.000001 6 16.343156 6 18.000001 C 6 19.656847 7.343155 21.000002 9 21.000002 C 10.656846 21.000002 12.000001 19.656847 12.000001 18.000001 L 12.000001 15.000001 M 9 15.000001 C 7.343155 15.000001 6 13.656846 6 12.000001 C 6 10.343156 7.343155 9.000001 9 9.000001 M 12.000001 15.000001 L 12.000001 12.000001 M 9 9.000001 L 12.000001 9.000001 M 9 9.000001 C 7.343155 9.000001 6 7.656846 6 6.000001 C 6 4.343155 7.343155 3 9 3 L 12.000001 3 M 12.000001 9.000001 L 12.000001 12.000001 M 12.000001 9.000001 L 12.000001 3 M 12.000001 9.000001 L 15.000001 9.000001 M 12.000001 12.000001 C 12.000001 13.656846 13.343155 15.000001 15.000001 15.000001 C 16.656846 15.000001 18.000001 13.656846 18.000001 12.000001 C 18.000001 10.343156 16.656846 9.000001 15.000001 9.000001 M 12.000001 12.000001 C 12.000001 10.343156 13.343155 9.000001 15.000001 9.000001 M 12.000001 3 L 15.000001 3 C 16.656846 3 18.000001 4.343155 18.000001 6.000001 C 18.000001 7.656846 16.656846 9.000001 15.000001 9.000001 " stroke="#000000" stroke-width="2" stroke-opacity="1" stroke-miterlimit="4"/></g></svg>