<svg xmlns="http://www.w3.org/2000/svg" xmlns:xlink="http://www.w3.org/1999/xlink" width="500" zoomAndPan="magnify" viewBox="0 0 375 374.999991" height="500" preserveAspectRatio="xMidYMid meet" version="1.0"><defs><clipPath id="1fede1dc0d"><path d="M 106 45.417969 L 318.75 45.417969 L 318.75 203 L 106 203 Z M 106 45.417969 " clip-rule="nonzero"/></clipPath><clipPath id="17102b0601"><path d="M 160 296 L 318.75 296 L 318.75 329.667969 L 160 329.667969 Z M 160 296 " clip-rule="nonzero"/></clipPath></defs><path fill="#000000" d="M 88.972656 283.410156 C 89.167969 287.058594 92.226562 289.933594 95.9375 289.804688 C 99.519531 289.671875 102.460938 286.546875 102.460938 282.765625 L 102.460938 234.292969 C 102.394531 228.792969 106.617188 224.121094 112.117188 223.609375 C 112.246094 223.609375 112.367188 223.609375 112.5 223.609375 L 112.945312 223.609375 C 118.695312 223.609375 123.429688 228.28125 123.429688 234.097656 L 123.429688 282.765625 C 123.429688 286.480469 126.304688 289.609375 129.886719 289.804688 L 130.203125 289.804688 C 133.914062 289.804688 136.917969 286.796875 136.917969 283.085938 L 136.917969 157.996094 C 136.917969 156.332031 137.878906 154.796875 139.414062 154.097656 C 140.949219 153.398438 142.734375 153.652344 144.019531 154.738281 L 151.878906 161.394531 C 154.503906 163.636719 158.207031 163.953125 161.089844 162.15625 L 185.195312 147.507812 C 185.195312 147.507812 185.257812 147.507812 185.257812 147.445312 C 186.347656 146.804688 187.109375 145.777344 187.433594 144.570312 C 187.75 143.351562 187.566406 142.140625 186.921875 141.050781 C 186.28125 139.960938 185.257812 139.132812 184.046875 138.808594 C 182.832031 138.492188 181.621094 138.679688 180.53125 139.320312 C 180.53125 139.320312 180.46875 139.320312 180.46875 139.386719 L 159.050781 151.539062 C 157.515625 152.433594 155.535156 152.246094 154.195312 151.09375 L 133.339844 133.699219 C 130.910156 131.652344 127.839844 130.5625 124.582031 130.5625 L 97.667969 130.5625 C 93.835938 130.5625 90.125 132.226562 87.5 135.105469 L 68.195312 156.789062 C 65.898438 159.410156 65.574219 163.179688 67.433594 166.1875 L 73.953125 176.871094 L 87.445312 198.738281 C 87.507812 198.804688 87.507812 198.871094 87.574219 198.933594 C 87.703125 199.128906 87.824219 199.253906 87.957031 199.445312 C 88.019531 199.511719 88.019531 199.511719 88.085938 199.578125 C 89.75 201.363281 92.367188 201.6875 94.414062 200.40625 C 95.566406 199.699219 96.328125 198.554688 96.652344 197.269531 C 96.980469 195.984375 96.71875 194.582031 96.011719 193.5 L 81.246094 170.09375 C 80.09375 168.308594 80.484375 165.933594 82.074219 164.53125 L 94.476562 153.726562 C 96.265625 152.1875 99.015625 152.382812 100.550781 154.171875 C 102.085938 155.957031 101.890625 158.710938 100.105469 160.25 L 90.507812 168.617188 L 103.289062 188.886719 C 105.269531 191.957031 105.847656 195.660156 105.074219 199.179688 C 104.246094 202.695312 102.136719 205.765625 99.066406 207.683594 C 95.996094 209.601562 92.414062 210.179688 89.09375 209.472656 Z M 95.6875 298.4375 C 87.5 298.4375 80.726562 291.980469 80.410156 283.667969 C 80.410156 283.605469 80.410156 283.539062 80.410156 283.472656 L 80.410156 203.664062 C 80.28125 203.46875 80.214844 203.347656 80.09375 203.152344 L 66.605469 181.28125 L 60.082031 170.597656 C 56.25 164.335938 56.949219 156.460938 61.8125 151.027344 L 81.117188 129.34375 C 85.339844 124.609375 91.351562 121.925781 97.675781 121.925781 L 124.589844 121.925781 C 129.828125 121.925781 134.882812 123.714844 138.84375 127.046875 L 157.386719 142.523438 L 176.179688 131.839844 C 179.25 130.050781 182.765625 129.539062 186.152344 130.433594 C 189.601562 131.328125 192.476562 133.503906 194.273438 136.640625 C 196.058594 139.644531 196.570312 143.226562 195.679688 146.679688 C 194.785156 150.132812 192.609375 153.007812 189.539062 154.804688 L 165.5 169.386719 C 159.425781 173.101562 151.691406 172.523438 146.257812 167.851562 L 145.496094 167.210938 L 145.496094 283.027344 C 145.496094 291.46875 138.65625 298.375 130.15625 298.375 L 129.773438 298.375 C 129.707031 298.375 129.644531 298.375 129.578125 298.375 C 121.269531 298.058594 114.8125 291.144531 114.8125 282.765625 L 114.8125 234.097656 C 114.8125 233.074219 113.984375 232.242188 112.960938 232.242188 L 112.765625 232.242188 C 111.742188 232.375 111.035156 233.203125 111.101562 234.226562 L 111.101562 282.832031 C 111.101562 291.273438 104.582031 298.113281 96.335938 298.4375 C 96.070312 298.4375 95.875 298.4375 95.6875 298.4375 Z M 95.6875 298.4375 " fill-opacity="1" fill-rule="evenodd"/><path fill="#000000" d="M 110.453125 70.507812 C 97.34375 70.507812 86.671875 81.191406 86.671875 94.296875 C 86.671875 107.402344 97.351562 118.085938 110.453125 118.085938 C 123.550781 118.085938 134.230469 107.402344 134.230469 94.296875 C 134.230469 81.191406 123.558594 70.507812 110.453125 70.507812 Z M 110.453125 126.726562 C 92.550781 126.726562 78.039062 112.210938 78.039062 94.304688 C 78.039062 76.464844 92.550781 61.882812 110.386719 61.882812 C 128.222656 61.882812 142.800781 76.398438 142.800781 94.304688 C 142.800781 112.210938 128.296875 126.726562 110.453125 126.726562 Z M 110.453125 126.726562 " fill-opacity="1" fill-rule="evenodd"/><g clip-path="url(#1fede1dc0d)"><path fill="#000000" d="M 301.671875 202.316406 L 271.621094 202.316406 C 269.257812 202.316406 267.339844 200.398438 267.339844 198.035156 C 267.339844 195.667969 269.257812 193.753906 271.621094 193.753906 L 301.671875 193.753906 C 306.277344 193.753906 310.042969 189.984375 310.042969 185.375 L 310.042969 62.515625 C 310.042969 57.910156 306.277344 54.140625 301.671875 54.140625 L 123.113281 54.140625 C 118.507812 54.140625 114.742188 57.910156 114.742188 62.515625 L 114.742188 66.285156 C 114.742188 68.648438 112.824219 70.566406 110.460938 70.566406 C 108.097656 70.566406 106.179688 68.648438 106.179688 66.285156 L 106.179688 62.515625 C 106.179688 53.117188 113.789062 45.503906 123.1875 45.503906 L 301.742188 45.503906 C 311.140625 45.503906 318.75 53.117188 318.75 62.515625 L 318.75 185.367188 C 318.675781 194.644531 311.003906 202.316406 301.671875 202.316406 Z M 301.671875 202.316406 " fill-opacity="1" fill-rule="evenodd"/></g><path fill="#000000" d="M 207.753906 202.316406 L 141.265625 202.316406 C 138.902344 202.316406 136.984375 200.398438 136.984375 198.035156 C 136.984375 195.667969 138.902344 193.753906 141.265625 193.753906 L 207.753906 193.753906 C 210.117188 193.753906 212.035156 195.667969 212.035156 198.035156 C 212.109375 200.332031 210.183594 202.316406 207.753906 202.316406 Z M 207.753906 202.316406 " fill-opacity="1" fill-rule="evenodd"/><path fill="#000000" d="M 239.71875 180.703125 C 223.097656 180.703125 209.605469 194.199219 209.605469 210.828125 C 209.605469 227.457031 223.097656 240.953125 239.71875 240.953125 C 256.34375 240.953125 269.835938 227.457031 269.835938 210.828125 C 269.835938 194.253906 256.28125 180.703125 239.71875 180.703125 Z M 239.71875 249.582031 C 218.371094 249.582031 200.980469 232.1875 200.980469 210.828125 C 200.980469 189.46875 218.371094 172.078125 239.71875 172.078125 C 261.070312 172.078125 278.460938 189.46875 278.460938 210.828125 C 278.402344 232.242188 261.078125 249.582031 239.71875 249.582031 Z M 239.71875 249.582031 " fill-opacity="1" fill-rule="evenodd"/><path fill="#000000" d="M 183.910156 305.148438 C 183.910156 305.148438 183.84375 305.148438 183.910156 305.148438 C 181.480469 305.148438 179.566406 303.167969 179.628906 300.804688 C 179.761719 285.011719 186.023438 270.101562 197.214844 258.914062 C 208.40625 247.726562 223.300781 241.457031 239.085938 241.328125 C 239.339844 241.328125 239.597656 241.328125 239.792969 241.328125 C 255.582031 241.328125 270.484375 247.402344 281.796875 258.46875 C 293.304688 269.71875 299.695312 284.75 299.828125 300.804688 C 299.828125 303.167969 297.910156 305.148438 295.546875 305.148438 C 293.183594 305.214844 291.203125 303.296875 291.203125 300.867188 C 291.070312 287.121094 285.574219 274.195312 275.730469 264.609375 C 266.007812 255.144531 253.292969 249.898438 239.738281 249.898438 C 239.542969 249.898438 239.355469 249.898438 239.09375 249.898438 C 211.289062 250.148438 188.402344 273.050781 188.140625 300.867188 C 188.199219 303.230469 186.273438 305.148438 183.910156 305.148438 Z M 183.910156 305.148438 " fill-opacity="1" fill-rule="evenodd"/><g clip-path="url(#17102b0601)"><path fill="#000000" d="M 177.257812 305.148438 C 172.914062 305.148438 169.332031 308.730469 169.332031 313.078125 C 169.332031 317.425781 172.914062 321.007812 177.257812 321.007812 L 302.183594 321.007812 C 306.527344 321.007812 310.109375 317.488281 310.109375 313.078125 C 310.109375 308.730469 306.59375 305.148438 302.183594 305.148438 Z M 302.183594 329.578125 L 177.257812 329.578125 C 168.179688 329.578125 160.765625 322.160156 160.765625 313.078125 C 160.765625 303.996094 168.179688 296.578125 177.257812 296.578125 L 302.183594 296.578125 C 311.261719 296.578125 318.675781 303.996094 318.675781 313.078125 C 318.742188 322.160156 311.328125 329.578125 302.183594 329.578125 Z M 302.183594 329.578125 " fill-opacity="1" fill-rule="evenodd"/></g><path fill="#000000" d="M 274.058594 123.527344 L 209.417969 123.527344 C 207.054688 123.527344 205.140625 121.609375 205.140625 119.246094 C 205.140625 116.882812 207.054688 114.964844 209.417969 114.964844 L 274.058594 114.964844 C 276.421875 114.964844 278.335938 116.882812 278.335938 119.246094 C 278.335938 121.609375 276.421875 123.527344 274.058594 123.527344 Z M 274.058594 123.527344 " fill-opacity="1" fill-rule="evenodd"/><path fill="#000000" d="M 274.058594 88.804688 L 191.457031 88.804688 C 189.089844 88.804688 187.175781 86.886719 187.175781 84.523438 C 187.175781 82.160156 189.089844 80.242188 191.457031 80.242188 L 274.058594 80.242188 C 276.421875 80.242188 278.335938 82.160156 278.335938 84.523438 C 278.335938 86.878906 276.421875 88.804688 274.058594 88.804688 Z M 274.058594 88.804688 " fill-opacity="1" fill-rule="evenodd"/><path fill="#000000" d="M 274.058594 158.257812 L 221.382812 158.257812 C 219.019531 158.257812 217.101562 156.339844 217.101562 153.976562 C 217.101562 151.613281 219.019531 149.695312 221.382812 149.695312 L 274.058594 149.695312 C 276.421875 149.695312 278.335938 151.613281 278.335938 153.976562 C 278.335938 156.332031 276.421875 158.257812 274.058594 158.257812 Z M 274.058594 158.257812 " fill-opacity="1" fill-rule="evenodd"/></svg>