<svg xmlns="http://www.w3.org/2000/svg" xmlns:xlink="http://www.w3.org/1999/xlink" width="500" zoomAndPan="magnify" viewBox="0 0 375 374.999991" height="500" preserveAspectRatio="xMidYMid meet" version="1.0"><defs><clipPath id="bb056bfd60"><path d="M 159 250 L 214 250 L 214 288.09375 L 159 288.09375 Z M 159 250 " clip-rule="nonzero"/></clipPath><clipPath id="56b6a27e0b"><path d="M 226 111 L 318.75 111 L 318.75 196 L 226 196 Z M 226 111 " clip-rule="nonzero"/></clipPath><clipPath id="b93ff3c051"><path d="M 96 87.09375 L 198 87.09375 L 198 187 L 96 187 Z M 96 87.09375 " clip-rule="nonzero"/></clipPath><clipPath id="c17fc8fd81"><path d="M 56.25 112 L 150 112 L 150 196 L 56.25 196 Z M 56.25 112 " clip-rule="nonzero"/></clipPath></defs><path fill="#203a72" d="M 142.324219 236.257812 C 151.964844 236.257812 159.953125 228.539062 159.953125 218.613281 C 159.953125 208.960938 152.242188 200.964844 142.324219 200.964844 C 132.683594 200.964844 124.695312 208.6875 124.695312 218.613281 C 124.96875 228.539062 132.683594 236.257812 142.324219 236.257812 Z M 142.324219 236.257812 " fill-opacity="1" fill-rule="nonzero"/><path fill="#203a72" d="M 163.535156 248.113281 C 160.230469 243.703125 154.71875 240.945312 148.933594 240.945312 L 135.988281 240.945312 C 126.621094 240.945312 118.632812 248.113281 117.53125 257.488281 L 115.605469 272.652344 C 115.328125 274.582031 116.707031 276.511719 118.632812 276.789062 C 126.070312 278.445312 134.058594 279.269531 142.597656 279.269531 C 145.90625 279.269531 149.210938 279.269531 152.515625 278.71875 L 154.167969 265.207031 C 154.71875 258.589844 158.300781 252.25 163.535156 248.113281 Z M 163.535156 248.113281 " fill-opacity="1" fill-rule="nonzero"/><path fill="#203a72" d="M 213.667969 218.886719 C 213.667969 228.539062 221.382812 236.535156 231.296875 236.535156 C 240.941406 236.535156 248.929688 228.8125 248.929688 218.886719 C 248.929688 209.238281 241.214844 201.242188 231.296875 201.242188 C 221.382812 201.242188 213.667969 209.238281 213.667969 218.886719 Z M 213.667969 218.886719 " fill-opacity="1" fill-rule="nonzero"/><path fill="#203a72" d="M 256.089844 257.488281 C 254.988281 248.113281 247 240.945312 237.632812 240.945312 L 224.6875 240.945312 C 218.902344 240.945312 213.667969 243.703125 210.089844 248.113281 C 215.320312 252.25 218.628906 258.316406 219.453125 265.484375 L 221.105469 278.996094 C 224.410156 279.269531 227.71875 279.546875 231.023438 279.546875 C 239.285156 279.546875 247.277344 278.71875 254.988281 277.066406 C 256.917969 276.511719 258.292969 274.859375 258.019531 272.929688 Z M 256.089844 257.488281 " fill-opacity="1" fill-rule="nonzero"/><g clip-path="url(#bb056bfd60)"><path fill="#203a72" d="M 193.285156 250.042969 L 180.339844 250.042969 C 170.972656 250.042969 162.984375 257.214844 161.882812 266.585938 L 159.953125 281.476562 C 159.679688 283.40625 161.054688 285.335938 162.984375 285.613281 C 170.421875 287.265625 178.410156 288.09375 186.949219 288.09375 C 195.214844 288.09375 203.203125 287.265625 210.914062 285.613281 C 212.84375 285.335938 214.21875 283.40625 213.945312 281.476562 L 212.015625 266.3125 C 210.640625 256.9375 202.652344 250.042969 193.285156 250.042969 Z M 193.285156 250.042969 " fill-opacity="1" fill-rule="nonzero"/></g><path fill="#203a72" d="M 169.320312 227.710938 C 169.320312 237.359375 177.03125 245.355469 186.949219 245.355469 C 196.589844 245.355469 204.578125 237.359375 204.578125 227.710938 C 204.578125 218.0625 196.589844 210.066406 186.949219 210.066406 C 177.03125 210.066406 169.320312 218.0625 169.320312 227.710938 Z M 169.320312 227.710938 " fill-opacity="1" fill-rule="nonzero"/><path fill="#0c77e2" d="M 179.234375 109.152344 L 184.46875 152.4375 C 185.019531 156.300781 188.328125 159.332031 192.183594 159.332031 L 204.304688 159.332031 L 204.304688 184.972656 C 204.304688 185.527344 204.578125 186.078125 205.128906 186.351562 C 205.40625 186.351562 205.40625 186.351562 205.679688 186.351562 C 205.957031 186.351562 206.507812 186.078125 206.78125 185.800781 L 227.441406 159.332031 L 273.445312 159.332031 C 277.578125 159.332031 280.882812 156.300781 281.433594 152.164062 L 286.941406 99.5 C 287.492188 94.539062 283.359375 90.402344 278.402344 90.953125 L 186.671875 100.605469 C 181.992188 100.878906 178.960938 104.738281 179.234375 109.152344 Z M 179.234375 109.152344 " fill-opacity="0.75" fill-rule="nonzero"/><g clip-path="url(#56b6a27e0b)"><path fill="#00a552" d="M 272.34375 111.082031 C 247 111.082031 226.066406 126.523438 226.066406 145.546875 C 226.066406 158.230469 235.429688 169.808594 250.03125 175.601562 L 244.519531 193.796875 C 244.246094 194.898438 245.347656 195.726562 246.171875 194.898438 L 268.484375 179.734375 C 269.589844 179.734375 270.964844 179.734375 272.066406 179.734375 C 297.410156 179.734375 318.34375 164.296875 318.34375 145.269531 C 318.621094 126.523438 297.960938 111.082031 272.34375 111.082031 Z M 272.34375 111.082031 " fill-opacity="0.75" fill-rule="nonzero"/></g><g clip-path="url(#b93ff3c051)"><path fill="#f24825" d="M 147.007812 87.09375 C 175.105469 87.09375 197.96875 104.1875 197.96875 125.144531 C 197.96875 139.757812 186.671875 152.992188 169.320312 159.332031 L 169.320312 184.972656 C 169.320312 185.527344 169.042969 186.078125 168.492188 186.078125 C 168.492188 186.078125 168.21875 186.078125 168.21875 186.078125 C 167.667969 186.078125 167.390625 185.800781 167.117188 185.527344 L 151.691406 162.917969 C 150.3125 162.917969 148.660156 163.191406 147.28125 163.191406 C 119.183594 163.191406 96.320312 146.097656 96.320312 125.144531 C 96.320312 104.1875 118.910156 87.09375 147.007812 87.09375 Z M 147.007812 87.09375 " fill-opacity="0.75" fill-rule="nonzero"/></g><g clip-path="url(#c17fc8fd81)"><path fill="#ffc107" d="M 149.761719 128.453125 L 145.355469 165.675781 C 144.804688 168.984375 142.046875 171.738281 138.46875 171.738281 L 128 171.738281 L 128 194.074219 C 128 194.625 127.722656 194.898438 127.171875 195.175781 C 127.171875 195.175781 126.898438 195.175781 126.898438 195.175781 C 126.621094 195.175781 126.070312 194.898438 126.070312 194.625 L 108.167969 171.738281 L 68.5 171.738281 C 64.917969 171.738281 62.164062 168.984375 61.613281 165.675781 L 56.929688 119.90625 C 56.378906 115.492188 60.234375 111.910156 64.367188 112.460938 L 143.703125 120.730469 C 147.558594 121.28125 150.3125 124.589844 149.761719 128.453125 Z M 149.761719 128.453125 " fill-opacity="0.75" fill-rule="nonzero"/></g></svg>