<svg xmlns="http://www.w3.org/2000/svg" xmlns:xlink="http://www.w3.org/1999/xlink" width="500" zoomAndPan="magnify" viewBox="0 0 375 374.999991" height="500" preserveAspectRatio="xMidYMid meet" version="1.0"><defs><clipPath id="a2fde35746"><path d="M 56.25 40 L 318.75 40 L 318.75 335 L 56.25 335 Z M 56.25 40 " clip-rule="nonzero"/></clipPath><clipPath id="f4e144ae5c"><path d="M 187 113 L 318.75 113 L 318.75 261 L 187 261 Z M 187 113 " clip-rule="nonzero"/></clipPath></defs><g clip-path="url(#a2fde35746)"><path fill="#5c8dbc" d="M 318.335938 126.929688 C 318.335938 121.984375 317.269531 117.617188 315.128906 113.863281 C 313.03125 110.175781 309.886719 107.085938 305.667969 104.644531 C 270.820312 84.558594 235.953125 64.53125 201.117188 44.425781 C 191.730469 39.007812 182.625 39.203125 173.308594 44.703125 C 159.441406 52.878906 90.007812 92.648438 69.3125 104.632812 C 60.796875 109.5625 56.648438 117.109375 56.648438 126.921875 C 56.632812 167.316406 56.648438 207.707031 56.632812 248.105469 C 56.636719 252.9375 57.648438 257.21875 59.695312 260.914062 C 61.796875 264.710938 64.988281 267.894531 69.304688 270.394531 C 89.996094 282.371094 159.433594 322.136719 173.300781 330.316406 C 182.628906 335.824219 191.734375 336.019531 201.125 330.59375 C 235.960938 310.484375 270.835938 290.460938 305.683594 270.382812 C 310.003906 267.886719 313.1875 264.703125 315.296875 260.902344 C 317.335938 257.21875 318.347656 252.929688 318.347656 248.085938 C 318.347656 248.085938 318.347656 167.328125 318.339844 126.929688 " fill-opacity="1" fill-rule="nonzero"/></g><path fill="#1a4674" d="M 187.890625 187.117188 L 59.695312 260.914062 C 61.796875 264.710938 64.988281 267.894531 69.304688 270.394531 C 89.996094 282.371094 159.433594 322.132812 173.300781 330.316406 C 182.628906 335.824219 191.734375 336.015625 201.125 330.589844 C 235.960938 310.484375 270.835938 290.457031 305.683594 270.382812 C 310.003906 267.882812 313.1875 264.699219 315.296875 260.902344 L 187.894531 187.117188 " fill-opacity="1" fill-rule="nonzero"/><path fill="#1a4674" d="M 149.921875 208.976562 C 157.378906 222 171.402344 230.78125 187.488281 230.78125 C 203.679688 230.78125 217.777344 221.886719 225.203125 208.730469 L 187.890625 187.117188 L 149.921875 208.976562 " fill-opacity="1" fill-rule="nonzero"/><g clip-path="url(#f4e144ae5c)"><path fill="#1b598e" d="M 318.335938 126.929688 C 318.335938 121.984375 317.269531 117.617188 315.128906 113.863281 L 187.890625 187.117188 L 315.292969 260.902344 C 317.332031 257.214844 318.34375 252.925781 318.34375 248.085938 C 318.34375 248.085938 318.34375 167.328125 318.335938 126.929688 " fill-opacity="1" fill-rule="nonzero"/></g><path fill="#ffffff" d="M 311.332031 192.390625 L 301.378906 192.390625 L 301.378906 202.339844 L 291.414062 202.339844 L 291.414062 192.390625 L 281.460938 192.390625 L 281.460938 182.4375 L 291.414062 182.4375 L 291.414062 172.488281 L 301.378906 172.488281 L 301.378906 182.4375 L 311.332031 182.4375 L 311.332031 192.390625 " fill-opacity="1" fill-rule="nonzero"/><path fill="#ffffff" d="M 275 192.390625 L 265.046875 192.390625 L 265.046875 202.339844 L 255.09375 202.339844 L 255.09375 192.390625 L 245.140625 192.390625 L 245.140625 182.4375 L 255.09375 182.4375 L 255.09375 172.488281 L 265.046875 172.488281 L 265.046875 182.4375 L 275 182.4375 L 275 192.390625 " fill-opacity="1" fill-rule="nonzero"/><path fill="#ffffff" d="M 225.203125 208.730469 C 217.777344 221.886719 203.679688 230.78125 187.488281 230.78125 C 171.402344 230.78125 157.378906 222 149.921875 208.976562 C 146.296875 202.648438 144.214844 195.328125 144.214844 187.507812 C 144.214844 163.613281 163.589844 144.242188 187.488281 144.242188 C 203.472656 144.242188 217.421875 152.914062 224.917969 165.804688 L 262.742188 144.027344 C 247.710938 118.074219 219.644531 100.617188 187.488281 100.617188 C 139.492188 100.617188 100.578125 139.519531 100.578125 187.507812 C 100.578125 203.253906 104.769531 218.015625 112.089844 230.75 C 127.085938 256.835938 155.238281 274.40625 187.488281 274.40625 C 219.808594 274.40625 247.996094 256.765625 262.96875 230.609375 L 225.203125 208.730469 " fill-opacity="1" fill-rule="nonzero"/></svg>