<svg xmlns="http://www.w3.org/2000/svg" xmlns:xlink="http://www.w3.org/1999/xlink" width="500" zoomAndPan="magnify" viewBox="0 0 375 374.999991" height="500" preserveAspectRatio="xMidYMid meet" version="1.0"><defs><clipPath id="7a0e50a914"><path d="M 56.25 43.859375 L 318.75 43.859375 L 318.75 331.109375 L 56.25 331.109375 Z M 56.25 43.859375 " clip-rule="nonzero"/></clipPath></defs><g clip-path="url(#7a0e50a914)"><path fill="#000000" d="M 187.5 43.859375 C 183.035156 43.859375 178.570312 44.984375 174.59375 47.226562 L 69.40625 106.332031 C 61.355469 110.84375 56.351562 119.308594 56.351562 128.382812 L 56.351562 246.589844 C 56.351562 255.664062 61.355469 264.128906 69.40625 268.640625 L 174.59375 327.746094 C 178.570312 329.988281 183.035156 331.109375 187.5 331.109375 C 191.964844 331.109375 196.429688 329.988281 200.40625 327.746094 L 305.59375 268.664062 C 313.644531 264.128906 318.648438 255.664062 318.648438 246.589844 L 318.648438 128.382812 C 318.648438 119.308594 313.644531 110.84375 305.59375 106.332031 L 200.40625 47.226562 C 196.429688 44.984375 191.964844 43.859375 187.5 43.859375 Z M 187.5 112.550781 C 211.113281 112.550781 232.949219 123.503906 247.097656 142.140625 L 219.726562 157.996094 C 211.503906 148.996094 199.820312 143.773438 187.5 143.773438 C 163.398438 143.773438 143.785156 163.386719 143.785156 187.484375 C 143.785156 211.585938 163.398438 231.199219 187.5 231.199219 C 199.820312 231.199219 211.503906 225.976562 219.726562 216.976562 L 247.097656 232.832031 C 232.949219 251.46875 211.113281 262.421875 187.5 262.421875 C 146.175781 262.421875 112.558594 228.808594 112.558594 187.484375 C 112.558594 146.164062 146.175781 112.550781 187.5 112.550781 Z M 249.949219 156.261719 L 262.441406 156.261719 L 262.441406 168.753906 L 274.929688 168.753906 L 274.929688 156.261719 L 287.421875 156.261719 L 287.421875 168.753906 L 299.910156 168.753906 L 299.910156 181.242188 L 287.421875 181.242188 L 287.421875 193.730469 L 299.910156 193.730469 L 299.910156 206.21875 L 287.421875 206.21875 L 287.421875 218.707031 L 274.929688 218.707031 L 274.929688 206.21875 L 262.441406 206.21875 L 262.441406 218.707031 L 249.949219 218.707031 L 249.949219 206.21875 L 237.460938 206.21875 L 237.460938 193.730469 L 249.949219 193.730469 L 249.949219 181.242188 L 237.460938 181.242188 L 237.460938 168.753906 L 249.949219 168.753906 Z M 262.441406 181.242188 L 262.441406 193.730469 L 274.929688 193.730469 L 274.929688 181.242188 Z M 262.441406 181.242188 " fill-opacity="1" fill-rule="nonzero"/></g></svg>