<?xml version="1.0" encoding="UTF-8"?>
<svg width="24" height="24" viewBox="0 0 24 24" fill="none" xmlns="http://www.w3.org/2000/svg">
  <path d="M12 2C6.477 2 2 6.477 2 12C2 16.991 5.657 21.128 10.438 22V18.346C10.438 18.346 10.438 18.346 10.438 18.346C7.039 18.346 6.531 16.891 6.531 16.891C6.022 15.437 5.006 15.184 5.006 15.184C3.989 14.677 5.514 14.677 5.514 14.677C7.039 14.931 7.547 15.437 7.547 15.437C8.817 17.145 10.947 16.891 10.947 16.891C10.947 15.437 11.709 14.677 11.709 14.677C9.168 14.424 6.531 13.477 6.531 9.07C6.531 7.869 7.039 6.922 7.547 6.161C7.547 6.161 7.039 4.961 7.547 3.506C7.547 3.506 8.817 3.506 10.438 4.707C11.201 4.453 11.963 4.2 12.725 4.2C13.488 4.2 14.25 4.453 15.012 4.707C16.633 3.506 17.904 3.506 17.904 3.506C18.412 4.961 17.904 6.161 17.904 6.161C18.412 6.922 18.92 7.869 18.92 9.07C18.92 13.477 16.283 14.424 13.742 14.677C14.25 15.184 14.504 15.944 14.504 16.891V22C19.285 21.128 22.942 16.991 22.942 12C22.942 6.477 18.465 2 12.942 2H12Z" stroke="currentColor" stroke-width="2" stroke-linecap="round" stroke-linejoin="round"/>
</svg> 