<?xml version="1.0" encoding="UTF-8"?>
<svg width="24" height="24" viewBox="0 0 24 24" fill="none" xmlns="http://www.w3.org/2000/svg">
  <path d="M6 2H18V4C18 4 22 4 22 8C22 12 18 12 18 12H6C6 12 2 12 2 8C2 4 6 4 6 4V2Z" stroke="currentColor" stroke-width="2"/>
  <path d="M6 12V18C6 20.2091 7.79086 22 10 22H14C16.2091 22 18 20.2091 18 18V12" stroke="currentColor" stroke-width="2"/>
  <path d="M9 8H15M9 16H15" stroke="currentColor" stroke-width="2" stroke-linecap="round"/>
  <circle cx="8" cy="12" r="1" fill="currentColor"/>
  <circle cx="16" cy="12" r="1" fill="currentColor"/>
</svg> 