<svg xmlns="http://www.w3.org/2000/svg" xmlns:xlink="http://www.w3.org/1999/xlink" width="500" zoomAndPan="magnify" viewBox="0 0 375 374.999991" height="500" preserveAspectRatio="xMidYMid meet" version="1.0"><defs><clipPath id="7c9616d4e0"><path d="M 56.25 37.5 L 318.75 37.5 L 318.75 136 L 56.25 136 Z M 56.25 37.5 " clip-rule="nonzero"/></clipPath><clipPath id="9ff581ff06"><path d="M 93 140 L 318.75 140 L 318.75 337.5 L 93 337.5 Z M 93 140 " clip-rule="nonzero"/></clipPath><clipPath id="5358f9b4fe"><path d="M 309 121 L 318.75 121 L 318.75 132 L 309 132 Z M 309 121 " clip-rule="nonzero"/></clipPath></defs><path fill="#6ab9e2" d="M 257.8125 42.1875 L 314.0625 98.4375 L 257.8125 98.4375 Z M 257.8125 42.1875 " fill-opacity="1" fill-rule="nonzero"/><path fill="#0559b1" d="M 314.0625 98.4375 L 314.0625 332.8125 L 98.4375 332.8125 L 98.4375 42.1875 L 257.8125 42.1875 L 257.8125 98.4375 Z M 314.0625 98.4375 " fill-opacity="1" fill-rule="nonzero"/><path fill="#044994" d="M 107.8125 79.6875 L 107.8125 304.6875 C 107.8125 305.300781 107.84375 305.914062 107.902344 306.523438 C 107.964844 307.136719 108.054688 307.742188 108.171875 308.34375 C 108.292969 308.949219 108.441406 309.542969 108.621094 310.128906 C 108.796875 310.71875 109.003906 311.296875 109.238281 311.863281 C 109.476562 312.429688 109.738281 312.984375 110.027344 313.527344 C 110.316406 314.066406 110.632812 314.59375 110.972656 315.105469 C 111.3125 315.613281 111.679688 316.109375 112.070312 316.582031 C 112.457031 317.058594 112.871094 317.511719 113.304688 317.945312 C 113.738281 318.378906 114.191406 318.792969 114.667969 319.179688 C 115.140625 319.570312 115.636719 319.9375 116.144531 320.277344 C 116.65625 320.617188 117.183594 320.933594 117.722656 321.222656 C 118.265625 321.511719 118.820312 321.773438 119.386719 322.011719 C 119.953125 322.246094 120.53125 322.453125 121.121094 322.628906 C 121.707031 322.808594 122.300781 322.957031 122.90625 323.078125 C 123.507812 323.195312 124.113281 323.285156 124.726562 323.347656 C 125.335938 323.40625 125.949219 323.4375 126.5625 323.4375 L 285.9375 323.4375 C 286.550781 323.4375 287.164062 323.40625 287.773438 323.347656 C 288.386719 323.285156 288.992188 323.195312 289.59375 323.078125 C 290.199219 322.957031 290.792969 322.808594 291.378906 322.628906 C 291.96875 322.453125 292.546875 322.246094 293.113281 322.011719 C 293.679688 321.773438 294.234375 321.511719 294.777344 321.222656 C 295.316406 320.933594 295.84375 320.617188 296.355469 320.277344 C 296.863281 319.9375 297.359375 319.570312 297.832031 319.179688 C 298.308594 318.792969 298.761719 318.378906 299.195312 317.945312 C 299.628906 317.511719 300.042969 317.058594 300.429688 316.582031 C 300.820312 316.109375 301.1875 315.613281 301.527344 315.105469 C 301.867188 314.59375 302.183594 314.066406 302.472656 313.527344 C 302.761719 312.984375 303.023438 312.429688 303.261719 311.863281 C 303.496094 311.296875 303.703125 310.71875 303.878906 310.128906 C 304.058594 309.542969 304.207031 308.949219 304.328125 308.34375 C 304.445312 307.742188 304.535156 307.136719 304.597656 306.523438 C 304.65625 305.914062 304.6875 305.300781 304.6875 304.6875 L 304.6875 294.734375 C 107.8125 282.605469 107.8125 79.6875 107.8125 79.6875 Z M 107.8125 79.6875 " fill-opacity="1" fill-rule="nonzero"/><path fill="#023668" d="M 262.5 98.4375 L 314.0625 98.4375 L 314.0625 107.8125 L 262.5 107.8125 Z M 262.5 98.4375 " fill-opacity="1" fill-rule="nonzero"/><path fill="#51d4ff" d="M 201.328125 187.734375 C 202.46875 188.875 203.519531 190.09375 204.480469 191.390625 C 205.441406 192.6875 206.304688 194.046875 207.066406 195.46875 C 207.824219 196.890625 208.476562 198.363281 209.023438 199.882812 C 209.566406 201.402344 209.996094 202.953125 210.308594 204.535156 C 210.625 206.117188 210.820312 207.714844 210.898438 209.328125 C 210.980469 210.9375 210.941406 212.546875 210.78125 214.152344 C 210.625 215.757812 210.347656 217.34375 209.957031 218.910156 C 209.5625 220.476562 209.058594 222.003906 208.441406 223.496094 C 207.824219 224.984375 207.101562 226.421875 206.269531 227.808594 C 205.441406 229.191406 204.515625 230.507812 203.492188 231.753906 C 202.46875 233 201.359375 234.167969 200.160156 235.25 C 198.964844 236.335938 197.699219 237.324219 196.355469 238.222656 C 195.015625 239.117188 193.613281 239.910156 192.15625 240.601562 C 190.695312 241.289062 189.195312 241.871094 187.652344 242.335938 C 186.105469 242.804688 184.535156 243.160156 182.941406 243.394531 C 181.34375 243.632812 179.738281 243.75 178.125 243.75 L 164.0625 243.75 L 164.0625 281.25 L 145.3125 281.25 L 145.3125 178.125 L 178.125 178.125 C 180.28125 178.121094 182.414062 178.324219 184.53125 178.742188 C 186.644531 179.160156 188.695312 179.78125 190.6875 180.605469 C 192.679688 181.429688 194.570312 182.445312 196.363281 183.644531 C 198.152344 184.84375 199.808594 186.207031 201.328125 187.734375 Z M 192.1875 210.9375 C 192.1875 210.015625 192.097656 209.101562 191.917969 208.195312 C 191.738281 207.289062 191.46875 206.410156 191.117188 205.554688 C 190.765625 204.703125 190.332031 203.890625 189.816406 203.125 C 189.304688 202.355469 188.722656 201.648438 188.070312 200.992188 C 187.414062 200.339844 186.707031 199.757812 185.9375 199.246094 C 185.171875 198.730469 184.359375 198.296875 183.507812 197.945312 C 182.652344 197.59375 181.773438 197.324219 180.867188 197.144531 C 179.960938 196.964844 179.046875 196.875 178.125 196.875 L 164.0625 196.875 L 164.0625 225 L 178.125 225 C 179.046875 225 179.960938 224.910156 180.867188 224.730469 C 181.773438 224.550781 182.652344 224.28125 183.507812 223.929688 C 184.359375 223.574219 185.171875 223.144531 185.9375 222.628906 C 186.707031 222.117188 187.414062 221.535156 188.070312 220.882812 C 188.722656 220.226562 189.304688 219.519531 189.816406 218.75 C 190.332031 217.984375 190.765625 217.171875 191.117188 216.320312 C 191.46875 215.464844 191.738281 214.585938 191.917969 213.679688 C 192.097656 212.773438 192.1875 211.859375 192.1875 210.9375 Z M 192.1875 210.9375 " fill-opacity="1" fill-rule="nonzero"/><path fill="#51d4ff" d="M 267.1875 214.125 L 267.1875 229.921875 C 267.140625 229.875 255.84375 222.046875 247.640625 222.046875 C 244.171875 222.046875 239.859375 222.46875 239.859375 225.984375 C 239.859375 228.984375 242.953125 231.09375 249.5625 234.9375 C 257.015625 239.203125 267.1875 245.109375 267.1875 257.578125 C 267.246094 258.363281 267.261719 259.148438 267.238281 259.9375 C 267.214844 260.722656 267.144531 261.507812 267.039062 262.285156 C 266.929688 263.066406 266.777344 263.835938 266.585938 264.601562 C 266.394531 265.363281 266.164062 266.113281 265.890625 266.855469 C 265.621094 267.59375 265.308594 268.316406 264.960938 269.019531 C 264.609375 269.726562 264.226562 270.410156 263.800781 271.074219 C 263.378906 271.738281 262.921875 272.378906 262.433594 272.996094 C 261.941406 273.609375 261.417969 274.195312 260.863281 274.757812 C 260.3125 275.316406 259.730469 275.84375 259.117188 276.339844 C 258.507812 276.839844 257.871094 277.300781 257.210938 277.730469 C 256.550781 278.160156 255.871094 278.550781 255.167969 278.910156 C 254.46875 279.265625 253.75 279.582031 253.011719 279.863281 C 252.277344 280.140625 251.527344 280.378906 250.765625 280.578125 C 250.003906 280.777344 249.234375 280.9375 248.457031 281.054688 C 247.675781 281.167969 246.894531 281.246094 246.109375 281.277344 C 245.320312 281.308594 244.535156 281.300781 243.75 281.25 C 228.046875 281.25 220.734375 273.984375 220.3125 273.375 L 220.3125 257.578125 C 220.359375 257.625 236.578125 265.453125 243.75 265.453125 C 250.59375 265.453125 251.578125 261.65625 251.578125 257.578125 C 251.578125 254.578125 248.4375 252.46875 241.828125 248.625 C 234.375 244.359375 224.203125 238.453125 224.203125 225.984375 C 224.144531 225.328125 224.125 224.671875 224.140625 224.011719 C 224.15625 223.355469 224.203125 222.699219 224.289062 222.042969 C 224.375 221.390625 224.496094 220.746094 224.652344 220.105469 C 224.808594 219.464844 225 218.835938 225.222656 218.214844 C 225.445312 217.597656 225.703125 216.992188 225.992188 216.398438 C 226.285156 215.808594 226.605469 215.234375 226.957031 214.679688 C 227.308594 214.121094 227.691406 213.585938 228.101562 213.070312 C 228.511719 212.554688 228.949219 212.0625 229.410156 211.59375 C 229.875 211.125 230.363281 210.683594 230.875 210.269531 C 231.382812 209.855469 231.917969 209.46875 232.46875 209.113281 C 233.023438 208.753906 233.59375 208.425781 234.183594 208.132812 C 234.773438 207.835938 235.375 207.574219 235.992188 207.34375 C 236.609375 207.113281 237.238281 206.917969 237.875 206.757812 C 238.515625 206.59375 239.160156 206.46875 239.8125 206.375 C 240.464844 206.28125 241.117188 206.226562 241.777344 206.207031 C 242.4375 206.183594 243.09375 206.199219 243.75 206.25 C 263.296875 206.25 267.1875 214.125 267.1875 214.125 Z M 267.1875 214.125 " fill-opacity="1" fill-rule="nonzero"/><path fill="#023668" d="M 164.0625 243.75 L 164.0625 248.4375 L 173.4375 248.4375 C 175.871094 248.441406 178.277344 248.175781 180.652344 247.640625 C 183.027344 247.109375 185.316406 246.320312 187.515625 245.277344 C 189.714844 244.230469 191.773438 242.957031 193.6875 241.453125 C 195.605469 239.953125 197.332031 238.253906 198.867188 236.367188 C 195.941406 238.761719 192.699219 240.589844 189.136719 241.859375 C 185.574219 243.125 181.90625 243.757812 178.125 243.75 Z M 164.0625 243.75 " fill-opacity="1" fill-rule="nonzero"/><path fill="#023668" d="M 178.125 196.875 L 164.0625 196.875 L 164.0625 201.5625 L 173.4375 201.5625 C 174.6875 201.558594 175.914062 201.714844 177.121094 202.039062 C 178.324219 202.363281 179.46875 202.839844 180.546875 203.46875 C 181.625 204.09375 182.601562 204.855469 183.480469 205.746094 C 184.355469 206.636719 185.097656 207.625 185.707031 208.714844 C 186.320312 209.804688 186.777344 210.953125 187.078125 212.164062 C 187.382812 213.375 187.519531 214.605469 187.496094 215.855469 C 187.46875 217.101562 187.28125 218.324219 186.925781 219.523438 C 186.574219 220.722656 186.070312 221.851562 185.414062 222.914062 C 186.058594 222.515625 186.671875 222.070312 187.246094 221.574219 C 187.816406 221.078125 188.347656 220.539062 188.835938 219.957031 C 189.320312 219.371094 189.757812 218.753906 190.144531 218.101562 C 190.53125 217.449219 190.863281 216.769531 191.140625 216.0625 C 191.414062 215.355469 191.632812 214.632812 191.792969 213.890625 C 191.953125 213.148438 192.050781 212.398438 192.089844 211.640625 C 192.128906 210.882812 192.105469 210.128906 192.019531 209.375 C 191.933594 208.621094 191.789062 207.878906 191.585938 207.148438 C 191.382812 206.414062 191.121094 205.707031 190.800781 205.019531 C 190.480469 204.328125 190.109375 203.671875 189.683594 203.042969 C 189.257812 202.414062 188.78125 201.828125 188.261719 201.273438 C 187.742188 200.722656 187.179688 200.21875 186.574219 199.757812 C 185.972656 199.296875 185.335938 198.886719 184.667969 198.53125 C 183.996094 198.175781 183.304688 197.871094 182.585938 197.628906 C 181.867188 197.382812 181.132812 197.199219 180.386719 197.070312 C 179.636719 196.945312 178.882812 196.878906 178.125 196.875 Z M 178.125 196.875 " fill-opacity="1" fill-rule="nonzero"/><path fill="#023668" d="M 145.3125 182.8125 L 140.625 182.8125 L 140.625 285.9375 L 159.375 285.9375 L 159.375 281.25 L 145.3125 281.25 Z M 145.3125 182.8125 " fill-opacity="1" fill-rule="nonzero"/><path fill="#023668" d="M 262.5 234.609375 L 262.5 227.0625 C 257.9375 224.238281 252.984375 222.566406 247.640625 222.046875 C 244.171875 222.046875 239.859375 222.46875 239.859375 225.984375 C 239.863281 226.300781 239.902344 226.613281 239.980469 226.921875 C 240.96875 226.808594 241.960938 226.753906 242.953125 226.757812 C 251.15625 226.734375 262.453125 234.5625 262.5 234.609375 Z M 262.5 234.609375 " fill-opacity="1" fill-rule="nonzero"/><path fill="#023668" d="M 251.578125 257.578125 C 251.578125 254.578125 248.4375 252.46875 241.828125 248.625 C 234.375 244.359375 224.203125 238.453125 224.203125 225.984375 C 224.148438 223.878906 224.398438 221.8125 224.957031 219.78125 C 225.515625 217.75 226.359375 215.84375 227.484375 214.0625 C 226.164062 214.988281 224.980469 216.066406 223.9375 217.296875 C 222.894531 218.527344 222.023438 219.871094 221.324219 221.324219 C 220.628906 222.777344 220.125 224.296875 219.816406 225.882812 C 219.511719 227.464844 219.410156 229.0625 219.515625 230.671875 C 219.515625 243.140625 229.6875 249.046875 237.140625 253.3125 C 243.75 257.15625 246.890625 259.265625 246.890625 262.265625 C 246.902344 263.226562 246.820312 264.179688 246.640625 265.125 C 250.84375 264.15625 251.578125 260.980469 251.578125 257.578125 Z M 251.578125 257.578125 " fill-opacity="1" fill-rule="nonzero"/><path fill="#023668" d="M 220.3125 273.375 L 220.3125 264.40625 C 217.546875 263.203125 215.625 262.28125 215.625 262.265625 L 215.625 278.0625 C 216.046875 278.671875 223.359375 285.9375 239.0625 285.9375 C 240.894531 286.027344 242.710938 285.894531 244.507812 285.539062 C 246.308594 285.183594 248.035156 284.617188 249.695312 283.839844 C 251.355469 283.058594 252.898438 282.09375 254.320312 280.9375 C 255.742188 279.78125 257.007812 278.46875 258.109375 277.003906 C 255.996094 278.445312 253.714844 279.527344 251.261719 280.253906 C 248.808594 280.980469 246.304688 281.3125 243.75 281.25 C 228.046875 281.25 220.734375 273.984375 220.3125 273.375 Z M 220.3125 273.375 " fill-opacity="1" fill-rule="nonzero"/><path fill="#f2f2f2" d="M 60.9375 56.25 L 229.6875 56.25 L 229.6875 131.25 L 60.9375 131.25 Z M 60.9375 56.25 " fill-opacity="1" fill-rule="nonzero"/><path fill="#023668" d="M 98.4375 131.25 L 220.3125 131.25 L 220.3125 145.3125 L 98.4375 145.3125 Z M 98.4375 131.25 " fill-opacity="1" fill-rule="nonzero"/><path fill="#cdd1d6" d="M 107.8125 79.6875 L 98.4375 79.6875 L 98.4375 84.375 L 103.125 84.375 C 103.433594 84.375 103.738281 84.40625 104.039062 84.464844 C 104.339844 84.523438 104.632812 84.613281 104.917969 84.730469 C 105.203125 84.847656 105.472656 84.992188 105.730469 85.164062 C 105.984375 85.335938 106.222656 85.53125 106.441406 85.746094 C 106.65625 85.964844 106.851562 86.203125 107.023438 86.457031 C 107.195312 86.714844 107.339844 86.984375 107.457031 87.269531 C 107.574219 87.554688 107.664062 87.847656 107.722656 88.148438 C 107.78125 88.449219 107.8125 88.753906 107.8125 89.0625 C 108.425781 89.070312 109.011719 88.953125 109.578125 88.71875 C 110.140625 88.484375 110.636719 88.148438 111.066406 87.710938 C 111.523438 87.28125 111.878906 86.773438 112.128906 86.191406 C 112.378906 85.613281 112.503906 85.007812 112.5 84.375 C 112.5 84.066406 112.46875 83.761719 112.410156 83.460938 C 112.351562 83.160156 112.261719 82.867188 112.144531 82.582031 C 112.023438 82.296875 111.882812 82.027344 111.710938 81.769531 C 111.539062 81.515625 111.34375 81.277344 111.128906 81.058594 C 110.910156 80.84375 110.671875 80.648438 110.417969 80.476562 C 110.160156 80.304688 109.890625 80.160156 109.605469 80.042969 C 109.320312 79.925781 109.027344 79.835938 108.726562 79.777344 C 108.425781 79.71875 108.121094 79.6875 107.8125 79.6875 Z M 107.8125 79.6875 " fill-opacity="1" fill-rule="nonzero"/><path fill="#cdd1d6" d="M 89.0625 93.75 L 89.0625 75 C 88.753906 75 88.449219 75.03125 88.148438 75.089844 C 87.847656 75.148438 87.554688 75.238281 87.269531 75.355469 C 86.984375 75.472656 86.714844 75.617188 86.457031 75.789062 C 86.203125 75.960938 85.964844 76.15625 85.746094 76.371094 C 85.53125 76.589844 85.335938 76.828125 85.164062 77.082031 C 84.992188 77.339844 84.847656 77.609375 84.730469 77.894531 C 84.613281 78.179688 84.523438 78.472656 84.464844 78.773438 C 84.40625 79.074219 84.375 79.378906 84.375 79.6875 L 84.375 121.875 L 93.75 121.875 L 93.75 117.1875 L 89.0625 117.1875 Z M 89.0625 93.75 " fill-opacity="1" fill-rule="nonzero"/><path fill="#cdd1d6" d="M 98.4375 98.4375 L 98.4375 103.125 L 103.125 103.125 C 104.328125 103.125 105.511719 102.972656 106.675781 102.664062 C 107.839844 102.359375 108.945312 101.910156 109.996094 101.320312 C 111.042969 100.726562 112 100.011719 112.863281 99.171875 C 113.722656 98.332031 114.464844 97.398438 115.085938 96.367188 C 112.859375 97.742188 110.433594 98.433594 107.8125 98.4375 Z M 98.4375 98.4375 " fill-opacity="1" fill-rule="nonzero"/><path fill="#cdd1d6" d="M 173.4375 117.1875 C 173.128906 117.1875 172.824219 117.15625 172.523438 117.097656 C 172.222656 117.039062 171.929688 116.949219 171.644531 116.832031 C 171.359375 116.710938 171.089844 116.570312 170.832031 116.398438 C 170.578125 116.226562 170.339844 116.03125 170.121094 115.816406 C 169.90625 115.597656 169.710938 115.359375 169.539062 115.105469 C 169.367188 114.847656 169.222656 114.578125 169.105469 114.292969 C 168.988281 114.007812 168.898438 113.714844 168.839844 113.414062 C 168.78125 113.113281 168.75 112.808594 168.75 112.5 L 168.75 75 C 168.441406 75 168.136719 75.03125 167.835938 75.089844 C 167.535156 75.148438 167.242188 75.238281 166.957031 75.355469 C 166.671875 75.472656 166.402344 75.617188 166.144531 75.789062 C 165.890625 75.960938 165.652344 76.15625 165.433594 76.371094 C 165.21875 76.589844 165.023438 76.828125 164.851562 77.082031 C 164.679688 77.339844 164.535156 77.609375 164.417969 77.894531 C 164.300781 78.179688 164.210938 78.472656 164.152344 78.773438 C 164.09375 79.074219 164.0625 79.378906 164.0625 79.6875 L 164.0625 117.1875 C 164.0625 117.496094 164.09375 117.800781 164.152344 118.101562 C 164.210938 118.402344 164.300781 118.695312 164.417969 118.980469 C 164.535156 119.265625 164.679688 119.535156 164.851562 119.792969 C 165.023438 120.046875 165.21875 120.285156 165.433594 120.503906 C 165.652344 120.71875 165.890625 120.914062 166.144531 121.085938 C 166.402344 121.257812 166.671875 121.398438 166.957031 121.519531 C 167.242188 121.636719 167.535156 121.726562 167.835938 121.785156 C 168.136719 121.84375 168.441406 121.875 168.75 121.875 L 178.125 121.875 C 179.941406 121.871094 181.734375 121.65625 183.5 121.230469 C 185.269531 120.808594 186.960938 120.183594 188.585938 119.367188 C 190.207031 118.546875 191.710938 117.550781 193.101562 116.378906 C 194.492188 115.210938 195.726562 113.894531 196.808594 112.433594 C 194.796875 113.96875 192.59375 115.140625 190.199219 115.953125 C 187.804688 116.769531 185.34375 117.179688 182.8125 117.1875 Z M 173.4375 117.1875 " fill-opacity="1" fill-rule="nonzero"/><path fill="#cdd1d6" d="M 196.875 93.75 C 196.875 92.824219 196.789062 91.910156 196.609375 91.003906 C 196.429688 90.097656 196.164062 89.21875 195.8125 88.363281 C 195.460938 87.511719 195.027344 86.699219 194.515625 85.929688 C 194 85.164062 193.417969 84.453125 192.765625 83.796875 C 192.109375 83.144531 191.398438 82.5625 190.632812 82.046875 C 189.863281 81.535156 189.050781 81.101562 188.199219 80.75 C 187.34375 80.398438 186.464844 80.132812 185.558594 79.953125 C 184.652344 79.773438 183.738281 79.6875 182.8125 79.6875 L 178.125 79.6875 L 178.125 84.375 C 179.050781 84.375 179.964844 84.460938 180.871094 84.640625 C 181.777344 84.820312 182.65625 85.085938 183.511719 85.4375 C 184.363281 85.789062 185.175781 86.222656 185.945312 86.734375 C 186.710938 87.25 187.421875 87.832031 188.078125 88.484375 C 188.730469 89.140625 189.3125 89.851562 189.828125 90.617188 C 190.339844 91.386719 190.773438 92.199219 191.125 93.050781 C 191.476562 93.90625 191.742188 94.785156 191.921875 95.691406 C 192.101562 96.597656 192.1875 97.511719 192.1875 98.4375 C 192.175781 101.0625 191.480469 103.492188 190.097656 105.722656 C 191.128906 105.097656 192.0625 104.355469 192.902344 103.492188 C 193.742188 102.628906 194.460938 101.671875 195.054688 100.625 C 195.648438 99.574219 196.097656 98.46875 196.40625 97.304688 C 196.714844 96.140625 196.871094 94.953125 196.875 93.75 Z M 196.875 93.75 " fill-opacity="1" fill-rule="nonzero"/><path fill="#cdd1d6" d="M 140.625 79.6875 C 140.011719 79.679688 139.425781 79.796875 138.859375 80.03125 C 138.296875 80.265625 137.800781 80.601562 137.371094 81.039062 C 136.914062 81.46875 136.558594 81.976562 136.308594 82.558594 C 136.058594 83.136719 135.933594 83.742188 135.9375 84.375 C 144.5625 84.375 145.261719 88.390625 145.3125 89.0625 L 154.6875 89.0625 C 154.644531 87.429688 154.289062 85.867188 153.625 84.375 L 150 84.375 C 149.949219 83.703125 149.25 79.6875 140.625 79.6875 Z M 140.625 79.6875 " fill-opacity="1" fill-rule="nonzero"/><path fill="#cdd1d6" d="M 127.613281 107.785156 L 126.5625 107.8125 L 121.875 107.8125 C 121.875 112.679688 125.792969 121.875 140.625 121.875 C 141.828125 121.871094 143.015625 121.714844 144.179688 121.40625 C 145.34375 121.097656 146.449219 120.648438 147.5 120.054688 C 148.546875 119.460938 149.503906 118.742188 150.367188 117.902344 C 151.230469 117.0625 151.972656 116.128906 152.597656 115.097656 C 150.367188 116.480469 147.9375 117.175781 145.3125 117.1875 C 134.53125 117.1875 129.539062 112.3125 127.613281 107.785156 Z M 127.613281 107.785156 " fill-opacity="1" fill-rule="nonzero"/><path fill="#cdd1d6" d="M 135.9375 103.125 L 140.625 103.125 C 141.257812 103.121094 141.863281 103.246094 142.441406 103.496094 C 143.023438 103.746094 143.53125 104.101562 143.960938 104.558594 C 144.398438 104.988281 144.734375 105.484375 144.96875 106.046875 C 145.203125 106.613281 145.320312 107.199219 145.3125 107.8125 C 145.621094 107.8125 145.925781 107.78125 146.226562 107.722656 C 146.527344 107.664062 146.820312 107.574219 147.105469 107.457031 C 147.390625 107.335938 147.660156 107.195312 147.917969 107.023438 C 148.171875 106.851562 148.410156 106.65625 148.628906 106.441406 C 148.84375 106.222656 149.039062 105.984375 149.210938 105.730469 C 149.382812 105.472656 149.523438 105.203125 149.644531 104.917969 C 149.761719 104.632812 149.851562 104.339844 149.910156 104.039062 C 149.96875 103.738281 150 103.433594 150 103.125 C 150.007812 102.511719 149.890625 101.925781 149.65625 101.359375 C 149.421875 100.796875 149.085938 100.300781 148.648438 99.871094 C 148.21875 99.414062 147.710938 99.058594 147.128906 98.808594 C 146.550781 98.558594 145.945312 98.433594 145.3125 98.4375 L 140.625 98.4375 C 139.703125 98.4375 138.789062 98.347656 137.882812 98.167969 C 136.976562 97.988281 136.097656 97.71875 135.242188 97.367188 C 134.390625 97.015625 133.578125 96.582031 132.8125 96.066406 C 132.042969 95.554688 131.335938 94.972656 130.679688 94.320312 C 130.027344 93.664062 129.445312 92.957031 128.933594 92.1875 C 128.417969 91.421875 127.984375 90.609375 127.632812 89.757812 C 127.28125 88.902344 127.011719 88.023438 126.832031 87.117188 C 126.652344 86.210938 126.5625 85.296875 126.5625 84.375 C 126.566406 81.742188 127.269531 79.304688 128.664062 77.070312 C 127.710938 77.636719 126.839844 78.3125 126.054688 79.097656 C 124.710938 80.40625 123.675781 81.921875 122.949219 83.652344 C 122.222656 85.382812 121.867188 87.1875 121.875 89.0625 C 121.878906 89.9375 121.964844 90.808594 122.132812 91.667969 C 122.296875 92.53125 122.542969 93.367188 122.867188 94.183594 C 123.1875 95 123.585938 95.777344 124.054688 96.515625 C 124.523438 97.257812 125.054688 97.949219 125.65625 98.589844 C 126.253906 99.230469 126.90625 99.8125 127.613281 100.332031 C 128.316406 100.851562 129.066406 101.300781 129.859375 101.679688 C 130.648438 102.058594 131.46875 102.359375 132.3125 102.585938 C 133.160156 102.8125 134.023438 102.957031 134.898438 103.023438 L 135.9375 102.988281 Z M 135.9375 103.125 " fill-opacity="1" fill-rule="nonzero"/><g clip-path="url(#7c9616d4e0)"><path fill="#000000" d="M 317.375 95.125 L 261.125 38.875 C 260.210938 37.957031 259.105469 37.5 257.8125 37.5 L 98.4375 37.5 C 98.128906 37.5 97.824219 37.53125 97.523438 37.589844 C 97.222656 37.648438 96.929688 37.738281 96.644531 37.855469 C 96.359375 37.972656 96.089844 38.117188 95.832031 38.289062 C 95.578125 38.460938 95.339844 38.65625 95.121094 38.871094 C 94.90625 39.089844 94.710938 39.328125 94.539062 39.582031 C 94.367188 39.839844 94.222656 40.109375 94.105469 40.394531 C 93.988281 40.679688 93.898438 40.972656 93.839844 41.273438 C 93.78125 41.574219 93.75 41.878906 93.75 42.1875 L 93.75 51.5625 L 60.9375 51.5625 C 60.628906 51.5625 60.324219 51.59375 60.023438 51.652344 C 59.722656 51.710938 59.429688 51.800781 59.144531 51.917969 C 58.859375 52.035156 58.589844 52.179688 58.332031 52.351562 C 58.078125 52.523438 57.839844 52.71875 57.621094 52.933594 C 57.40625 53.152344 57.210938 53.390625 57.039062 53.644531 C 56.867188 53.902344 56.722656 54.171875 56.605469 54.457031 C 56.488281 54.742188 56.398438 55.035156 56.339844 55.335938 C 56.28125 55.636719 56.25 55.941406 56.25 56.25 L 56.25 131.25 C 56.25 131.558594 56.28125 131.863281 56.339844 132.164062 C 56.398438 132.464844 56.488281 132.757812 56.605469 133.042969 C 56.722656 133.328125 56.867188 133.597656 57.039062 133.855469 C 57.210938 134.109375 57.40625 134.347656 57.621094 134.566406 C 57.839844 134.78125 58.078125 134.976562 58.332031 135.148438 C 58.589844 135.320312 58.859375 135.460938 59.144531 135.582031 C 59.429688 135.699219 59.722656 135.789062 60.023438 135.847656 C 60.324219 135.90625 60.628906 135.9375 60.9375 135.9375 L 229.6875 135.9375 C 229.996094 135.9375 230.300781 135.90625 230.601562 135.847656 C 230.902344 135.789062 231.195312 135.699219 231.480469 135.582031 C 231.765625 135.460938 232.035156 135.320312 232.292969 135.148438 C 232.546875 134.976562 232.785156 134.78125 233.003906 134.566406 C 233.21875 134.347656 233.414062 134.109375 233.585938 133.855469 C 233.757812 133.597656 233.898438 133.328125 234.019531 133.042969 C 234.136719 132.757812 234.226562 132.464844 234.285156 132.164062 C 234.34375 131.863281 234.375 131.558594 234.375 131.25 L 234.375 56.25 C 234.375 55.941406 234.34375 55.636719 234.285156 55.335938 C 234.226562 55.035156 234.136719 54.742188 234.019531 54.457031 C 233.898438 54.171875 233.757812 53.902344 233.585938 53.644531 C 233.414062 53.390625 233.21875 53.152344 233.003906 52.933594 C 232.785156 52.71875 232.546875 52.523438 232.292969 52.351562 C 232.035156 52.179688 231.765625 52.035156 231.480469 51.917969 C 231.195312 51.800781 230.902344 51.710938 230.601562 51.652344 C 230.300781 51.59375 229.996094 51.5625 229.6875 51.5625 L 103.125 51.5625 L 103.125 46.875 L 253.125 46.875 L 253.125 98.4375 C 253.125 98.746094 253.15625 99.050781 253.214844 99.351562 C 253.273438 99.652344 253.363281 99.945312 253.480469 100.230469 C 253.597656 100.515625 253.742188 100.785156 253.914062 101.042969 C 254.085938 101.296875 254.28125 101.535156 254.496094 101.753906 C 254.714844 101.96875 254.953125 102.164062 255.207031 102.335938 C 255.464844 102.507812 255.734375 102.648438 256.019531 102.769531 C 256.304688 102.886719 256.597656 102.976562 256.898438 103.035156 C 257.199219 103.09375 257.503906 103.125 257.8125 103.125 L 309.375 103.125 L 309.375 112.5 L 318.75 112.5 L 318.75 98.4375 C 318.75 97.144531 318.292969 96.039062 317.375 95.125 Z M 225 126.5625 L 65.625 126.5625 L 65.625 60.9375 L 225 60.9375 Z M 262.5 53.503906 L 302.746094 93.75 L 262.5 93.75 Z M 262.5 53.503906 " fill-opacity="1" fill-rule="nonzero"/></g><path fill="#000000" d="M 93.75 145.3125 L 103.125 145.3125 L 103.125 154.6875 L 93.75 154.6875 Z M 93.75 145.3125 " fill-opacity="1" fill-rule="nonzero"/><path fill="#000000" d="M 93.75 164.0625 L 103.125 164.0625 L 103.125 300 L 93.75 300 Z M 93.75 164.0625 " fill-opacity="1" fill-rule="nonzero"/><g clip-path="url(#9ff581ff06)"><path fill="#000000" d="M 309.375 328.125 L 103.125 328.125 L 103.125 309.375 L 93.75 309.375 L 93.75 332.8125 C 93.75 333.121094 93.78125 333.425781 93.839844 333.726562 C 93.898438 334.027344 93.988281 334.320312 94.105469 334.605469 C 94.222656 334.890625 94.367188 335.160156 94.539062 335.417969 C 94.710938 335.671875 94.90625 335.910156 95.121094 336.128906 C 95.339844 336.34375 95.578125 336.539062 95.832031 336.710938 C 96.089844 336.882812 96.359375 337.023438 96.644531 337.144531 C 96.929688 337.261719 97.222656 337.351562 97.523438 337.410156 C 97.824219 337.46875 98.128906 337.5 98.4375 337.5 L 314.0625 337.5 C 314.371094 337.5 314.675781 337.46875 314.976562 337.410156 C 315.277344 337.351562 315.570312 337.261719 315.855469 337.144531 C 316.140625 337.023438 316.410156 336.882812 316.667969 336.710938 C 316.921875 336.539062 317.160156 336.34375 317.378906 336.128906 C 317.59375 335.910156 317.789062 335.671875 317.960938 335.417969 C 318.132812 335.160156 318.273438 334.890625 318.394531 334.605469 C 318.511719 334.320312 318.601562 334.027344 318.660156 333.726562 C 318.71875 333.425781 318.75 333.121094 318.75 332.8125 L 318.75 140.625 L 309.375 140.625 Z M 309.375 328.125 " fill-opacity="1" fill-rule="nonzero"/></g><g clip-path="url(#5358f9b4fe)"><path fill="#000000" d="M 309.375 121.875 L 318.75 121.875 L 318.75 131.25 L 309.375 131.25 Z M 309.375 121.875 " fill-opacity="1" fill-rule="nonzero"/></g><path fill="#000000" d="M 98.4375 98.4375 L 107.8125 98.4375 C 108.734375 98.4375 109.648438 98.347656 110.554688 98.167969 C 111.460938 97.988281 112.339844 97.71875 113.195312 97.367188 C 114.046875 97.015625 114.859375 96.582031 115.625 96.066406 C 116.394531 95.554688 117.101562 94.972656 117.757812 94.320312 C 118.410156 93.664062 118.992188 92.957031 119.503906 92.1875 C 120.019531 91.421875 120.453125 90.609375 120.804688 89.757812 C 121.15625 88.902344 121.425781 88.023438 121.605469 87.117188 C 121.785156 86.210938 121.875 85.296875 121.875 84.375 C 121.875 83.453125 121.785156 82.539062 121.605469 81.632812 C 121.425781 80.726562 121.15625 79.847656 120.804688 78.992188 C 120.453125 78.140625 120.019531 77.328125 119.503906 76.5625 C 118.992188 75.792969 118.410156 75.085938 117.757812 74.429688 C 117.101562 73.777344 116.394531 73.195312 115.625 72.683594 C 114.859375 72.167969 114.046875 71.734375 113.195312 71.382812 C 112.339844 71.03125 111.460938 70.761719 110.554688 70.582031 C 109.648438 70.402344 108.734375 70.3125 107.8125 70.3125 L 93.75 70.3125 C 93.441406 70.3125 93.136719 70.34375 92.835938 70.402344 C 92.535156 70.460938 92.242188 70.550781 91.957031 70.667969 C 91.671875 70.785156 91.402344 70.929688 91.144531 71.101562 C 90.890625 71.273438 90.652344 71.46875 90.433594 71.683594 C 90.21875 71.902344 90.023438 72.140625 89.851562 72.394531 C 89.679688 72.652344 89.535156 72.921875 89.417969 73.207031 C 89.300781 73.492188 89.210938 73.785156 89.152344 74.085938 C 89.09375 74.386719 89.0625 74.691406 89.0625 75 L 89.0625 117.1875 L 98.4375 117.1875 Z M 98.4375 79.6875 L 107.8125 79.6875 C 108.121094 79.6875 108.425781 79.71875 108.726562 79.777344 C 109.027344 79.835938 109.320312 79.925781 109.605469 80.042969 C 109.890625 80.160156 110.160156 80.304688 110.417969 80.476562 C 110.671875 80.648438 110.910156 80.84375 111.128906 81.058594 C 111.34375 81.277344 111.539062 81.515625 111.710938 81.769531 C 111.882812 82.027344 112.023438 82.296875 112.144531 82.582031 C 112.261719 82.867188 112.351562 83.160156 112.410156 83.460938 C 112.46875 83.761719 112.5 84.066406 112.5 84.375 C 112.5 84.683594 112.46875 84.988281 112.410156 85.289062 C 112.351562 85.589844 112.261719 85.882812 112.144531 86.167969 C 112.023438 86.453125 111.882812 86.722656 111.710938 86.980469 C 111.539062 87.234375 111.34375 87.472656 111.128906 87.691406 C 110.910156 87.90625 110.671875 88.101562 110.417969 88.273438 C 110.160156 88.445312 109.890625 88.589844 109.605469 88.707031 C 109.320312 88.824219 109.027344 88.914062 108.726562 88.972656 C 108.425781 89.03125 108.121094 89.0625 107.8125 89.0625 L 98.4375 89.0625 Z M 98.4375 79.6875 " fill-opacity="1" fill-rule="nonzero"/><path fill="#000000" d="M 173.4375 117.1875 L 182.8125 117.1875 C 183.582031 117.1875 184.347656 117.148438 185.109375 117.074219 C 185.875 117 186.632812 116.886719 187.386719 116.738281 C 188.136719 116.585938 188.882812 116.402344 189.617188 116.179688 C 190.351562 115.957031 191.074219 115.695312 191.78125 115.402344 C 192.492188 115.109375 193.183594 114.78125 193.859375 114.421875 C 194.539062 114.058594 195.195312 113.664062 195.832031 113.238281 C 196.472656 112.8125 197.085938 112.355469 197.679688 111.867188 C 198.273438 111.378906 198.84375 110.867188 199.386719 110.324219 C 199.929688 109.78125 200.441406 109.210938 200.929688 108.617188 C 201.417969 108.023438 201.875 107.410156 202.300781 106.769531 C 202.726562 106.132812 203.121094 105.476562 203.484375 104.796875 C 203.84375 104.121094 204.171875 103.429688 204.464844 102.71875 C 204.757812 102.011719 205.019531 101.289062 205.242188 100.554688 C 205.464844 99.820312 205.648438 99.074219 205.800781 98.324219 C 205.949219 97.570312 206.0625 96.8125 206.136719 96.046875 C 206.210938 95.285156 206.25 94.519531 206.25 93.75 C 206.25 92.980469 206.210938 92.214844 206.136719 91.453125 C 206.0625 90.6875 205.949219 89.929688 205.800781 89.175781 C 205.648438 88.425781 205.464844 87.679688 205.242188 86.945312 C 205.019531 86.210938 204.757812 85.488281 204.464844 84.78125 C 204.171875 84.070312 203.84375 83.378906 203.484375 82.703125 C 203.121094 82.023438 202.726562 81.367188 202.300781 80.730469 C 201.875 80.089844 201.417969 79.476562 200.929688 78.882812 C 200.441406 78.289062 199.929688 77.71875 199.386719 77.175781 C 198.84375 76.632812 198.273438 76.121094 197.679688 75.632812 C 197.085938 75.144531 196.472656 74.6875 195.832031 74.261719 C 195.195312 73.835938 194.539062 73.441406 193.859375 73.078125 C 193.183594 72.71875 192.492188 72.390625 191.78125 72.097656 C 191.074219 71.804688 190.351562 71.542969 189.617188 71.320312 C 188.882812 71.097656 188.136719 70.914062 187.386719 70.761719 C 186.632812 70.613281 185.875 70.5 185.109375 70.425781 C 184.347656 70.351562 183.582031 70.3125 182.8125 70.3125 L 173.4375 70.3125 C 173.128906 70.3125 172.824219 70.34375 172.523438 70.402344 C 172.222656 70.460938 171.929688 70.550781 171.644531 70.667969 C 171.359375 70.785156 171.089844 70.929688 170.832031 71.101562 C 170.578125 71.273438 170.339844 71.46875 170.121094 71.683594 C 169.90625 71.902344 169.710938 72.140625 169.539062 72.394531 C 169.367188 72.652344 169.222656 72.921875 169.105469 73.207031 C 168.988281 73.492188 168.898438 73.785156 168.839844 74.085938 C 168.78125 74.386719 168.75 74.691406 168.75 75 L 168.75 112.5 C 168.75 112.808594 168.78125 113.113281 168.839844 113.414062 C 168.898438 113.714844 168.988281 114.007812 169.105469 114.292969 C 169.222656 114.578125 169.367188 114.847656 169.539062 115.105469 C 169.710938 115.359375 169.90625 115.597656 170.121094 115.816406 C 170.339844 116.03125 170.578125 116.226562 170.832031 116.398438 C 171.089844 116.570312 171.359375 116.710938 171.644531 116.832031 C 171.929688 116.949219 172.222656 117.039062 172.523438 117.097656 C 172.824219 117.15625 173.128906 117.1875 173.4375 117.1875 Z M 178.125 79.6875 L 182.8125 79.6875 C 183.734375 79.6875 184.648438 79.777344 185.554688 79.957031 C 186.460938 80.136719 187.339844 80.40625 188.195312 80.757812 C 189.046875 81.109375 189.859375 81.542969 190.625 82.058594 C 191.394531 82.570312 192.101562 83.152344 192.757812 83.804688 C 193.410156 84.460938 193.992188 85.167969 194.503906 85.9375 C 195.019531 86.703125 195.453125 87.515625 195.804688 88.367188 C 196.15625 89.222656 196.425781 90.101562 196.605469 91.007812 C 196.785156 91.914062 196.875 92.828125 196.875 93.75 C 196.875 94.671875 196.785156 95.585938 196.605469 96.492188 C 196.425781 97.398438 196.15625 98.277344 195.804688 99.132812 C 195.453125 99.984375 195.019531 100.796875 194.503906 101.5625 C 193.992188 102.332031 193.410156 103.039062 192.757812 103.695312 C 192.101562 104.347656 191.394531 104.929688 190.625 105.441406 C 189.859375 105.957031 189.046875 106.390625 188.195312 106.742188 C 187.339844 107.09375 186.460938 107.363281 185.554688 107.542969 C 184.648438 107.722656 183.734375 107.8125 182.8125 107.8125 L 178.125 107.8125 Z M 178.125 79.6875 " fill-opacity="1" fill-rule="nonzero"/><path fill="#000000" d="M 145.3125 107.8125 C 136.6875 107.8125 135.988281 103.796875 135.9375 102.988281 L 131.25 103.125 L 126.5625 103.125 C 126.5625 107.992188 130.480469 117.1875 145.3125 117.1875 C 146.234375 117.1875 147.148438 117.097656 148.054688 116.917969 C 148.960938 116.738281 149.839844 116.46875 150.695312 116.117188 C 151.546875 115.765625 152.359375 115.332031 153.125 114.816406 C 153.894531 114.304688 154.601562 113.722656 155.257812 113.070312 C 155.910156 112.414062 156.492188 111.707031 157.003906 110.9375 C 157.519531 110.171875 157.953125 109.359375 158.304688 108.507812 C 158.65625 107.652344 158.925781 106.773438 159.105469 105.867188 C 159.285156 104.960938 159.375 104.046875 159.375 103.125 C 159.375 102.203125 159.285156 101.289062 159.105469 100.382812 C 158.925781 99.476562 158.65625 98.597656 158.304688 97.742188 C 157.953125 96.890625 157.519531 96.078125 157.003906 95.3125 C 156.492188 94.542969 155.910156 93.835938 155.257812 93.179688 C 154.601562 92.527344 153.894531 91.945312 153.125 91.433594 C 152.359375 90.917969 151.546875 90.484375 150.695312 90.132812 C 149.839844 89.78125 148.960938 89.511719 148.054688 89.332031 C 147.148438 89.152344 146.234375 89.0625 145.3125 89.0625 L 140.625 89.0625 C 140.316406 89.0625 140.011719 89.03125 139.710938 88.972656 C 139.410156 88.914062 139.117188 88.824219 138.832031 88.707031 C 138.546875 88.589844 138.277344 88.445312 138.019531 88.273438 C 137.765625 88.101562 137.527344 87.90625 137.308594 87.691406 C 137.09375 87.472656 136.898438 87.234375 136.726562 86.980469 C 136.554688 86.722656 136.410156 86.453125 136.292969 86.167969 C 136.175781 85.882812 136.085938 85.589844 136.027344 85.289062 C 135.96875 84.988281 135.9375 84.683594 135.9375 84.375 C 135.9375 84.066406 135.96875 83.761719 136.027344 83.460938 C 136.085938 83.160156 136.175781 82.867188 136.292969 82.582031 C 136.410156 82.296875 136.554688 82.027344 136.726562 81.769531 C 136.898438 81.515625 137.09375 81.277344 137.308594 81.058594 C 137.527344 80.84375 137.765625 80.648438 138.019531 80.476562 C 138.277344 80.304688 138.546875 80.160156 138.832031 80.042969 C 139.117188 79.925781 139.410156 79.835938 139.710938 79.777344 C 140.011719 79.71875 140.316406 79.6875 140.625 79.6875 C 149.25 79.6875 149.949219 83.703125 150 84.375 L 159.375 84.375 C 159.375 79.507812 155.457031 70.3125 140.625 70.3125 C 139.703125 70.3125 138.789062 70.402344 137.882812 70.582031 C 136.976562 70.761719 136.097656 71.03125 135.242188 71.382812 C 134.390625 71.734375 133.578125 72.167969 132.8125 72.683594 C 132.042969 73.195312 131.335938 73.777344 130.679688 74.429688 C 130.027344 75.085938 129.445312 75.792969 128.933594 76.5625 C 128.417969 77.328125 127.984375 78.140625 127.632812 78.992188 C 127.28125 79.847656 127.011719 80.726562 126.832031 81.632812 C 126.652344 82.539062 126.5625 83.453125 126.5625 84.375 C 126.5625 85.296875 126.652344 86.210938 126.832031 87.117188 C 127.011719 88.023438 127.28125 88.902344 127.632812 89.757812 C 127.984375 90.609375 128.417969 91.421875 128.933594 92.1875 C 129.445312 92.957031 130.027344 93.664062 130.679688 94.320312 C 131.335938 94.972656 132.042969 95.554688 132.8125 96.066406 C 133.578125 96.582031 134.390625 97.015625 135.242188 97.367188 C 136.097656 97.71875 136.976562 97.988281 137.882812 98.167969 C 138.789062 98.347656 139.703125 98.4375 140.625 98.4375 L 145.3125 98.4375 C 145.621094 98.4375 145.925781 98.46875 146.226562 98.527344 C 146.527344 98.585938 146.820312 98.675781 147.105469 98.792969 C 147.390625 98.910156 147.660156 99.054688 147.917969 99.226562 C 148.171875 99.398438 148.410156 99.59375 148.628906 99.808594 C 148.84375 100.027344 149.039062 100.265625 149.210938 100.519531 C 149.382812 100.777344 149.523438 101.046875 149.644531 101.332031 C 149.761719 101.617188 149.851562 101.910156 149.910156 102.210938 C 149.96875 102.511719 150 102.816406 150 103.125 C 150 103.433594 149.96875 103.738281 149.910156 104.039062 C 149.851562 104.339844 149.761719 104.632812 149.644531 104.917969 C 149.523438 105.203125 149.382812 105.472656 149.210938 105.730469 C 149.039062 105.984375 148.84375 106.222656 148.628906 106.441406 C 148.410156 106.65625 148.171875 106.851562 147.917969 107.023438 C 147.660156 107.195312 147.390625 107.335938 147.105469 107.457031 C 146.820312 107.574219 146.527344 107.664062 146.226562 107.722656 C 145.925781 107.78125 145.621094 107.8125 145.3125 107.8125 Z M 145.3125 107.8125 " fill-opacity="1" fill-rule="nonzero"/><path fill="#000000" d="M 178.125 173.4375 L 145.3125 173.4375 C 145.003906 173.4375 144.699219 173.46875 144.398438 173.527344 C 144.097656 173.585938 143.804688 173.675781 143.519531 173.792969 C 143.234375 173.910156 142.964844 174.054688 142.707031 174.226562 C 142.453125 174.398438 142.214844 174.59375 141.996094 174.808594 C 141.78125 175.027344 141.585938 175.265625 141.414062 175.519531 C 141.242188 175.777344 141.097656 176.046875 140.980469 176.332031 C 140.863281 176.617188 140.773438 176.910156 140.714844 177.210938 C 140.65625 177.511719 140.625 177.816406 140.625 178.125 L 140.625 281.25 C 140.625 281.558594 140.65625 281.863281 140.714844 282.164062 C 140.773438 282.464844 140.863281 282.757812 140.980469 283.042969 C 141.097656 283.328125 141.242188 283.597656 141.414062 283.855469 C 141.585938 284.109375 141.78125 284.347656 141.996094 284.566406 C 142.214844 284.78125 142.453125 284.976562 142.707031 285.148438 C 142.964844 285.320312 143.234375 285.460938 143.519531 285.582031 C 143.804688 285.699219 144.097656 285.789062 144.398438 285.847656 C 144.699219 285.90625 145.003906 285.9375 145.3125 285.9375 L 164.0625 285.9375 C 164.371094 285.9375 164.675781 285.90625 164.976562 285.847656 C 165.277344 285.789062 165.570312 285.699219 165.855469 285.582031 C 166.140625 285.460938 166.410156 285.320312 166.667969 285.148438 C 166.921875 284.976562 167.160156 284.78125 167.378906 284.566406 C 167.59375 284.347656 167.789062 284.109375 167.960938 283.855469 C 168.132812 283.597656 168.273438 283.328125 168.394531 283.042969 C 168.511719 282.757812 168.601562 282.464844 168.660156 282.164062 C 168.71875 281.863281 168.75 281.558594 168.75 281.25 L 168.75 248.4375 L 178.125 248.4375 C 179.351562 248.4375 180.578125 248.378906 181.800781 248.257812 C 183.023438 248.136719 184.234375 247.957031 185.441406 247.71875 C 186.644531 247.476562 187.835938 247.179688 189.011719 246.824219 C 190.1875 246.464844 191.339844 246.054688 192.476562 245.582031 C 193.609375 245.113281 194.71875 244.589844 195.800781 244.007812 C 196.886719 243.429688 197.9375 242.800781 198.957031 242.117188 C 199.980469 241.433594 200.964844 240.703125 201.914062 239.925781 C 202.863281 239.144531 203.773438 238.324219 204.640625 237.453125 C 205.511719 236.585938 206.332031 235.675781 207.113281 234.726562 C 207.890625 233.777344 208.621094 232.792969 209.304688 231.769531 C 209.988281 230.75 210.617188 229.699219 211.195312 228.613281 C 211.777344 227.53125 212.300781 226.421875 212.769531 225.289062 C 213.242188 224.152344 213.652344 223 214.011719 221.824219 C 214.367188 220.648438 214.664062 219.457031 214.90625 218.253906 C 215.144531 217.046875 215.324219 215.835938 215.445312 214.613281 C 215.566406 213.390625 215.625 212.164062 215.625 210.9375 C 215.625 209.710938 215.566406 208.484375 215.445312 207.261719 C 215.324219 206.039062 215.144531 204.828125 214.90625 203.621094 C 214.664062 202.417969 214.367188 201.226562 214.011719 200.050781 C 213.652344 198.875 213.242188 197.722656 212.769531 196.585938 C 212.300781 195.453125 211.777344 194.34375 211.195312 193.261719 C 210.617188 192.175781 209.988281 191.125 209.304688 190.105469 C 208.621094 189.082031 207.890625 188.097656 207.113281 187.148438 C 206.332031 186.199219 205.511719 185.289062 204.640625 184.421875 C 203.773438 183.550781 202.863281 182.730469 201.914062 181.949219 C 200.964844 181.171875 199.980469 180.441406 198.957031 179.757812 C 197.9375 179.074219 196.886719 178.445312 195.800781 177.867188 C 194.71875 177.285156 193.609375 176.761719 192.476562 176.292969 C 191.339844 175.820312 190.1875 175.410156 189.011719 175.050781 C 187.835938 174.695312 186.644531 174.398438 185.441406 174.15625 C 184.234375 173.917969 183.023438 173.738281 181.800781 173.617188 C 180.578125 173.496094 179.351562 173.4375 178.125 173.4375 Z M 178.125 239.0625 L 164.0625 239.0625 C 163.753906 239.0625 163.449219 239.09375 163.148438 239.152344 C 162.847656 239.210938 162.554688 239.300781 162.269531 239.417969 C 161.984375 239.535156 161.714844 239.679688 161.457031 239.851562 C 161.203125 240.023438 160.964844 240.21875 160.746094 240.433594 C 160.53125 240.652344 160.335938 240.890625 160.164062 241.144531 C 159.992188 241.402344 159.847656 241.671875 159.730469 241.957031 C 159.613281 242.242188 159.523438 242.535156 159.464844 242.835938 C 159.40625 243.136719 159.375 243.441406 159.375 243.75 L 159.375 276.5625 L 150 276.5625 L 150 182.8125 L 178.125 182.8125 C 179.046875 182.8125 179.964844 182.859375 180.882812 182.949219 C 181.796875 183.039062 182.707031 183.171875 183.613281 183.351562 C 184.515625 183.53125 185.40625 183.757812 186.289062 184.023438 C 187.171875 184.289062 188.035156 184.601562 188.886719 184.953125 C 189.738281 185.304688 190.570312 185.699219 191.382812 186.132812 C 192.195312 186.566406 192.984375 187.039062 193.75 187.550781 C 194.515625 188.0625 195.253906 188.613281 195.96875 189.195312 C 196.679688 189.78125 197.359375 190.398438 198.011719 191.050781 C 198.664062 191.703125 199.28125 192.382812 199.867188 193.09375 C 200.449219 193.808594 201 194.546875 201.511719 195.3125 C 202.023438 196.078125 202.496094 196.867188 202.929688 197.679688 C 203.363281 198.492188 203.757812 199.324219 204.109375 200.175781 C 204.460938 201.027344 204.773438 201.890625 205.039062 202.773438 C 205.304688 203.65625 205.53125 204.546875 205.710938 205.449219 C 205.890625 206.355469 206.023438 207.265625 206.113281 208.179688 C 206.203125 209.097656 206.25 210.015625 206.25 210.9375 C 206.25 211.859375 206.203125 212.777344 206.113281 213.695312 C 206.023438 214.609375 205.890625 215.519531 205.710938 216.425781 C 205.53125 217.328125 205.304688 218.21875 205.039062 219.101562 C 204.773438 219.984375 204.460938 220.847656 204.109375 221.699219 C 203.757812 222.550781 203.363281 223.382812 202.929688 224.195312 C 202.496094 225.007812 202.023438 225.796875 201.511719 226.5625 C 201 227.328125 200.449219 228.066406 199.867188 228.78125 C 199.28125 229.492188 198.664062 230.171875 198.011719 230.824219 C 197.359375 231.476562 196.679688 232.09375 195.96875 232.679688 C 195.253906 233.261719 194.515625 233.8125 193.75 234.324219 C 192.984375 234.835938 192.195312 235.308594 191.382812 235.742188 C 190.570312 236.175781 189.738281 236.570312 188.886719 236.921875 C 188.035156 237.273438 187.171875 237.585938 186.289062 237.851562 C 185.40625 238.117188 184.515625 238.34375 183.613281 238.523438 C 182.707031 238.703125 181.796875 238.835938 180.882812 238.925781 C 179.964844 239.015625 179.046875 239.0625 178.125 239.0625 Z M 178.125 239.0625 " fill-opacity="1" fill-rule="nonzero"/><path fill="#000000" d="M 178.125 192.1875 L 164.0625 192.1875 C 163.753906 192.1875 163.449219 192.21875 163.148438 192.277344 C 162.847656 192.335938 162.554688 192.425781 162.269531 192.542969 C 161.984375 192.660156 161.714844 192.804688 161.457031 192.976562 C 161.203125 193.148438 160.964844 193.34375 160.746094 193.558594 C 160.53125 193.777344 160.335938 194.015625 160.164062 194.269531 C 159.992188 194.527344 159.847656 194.796875 159.730469 195.082031 C 159.613281 195.367188 159.523438 195.660156 159.464844 195.960938 C 159.40625 196.261719 159.375 196.566406 159.375 196.875 L 159.375 225 C 159.375 225.308594 159.40625 225.613281 159.464844 225.914062 C 159.523438 226.214844 159.613281 226.507812 159.730469 226.792969 C 159.847656 227.078125 159.992188 227.347656 160.164062 227.605469 C 160.335938 227.859375 160.53125 228.097656 160.746094 228.316406 C 160.964844 228.53125 161.203125 228.726562 161.457031 228.898438 C 161.714844 229.070312 161.984375 229.210938 162.269531 229.332031 C 162.554688 229.449219 162.847656 229.539062 163.148438 229.597656 C 163.449219 229.65625 163.753906 229.6875 164.0625 229.6875 L 178.125 229.6875 C 178.738281 229.6875 179.351562 229.65625 179.960938 229.597656 C 180.574219 229.535156 181.179688 229.445312 181.78125 229.328125 C 182.386719 229.207031 182.980469 229.058594 183.566406 228.878906 C 184.15625 228.703125 184.734375 228.496094 185.300781 228.261719 C 185.867188 228.023438 186.421875 227.761719 186.964844 227.472656 C 187.503906 227.183594 188.03125 226.867188 188.542969 226.527344 C 189.050781 226.1875 189.546875 225.820312 190.019531 225.429688 C 190.496094 225.042969 190.949219 224.628906 191.382812 224.195312 C 191.816406 223.761719 192.230469 223.308594 192.617188 222.832031 C 193.007812 222.359375 193.375 221.863281 193.714844 221.355469 C 194.054688 220.84375 194.371094 220.316406 194.660156 219.777344 C 194.949219 219.234375 195.210938 218.679688 195.449219 218.113281 C 195.683594 217.546875 195.890625 216.96875 196.066406 216.378906 C 196.246094 215.792969 196.394531 215.199219 196.515625 214.59375 C 196.632812 213.992188 196.722656 213.386719 196.785156 212.773438 C 196.84375 212.164062 196.875 211.550781 196.875 210.9375 C 196.875 210.324219 196.84375 209.710938 196.785156 209.101562 C 196.722656 208.488281 196.632812 207.882812 196.515625 207.28125 C 196.394531 206.675781 196.246094 206.082031 196.066406 205.496094 C 195.890625 204.90625 195.683594 204.328125 195.449219 203.761719 C 195.210938 203.195312 194.949219 202.640625 194.660156 202.097656 C 194.371094 201.558594 194.054688 201.03125 193.714844 200.519531 C 193.375 200.011719 193.007812 199.515625 192.617188 199.042969 C 192.230469 198.566406 191.816406 198.113281 191.382812 197.679688 C 190.949219 197.246094 190.496094 196.832031 190.019531 196.445312 C 189.546875 196.054688 189.050781 195.6875 188.542969 195.347656 C 188.03125 195.007812 187.503906 194.691406 186.964844 194.402344 C 186.421875 194.113281 185.867188 193.851562 185.300781 193.613281 C 184.734375 193.378906 184.15625 193.171875 183.566406 192.996094 C 182.980469 192.816406 182.386719 192.667969 181.78125 192.546875 C 181.179688 192.429688 180.574219 192.339844 179.960938 192.277344 C 179.351562 192.21875 178.738281 192.1875 178.125 192.1875 Z M 178.125 220.3125 L 168.75 220.3125 L 168.75 201.5625 L 178.125 201.5625 C 178.742188 201.5625 179.351562 201.621094 179.953125 201.742188 C 180.558594 201.863281 181.144531 202.039062 181.710938 202.277344 C 182.28125 202.511719 182.820312 202.800781 183.332031 203.140625 C 183.84375 203.484375 184.320312 203.875 184.753906 204.308594 C 185.1875 204.742188 185.578125 205.21875 185.921875 205.730469 C 186.261719 206.242188 186.550781 206.78125 186.785156 207.351562 C 187.023438 207.917969 187.199219 208.503906 187.320312 209.109375 C 187.441406 209.710938 187.5 210.320312 187.5 210.9375 C 187.5 211.554688 187.441406 212.164062 187.320312 212.765625 C 187.199219 213.371094 187.023438 213.957031 186.785156 214.523438 C 186.550781 215.09375 186.261719 215.632812 185.921875 216.144531 C 185.578125 216.65625 185.1875 217.132812 184.753906 217.566406 C 184.320312 218 183.84375 218.390625 183.332031 218.734375 C 182.820312 219.074219 182.28125 219.363281 181.710938 219.597656 C 181.144531 219.835938 180.558594 220.011719 179.953125 220.132812 C 179.351562 220.253906 178.742188 220.3125 178.125 220.3125 Z M 178.125 220.3125 " fill-opacity="1" fill-rule="nonzero"/><path fill="#000000" d="M 243.75 260.769531 C 236.328125 259.339844 229.257812 256.894531 222.539062 253.4375 C 222.359375 253.34375 222.179688 253.257812 221.988281 253.1875 C 221.800781 253.113281 221.609375 253.054688 221.410156 253.007812 C 221.214844 252.960938 221.015625 252.925781 220.816406 252.902344 C 220.613281 252.882812 220.414062 252.875 220.210938 252.878906 C 220.011719 252.882812 219.808594 252.898438 219.609375 252.929688 C 219.410156 252.960938 219.210938 253.003906 219.019531 253.058594 C 218.824219 253.113281 218.632812 253.183594 218.449219 253.261719 C 218.265625 253.34375 218.085938 253.433594 217.910156 253.539062 C 217.738281 253.640625 217.570312 253.757812 217.414062 253.882812 C 217.253906 254.007812 217.105469 254.140625 216.960938 254.285156 C 216.820312 254.429688 216.691406 254.582031 216.566406 254.742188 C 216.445312 254.90625 216.335938 255.074219 216.238281 255.25 C 216.136719 255.425781 216.046875 255.605469 215.972656 255.792969 C 215.894531 255.980469 215.832031 256.171875 215.78125 256.367188 C 215.730469 256.5625 215.691406 256.761719 215.664062 256.960938 C 215.636719 257.160156 215.625 257.363281 215.625 257.5625 L 215.625 273.355469 C 215.625 274.292969 215.882812 275.152344 216.398438 275.933594 C 217.789062 278.046875 226.515625 285.9375 243.75 285.9375 C 244.6875 285.988281 245.628906 285.988281 246.566406 285.941406 C 247.507812 285.890625 248.441406 285.792969 249.371094 285.644531 C 250.300781 285.496094 251.21875 285.300781 252.125 285.058594 C 253.035156 284.8125 253.929688 284.523438 254.804688 284.183594 C 255.683594 283.84375 256.539062 283.460938 257.378906 283.03125 C 258.214844 282.601562 259.027344 282.132812 259.816406 281.617188 C 260.601562 281.101562 261.359375 280.546875 262.089844 279.953125 C 262.816406 279.359375 263.511719 278.726562 264.175781 278.058594 C 264.839844 277.390625 265.464844 276.6875 266.050781 275.957031 C 266.640625 275.222656 267.1875 274.457031 267.695312 273.667969 C 268.203125 272.875 268.667969 272.058594 269.089844 271.21875 C 269.511719 270.375 269.886719 269.515625 270.21875 268.636719 C 270.550781 267.753906 270.832031 266.859375 271.070312 265.949219 C 271.304688 265.039062 271.492188 264.117188 271.632812 263.1875 C 271.773438 262.257812 271.863281 261.320312 271.902344 260.382812 C 271.941406 259.441406 271.933594 258.503906 271.875 257.5625 C 271.875 242.386719 259.871094 235.453125 251.925781 230.84375 C 250.320312 229.90625 247.046875 228.03125 245.429688 226.808594 C 246.167969 226.742188 246.910156 226.710938 247.65625 226.714844 C 253.785156 227.734375 259.367188 230.0625 264.40625 233.695312 C 265.117188 234.21875 265.914062 234.515625 266.789062 234.589844 C 267.667969 234.667969 268.503906 234.503906 269.292969 234.109375 C 270.078125 233.714844 270.707031 233.140625 271.171875 232.390625 C 271.636719 231.644531 271.871094 230.828125 271.875 229.945312 L 271.875 214.144531 C 271.878906 213.414062 271.722656 212.722656 271.40625 212.066406 C 270.859375 210.988281 265.5625 201.5625 243.75 201.5625 C 242.9375 201.507812 242.128906 201.5 241.316406 201.53125 C 240.503906 201.566406 239.695312 201.644531 238.890625 201.761719 C 238.089844 201.882812 237.292969 202.046875 236.507812 202.25 C 235.71875 202.457031 234.945312 202.703125 234.1875 202.992188 C 233.425781 203.277344 232.683594 203.605469 231.960938 203.972656 C 231.234375 204.339844 230.53125 204.746094 229.847656 205.1875 C 229.167969 205.628906 228.511719 206.109375 227.878906 206.621094 C 227.25 207.132812 226.648438 207.679688 226.078125 208.253906 C 225.503906 208.832031 224.964844 209.4375 224.457031 210.074219 C 223.949219 210.707031 223.476562 211.367188 223.039062 212.054688 C 222.601562 212.738281 222.203125 213.445312 221.84375 214.175781 C 221.480469 214.902344 221.160156 215.648438 220.878906 216.410156 C 220.597656 217.171875 220.355469 217.945312 220.160156 218.734375 C 219.960938 219.523438 219.804688 220.320312 219.691406 221.125 C 219.578125 221.929688 219.507812 222.738281 219.480469 223.550781 C 219.453125 224.363281 219.46875 225.171875 219.53125 225.984375 C 219.53125 241.175781 231.539062 248.105469 239.484375 252.703125 C 242.117188 254.070312 244.582031 255.695312 246.875 257.578125 C 246.875 260.40625 246.875 260.769531 243.75 260.769531 Z M 244.171875 244.570312 C 235.523438 239.578125 228.90625 235.039062 228.90625 225.984375 C 228.847656 225.484375 228.820312 224.980469 228.820312 224.472656 C 228.820312 223.96875 228.847656 223.464844 228.902344 222.964844 C 228.957031 222.460938 229.042969 221.964844 229.152344 221.472656 C 229.265625 220.980469 229.402344 220.496094 229.566406 220.015625 C 229.734375 219.539062 229.925781 219.074219 230.140625 218.617188 C 230.359375 218.160156 230.601562 217.71875 230.867188 217.289062 C 231.132812 216.863281 231.421875 216.449219 231.734375 216.050781 C 232.046875 215.65625 232.382812 215.277344 232.738281 214.917969 C 233.089844 214.558594 233.464844 214.21875 233.855469 213.902344 C 234.25 213.585938 234.660156 213.289062 235.082031 213.015625 C 235.507812 212.746094 235.949219 212.496094 236.402344 212.273438 C 236.855469 212.050781 237.316406 211.851562 237.792969 211.679688 C 238.265625 211.507812 238.75 211.363281 239.242188 211.246094 C 239.734375 211.128906 240.230469 211.039062 240.730469 210.976562 C 241.230469 210.914062 241.734375 210.878906 242.238281 210.871094 C 242.742188 210.867188 243.246094 210.886719 243.75 210.9375 C 256.234375 210.9375 261.09375 214.382812 262.5 215.714844 L 262.5 221.742188 C 257.878906 219.171875 252.929688 217.707031 247.65625 217.355469 C 236.78125 217.355469 235.15625 222.757812 235.15625 225.984375 C 235.15625 232.007812 240.753906 235.238281 247.242188 238.984375 C 255.886719 243.980469 262.5 248.515625 262.5 257.5625 C 262.554688 258.195312 262.578125 258.824219 262.5625 259.457031 C 262.550781 260.089844 262.503906 260.722656 262.421875 261.351562 C 262.339844 261.976562 262.226562 262.597656 262.078125 263.214844 C 261.929688 263.828125 261.746094 264.433594 261.53125 265.03125 C 261.316406 265.625 261.070312 266.207031 260.792969 266.777344 C 260.515625 267.34375 260.210938 267.898438 259.871094 268.433594 C 259.535156 268.96875 259.167969 269.484375 258.777344 269.980469 C 258.382812 270.476562 257.964844 270.949219 257.519531 271.398438 C 257.074219 271.851562 256.605469 272.277344 256.117188 272.675781 C 255.625 273.074219 255.113281 273.449219 254.582031 273.792969 C 254.050781 274.136719 253.503906 274.449219 252.9375 274.734375 C 252.375 275.019531 251.796875 275.273438 251.203125 275.496094 C 250.609375 275.71875 250.007812 275.910156 249.394531 276.066406 C 248.78125 276.222656 248.160156 276.34375 247.535156 276.433594 C 246.90625 276.523438 246.277344 276.578125 245.644531 276.601562 C 245.011719 276.621094 244.382812 276.609375 243.75 276.5625 C 240.421875 276.71875 237.15625 276.34375 233.949219 275.441406 C 230.742188 274.539062 227.757812 273.152344 225 271.285156 L 225 264.917969 C 231 267.5625 237.25 269.304688 243.75 270.144531 C 244.171875 270.195312 244.597656 270.222656 245.023438 270.226562 C 245.449219 270.226562 245.875 270.207031 246.296875 270.160156 C 246.722656 270.113281 247.140625 270.046875 247.558594 269.953125 C 247.972656 269.859375 248.382812 269.742188 248.785156 269.601562 C 249.1875 269.460938 249.582031 269.300781 249.964844 269.113281 C 250.347656 268.929688 250.71875 268.722656 251.082031 268.496094 C 251.441406 268.269531 251.789062 268.023438 252.121094 267.757812 C 252.453125 267.492188 252.769531 267.207031 253.070312 266.90625 C 253.371094 266.601562 253.652344 266.285156 253.917969 265.949219 C 254.179688 265.617188 254.425781 265.269531 254.652344 264.90625 C 254.875 264.542969 255.078125 264.171875 255.261719 263.785156 C 255.441406 263.398438 255.601562 263.003906 255.738281 262.601562 C 255.878906 262.199219 255.992188 261.789062 256.082031 261.371094 C 256.171875 260.957031 256.238281 260.535156 256.28125 260.113281 C 256.324219 259.6875 256.34375 259.261719 256.339844 258.835938 C 256.335938 258.410156 256.304688 257.988281 256.25 257.5625 C 256.25 251.546875 250.65625 248.316406 244.171875 244.570312 Z M 244.171875 244.570312 " fill-opacity="1" fill-rule="nonzero"/></svg>