<svg xmlns="http://www.w3.org/2000/svg" xmlns:xlink="http://www.w3.org/1999/xlink" width="500" zoomAndPan="magnify" viewBox="0 0 375 374.999991" height="500" preserveAspectRatio="xMidYMid meet" version="1.0"><path fill="#000000" d="M 187.628906 312.980469 C 186.765625 312.980469 186.023438 312.683594 185.394531 312.09375 C 185.164062 311.878906 162.191406 290.085938 136.066406 261.171875 C 100.886719 222.238281 77.046875 189.621094 65.195312 164.234375 C 57.097656 146.878906 56.675781 127.621094 64.011719 109.996094 C 71.148438 92.855469 84.863281 78.832031 102.625 70.535156 C 112.769531 65.804688 124.171875 61.925781 138.828125 65.660156 C 152.757812 69.207031 168.097656 79.160156 186.867188 96.890625 C 193.667969 86.152344 205.574219 76.707031 219.578125 71.144531 C 237.101562 64.179688 255.878906 63.933594 272.449219 70.457031 C 274.65625 71.316406 276.816406 72.289062 278.921875 73.371094 C 281.03125 74.453125 283.078125 75.640625 285.066406 76.933594 C 287.050781 78.222656 288.964844 79.613281 290.808594 81.101562 C 292.652344 82.589844 294.417969 84.167969 296.097656 85.835938 C 297.78125 87.503906 299.375 89.253906 300.875 91.085938 C 302.378906 92.917969 303.785156 94.824219 305.089844 96.796875 C 306.398438 98.773438 307.601562 100.8125 308.699219 102.910156 C 309.800781 105.007812 310.789062 107.160156 311.667969 109.359375 C 312.542969 111.546875 313.300781 113.769531 313.949219 116.035156 C 314.59375 118.300781 315.125 120.589844 315.535156 122.910156 C 315.945312 125.226562 316.238281 127.5625 316.410156 129.910156 C 316.582031 132.257812 316.632812 134.609375 316.5625 136.964844 C 316.492188 139.316406 316.304688 141.660156 315.992188 143.996094 C 315.683594 146.328125 315.253906 148.640625 314.707031 150.933594 C 314.160156 153.222656 313.496094 155.476562 312.71875 157.699219 C 311.9375 159.921875 311.046875 162.097656 310.046875 164.230469 C 283.117188 221.910156 200.042969 302.339844 190.648438 311.328125 L 189.863281 312.09375 C 189.238281 312.683594 188.492188 312.980469 187.628906 312.980469 Z M 127.125 70.644531 C 119.113281 70.644531 112.230469 73.210938 105.371094 76.414062 C 71.316406 92.320312 56.257812 129.6875 71.078125 161.476562 C 82.492188 185.929688 106.617188 218.886719 140.847656 256.777344 C 162.097656 280.304688 181.246094 299.074219 187.617188 305.242188 C 201.976562 291.382812 278.773438 215.828125 304.140625 161.492188 C 311.546875 145.613281 312.070312 127.957031 305.617188 111.777344 C 299.113281 95.503906 286.492188 82.980469 270.050781 76.507812 C 236.027344 63.113281 200.796875 83.253906 190.523438 103.589844 C 190.410156 103.816406 190.269531 104.027344 190.105469 104.222656 C 189.941406 104.417969 189.753906 104.589844 189.550781 104.742188 C 189.34375 104.890625 189.125 105.015625 188.890625 105.117188 C 188.65625 105.214844 188.414062 105.285156 188.160156 105.328125 C 187.910156 105.371094 187.65625 105.382812 187.402344 105.367188 C 187.148438 105.347656 186.898438 105.300781 186.65625 105.226562 C 186.414062 105.148438 186.183594 105.046875 185.960938 104.917969 C 185.742188 104.785156 185.542969 104.632812 185.359375 104.457031 C 158.578125 78.476562 141.125 70.644531 127.125 70.644531 Z M 127.125 70.644531 " fill-opacity="1" fill-rule="nonzero"/><path fill="#000000" d="M 158.816406 172.40625 C 157.875 172.40625 156.941406 172.335938 156.011719 172.199219 C 155.082031 172.0625 154.167969 171.859375 153.265625 171.585938 C 152.367188 171.3125 151.492188 170.976562 150.644531 170.578125 C 149.792969 170.175781 148.976562 169.714844 148.195312 169.191406 C 147.414062 168.671875 146.675781 168.09375 145.976562 167.464844 C 145.28125 166.832031 144.632812 166.152344 144.039062 165.429688 C 143.441406 164.703125 142.902344 163.9375 142.417969 163.128906 C 141.933594 162.324219 141.511719 161.488281 141.152344 160.617188 C 140.792969 159.75 140.5 158.859375 140.269531 157.949219 C 140.042969 157.039062 139.882812 156.113281 139.789062 155.179688 C 139.699219 154.246094 139.675781 153.308594 139.722656 152.367188 C 139.769531 151.429688 139.882812 150.5 140.066406 149.578125 C 140.25 148.65625 140.5 147.753906 140.816406 146.871094 C 141.136719 145.984375 141.515625 145.128906 141.957031 144.300781 C 142.402344 143.472656 142.902344 142.679688 143.464844 141.925781 C 144.023438 141.171875 144.636719 140.460938 145.304688 139.796875 L 185.328125 99.800781 C 185.632812 99.503906 185.984375 99.273438 186.382812 99.113281 C 186.777344 98.957031 187.191406 98.878906 187.617188 98.878906 C 188.046875 98.882812 188.457031 98.96875 188.851562 99.132812 C 189.246094 99.296875 189.59375 99.53125 189.894531 99.832031 C 190.199219 100.136719 190.429688 100.484375 190.597656 100.878906 C 190.761719 101.273438 190.84375 101.683594 190.847656 102.109375 C 190.851562 102.539062 190.769531 102.949219 190.613281 103.347656 C 190.453125 103.742188 190.222656 104.09375 189.925781 104.398438 L 149.902344 144.398438 C 149.316406 144.984375 148.796875 145.621094 148.335938 146.308594 C 147.875 146.996094 147.488281 147.722656 147.171875 148.488281 C 146.851562 149.253906 146.613281 150.039062 146.453125 150.851562 C 146.289062 151.664062 146.210938 152.484375 146.210938 153.3125 C 146.210938 154.136719 146.289062 154.957031 146.453125 155.769531 C 146.613281 156.582031 146.851562 157.367188 147.167969 158.132812 C 147.484375 158.898438 147.875 159.625 148.335938 160.3125 C 148.792969 161 149.316406 161.636719 149.902344 162.222656 C 150.488281 162.808594 151.125 163.328125 151.8125 163.789062 C 152.5 164.25 153.226562 164.636719 153.992188 164.953125 C 154.757812 165.269531 155.542969 165.511719 156.355469 165.671875 C 157.167969 165.832031 157.988281 165.914062 158.816406 165.914062 C 159.644531 165.914062 160.464844 165.832031 161.273438 165.671875 C 162.085938 165.511719 162.875 165.273438 163.640625 164.953125 C 164.40625 164.636719 165.132812 164.25 165.820312 163.789062 C 166.507812 163.332031 167.144531 162.808594 167.730469 162.222656 L 184.535156 145.414062 C 184.714844 145.234375 184.914062 145.078125 185.128906 144.941406 C 185.347656 144.808594 185.578125 144.703125 185.820312 144.625 C 186.0625 144.542969 186.308594 144.492188 186.5625 144.472656 C 186.816406 144.449219 187.070312 144.460938 187.324219 144.496094 C 187.574219 144.535156 187.820312 144.601562 188.054688 144.699219 C 188.292969 144.792969 188.515625 144.914062 188.722656 145.0625 C 188.929688 145.210938 189.117188 145.382812 189.285156 145.574219 C 189.453125 145.765625 189.597656 145.972656 189.714844 146.199219 C 189.765625 146.300781 195.742188 157.253906 207.875 158.792969 C 213.285156 159.476562 219.234375 158.238281 225.5625 155.101562 C 233.515625 151.167969 242.089844 144.230469 251.066406 134.457031 C 251.359375 134.144531 251.699219 133.902344 252.089844 133.726562 C 252.480469 133.550781 252.886719 133.457031 253.3125 133.441406 C 253.738281 133.425781 254.152344 133.492188 254.554688 133.640625 C 254.953125 133.789062 255.3125 134.007812 255.625 134.292969 C 255.941406 134.582031 256.1875 134.921875 256.371094 135.304688 C 256.550781 135.691406 256.652344 136.097656 256.675781 136.523438 C 256.699219 136.949219 256.636719 137.367188 256.496094 137.769531 C 256.355469 138.171875 256.140625 138.53125 255.859375 138.851562 C 239.597656 156.550781 224.492188 165.492188 210.878906 165.492188 C 209.566406 165.492188 208.261719 165.410156 206.960938 165.242188 C 196.335938 163.855469 189.605469 157.113281 186.328125 152.828125 L 172.320312 166.820312 C 171.433594 167.707031 170.46875 168.496094 169.425781 169.195312 C 168.382812 169.890625 167.285156 170.476562 166.125 170.957031 C 164.964844 171.4375 163.773438 171.796875 162.542969 172.042969 C 161.3125 172.285156 160.070312 172.40625 158.816406 172.40625 Z M 158.816406 172.40625 " fill-opacity="1" fill-rule="nonzero"/><path fill="#000000" d="M 259.21875 226.289062 C 257.660156 226.292969 256.113281 226.144531 254.582031 225.839844 C 253.054688 225.539062 251.566406 225.089844 250.125 224.492188 C 248.683594 223.894531 247.316406 223.160156 246.019531 222.292969 C 244.726562 221.425781 243.527344 220.4375 242.425781 219.332031 L 213.660156 190.574219 C 213.351562 190.269531 213.109375 189.917969 212.9375 189.519531 C 212.765625 189.117188 212.679688 188.703125 212.675781 188.265625 C 212.675781 187.832031 212.753906 187.414062 212.921875 187.011719 C 213.085938 186.609375 213.320312 186.253906 213.628906 185.945312 C 213.9375 185.640625 214.292969 185.402344 214.695312 185.238281 C 215.097656 185.070312 215.515625 184.992188 215.949219 184.992188 C 216.386719 184.996094 216.800781 185.082031 217.203125 185.253906 C 217.601562 185.421875 217.953125 185.664062 218.257812 185.976562 L 247.027344 214.734375 C 248.640625 216.355469 250.503906 217.605469 252.617188 218.480469 C 254.730469 219.359375 256.929688 219.792969 259.21875 219.789062 C 262.371094 219.789062 265.308594 218.992188 268.023438 217.394531 C 268.394531 217.175781 268.796875 217.035156 269.222656 216.972656 C 269.652344 216.914062 270.074219 216.9375 270.496094 217.046875 C 270.914062 217.15625 271.292969 217.339844 271.640625 217.597656 C 271.984375 217.859375 272.265625 218.175781 272.488281 218.546875 C 272.707031 218.917969 272.84375 219.320312 272.90625 219.746094 C 272.964844 220.175781 272.941406 220.597656 272.832031 221.015625 C 272.726562 221.433594 272.542969 221.816406 272.28125 222.160156 C 272.019531 222.507812 271.703125 222.789062 271.332031 223.007812 C 269.496094 224.085938 267.550781 224.902344 265.496094 225.460938 C 263.441406 226.015625 261.347656 226.292969 259.21875 226.289062 Z M 259.21875 226.289062 " fill-opacity="1" fill-rule="nonzero"/><path fill="#000000" d="M 279.015625 211.234375 C 278.765625 211.234375 278.519531 211.207031 278.273438 211.148438 C 278.03125 211.09375 277.796875 211.007812 277.570312 210.898438 C 277.347656 210.789062 277.136719 210.652344 276.945312 210.492188 C 276.75 210.332031 276.578125 210.15625 276.425781 209.957031 C 276.273438 209.757812 276.148438 209.542969 276.042969 209.3125 C 275.941406 209.085938 275.867188 208.847656 275.820312 208.601562 C 275.769531 208.355469 275.753906 208.109375 275.761719 207.859375 C 275.769531 207.609375 275.808594 207.363281 275.875 207.121094 C 276.28125 205.652344 276.484375 204.152344 276.492188 202.628906 C 276.5 201.105469 276.308594 199.605469 275.921875 198.128906 C 275.53125 196.65625 274.957031 195.257812 274.195312 193.9375 C 273.4375 192.613281 272.519531 191.414062 271.441406 190.335938 L 234.90625 153.964844 C 234.605469 153.65625 234.378906 153.308594 234.214844 152.910156 C 234.054688 152.515625 233.976562 152.101562 233.976562 151.675781 C 233.980469 151.25 234.0625 150.835938 234.226562 150.441406 C 234.390625 150.046875 234.625 149.699219 234.925781 149.394531 C 235.226562 149.09375 235.574219 148.859375 235.96875 148.691406 C 236.363281 148.527344 236.773438 148.441406 237.203125 148.4375 C 237.628906 148.433594 238.042969 148.511719 238.4375 148.671875 C 238.835938 148.832031 239.1875 149.058594 239.496094 149.355469 L 276.03125 185.730469 C 276.773438 186.46875 277.457031 187.253906 278.09375 188.085938 C 278.730469 188.914062 279.308594 189.785156 279.828125 190.691406 C 280.351562 191.597656 280.808594 192.53125 281.207031 193.5 C 281.605469 194.464844 281.9375 195.453125 282.203125 196.464844 C 282.472656 197.476562 282.671875 198.5 282.804688 199.535156 C 282.9375 200.574219 283 201.613281 282.996094 202.660156 C 282.992188 203.703125 282.917969 204.746094 282.777344 205.78125 C 282.636719 206.816406 282.425781 207.839844 282.148438 208.847656 C 282.054688 209.191406 281.910156 209.507812 281.710938 209.804688 C 281.511719 210.097656 281.269531 210.351562 280.984375 210.570312 C 280.703125 210.785156 280.390625 210.949219 280.054688 211.0625 C 279.71875 211.175781 279.371094 211.234375 279.015625 211.234375 Z M 279.015625 211.234375 " fill-opacity="1" fill-rule="nonzero"/><path fill="#000000" d="M 235.289062 255.433594 C 233.863281 255.4375 232.449219 255.304688 231.046875 255.027344 C 229.644531 254.75 228.285156 254.339844 226.964844 253.792969 C 225.644531 253.246094 224.394531 252.578125 223.207031 251.78125 C 222.019531 250.988281 220.925781 250.082031 219.917969 249.070312 L 175.867188 205.039062 C 175.5625 204.730469 175.328125 204.378906 175.160156 203.980469 C 174.996094 203.582031 174.914062 203.167969 174.914062 202.738281 C 174.914062 202.308594 174.996094 201.890625 175.160156 201.492188 C 175.328125 201.09375 175.5625 200.742188 175.867188 200.4375 C 176.171875 200.132812 176.523438 199.898438 176.921875 199.734375 C 177.320312 199.570312 177.734375 199.488281 178.167969 199.488281 C 178.597656 199.488281 179.011719 199.570312 179.410156 199.734375 C 179.808594 199.898438 180.160156 200.132812 180.464844 200.4375 L 224.515625 244.472656 C 225.136719 245.09375 225.808594 245.65625 226.523438 246.160156 C 227.242188 246.664062 228 247.101562 228.792969 247.476562 C 229.585938 247.851562 230.40625 248.152344 231.253906 248.386719 C 232.097656 248.617188 232.957031 248.777344 233.832031 248.859375 C 234.707031 248.945312 235.578125 248.953125 236.453125 248.882812 C 237.328125 248.816406 238.191406 248.675781 239.042969 248.457031 C 239.894531 248.242188 240.71875 247.953125 241.519531 247.59375 C 242.320312 247.234375 243.082031 246.8125 243.8125 246.320312 C 244.167969 246.078125 244.558594 245.914062 244.980469 245.828125 C 245.402344 245.742188 245.824219 245.738281 246.246094 245.820312 C 246.671875 245.898438 247.0625 246.058594 247.421875 246.296875 C 247.78125 246.53125 248.082031 246.828125 248.324219 247.183594 C 248.566406 247.542969 248.730469 247.929688 248.820312 248.351562 C 248.90625 248.773438 248.910156 249.195312 248.828125 249.621094 C 248.75 250.042969 248.589844 250.433594 248.355469 250.792969 C 248.117188 251.15625 247.820312 251.457031 247.464844 251.699219 C 245.671875 252.917969 243.734375 253.847656 241.660156 254.484375 C 239.585938 255.121094 237.460938 255.4375 235.289062 255.433594 Z M 235.289062 255.433594 " fill-opacity="1" fill-rule="nonzero"/><path fill="#000000" d="M 251.914062 245.007812 C 251.640625 245.007812 251.367188 244.972656 251.101562 244.902344 C 250.835938 244.835938 250.582031 244.734375 250.339844 244.601562 C 250.097656 244.46875 249.878906 244.304688 249.679688 244.117188 C 249.480469 243.925781 249.304688 243.714844 249.160156 243.480469 C 249.015625 243.25 248.898438 243 248.816406 242.738281 C 248.734375 242.476562 248.683594 242.207031 248.667969 241.933594 C 248.65625 241.65625 248.675781 241.382812 248.730469 241.113281 C 248.78125 240.84375 248.871094 240.585938 248.992188 240.339844 C 249.332031 239.632812 249.617188 238.902344 249.847656 238.152344 C 250.078125 237.398438 250.25 236.636719 250.359375 235.855469 C 250.472656 235.078125 250.519531 234.296875 250.511719 233.511719 C 250.5 232.726562 250.429688 231.945312 250.300781 231.171875 C 250.167969 230.398438 249.980469 229.636719 249.730469 228.890625 C 249.480469 228.148438 249.175781 227.425781 248.816406 226.726562 C 248.457031 226.027344 248.042969 225.363281 247.582031 224.726562 C 247.117188 224.09375 246.609375 223.5 246.050781 222.945312 L 238.199219 215.089844 C 237.902344 214.785156 237.671875 214.433594 237.511719 214.035156 C 237.351562 213.640625 237.273438 213.230469 237.277344 212.800781 C 237.28125 212.375 237.363281 211.964844 237.53125 211.570312 C 237.695312 211.175781 237.929688 210.828125 238.230469 210.523438 C 238.535156 210.222656 238.882812 209.988281 239.277344 209.824219 C 239.671875 209.660156 240.082031 209.574219 240.507812 209.574219 C 240.9375 209.570312 241.347656 209.648438 241.746094 209.808594 C 242.140625 209.96875 242.492188 210.199219 242.800781 210.496094 L 250.664062 218.355469 C 251.457031 219.148438 252.183594 220 252.84375 220.90625 C 253.507812 221.808594 254.09375 222.761719 254.609375 223.757812 C 255.121094 224.753906 255.554688 225.785156 255.910156 226.847656 C 256.265625 227.910156 256.535156 228.996094 256.722656 230.101562 C 256.910156 231.207031 257.007812 232.320312 257.023438 233.441406 C 257.035156 234.5625 256.964844 235.675781 256.804688 236.785156 C 256.648438 237.894531 256.40625 238.988281 256.078125 240.058594 C 255.75 241.132812 255.339844 242.171875 254.851562 243.179688 C 254.578125 243.742188 254.175781 244.1875 253.648438 244.519531 C 253.117188 244.847656 252.539062 245.011719 251.914062 245.007812 Z M 251.914062 245.007812 " fill-opacity="1" fill-rule="nonzero"/><path fill="#000000" d="M 114.527344 234.550781 C 114.195312 234.550781 113.871094 234.5 113.550781 234.402344 C 113.234375 234.300781 112.941406 234.15625 112.667969 233.964844 C 112.394531 233.777344 112.15625 233.550781 111.953125 233.285156 C 111.75 233.023438 111.59375 232.734375 111.476562 232.425781 C 111.363281 232.113281 111.296875 231.789062 111.28125 231.457031 C 111.265625 231.125 111.296875 230.800781 111.382812 230.476562 C 111.46875 230.15625 111.597656 229.855469 111.773438 229.574219 C 111.949219 229.292969 112.164062 229.042969 112.417969 228.828125 L 133.554688 210.839844 L 133.597656 210.804688 C 137.25 207.804688 139.707031 203.519531 139.707031 200.136719 C 139.707031 198.882812 139.53125 197.652344 139.179688 196.449219 C 138.832031 195.242188 138.320312 194.113281 137.648438 193.050781 C 136.976562 191.992188 136.171875 191.046875 135.230469 190.21875 C 134.289062 189.386719 133.253906 188.703125 132.117188 188.167969 C 130.984375 187.632812 129.796875 187.265625 128.558594 187.070312 C 127.316406 186.871094 126.074219 186.847656 124.832031 187.003906 C 123.585938 187.15625 122.386719 187.484375 121.234375 187.980469 C 120.082031 188.472656 119.019531 189.121094 118.050781 189.917969 L 96.308594 207.792969 C 95.976562 208.066406 95.601562 208.265625 95.191406 208.390625 C 94.777344 208.515625 94.355469 208.558594 93.929688 208.515625 C 93.5 208.472656 93.09375 208.351562 92.714844 208.148438 C 92.332031 207.945312 92.003906 207.675781 91.730469 207.34375 C 91.457031 207.011719 91.257812 206.640625 91.128906 206.226562 C 91.003906 205.816406 90.960938 205.394531 91.003906 204.964844 C 91.042969 204.535156 91.167969 204.132812 91.367188 203.75 C 91.570312 203.371094 91.839844 203.042969 92.171875 202.765625 L 113.914062 184.894531 C 114.632812 184.300781 115.390625 183.765625 116.1875 183.28125 C 116.980469 182.796875 117.804688 182.371094 118.660156 182.003906 C 119.515625 181.636719 120.394531 181.332031 121.292969 181.085938 C 122.1875 180.84375 123.101562 180.664062 124.023438 180.550781 C 124.949219 180.433594 125.875 180.386719 126.804688 180.402344 C 127.738281 180.417969 128.660156 180.5 129.582031 180.648438 C 130.5 180.792969 131.402344 181.003906 132.292969 181.28125 C 133.183594 181.554688 134.046875 181.890625 134.890625 182.289062 C 135.730469 182.6875 136.542969 183.140625 137.320312 183.652344 C 138.097656 184.164062 138.832031 184.726562 139.53125 185.34375 C 140.230469 185.960938 140.878906 186.621094 141.484375 187.328125 C 142.085938 188.039062 142.640625 188.785156 143.136719 189.570312 C 143.636719 190.355469 144.074219 191.171875 144.457031 192.023438 C 144.839844 192.871094 145.164062 193.742188 145.421875 194.632812 C 145.679688 195.527344 145.875 196.4375 146.007812 197.355469 C 146.140625 198.277344 146.203125 199.203125 146.203125 200.132812 C 146.203125 206.5625 141.652344 212.589844 137.742188 215.796875 L 116.632812 233.777344 C 116.027344 234.292969 115.324219 234.550781 114.527344 234.550781 Z M 114.527344 234.550781 " fill-opacity="1" fill-rule="nonzero"/><path fill="#000000" d="M 137.449219 261.085938 C 137.113281 261.085938 136.785156 261.035156 136.464844 260.933594 C 136.144531 260.832031 135.847656 260.6875 135.574219 260.496094 C 135.300781 260.300781 135.058594 260.070312 134.855469 259.804688 C 134.652344 259.539062 134.496094 259.246094 134.382812 258.933594 C 134.269531 258.617188 134.207031 258.292969 134.191406 257.957031 C 134.179688 257.621094 134.21875 257.292969 134.308594 256.96875 C 134.398438 256.644531 134.53125 256.34375 134.714844 256.0625 C 134.898438 255.78125 135.121094 255.535156 135.378906 255.320312 L 157.613281 237.050781 C 158.371094 236.429688 159.050781 235.730469 159.652344 234.960938 C 160.253906 234.1875 160.761719 233.359375 161.179688 232.476562 C 161.597656 231.589844 161.914062 230.671875 162.125 229.714844 C 162.339844 228.761719 162.445312 227.792969 162.441406 226.816406 C 162.449219 225.28125 162.195312 223.792969 161.675781 222.347656 C 161.160156 220.902344 160.410156 219.589844 159.433594 218.410156 C 157.175781 215.671875 153.28125 213.679688 149.011719 213.089844 C 144.746094 212.5 140.734375 213.359375 138.140625 215.488281 L 116.632812 233.777344 C 116.308594 234.0625 115.9375 234.277344 115.523438 234.414062 C 115.113281 234.550781 114.6875 234.605469 114.253906 234.574219 C 113.820312 234.542969 113.410156 234.425781 113.023438 234.230469 C 112.632812 234.035156 112.300781 233.769531 112.015625 233.4375 C 111.734375 233.105469 111.527344 232.734375 111.394531 232.320312 C 111.261719 231.90625 111.214844 231.480469 111.253906 231.050781 C 111.292969 230.617188 111.410156 230.207031 111.613281 229.820312 C 111.816406 229.4375 112.082031 229.105469 112.417969 228.828125 L 133.945312 210.503906 L 133.988281 210.46875 C 137.996094 207.171875 143.804688 205.777344 149.921875 206.628906 C 155.832031 207.460938 161.15625 210.246094 164.453125 214.269531 C 164.863281 214.769531 165.246094 215.285156 165.605469 215.824219 C 165.96875 216.359375 166.300781 216.914062 166.605469 217.484375 C 166.910156 218.054688 167.1875 218.636719 167.433594 219.234375 C 167.683594 219.832031 167.902344 220.4375 168.089844 221.058594 C 168.277344 221.675781 168.433594 222.300781 168.5625 222.933594 C 168.6875 223.570312 168.785156 224.207031 168.847656 224.851562 C 168.914062 225.492188 168.945312 226.136719 168.945312 226.785156 C 168.945312 227.429688 168.914062 228.074219 168.851562 228.71875 C 168.789062 229.363281 168.695312 230 168.570312 230.636719 C 168.445312 231.269531 168.289062 231.894531 168.101562 232.515625 C 167.914062 233.132812 167.699219 233.742188 167.453125 234.339844 C 167.203125 234.9375 166.929688 235.519531 166.625 236.089844 C 166.320312 236.660156 165.988281 237.214844 165.632812 237.753906 C 165.273438 238.292969 164.890625 238.808594 164.480469 239.308594 C 164.070312 239.808594 163.636719 240.289062 163.179688 240.746094 C 162.722656 241.203125 162.246094 241.640625 161.746094 242.050781 L 139.503906 260.347656 C 138.90625 260.835938 138.21875 261.082031 137.449219 261.085938 Z M 137.449219 261.085938 " fill-opacity="1" fill-rule="nonzero"/><path fill="#000000" d="M 161.21875 286.574219 C 160.886719 286.574219 160.558594 286.523438 160.238281 286.425781 C 159.917969 286.324219 159.621094 286.175781 159.347656 285.984375 C 159.070312 285.792969 158.832031 285.5625 158.628906 285.292969 C 158.425781 285.027344 158.269531 284.738281 158.15625 284.421875 C 158.039062 284.105469 157.976562 283.78125 157.964844 283.445312 C 157.953125 283.109375 157.992188 282.78125 158.082031 282.457031 C 158.167969 282.136719 158.304688 281.832031 158.488281 281.550781 C 158.671875 281.269531 158.890625 281.023438 159.152344 280.8125 L 179.664062 263.964844 C 180.425781 263.339844 181.109375 262.640625 181.714844 261.859375 C 182.324219 261.082031 182.835938 260.25 183.257812 259.355469 C 183.679688 258.464844 183.996094 257.539062 184.210938 256.574219 C 184.425781 255.613281 184.535156 254.636719 184.53125 253.652344 C 184.539062 252.105469 184.277344 250.601562 183.753906 249.148438 C 183.230469 247.691406 182.472656 246.367188 181.484375 245.179688 C 180.246094 243.714844 178.792969 242.515625 177.125 241.574219 C 175.453125 240.632812 173.671875 240.007812 171.78125 239.707031 C 167.9375 239.078125 164.355469 239.914062 161.730469 242.070312 L 139.503906 260.347656 C 139.167969 260.621094 138.796875 260.820312 138.382812 260.945312 C 137.96875 261.074219 137.550781 261.113281 137.121094 261.074219 C 136.691406 261.03125 136.285156 260.910156 135.902344 260.707031 C 135.523438 260.503906 135.195312 260.234375 134.921875 259.902344 C 134.644531 259.570312 134.445312 259.195312 134.320312 258.785156 C 134.195312 258.371094 134.152344 257.949219 134.191406 257.519531 C 134.234375 257.089844 134.355469 256.6875 134.558594 256.304688 C 134.761719 255.921875 135.03125 255.597656 135.363281 255.320312 L 157.597656 237.050781 C 161.683594 233.6875 167.09375 232.351562 172.820312 233.289062 C 175.492188 233.722656 178.007812 234.605469 180.363281 235.941406 C 182.71875 237.273438 184.765625 238.976562 186.507812 241.046875 C 186.921875 241.550781 187.308594 242.070312 187.671875 242.609375 C 188.035156 243.148438 188.367188 243.707031 188.675781 244.277344 C 188.984375 244.851562 189.261719 245.4375 189.511719 246.039062 C 189.761719 246.640625 189.980469 247.25 190.167969 247.871094 C 190.359375 248.492188 190.515625 249.121094 190.644531 249.757812 C 190.773438 250.398438 190.867188 251.039062 190.933594 251.6875 C 190.996094 252.332031 191.03125 252.980469 191.03125 253.628906 C 191.03125 254.28125 191 254.929688 190.9375 255.574219 C 190.875 256.222656 190.777344 256.863281 190.652344 257.503906 C 190.527344 258.140625 190.371094 258.769531 190.179688 259.390625 C 189.992188 260.011719 189.773438 260.625 189.527344 261.226562 C 189.277344 261.824219 189 262.414062 188.695312 262.988281 C 188.390625 263.558594 188.054688 264.117188 187.695312 264.65625 C 187.335938 265.199219 186.949219 265.71875 186.535156 266.222656 C 186.125 266.726562 185.6875 267.207031 185.230469 267.667969 C 184.769531 268.125 184.289062 268.5625 183.785156 268.976562 L 163.277344 285.820312 C 162.683594 286.316406 161.996094 286.570312 161.21875 286.574219 Z M 161.21875 286.574219 " fill-opacity="1" fill-rule="nonzero"/><path fill="#000000" d="M 209.410156 291.347656 C 209.148438 291.347656 208.890625 291.316406 208.636719 291.253906 C 208.382812 291.191406 208.140625 291.097656 207.90625 290.976562 C 207.675781 290.855469 207.460938 290.707031 207.265625 290.535156 C 207.066406 290.363281 206.894531 290.167969 206.746094 289.953125 C 206.597656 289.738281 206.472656 289.511719 206.378906 289.265625 C 206.285156 289.023438 206.222656 288.769531 206.1875 288.511719 C 206.15625 288.25 206.152344 287.992188 206.183594 287.730469 C 206.210938 287.472656 206.273438 287.21875 206.363281 286.972656 C 206.84375 285.683594 207.34375 284.273438 207.839844 282.78125 C 208.144531 281.878906 208.296875 280.953125 208.296875 280 C 208.300781 278.863281 208.085938 277.765625 207.648438 276.710938 C 207.214844 275.65625 206.59375 274.726562 205.785156 273.921875 C 201.976562 270.117188 197.613281 267.574219 193.5 266.769531 C 189.203125 265.929688 185.492188 267.03125 182.472656 270.050781 C 182.398438 270.125 182.320312 270.195312 182.242188 270.265625 L 164.148438 285.132812 C 163.8125 285.40625 163.441406 285.605469 163.027344 285.734375 C 162.613281 285.859375 162.195312 285.902344 161.765625 285.859375 C 161.335938 285.816406 160.929688 285.695312 160.546875 285.492188 C 160.167969 285.289062 159.839844 285.023438 159.566406 284.6875 C 159.289062 284.355469 159.089844 283.984375 158.964844 283.570312 C 158.839844 283.15625 158.796875 282.734375 158.835938 282.304688 C 158.878906 281.878906 159 281.472656 159.203125 281.089844 C 159.40625 280.710938 159.675781 280.382812 160.007812 280.109375 L 177.984375 265.332031 C 182.546875 260.839844 188.332031 259.125 194.742188 260.382812 C 200.113281 261.433594 205.660156 264.605469 210.375 269.316406 C 211.371094 270.316406 212.210938 271.429688 212.894531 272.660156 C 213.578125 273.894531 214.078125 275.195312 214.402344 276.566406 C 214.722656 277.9375 214.847656 279.328125 214.78125 280.734375 C 214.710938 282.140625 214.453125 283.511719 214.003906 284.84375 C 213.480469 286.398438 212.960938 287.875 212.457031 289.226562 C 212.339844 289.539062 212.179688 289.824219 211.976562 290.085938 C 211.773438 290.347656 211.535156 290.574219 211.265625 290.765625 C 210.992188 290.953125 210.699219 291.097656 210.382812 291.199219 C 210.066406 291.296875 209.742188 291.347656 209.410156 291.347656 Z M 209.410156 291.347656 " fill-opacity="1" fill-rule="nonzero"/></svg>