<svg xmlns="http://www.w3.org/2000/svg" xmlns:xlink="http://www.w3.org/1999/xlink" width="500" zoomAndPan="magnify" viewBox="0 0 375 374.999991" height="500" preserveAspectRatio="xMidYMid meet" version="1.0"><defs><clipPath id="74aa23e8c8"><path d="M 56.25 56.578125 L 318.75 56.578125 L 318.75 318.328125 L 56.25 318.328125 Z M 56.25 56.578125 " clip-rule="nonzero"/></clipPath></defs><g clip-path="url(#74aa23e8c8)"><path fill="#000000" d="M 153.972656 100.34375 L 157.945312 102.636719 C 158.410156 104.027344 158.96875 105.371094 159.621094 106.667969 L 158.425781 111.09375 C 158.03125 112.554688 158.449219 114.113281 159.519531 115.183594 L 165.292969 120.953125 C 166.363281 122.027344 167.921875 122.4375 169.382812 122.046875 L 173.808594 120.855469 C 175.109375 121.503906 176.453125 122.0625 177.84375 122.527344 L 180.136719 126.5 C 180.894531 127.808594 182.285156 128.609375 183.796875 128.609375 L 191.949219 128.609375 C 193.457031 128.609375 194.851562 127.800781 195.613281 126.5 L 197.902344 122.527344 C 199.289062 122.0625 200.636719 121.503906 201.933594 120.855469 L 206.363281 122.046875 C 207.824219 122.441406 209.386719 122.027344 210.457031 120.949219 L 216.214844 115.179688 C 217.28125 114.113281 217.691406 112.5625 217.308594 111.105469 L 216.125 106.679688 C 216.773438 105.382812 217.332031 104.03125 217.796875 102.644531 L 221.773438 100.347656 C 223.082031 99.59375 223.882812 98.203125 223.882812 96.691406 L 223.882812 88.542969 C 223.882812 87.03125 223.074219 85.640625 221.773438 84.878906 L 217.796875 82.589844 C 217.332031 81.203125 216.773438 79.851562 216.125 78.554688 L 217.308594 74.128906 C 217.699219 72.671875 217.28125 71.117188 216.214844 70.050781 L 210.457031 64.296875 C 209.390625 63.230469 207.835938 62.8125 206.378906 63.203125 L 201.9375 64.390625 C 200.628906 63.734375 199.277344 63.175781 197.90625 62.71875 L 195.613281 58.746094 C 194.855469 57.4375 193.464844 56.636719 191.949219 56.636719 L 183.796875 56.636719 C 182.285156 56.636719 180.894531 57.441406 180.136719 58.746094 L 177.84375 62.71875 C 176.46875 63.183594 175.125 63.742188 173.808594 64.390625 L 169.371094 63.203125 C 167.914062 62.8125 166.363281 63.230469 165.296875 64.296875 L 159.523438 70.050781 C 158.453125 71.121094 158.035156 72.679688 158.425781 74.140625 L 159.621094 78.578125 C 158.96875 79.867188 158.410156 81.214844 157.945312 82.601562 L 153.972656 84.890625 C 152.664062 85.644531 151.863281 87.039062 151.863281 88.550781 L 151.863281 96.703125 C 151.863281 98.210938 152.667969 99.605469 153.972656 100.359375 Z M 160.3125 90.972656 L 163.613281 89.070312 C 164.578125 88.511719 165.28125 87.597656 165.578125 86.527344 C 166.09375 84.632812 166.839844 82.84375 167.789062 81.207031 C 168.351562 80.238281 168.507812 79.078125 168.214844 77.992188 L 167.222656 74.296875 L 169.539062 71.988281 L 173.234375 72.972656 C 174.304688 73.257812 175.453125 73.109375 176.410156 72.566406 C 178.128906 71.589844 179.9375 70.84375 181.785156 70.335938 C 182.855469 70.039062 183.773438 69.339844 184.328125 68.375 L 186.234375 65.070312 L 189.503906 65.070312 L 191.410156 68.375 C 191.964844 69.339844 192.882812 70.039062 193.953125 70.335938 C 195.800781 70.84375 197.605469 71.589844 199.328125 72.566406 C 200.292969 73.117188 201.433594 73.265625 202.503906 72.972656 L 206.191406 71.988281 L 208.503906 74.296875 L 207.515625 77.984375 C 207.226562 79.066406 207.378906 80.21875 207.941406 81.183594 C 208.894531 82.84375 209.644531 84.644531 210.15625 86.53125 C 210.453125 87.609375 211.152344 88.519531 212.121094 89.074219 L 215.421875 90.980469 L 215.421875 94.25 L 212.121094 96.15625 C 211.152344 96.707031 210.453125 97.625 210.15625 98.695312 C 209.640625 100.585938 208.894531 102.386719 207.941406 104.042969 C 207.378906 105.011719 207.230469 106.164062 207.515625 107.238281 L 208.503906 110.929688 L 206.191406 113.246094 L 202.515625 112.253906 C 201.433594 111.960938 200.277344 112.113281 199.304688 112.671875 C 197.644531 113.628906 195.84375 114.375 193.960938 114.886719 C 192.882812 115.183594 191.96875 115.886719 191.414062 116.851562 L 189.511719 120.152344 L 186.238281 120.152344 L 184.332031 116.851562 C 183.78125 115.886719 182.859375 115.183594 181.789062 114.886719 C 179.902344 114.371094 178.101562 113.628906 176.445312 112.667969 C 175.472656 112.109375 174.316406 111.953125 173.234375 112.25 L 169.550781 113.242188 L 167.234375 110.925781 L 168.226562 107.242188 C 168.515625 106.164062 168.371094 105.007812 167.808594 104.035156 C 166.855469 102.375 166.105469 100.574219 165.589844 98.691406 C 165.292969 97.617188 164.589844 96.703125 163.625 96.148438 L 160.320312 94.246094 L 160.320312 90.972656 Z M 187.859375 107.746094 C 196.203125 107.746094 202.988281 100.960938 202.988281 92.621094 C 202.988281 84.277344 196.203125 77.496094 187.859375 77.496094 C 179.515625 77.496094 172.726562 84.277344 172.726562 92.621094 C 172.726562 100.960938 179.515625 107.746094 187.859375 107.746094 Z M 187.859375 85.941406 C 191.542969 85.941406 194.539062 88.9375 194.539062 92.621094 C 194.539062 96.300781 191.542969 99.296875 187.859375 99.296875 C 184.175781 99.296875 181.175781 96.300781 181.175781 92.621094 C 181.175781 88.9375 184.175781 85.941406 187.859375 85.941406 Z M 93.855469 184.503906 C 114.195312 184.503906 130.742188 167.96875 130.742188 147.648438 C 130.742188 127.328125 114.195312 110.777344 93.855469 110.777344 C 73.519531 110.777344 56.988281 127.316406 56.988281 147.648438 C 56.988281 167.980469 73.527344 184.503906 93.855469 184.503906 Z M 93.855469 119.230469 C 109.535156 119.230469 122.285156 131.980469 122.285156 147.648438 C 122.285156 163.316406 109.53125 176.050781 93.855469 176.050781 C 78.183594 176.050781 65.441406 163.3125 65.441406 147.648438 C 65.441406 131.984375 78.1875 119.230469 93.855469 119.230469 Z M 96.570312 154.589844 C 96.570312 153.121094 95.324219 151.875 93.855469 151.875 C 87.699219 151.875 82.691406 146.867188 82.691406 140.710938 C 82.691406 136.054688 85.566406 132.054688 89.628906 130.382812 L 89.628906 126.414062 C 89.628906 124.082031 91.519531 122.1875 93.855469 122.1875 C 96.195312 122.1875 98.085938 124.078125 98.085938 126.414062 L 98.085938 129.546875 L 100.796875 129.546875 C 103.128906 129.546875 105.023438 131.4375 105.023438 133.773438 C 105.023438 136.113281 103.136719 138 100.796875 138 L 93.855469 138 C 92.382812 138 91.144531 139.246094 91.144531 140.71875 C 91.144531 142.1875 92.390625 143.429688 93.855469 143.429688 C 100.015625 143.429688 105.023438 148.433594 105.023438 154.589844 C 105.023438 159.246094 102.148438 163.238281 98.085938 164.90625 L 98.085938 168.886719 C 98.085938 171.21875 96.195312 173.113281 93.855469 173.113281 C 91.519531 173.113281 89.628906 171.226562 89.628906 168.886719 L 89.628906 165.738281 L 86.917969 165.738281 C 84.585938 165.738281 82.691406 163.851562 82.691406 161.511719 C 82.691406 159.175781 84.578125 157.289062 86.917969 157.289062 L 93.855469 157.289062 C 95.355469 157.289062 96.570312 156.078125 96.570312 154.585938 Z M 281.882812 110.785156 C 261.542969 110.785156 244.996094 127.324219 244.996094 147.65625 C 244.996094 167.988281 261.542969 184.507812 281.882812 184.507812 C 302.222656 184.507812 318.75 167.976562 318.75 147.65625 C 318.75 127.332031 302.210938 110.785156 281.882812 110.785156 Z M 268.277344 172.585938 L 268.277344 168.570312 C 268.277344 161.070312 274.382812 154.972656 281.882812 154.972656 C 289.382812 154.972656 295.472656 161.074219 295.472656 168.570312 L 295.472656 172.59375 C 291.433594 174.800781 286.800781 176.058594 281.882812 176.058594 C 276.964844 176.058594 272.320312 174.796875 268.277344 172.585938 Z M 274.914062 139.5625 C 274.914062 135.722656 278.039062 132.597656 281.882812 132.597656 C 285.722656 132.597656 288.847656 135.722656 288.847656 139.5625 C 288.847656 143.402344 285.722656 146.523438 281.882812 146.523438 C 278.039062 146.523438 274.914062 143.402344 274.914062 139.5625 Z M 303.742188 165.78125 C 302.878906 159.023438 298.960938 153.210938 293.402344 149.785156 C 295.820312 147.0625 297.296875 143.480469 297.296875 139.5625 C 297.296875 131.0625 290.382812 124.152344 281.882812 124.152344 C 273.378906 124.152344 266.464844 131.0625 266.464844 139.5625 C 266.464844 143.480469 267.9375 147.058594 270.355469 149.78125 C 264.796875 153.199219 260.867188 159.011719 260.007812 165.777344 C 255.917969 160.855469 253.453125 154.535156 253.453125 147.65625 C 253.453125 131.980469 266.207031 119.234375 281.882812 119.234375 C 297.554688 119.234375 310.296875 131.984375 310.296875 147.65625 C 310.296875 154.539062 307.832031 160.859375 303.742188 165.78125 Z M 211.011719 176.554688 L 229.246094 166.011719 C 231.265625 164.84375 233.851562 165.53125 235.019531 167.554688 C 236.183594 169.574219 235.5 172.160156 233.476562 173.324219 L 215.242188 183.867188 C 214.578125 184.25 213.851562 184.433594 213.132812 184.433594 C 211.671875 184.433594 210.25 183.679688 209.46875 182.324219 C 208.304688 180.304688 208.988281 177.71875 211.011719 176.554688 Z M 192.085938 137.425781 L 192.085938 163.609375 C 192.085938 165.9375 190.195312 167.832031 187.859375 167.832031 C 185.519531 167.832031 183.632812 165.945312 183.632812 163.609375 L 183.632812 137.425781 C 183.632812 135.09375 185.519531 133.199219 187.859375 133.199219 C 190.195312 133.199219 192.085938 135.089844 192.085938 137.425781 Z M 140.714844 167.554688 C 141.882812 165.53125 144.46875 164.84375 146.488281 166.011719 L 164.722656 176.554688 C 166.742188 177.71875 167.433594 180.304688 166.261719 182.324219 C 165.484375 183.679688 164.0625 184.433594 162.601562 184.433594 C 161.882812 184.433594 161.15625 184.25 160.488281 183.867188 L 142.257812 173.324219 C 140.234375 172.160156 139.542969 169.574219 140.714844 167.554688 Z M 263.273438 187.847656 C 254.859375 187.164062 245.171875 192.132812 233.660156 203.046875 C 224.765625 211.488281 216.617188 221.800781 211.746094 227.96875 C 211.417969 228.386719 211.101562 228.78125 210.800781 229.167969 C 201.847656 230.855469 195.679688 232.425781 191.105469 233.59375 C 184.363281 235.308594 181.578125 236.019531 178.007812 235.285156 C 174.816406 234.636719 170.722656 232.800781 163.703125 229.386719 L 190.082031 223.140625 C 190.847656 222.960938 191.542969 222.574219 192.097656 222.019531 C 197.328125 216.789062 198.703125 207.15625 195.367188 199.113281 C 192.546875 192.300781 186.945312 188.234375 180.386719 188.234375 C 180.175781 188.234375 179.96875 188.25 179.761719 188.28125 L 175.265625 188.953125 C 120.210938 197.148438 119.164062 197.308594 97.964844 223.585938 C 94.621094 227.726562 90.589844 232.722656 85.65625 238.550781 C 83.089844 236.785156 80.023438 235.828125 76.699219 235.828125 L 76.695312 235.828125 C 69.710938 235.828125 62.679688 239.890625 59.183594 245.933594 C 56.265625 250.976562 56.28125 256.789062 59.222656 261.886719 L 87.179688 310.289062 C 90.121094 315.378906 95.144531 318.300781 100.972656 318.300781 L 100.976562 318.300781 C 107.957031 318.300781 114.992188 314.242188 118.488281 308.199219 C 120.351562 304.980469 121.007812 301.445312 120.488281 297.988281 L 130.085938 291.089844 C 164.335938 294.308594 175.710938 289.179688 194.355469 280.765625 C 203.199219 276.773438 213.226562 272.253906 228.328125 267.335938 C 229.125 267.078125 229.824219 266.585938 230.34375 265.925781 L 278.792969 204.132812 C 279.839844 202.800781 279.988281 200.96875 279.167969 199.488281 C 275.199219 192.304688 269.855469 188.398438 263.277344 187.859375 Z M 111.160156 303.964844 C 109.191406 307.371094 104.902344 309.847656 100.964844 309.847656 C 98.121094 309.847656 95.941406 308.570312 94.496094 306.058594 L 66.535156 257.648438 C 65.085938 255.136719 65.074219 252.613281 66.5 250.148438 C 68.46875 246.738281 72.757812 244.265625 76.695312 244.265625 C 79.539062 244.265625 81.71875 245.542969 83.171875 248.058594 L 90.394531 260.539062 L 111.128906 296.460938 C 112.582031 298.972656 112.59375 301.5 111.167969 303.964844 Z M 224.472656 259.691406 C 209.597656 264.609375 199.238281 269.28125 190.871094 273.054688 C 172.628906 281.289062 162.574219 285.820312 129.328125 282.519531 C 128.304688 282.417969 127.277344 282.691406 126.445312 283.289062 L 117.140625 289.96875 L 97.714844 256.308594 L 91.203125 245.058594 C 96.613281 238.699219 100.972656 233.296875 104.542969 228.871094 C 114.488281 216.546875 119.023438 210.917969 127.421875 207.199219 C 136.222656 203.296875 149.691406 201.289062 176.519531 197.292969 L 180.671875 196.675781 C 184.6875 196.828125 186.707031 200.261719 187.570312 202.332031 C 189.40625 206.765625 189.039062 212.164062 186.8125 215.222656 L 150.304688 223.863281 C 148.566406 224.277344 147.273438 225.734375 147.078125 227.503906 C 146.878906 229.277344 147.820312 230.980469 149.417969 231.769531 C 151.085938 232.585938 152.640625 233.351562 154.105469 234.074219 C 176.402344 245.046875 177.730469 245.707031 193.199219 241.765625 C 197.917969 240.5625 204.382812 238.917969 213.898438 237.167969 C 214.902344 236.984375 215.804688 236.445312 216.4375 235.652344 C 217.023438 234.917969 217.675781 234.089844 218.382812 233.191406 C 226.609375 222.773438 248.476562 195.109375 262.585938 196.257812 C 265.546875 196.5 268.09375 198.136719 270.3125 201.234375 L 224.480469 259.6875 Z M 224.472656 259.691406 " fill-opacity="1" fill-rule="nonzero"/></g></svg>