<svg xmlns="http://www.w3.org/2000/svg" xmlns:xlink="http://www.w3.org/1999/xlink" width="500" zoomAndPan="magnify" viewBox="0 0 375 374.999991" height="500" preserveAspectRatio="xMidYMid meet" version="1.0"><path fill="#000000" d="M 263.148438 214.726562 C 258.621094 214.726562 254.933594 211.054688 254.933594 206.507812 C 254.933594 202.003906 258.621094 198.289062 263.148438 198.289062 C 267.679688 198.289062 271.359375 202 271.359375 206.507812 C 271.359375 211.054688 267.679688 214.726562 263.148438 214.726562 Z M 263.148438 188.402344 C 253.160156 188.402344 245.039062 196.539062 245.039062 206.507812 C 245.039062 216.519531 253.164062 224.609375 263.148438 224.609375 C 273.136719 224.609375 281.261719 216.519531 281.261719 206.507812 C 281.261719 196.539062 273.136719 188.402344 263.148438 188.402344 Z M 111.851562 198.289062 C 116.375 198.289062 120.054688 202.003906 120.054688 206.507812 C 120.054688 211.054688 116.375 214.726562 111.851562 214.726562 C 107.320312 214.726562 103.636719 211.054688 103.636719 206.507812 C 103.636719 202.003906 107.324219 198.289062 111.851562 198.289062 Z M 111.851562 224.609375 C 121.832031 224.609375 129.957031 216.519531 129.957031 206.507812 C 129.957031 196.539062 121.832031 188.40625 111.851562 188.40625 C 101.863281 188.40625 93.734375 196.539062 93.734375 206.507812 C 93.734375 216.519531 101.863281 224.609375 111.851562 224.609375 Z M 230.277344 59.554688 C 232.433594 59.554688 234.339844 58.183594 235 56.132812 L 238.460938 45.414062 L 241.921875 56.132812 C 242.582031 58.183594 244.488281 59.558594 246.640625 59.554688 L 257.902344 59.511719 L 248.78125 66.101562 C 247.035156 67.394531 246.304688 69.605469 246.96875 71.652344 L 250.472656 82.371094 L 241.382812 75.738281 C 239.617188 74.460938 237.300781 74.460938 235.542969 75.738281 L 226.445312 82.371094 L 229.949219 71.652344 C 230.609375 69.605469 229.886719 67.394531 228.144531 66.101562 L 219.023438 59.511719 Z M 200.792969 58.550781 L 219.410156 72.027344 L 212.265625 93.882812 C 210.789062 98.351562 215.976562 102.21875 219.894531 99.390625 L 238.460938 85.875 L 257.03125 99.390625 C 260.929688 102.261719 266.125 98.339844 264.652344 93.882812 L 257.503906 72.027344 L 276.125 58.550781 C 280.007812 55.753906 278 49.578125 273.210938 49.585938 L 250.230469 49.625 L 243.167969 27.769531 C 241.699219 23.226562 235.214844 23.230469 233.75 27.769531 L 226.683594 49.625 L 203.695312 49.585938 C 198.921875 49.585938 196.910156 55.765625 200.792969 58.550781 Z M 272.847656 251.433594 C 270.964844 252.890625 268.960938 254.519531 266.789062 256.230469 C 247.34375 271.746094 240.515625 299.777344 234.546875 324.597656 C 230.664062 323.847656 226.746094 323.179688 222.785156 322.636719 L 233.136719 291.601562 C 233.183594 291.476562 233.214844 291.351562 233.25 291.226562 C 240.421875 262.070312 232.382812 240.171875 222.371094 218.648438 C 222.597656 218.019531 222.835938 217.4375 223.074219 216.8125 C 227.429688 220.441406 231.585938 223.734375 235.472656 226.53125 C 245.59375 233.871094 253.625 238.542969 262.375 239.167969 C 270.800781 239.753906 279.25 236.542969 290.636719 228.367188 C 295.058594 225.195312 299.335938 221.777344 303.125 218.523438 C 294.308594 234.453125 288.082031 239.378906 272.847656 251.433594 Z M 175.417969 320.425781 C 174.941406 316.671875 174.609375 309.871094 174.289062 303.199219 C 172.921875 275.042969 170.628906 227.863281 153.371094 195.746094 C 148.921875 187.429688 128.769531 167.703125 125.972656 161.25 C 126.523438 160.082031 126.941406 159.496094 127.167969 159.246094 C 128.71875 159.707031 132.335938 162.5 135.277344 164.796875 C 139.03125 167.714844 143.710938 171.304688 149.574219 174.933594 C 172.566406 189.074219 195.5625 189.78125 211.089844 176.851562 C 224.207031 166.132812 233.644531 159.578125 239.125 124.460938 C 239.730469 120.578125 240.25 116.574219 240.6875 112.53125 L 241.28125 122.039062 C 242.210938 155.785156 234.824219 170.132812 225.480469 188.28125 C 220.429688 198.082031 214.699219 209.175781 209.828125 224.652344 C 201.027344 252.566406 200.621094 287.566406 198.773438 320.425781 C 191.039062 320.082031 183.144531 320.101562 175.417969 320.425781 Z M 108.199219 256.230469 C 106.042969 254.519531 104.027344 252.890625 102.152344 251.433594 C 86.914062 239.378906 80.695312 234.457031 71.875 218.519531 C 75.65625 221.773438 79.9375 225.195312 84.359375 228.367188 C 95.75 236.542969 104.199219 239.753906 112.621094 239.167969 C 121.375 238.542969 129.402344 233.871094 139.519531 226.53125 C 143.355469 223.777344 147.449219 220.566406 151.738281 216.9375 C 151.984375 217.644531 152.222656 218.355469 152.453125 219.0625 C 142.542969 240.335938 134.574219 262.070312 141.746094 291.226562 C 141.777344 291.351562 141.820312 291.476562 141.855469 291.601562 L 152.207031 322.636719 C 148.246094 323.179688 144.328125 323.847656 140.453125 324.597656 C 134.480469 299.777344 127.644531 271.746094 108.199219 256.230469 Z M 164.398438 303.699219 C 163.511719 285.386719 162.210938 258.816406 156.597656 234.203125 C 149.890625 250.679688 146.125 267.367188 151.316406 288.640625 L 162.242188 321.425781 C 163.335938 321.300781 164.433594 321.21875 165.53125 321.09375 C 165.085938 317.339844 164.796875 311.914062 164.398438 303.699219 Z M 217.789062 232.746094 C 210.886719 258.304688 210.324219 291.101562 208.652344 321.050781 C 210.023438 321.132812 211.390625 321.257812 212.757812 321.425781 L 223.683594 288.640625 C 228.996094 266.867188 224.878906 249.765625 217.789062 232.746094 Z M 314.714844 203.378906 C 311.664062 201.125 307.433594 201.335938 304.644531 203.921875 C 299.867188 208.382812 292.570312 214.808594 284.867188 220.3125 C 266.613281 233.414062 259.574219 231.828125 241.285156 218.519531 C 236.910156 215.351562 232.152344 211.554688 227.125 207.257812 C 229.492188 202.085938 231.910156 197.414062 234.28125 192.78125 C 243.890625 174.179688 252.175781 158.078125 251.179688 121.789062 C 250.957031 112.625 250.347656 103.125 245.378906 98.929688 C 240.15625 94.519531 232.035156 97.800781 231.46875 104.726562 C 230.96875 110.945312 230.246094 117.074219 229.339844 122.914062 C 224.40625 154.558594 217.066406 159.039062 204.75 169.257812 C 192.648438 179.308594 173.960938 178.308594 154.753906 166.503906 C 149.355469 163.167969 144.910156 159.746094 141.34375 156.953125 C 134.753906 151.863281 129.992188 148.148438 124.597656 149.609375 C 120.046875 150.777344 117.742188 155.199219 116.402344 158.410156 C 114.164062 163.792969 119.023438 170.050781 132.4375 185.273438 C 137.601562 191.15625 142.9375 197.246094 144.648438 200.417969 C 145.816406 202.585938 146.914062 204.878906 147.945312 207.214844 C 142.878906 211.554688 138.101562 215.351562 133.703125 218.519531 C 115.414062 231.828125 108.378906 233.410156 90.125 220.3125 C 82.429688 214.808594 75.121094 208.382812 70.347656 203.921875 C 67.5625 201.335938 63.328125 201.125 60.277344 203.378906 C 57.226562 205.671875 56.246094 209.800781 57.933594 213.179688 C 70.863281 239.292969 77.710938 244.714844 96.003906 259.191406 C 97.875 260.652344 99.867188 262.234375 102.015625 263.945312 C 118.773438 277.335938 125.179688 303.488281 130.769531 326.683594 C 115.921875 330.269531 101.820312 335.234375 88.816406 341.574219 C 86.363281 342.742188 85.335938 345.746094 86.539062 348.164062 C 87.734375 350.625 90.699219 351.667969 93.152344 350.457031 C 120.574219 337.109375 153.199219 330.0625 187.496094 330.0625 C 221.792969 330.0625 254.410156 337.109375 281.832031 350.457031 C 284.257812 351.628906 287.21875 350.707031 288.453125 348.164062 C 289.652344 345.746094 288.625 342.742188 286.171875 341.574219 C 273.171875 335.234375 259.074219 330.269531 244.222656 326.683594 C 249.804688 303.492188 256.222656 277.335938 272.976562 263.945312 C 275.121094 262.234375 277.117188 260.652344 278.980469 259.191406 C 297.28125 244.714844 304.132812 239.292969 317.0625 213.179688 C 318.757812 209.800781 317.765625 205.671875 314.714844 203.378906 Z M 183.191406 133.59375 C 175.199219 133.59375 168.703125 140.058594 168.703125 148.066406 C 168.703125 156.035156 175.199219 162.542969 183.191406 162.542969 C 191.175781 162.542969 197.675781 156.035156 197.675781 148.066406 C 197.675781 140.058594 191.175781 133.59375 183.191406 133.59375 Z M 183.191406 172.429688 C 196.640625 172.429688 207.578125 161.5 207.578125 148.066406 C 207.578125 134.59375 196.640625 123.667969 183.191406 123.667969 C 169.742188 123.667969 158.800781 134.59375 158.800781 148.066406 C 158.800781 161.5 169.742188 172.429688 183.191406 172.429688 Z M 183.191406 172.429688 " fill-opacity="1" fill-rule="evenodd"/></svg>