<svg xmlns="http://www.w3.org/2000/svg" xmlns:xlink="http://www.w3.org/1999/xlink" width="500" zoomAndPan="magnify" viewBox="0 0 375 374.999991" height="500" preserveAspectRatio="xMidYMid meet" version="1.0"><defs><clipPath id="f2954b6d6e"><path d="M 56.25 131 L 126 131 L 126 221 L 56.25 221 Z M 56.25 131 " clip-rule="nonzero"/></clipPath><clipPath id="ebd9fad726"><path d="M 88 40.234375 L 263 40.234375 L 263 334.984375 L 88 334.984375 Z M 88 40.234375 " clip-rule="nonzero"/></clipPath><clipPath id="aba76601d7"><path d="M 304 188 L 318.75 188 L 318.75 199 L 304 199 Z M 304 188 " clip-rule="nonzero"/></clipPath></defs><g clip-path="url(#f2954b6d6e)"><path fill="#000000" d="M 94.898438 220.992188 C 100.652344 220.992188 105.484375 216.160156 105.484375 210.402344 L 105.484375 203.035156 C 105.484375 199.351562 108.015625 196.359375 112.613281 191.523438 C 118.136719 185.539062 125.957031 177.480469 125.269531 164.816406 C 124.347656 146.859375 110.085938 132.125 92.371094 131.203125 C 82.9375 130.742188 73.503906 134.425781 66.832031 141.101562 C 60.621094 147.320312 56.941406 155.605469 56.480469 164.585938 C 56.25 170.574219 61.082031 175.636719 67.0625 175.636719 L 74.886719 175.636719 C 80.40625 175.636719 85.007812 171.261719 85.46875 165.96875 C 85.46875 164.585938 86.15625 163.203125 87.308594 162.054688 C 89.609375 159.980469 93.289062 159.980469 94.898438 162.746094 C 96.050781 164.355469 96.28125 166.660156 95.589844 168.730469 C 94.210938 172.875 89.839844 175.636719 87.078125 178.628906 C 79.945312 185.769531 76.496094 193.828125 76.496094 203.035156 L 76.496094 210.402344 C 76.496094 216.160156 81.328125 220.992188 87.078125 220.992188 Z M 85.699219 210.402344 L 85.699219 203.035156 C 85.699219 195.667969 88.457031 190.140625 93.519531 185.078125 C 97.660156 180.933594 102.261719 177.25 104.332031 171.722656 C 107.554688 162.285156 101.800781 151.921875 91.679688 151.234375 C 91.449219 151.234375 91.21875 151.234375 90.988281 151.234375 C 87.308594 151.234375 83.628906 152.613281 80.867188 155.378906 C 78.335938 157.910156 76.726562 161.363281 76.265625 165.046875 C 76.265625 165.738281 75.574219 166.199219 74.886719 166.199219 L 66.832031 166.199219 C 66.144531 166.199219 65.453125 165.507812 65.453125 164.816406 C 65.683594 158.140625 68.441406 151.921875 73.273438 147.320312 C 78.105469 142.484375 85.007812 139.722656 91.910156 140.179688 C 104.792969 140.871094 115.375 151.691406 116.066406 165.046875 C 116.757812 182.085938 96.050781 187.148438 96.050781 202.804688 C 96.050781 202.804688 96.050781 210.171875 96.050781 210.171875 C 96.050781 210.863281 95.359375 211.554688 94.671875 211.554688 L 86.617188 211.554688 C 86.15625 211.785156 85.699219 211.09375 85.699219 210.402344 Z M 85.699219 210.402344 " fill-opacity="1" fill-rule="nonzero"/></g><path fill="#000000" d="M 107.09375 245.167969 C 107.09375 237.570312 100.882812 231.355469 93.289062 231.355469 C 85.699219 231.355469 79.484375 237.570312 79.484375 245.167969 C 79.484375 252.765625 85.699219 258.984375 93.289062 258.984375 C 100.882812 258.984375 107.09375 252.765625 107.09375 245.167969 Z M 88.6875 245.167969 C 88.6875 242.636719 90.757812 240.5625 93.289062 240.5625 C 95.820312 240.5625 97.890625 242.636719 97.890625 245.167969 C 97.890625 247.703125 95.820312 249.773438 93.289062 249.773438 C 90.757812 249.773438 88.6875 247.703125 88.6875 245.167969 Z M 88.6875 245.167969 " fill-opacity="1" fill-rule="nonzero"/><g clip-path="url(#ebd9fad726)"><path fill="#000000" d="M 245.589844 88.609375 L 245.589844 92.984375 C 243.980469 91.140625 241.449219 90.910156 239.378906 92.292969 C 237.308594 93.902344 236.847656 96.667969 238.457031 98.738281 L 246.511719 109.558594 C 247.429688 110.710938 248.8125 111.402344 250.191406 111.402344 C 251.570312 111.402344 252.953125 110.710938 253.871094 109.558594 L 261.925781 98.738281 C 263.535156 96.667969 263.074219 93.902344 261.003906 92.292969 C 259.164062 90.910156 256.402344 91.140625 254.792969 92.984375 L 254.792969 88.609375 C 254.792969 61.902344 233.167969 40.257812 206.710938 40.257812 C 179.792969 40.257812 157.707031 62.363281 157.707031 89.761719 L 157.707031 294.898438 C 157.707031 312.167969 144.59375 325.75 128.027344 325.75 C 111.003906 325.75 97.199219 311.9375 97.199219 294.898438 L 97.199219 272.796875 C 97.199219 270.265625 95.128906 268.191406 92.601562 268.191406 C 90.070312 268.191406 88 270.265625 88 272.796875 L 88 294.898438 C 88 317.003906 105.941406 334.960938 128.027344 334.960938 C 149.886719 334.960938 166.910156 317.230469 166.910156 294.898438 L 166.910156 89.761719 C 166.910156 67.425781 184.855469 49.46875 206.710938 49.46875 C 228.105469 49.46875 245.589844 66.964844 245.589844 88.609375 Z M 245.589844 88.609375 " fill-opacity="1" fill-rule="nonzero"/></g><path fill="#000000" d="M 246.28125 125.445312 L 246.28125 130.050781 C 246.28125 132.582031 248.351562 134.65625 250.882812 134.65625 C 253.414062 134.65625 255.484375 132.582031 255.484375 130.050781 L 255.484375 125.445312 C 255.484375 122.914062 253.414062 120.839844 250.882812 120.839844 C 248.351562 120.839844 246.28125 122.914062 246.28125 125.445312 Z M 246.28125 125.445312 " fill-opacity="1" fill-rule="nonzero"/><path fill="#000000" d="M 215.914062 130.972656 C 213.613281 132.351562 212.921875 135.117188 214.300781 137.1875 C 214.300781 137.1875 216.601562 141.101562 216.601562 141.101562 C 217.753906 143.175781 220.742188 144.09375 222.8125 142.714844 C 225.113281 141.332031 225.804688 138.570312 224.425781 136.496094 L 222.125 132.582031 C 220.972656 130.511719 218.214844 129.820312 215.914062 130.972656 Z M 215.914062 130.972656 " fill-opacity="1" fill-rule="nonzero"/><path fill="#000000" d="M 200.269531 156.527344 L 196.355469 154.226562 C 194.058594 152.84375 191.296875 153.765625 190.144531 155.835938 C 188.765625 158.140625 189.6875 160.902344 191.757812 162.054688 C 191.757812 162.054688 195.667969 164.355469 195.667969 164.355469 C 197.738281 165.507812 200.726562 164.816406 201.878906 162.746094 C 203.257812 160.671875 202.570312 157.910156 200.269531 156.527344 Z M 200.269531 156.527344 " fill-opacity="1" fill-rule="nonzero"/><path fill="#000000" d="M 193.597656 190.371094 C 193.597656 187.839844 191.527344 185.769531 188.996094 185.769531 L 184.394531 185.769531 C 181.863281 185.769531 179.792969 187.839844 179.792969 190.371094 C 179.792969 192.90625 181.863281 194.976562 184.394531 194.976562 L 188.996094 194.976562 C 191.757812 194.976562 193.597656 192.90625 193.597656 190.371094 Z M 193.597656 190.371094 " fill-opacity="1" fill-rule="nonzero"/><path fill="#000000" d="M 194.058594 216.851562 L 190.144531 219.152344 C 187.84375 220.535156 187.15625 223.296875 188.535156 225.367188 C 189.6875 227.441406 192.675781 228.363281 194.746094 226.980469 L 198.65625 224.679688 C 200.957031 223.296875 201.648438 220.535156 200.269531 218.460938 C 199.117188 216.390625 196.355469 215.46875 194.058594 216.851562 Z M 194.058594 216.851562 " fill-opacity="1" fill-rule="nonzero"/><path fill="#000000" d="M 307.015625 221.914062 L 303.105469 219.613281 C 300.804688 218.230469 298.042969 219.152344 296.894531 221.222656 C 295.742188 223.296875 296.433594 226.289062 298.503906 227.441406 L 302.414062 229.742188 C 304.484375 230.894531 307.476562 230.203125 308.628906 228.132812 C 310.007812 226.058594 309.085938 223.296875 307.015625 221.914062 Z M 307.015625 221.914062 " fill-opacity="1" fill-rule="nonzero"/><g clip-path="url(#aba76601d7)"><path fill="#000000" d="M 314.148438 188.992188 L 309.546875 188.992188 C 307.015625 188.992188 304.945312 191.0625 304.945312 193.597656 C 304.945312 196.128906 307.015625 198.199219 309.546875 198.199219 L 314.148438 198.199219 C 316.679688 198.199219 318.75 196.128906 318.75 193.597656 C 318.75 191.0625 316.679688 188.992188 314.148438 188.992188 Z M 314.148438 188.992188 " fill-opacity="1" fill-rule="nonzero"/></g><path fill="#000000" d="M 302.1875 167.808594 C 304.484375 167.808594 306.558594 165.96875 308.398438 164.816406 C 310.699219 163.433594 311.386719 160.671875 310.007812 158.601562 C 308.628906 156.527344 305.867188 155.605469 303.796875 156.988281 L 299.886719 159.289062 C 297.585938 160.671875 296.894531 163.433594 298.273438 165.507812 C 299.195312 167.117188 300.804688 167.808594 302.1875 167.808594 Z M 302.1875 167.808594 " fill-opacity="1" fill-rule="nonzero"/><path fill="#000000" d="M 278.488281 144.554688 C 280.558594 145.707031 283.550781 145.015625 284.699219 142.945312 L 287 139.03125 C 288.382812 136.726562 287.460938 133.964844 285.390625 132.8125 C 283.089844 131.433594 280.328125 132.351562 279.179688 134.425781 L 276.878906 138.339844 C 275.5 140.640625 276.417969 143.40625 278.488281 144.554688 Z M 278.488281 144.554688 " fill-opacity="1" fill-rule="nonzero"/><path fill="#000000" d="M 254.5625 145.015625 C 251.800781 144.785156 247.199219 144.785156 244.441406 145.015625 C 220.285156 147.550781 202.109375 167.117188 202.109375 191.0625 C 202.109375 204.878906 209.929688 216.390625 217.523438 225.828125 C 223.964844 233.65625 226.496094 240.792969 226.957031 250.695312 C 227.1875 254.378906 229.945312 257.140625 232.015625 258.753906 L 232.015625 259.902344 C 232.015625 267.5 238.226562 273.71875 245.820312 273.71875 L 252.953125 273.71875 C 260.542969 273.71875 266.757812 267.5 266.757812 259.902344 L 266.757812 258.984375 C 269.058594 257.371094 271.816406 254.609375 271.816406 250.925781 C 272.277344 241.253906 275.269531 233.195312 282.171875 224.679688 C 289.300781 215.699219 296.664062 204.878906 296.664062 191.0625 C 296.433594 167.347656 278.488281 147.550781 254.5625 145.015625 Z M 274.808594 218.691406 C 266.757812 228.589844 262.84375 238.492188 262.386719 250.003906 C 261.925781 250.464844 260.773438 251.617188 259.855469 252.074219 C 258.242188 252.765625 257.324219 254.378906 257.324219 256.21875 L 257.324219 259.902344 C 257.324219 262.4375 255.253906 264.507812 252.722656 264.507812 L 245.589844 264.507812 C 243.058594 264.507812 240.988281 262.4375 240.988281 259.902344 L 240.988281 256.21875 C 240.988281 254.378906 240.070312 252.996094 238.457031 252.074219 C 237.539062 251.617188 236.15625 250.695312 235.929688 250.003906 C 235.46875 238.03125 232.246094 229.28125 224.65625 219.84375 C 217.753906 211.09375 211.3125 201.652344 211.3125 190.832031 C 211.3125 171.722656 225.804688 156.066406 245.359375 153.996094 C 247.429688 153.765625 251.570312 153.765625 253.644531 153.996094 C 272.96875 156.066406 287.460938 171.953125 287.460938 190.832031 C 287.230469 201.882812 281.019531 211.09375 274.808594 218.691406 Z M 274.808594 218.691406 " fill-opacity="1" fill-rule="nonzero"/><path fill="#000000" d="M 269.976562 187.609375 L 266.757812 187.609375 C 266.296875 186 265.605469 184.617188 264.914062 183.234375 L 267.214844 180.933594 C 269.058594 179.089844 269.058594 176.328125 267.214844 174.488281 C 265.375 172.644531 262.613281 172.644531 260.773438 174.488281 L 258.472656 176.789062 C 257.09375 175.867188 255.484375 175.40625 254.101562 174.945312 L 254.101562 171.492188 C 254.101562 168.960938 252.03125 166.890625 249.5 166.890625 C 246.972656 166.890625 244.898438 168.960938 244.898438 171.492188 L 244.898438 174.714844 C 243.289062 175.175781 241.910156 175.867188 240.527344 176.558594 L 238.226562 174.257812 C 236.386719 172.414062 233.628906 172.414062 231.785156 174.257812 C 229.945312 176.097656 229.945312 178.859375 231.785156 180.703125 L 234.085938 183.003906 C 233.167969 184.386719 232.707031 186 232.246094 187.378906 L 229.027344 187.378906 C 226.496094 187.378906 224.425781 189.453125 224.425781 191.984375 C 224.425781 194.515625 226.496094 196.589844 229.027344 196.589844 L 232.246094 196.589844 C 232.707031 198.199219 233.398438 199.582031 234.085938 200.964844 L 231.785156 203.265625 C 229.945312 205.109375 229.945312 207.871094 231.785156 209.710938 C 233.628906 211.554688 236.617188 211.554688 238.226562 209.710938 L 240.527344 207.410156 C 241.910156 208.332031 243.519531 208.792969 244.898438 209.253906 L 244.898438 212.9375 C 244.898438 215.46875 246.972656 217.539062 249.5 217.539062 C 252.03125 217.539062 254.101562 215.46875 254.101562 212.9375 L 254.101562 209.710938 C 255.714844 209.253906 257.09375 208.5625 258.472656 207.871094 L 260.773438 210.171875 C 262.613281 212.015625 265.605469 212.015625 267.214844 210.171875 C 269.058594 208.332031 269.058594 205.566406 267.214844 203.726562 L 264.914062 201.425781 C 265.835938 200.042969 266.296875 198.429688 266.757812 197.050781 L 269.976562 197.050781 C 272.507812 197.050781 274.578125 194.976562 274.578125 192.445312 C 274.578125 189.914062 272.507812 187.609375 269.976562 187.609375 Z M 249.269531 201.195312 C 244.441406 201.195312 240.527344 197.28125 240.527344 192.214844 C 240.527344 187.148438 244.441406 183.234375 249.269531 183.234375 C 254.101562 183.234375 258.015625 187.148438 258.015625 192.214844 C 258.015625 197.28125 254.101562 201.195312 249.269531 201.195312 Z M 249.269531 201.195312 " fill-opacity="1" fill-rule="nonzero"/></svg>