<svg xmlns="http://www.w3.org/2000/svg" xmlns:xlink="http://www.w3.org/1999/xlink" width="500" zoomAndPan="magnify" viewBox="0 0 375 374.999991" height="500" preserveAspectRatio="xMidYMid meet" version="1.0"><defs><clipPath id="114713bfbf"><path d="M 256 185 L 318.75 185 L 318.75 270 L 256 270 Z M 256 185 " clip-rule="nonzero"/></clipPath><clipPath id="ee10865af6"><path d="M 56.25 105 L 251 105 L 251 270 L 56.25 270 Z M 56.25 105 " clip-rule="nonzero"/></clipPath></defs><path fill="#000000" d="M 233.5 247.222656 C 231.296875 247.222656 229.523438 249.007812 229.523438 251.207031 C 229.523438 253.40625 231.296875 255.191406 233.5 255.191406 L 244.4375 255.191406 C 246.625 255.191406 248.414062 253.40625 248.414062 251.207031 C 248.414062 249.007812 246.625 247.222656 244.4375 247.222656 Z M 233.5 247.222656 " fill-opacity="1" fill-rule="nonzero"/><path fill="#000000" d="M 202.382812 261.992188 C 198 261.992188 194.429688 258.425781 194.429688 254.027344 L 194.429688 155.976562 C 194.429688 151.582031 198 148.011719 202.382812 148.011719 L 275.539062 148.011719 C 279.933594 148.011719 283.496094 151.582031 283.496094 155.976562 L 283.496094 177.898438 L 291.449219 177.898438 L 291.449219 155.976562 C 291.449219 147.191406 284.324219 140.046875 275.539062 140.046875 L 202.382812 140.046875 C 193.609375 140.046875 186.472656 147.191406 186.472656 155.976562 L 186.472656 254.027344 C 186.472656 262.8125 193.609375 269.957031 202.382812 269.957031 L 252.328125 269.957031 C 250.570312 267.632812 249.257812 264.957031 248.664062 261.992188 Z M 202.382812 261.992188 " fill-opacity="1" fill-rule="nonzero"/><g clip-path="url(#114713bfbf)"><path fill="#000000" d="M 306.816406 185.863281 L 268.152344 185.863281 C 261.566406 185.863281 256.21875 191.226562 256.21875 197.8125 L 256.21875 258.011719 C 256.21875 264.597656 261.566406 269.957031 268.152344 269.957031 L 306.816406 269.957031 C 313.386719 269.957031 318.75 264.597656 318.75 258.011719 L 318.75 197.8125 C 318.75 191.226562 313.386719 185.863281 306.816406 185.863281 Z M 310.796875 258.011719 C 310.796875 260.199219 309.003906 261.992188 306.816406 261.992188 L 268.152344 261.992188 C 265.957031 261.992188 264.175781 260.199219 264.175781 258.011719 L 264.175781 257.324219 L 310.796875 257.324219 Z M 310.796875 249.359375 L 264.175781 249.359375 L 264.175781 197.8125 C 264.175781 195.621094 265.957031 193.832031 268.152344 193.832031 L 306.816406 193.832031 C 309.003906 193.832031 310.796875 195.621094 310.796875 197.8125 Z M 310.796875 249.359375 " fill-opacity="1" fill-rule="nonzero"/></g><g clip-path="url(#ee10865af6)"><path fill="#000000" d="M 178.519531 247.222656 L 72.015625 247.222656 C 67.710938 247.222656 64.203125 243.71875 64.203125 239.402344 L 64.203125 120.953125 C 64.203125 116.644531 67.710938 113.136719 72.015625 113.136719 L 234.941406 113.136719 C 239.246094 113.136719 242.753906 116.644531 242.753906 120.953125 L 242.753906 132.074219 L 250.707031 132.074219 L 250.707031 120.953125 C 250.714844 112.253906 243.652344 105.171875 234.949219 105.171875 L 72.015625 105.171875 C 63.320312 105.171875 56.25 112.253906 56.25 120.953125 L 56.25 239.394531 C 56.25 248.101562 63.320312 255.183594 72.015625 255.183594 L 126.648438 255.183594 L 126.648438 261.984375 L 112.585938 261.984375 C 110.378906 261.984375 108.605469 263.769531 108.605469 265.96875 C 108.605469 268.167969 110.378906 269.949219 112.585938 269.949219 L 184.730469 269.949219 C 180.914062 265.714844 178.519531 260.160156 178.519531 254.019531 Z M 172.371094 261.992188 L 134.601562 261.992188 L 134.601562 255.191406 L 172.371094 255.191406 Z M 172.371094 261.992188 " fill-opacity="1" fill-rule="nonzero"/></g></svg>