<svg xmlns="http://www.w3.org/2000/svg" xmlns:xlink="http://www.w3.org/1999/xlink" width="500" zoomAndPan="magnify" viewBox="0 0 375 374.999991" height="500" preserveAspectRatio="xMidYMid meet" version="1.0"><defs><clipPath id="e75e053018"><path d="M 182 31.945312 L 193 31.945312 L 193 62 L 182 62 Z M 182 31.945312 " clip-rule="nonzero"/></clipPath><clipPath id="b246a15fa5"><path d="M 56.25 158 L 86 158 L 86 169 L 56.25 169 Z M 56.25 158 " clip-rule="nonzero"/></clipPath><clipPath id="5ee8084b05"><path d="M 289 158 L 318.75 158 L 318.75 169 L 289 169 Z M 289 158 " clip-rule="nonzero"/></clipPath><clipPath id="e8e53b8209"><path d="M 172 333 L 203 333 L 203 343.195312 L 172 343.195312 Z M 172 333 " clip-rule="nonzero"/></clipPath></defs><path fill="#000000" d="M 187.5 70.851562 C 136.574219 70.851562 95.140625 111.757812 95.140625 162.039062 C 95.144531 167.484375 95.636719 172.890625 96.613281 178.25 C 97.59375 183.609375 99.046875 188.835938 100.972656 193.933594 C 102.894531 199.03125 105.261719 203.914062 108.066406 208.582031 C 110.871094 213.253906 114.074219 217.632812 117.671875 221.722656 C 120.652344 225.117188 123.980469 228.207031 126.789062 231.753906 C 133.890625 240.820312 139.722656 250.640625 144.277344 261.21875 C 147.820312 269.398438 150.28125 277.890625 151.65625 286.695312 C 151.777344 287.574219 151.980469 288.429688 152.257812 289.269531 C 152.539062 290.113281 152.890625 290.921875 153.3125 291.699219 C 153.734375 292.472656 154.226562 293.207031 154.78125 293.898438 C 155.335938 294.585938 155.945312 295.222656 156.613281 295.800781 C 157.28125 296.382812 157.996094 296.898438 158.757812 297.347656 C 159.519531 297.800781 160.3125 298.179688 161.144531 298.492188 C 161.972656 298.800781 162.820312 299.03125 163.691406 299.191406 C 164.5625 299.347656 165.441406 299.425781 166.324219 299.425781 L 208.675781 299.425781 C 209.558594 299.425781 210.4375 299.347656 211.308594 299.191406 C 212.179688 299.03125 213.027344 298.800781 213.855469 298.492188 C 214.6875 298.179688 215.480469 297.800781 216.242188 297.347656 C 217.003906 296.898438 217.71875 296.382812 218.386719 295.800781 C 219.054688 295.222656 219.664062 294.585938 220.21875 293.898438 C 220.773438 293.207031 221.265625 292.476562 221.6875 291.699219 C 222.109375 290.921875 222.460938 290.113281 222.742188 289.269531 C 223.019531 288.429688 223.222656 287.574219 223.347656 286.695312 C 224.699219 278.03125 227.101562 269.667969 230.554688 261.609375 C 234.273438 252.675781 238.851562 244.210938 244.289062 236.207031 C 247.28125 232.242188 250.578125 228.550781 254.179688 225.132812 C 256.214844 223.050781 258.144531 220.875 259.972656 218.605469 C 261.796875 216.335938 263.507812 213.980469 265.105469 211.546875 C 266.699219 209.109375 268.175781 206.601562 269.53125 204.023438 C 270.882812 201.441406 272.109375 198.804688 273.207031 196.105469 C 274.304688 193.410156 275.269531 190.664062 276.101562 187.871094 C 276.933594 185.078125 277.628906 182.253906 278.1875 179.394531 C 278.746094 176.535156 279.167969 173.65625 279.445312 170.757812 C 279.726562 167.855469 279.863281 164.949219 279.859375 162.039062 C 279.859375 111.757812 238.425781 70.851562 187.5 70.851562 Z M 247.207031 218.355469 C 243.21875 222.148438 239.582031 226.253906 236.296875 230.667969 C 230.484375 239.21875 225.585938 248.261719 221.605469 257.804688 C 217.832031 266.617188 215.207031 275.761719 213.734375 285.234375 C 213.644531 285.847656 213.453125 286.421875 213.160156 286.96875 C 212.867188 287.511719 212.488281 287.988281 212.023438 288.394531 C 211.5625 288.804688 211.042969 289.121094 210.464844 289.34375 C 209.890625 289.570312 209.292969 289.6875 208.675781 289.699219 L 202.082031 289.699219 L 202.082031 275.109375 C 202.082031 274.789062 202.050781 274.472656 201.988281 274.160156 C 201.925781 273.847656 201.835938 273.542969 201.714844 273.246094 C 201.589844 272.953125 201.441406 272.671875 201.265625 272.40625 C 201.085938 272.140625 200.886719 271.894531 200.660156 271.667969 C 200.433594 271.445312 200.1875 271.242188 199.921875 271.066406 C 199.65625 270.886719 199.378906 270.738281 199.082031 270.617188 C 198.789062 270.492188 198.484375 270.402344 198.171875 270.339844 C 197.859375 270.277344 197.542969 270.246094 197.222656 270.246094 C 196.902344 270.246094 196.585938 270.277344 196.273438 270.339844 C 195.960938 270.402344 195.65625 270.492188 195.363281 270.617188 C 195.066406 270.738281 194.785156 270.886719 194.519531 271.066406 C 194.257812 271.242188 194.011719 271.445312 193.785156 271.667969 C 193.558594 271.894531 193.359375 272.140625 193.179688 272.40625 C 193.003906 272.671875 192.851562 272.953125 192.730469 273.246094 C 192.609375 273.542969 192.515625 273.847656 192.453125 274.160156 C 192.390625 274.472656 192.359375 274.789062 192.359375 275.109375 L 192.359375 289.699219 L 182.519531 289.699219 L 182.519531 196.644531 C 182.519531 193.5 182.609375 192.027344 183.484375 191.097656 C 184.84375 189.761719 186.390625 188.707031 188.125 187.929688 C 189.859375 187.152344 191.675781 186.699219 193.574219 186.570312 C 193.667969 186.558594 193.761719 186.546875 193.855469 186.53125 L 195.9375 186.160156 C 197.90625 187.308594 200.003906 188.136719 202.226562 188.640625 C 204.449219 189.144531 206.699219 189.300781 208.96875 189.117188 C 211.179688 189.117188 213.332031 188.773438 215.433594 188.09375 C 217.535156 187.414062 219.480469 186.429688 221.269531 185.136719 C 226.074219 186.332031 230.871094 186.289062 235.65625 185.003906 C 237.082031 184.609375 238.46875 184.113281 239.824219 183.511719 C 241.175781 182.914062 242.480469 182.222656 243.730469 181.433594 C 244.984375 180.644531 246.171875 179.769531 247.296875 178.808594 C 248.425781 177.847656 249.472656 176.8125 250.449219 175.699219 C 251.421875 174.585938 252.3125 173.40625 253.113281 172.164062 C 253.917969 170.917969 254.625 169.625 255.242188 168.277344 C 255.855469 166.933594 256.371094 165.546875 256.785156 164.128906 C 257.199219 162.707031 257.507812 161.261719 257.710938 159.796875 C 257.914062 158.328125 258.011719 156.855469 258 155.375 C 257.988281 153.898438 257.871094 152.425781 257.648438 150.960938 C 257.421875 149.5 257.09375 148.058594 256.660156 146.644531 C 256.226562 145.230469 255.691406 143.851562 255.058594 142.515625 C 254.425781 141.179688 253.695312 139.894531 252.875 138.660156 C 252.054688 137.429688 251.148438 136.265625 250.160156 135.164062 C 249.167969 134.066406 248.105469 133.042969 246.964844 132.097656 C 245.828125 131.152344 244.625 130.296875 243.363281 129.527344 C 243.140625 128.304688 242.816406 127.109375 242.386719 125.941406 C 241.960938 124.777344 241.433594 123.65625 240.8125 122.578125 C 240.1875 121.503906 239.476562 120.492188 238.679688 119.539062 C 237.882812 118.585938 237.007812 117.710938 236.054688 116.910156 C 235.105469 116.109375 234.09375 115.398438 233.019531 114.773438 C 231.945312 114.148438 230.828125 113.621094 229.660156 113.191406 C 228.496094 112.761719 227.304688 112.433594 226.082031 112.210938 C 224.859375 111.988281 223.628906 111.871094 222.386719 111.863281 C 221.699219 111.863281 221.019531 111.898438 220.34375 111.964844 C 219.464844 110.445312 218.414062 109.054688 217.195312 107.796875 C 215.972656 106.539062 214.617188 105.445312 213.128906 104.523438 C 211.636719 103.597656 210.058594 102.867188 208.386719 102.335938 C 206.71875 101.800781 205.007812 101.476562 203.257812 101.367188 C 202.933594 101.296875 202.605469 101.265625 202.277344 101.265625 C 202.179688 101.265625 202.089844 101.277344 201.953125 101.277344 C 201.855469 101.277344 201.757812 101.296875 201.65625 101.296875 C 201.109375 101.3125 200.5625 101.34375 200.027344 101.40625 C 196.917969 101.683594 194.015625 102.605469 191.316406 104.175781 C 190.789062 103.785156 190.242188 103.417969 189.679688 103.078125 C 189.117188 102.734375 188.539062 102.421875 187.949219 102.136719 C 187.355469 101.847656 186.753906 101.589844 186.136719 101.359375 C 185.519531 101.128906 184.894531 100.929688 184.257812 100.757812 C 183.625 100.585938 182.980469 100.445312 182.335938 100.332031 C 181.6875 100.222656 181.035156 100.140625 180.378906 100.089844 C 179.722656 100.042969 179.066406 100.023438 178.40625 100.035156 C 177.75 100.042969 177.09375 100.085938 176.441406 100.160156 C 175.789062 100.230469 175.136719 100.335938 174.496094 100.46875 C 173.851562 100.601562 173.214844 100.765625 172.585938 100.960938 C 171.957031 101.152344 171.339844 101.375 170.730469 101.625 C 170.121094 101.878906 169.527344 102.15625 168.945312 102.464844 C 168.363281 102.769531 167.796875 103.105469 167.246094 103.464844 C 166.695312 103.824219 166.164062 104.210938 165.648438 104.621094 C 165.136719 105.03125 164.640625 105.460938 164.167969 105.917969 C 163.691406 106.375 163.242188 106.851562 162.8125 107.351562 C 161.363281 107.039062 159.894531 106.886719 158.414062 106.886719 C 157.300781 106.890625 156.191406 106.980469 155.09375 107.15625 C 153.992188 107.335938 152.914062 107.597656 151.855469 107.941406 C 150.796875 108.289062 149.773438 108.714844 148.78125 109.222656 C 147.789062 109.726562 146.839844 110.308594 145.941406 110.960938 C 145.039062 111.617188 144.195312 112.339844 143.40625 113.125 C 142.617188 113.914062 141.894531 114.757812 141.238281 115.65625 C 140.582031 116.554688 140 117.503906 139.492188 118.492188 C 138.984375 119.484375 138.554688 120.511719 138.207031 121.566406 C 137.535156 121.777344 136.875 122.019531 136.226562 122.296875 C 135.574219 122.570312 134.941406 122.875 134.324219 123.210938 C 133.703125 123.546875 133.101562 123.910156 132.515625 124.304688 C 131.933594 124.695312 131.367188 125.117188 130.824219 125.566406 C 130.28125 126.015625 129.761719 126.488281 129.265625 126.988281 C 128.765625 127.484375 128.292969 128.007812 127.847656 128.550781 C 127.398438 129.09375 126.980469 129.660156 126.585938 130.246094 C 126.191406 130.828125 125.828125 131.433594 125.496094 132.050781 C 125.160156 132.671875 124.855469 133.308594 124.582031 133.957031 C 124.308594 134.605469 124.066406 135.265625 123.859375 135.941406 C 123.648438 136.613281 123.472656 137.292969 123.328125 137.984375 C 123.1875 138.675781 123.074219 139.371094 123 140.070312 C 122.921875 140.769531 122.882812 141.472656 122.871094 142.179688 C 122.863281 142.882812 122.890625 143.585938 122.949219 144.289062 C 123.007812 144.992188 123.101562 145.6875 123.230469 146.382812 C 123.355469 147.074219 123.515625 147.757812 123.707031 148.4375 C 123.199219 148.933594 122.710938 149.449219 122.25 149.992188 C 121.789062 150.535156 121.355469 151.097656 120.949219 151.683594 C 120.542969 152.265625 120.167969 152.867188 119.820312 153.488281 C 119.472656 154.109375 119.15625 154.746094 118.867188 155.398438 C 118.582031 156.050781 118.328125 156.714844 118.105469 157.390625 C 117.886719 158.066406 117.699219 158.753906 117.542969 159.445312 C 117.386719 160.140625 117.265625 160.839844 117.179688 161.546875 C 117.09375 162.253906 117.039062 162.964844 117.019531 163.675781 C 117.003906 164.386719 117.019531 165.097656 117.070312 165.804688 C 117.121094 166.515625 117.207031 167.222656 117.324219 167.921875 C 117.445312 168.625 117.597656 169.320312 117.785156 170.007812 C 117.972656 170.691406 118.191406 171.367188 118.441406 172.035156 C 118.695312 172.699219 118.980469 173.351562 119.292969 173.988281 C 119.609375 174.628906 119.957031 175.25 120.332031 175.851562 C 120.707031 176.457031 121.113281 177.042969 121.542969 177.605469 C 121.976562 178.171875 122.4375 178.714844 122.921875 179.234375 C 122.949219 179.398438 122.984375 179.570312 123.03125 179.742188 C 128.363281 199.941406 143.996094 202.535156 144.660156 202.640625 C 144.972656 202.6875 145.285156 202.703125 145.601562 202.6875 C 145.914062 202.675781 146.226562 202.628906 146.535156 202.554688 C 146.839844 202.480469 147.136719 202.375 147.421875 202.242188 C 147.707031 202.109375 147.980469 201.949219 148.234375 201.761719 C 148.488281 201.574219 148.722656 201.367188 148.9375 201.132812 C 149.148438 200.902344 149.339844 200.648438 149.503906 200.378906 C 149.667969 200.109375 149.804688 199.828125 149.914062 199.53125 C 150.023438 199.234375 150.101562 198.929688 150.152344 198.617188 C 150.199219 198.304688 150.21875 197.988281 150.207031 197.671875 C 150.195312 197.355469 150.15625 197.042969 150.082031 196.734375 C 150.011719 196.421875 149.910156 196.125 149.777344 195.835938 C 149.648438 195.546875 149.488281 195.269531 149.304688 195.011719 C 149.121094 194.753906 148.914062 194.515625 148.683594 194.296875 C 148.453125 194.078125 148.203125 193.882812 147.9375 193.714844 C 147.667969 193.542969 147.386719 193.402344 147.089844 193.289062 C 146.792969 193.171875 146.492188 193.085938 146.179688 193.03125 C 145.773438 192.960938 136.382812 191.128906 132.609375 177.902344 C 132.621094 177.785156 132.636719 177.664062 132.644531 177.546875 C 132.703125 176.773438 132.582031 176.027344 132.285156 175.3125 C 131.988281 174.597656 131.546875 173.988281 130.957031 173.484375 C 130.628906 173.195312 130.3125 172.894531 130.015625 172.574219 C 129.71875 172.253906 129.4375 171.917969 129.175781 171.570312 C 128.914062 171.21875 128.671875 170.855469 128.449219 170.480469 C 128.226562 170.101562 128.023438 169.714844 127.839844 169.320312 C 127.660156 168.921875 127.5 168.515625 127.363281 168.101562 C 127.222656 167.683594 127.109375 167.265625 127.015625 166.835938 C 126.921875 166.410156 126.851562 165.976562 126.804688 165.542969 C 126.757812 165.109375 126.738281 164.671875 126.738281 164.234375 C 126.738281 163.796875 126.761719 163.363281 126.808594 162.925781 C 126.851562 162.492188 126.921875 162.0625 127.015625 161.632812 C 127.109375 161.207031 127.226562 160.785156 127.363281 160.371094 C 127.5 159.957031 127.660156 159.550781 127.84375 159.152344 C 128.023438 158.753906 128.226562 158.367188 128.449219 157.992188 C 128.671875 157.617188 128.914062 157.253906 129.175781 156.902344 C 129.441406 156.554688 129.71875 156.21875 130.015625 155.898438 C 130.316406 155.578125 130.628906 155.273438 130.960938 154.988281 C 131.074219 154.902344 131.195312 154.835938 131.304688 154.738281 C 131.792969 154.304688 132.316406 153.925781 132.878906 153.597656 C 133.441406 153.269531 134.027344 153 134.644531 152.792969 C 135.261719 152.582031 135.894531 152.4375 136.539062 152.355469 C 137.183594 152.273438 137.832031 152.253906 138.480469 152.304688 C 139.128906 152.351562 139.769531 152.464844 140.394531 152.640625 C 141.019531 152.820312 141.625 153.054688 142.203125 153.355469 C 142.78125 153.652344 143.324219 154.007812 143.832031 154.414062 C 144.339844 154.824219 144.800781 155.277344 145.21875 155.777344 C 145.421875 156.023438 145.652344 156.242188 145.902344 156.441406 C 146.152344 156.640625 146.417969 156.8125 146.699219 156.960938 C 146.984375 157.105469 147.28125 157.226562 147.585938 157.3125 C 147.894531 157.402344 148.207031 157.457031 148.523438 157.484375 C 148.84375 157.511719 149.160156 157.507812 149.476562 157.472656 C 149.796875 157.433594 150.105469 157.367188 150.410156 157.269531 C 150.714844 157.175781 151.007812 157.046875 151.285156 156.894531 C 151.566406 156.738281 151.828125 156.558594 152.070312 156.351562 C 152.3125 156.144531 152.535156 155.917969 152.734375 155.667969 C 152.933594 155.417969 153.105469 155.148438 153.25 154.867188 C 153.398438 154.582031 153.515625 154.285156 153.601562 153.980469 C 153.691406 153.671875 153.746094 153.359375 153.773438 153.039062 C 153.800781 152.722656 153.796875 152.402344 153.757812 152.085938 C 153.722656 151.769531 153.65625 151.457031 153.558594 151.152344 C 153.460938 150.851562 153.335938 150.558594 153.179688 150.277344 C 153.023438 150 152.84375 149.738281 152.636719 149.496094 C 152.042969 148.785156 151.40625 148.121094 150.71875 147.503906 C 150.03125 146.886719 149.300781 146.320312 148.53125 145.808594 C 147.765625 145.296875 146.964844 144.839844 146.128906 144.441406 C 145.296875 144.042969 144.4375 143.707031 143.554688 143.429688 C 142.675781 143.15625 141.777344 142.945312 140.867188 142.796875 C 139.953125 142.652344 139.035156 142.570312 138.113281 142.554688 C 137.1875 142.542969 136.269531 142.59375 135.351562 142.707031 C 134.433594 142.824219 133.53125 143.007812 132.640625 143.253906 C 132.621094 142.976562 132.59375 142.699219 132.59375 142.417969 C 132.585938 141.703125 132.640625 140.992188 132.761719 140.289062 C 132.882812 139.582031 133.0625 138.894531 133.308594 138.222656 C 133.550781 137.550781 133.851562 136.90625 134.214844 136.285156 C 134.574219 135.667969 134.988281 135.089844 135.453125 134.546875 C 135.917969 134 136.425781 133.503906 136.980469 133.054688 C 137.535156 132.601562 138.125 132.203125 138.753906 131.859375 C 139.378906 131.515625 140.03125 131.226562 140.707031 131 C 141.386719 130.773438 142.078125 130.609375 142.785156 130.507812 C 143.300781 130.441406 143.792969 130.296875 144.261719 130.070312 C 144.734375 129.847656 145.15625 129.554688 145.53125 129.195312 C 145.90625 128.835938 146.214844 128.425781 146.460938 127.96875 C 146.703125 127.507812 146.871094 127.023438 146.957031 126.511719 C 147.0625 125.871094 147.214844 125.246094 147.421875 124.636719 C 147.628906 124.023438 147.882812 123.433594 148.1875 122.863281 C 148.492188 122.292969 148.839844 121.753906 149.230469 121.238281 C 149.625 120.726562 150.058594 120.25 150.527344 119.808594 C 151 119.367188 151.503906 118.96875 152.042969 118.613281 C 152.582031 118.253906 153.144531 117.945312 153.730469 117.679688 C 154.320312 117.414062 154.929688 117.199219 155.550781 117.035156 C 156.175781 116.871094 156.808594 116.761719 157.453125 116.699219 C 157.546875 116.707031 157.636719 116.730469 157.792969 116.730469 C 158.828125 116.738281 159.839844 116.898438 160.824219 117.21875 C 161.8125 117.539062 162.726562 118 163.570312 118.601562 C 164.414062 119.203125 165.144531 119.914062 165.769531 120.742188 C 166.394531 121.570312 166.878906 122.472656 167.222656 123.449219 C 167.613281 124.550781 167.8125 125.683594 167.824219 126.851562 C 167.828125 127.171875 167.863281 127.488281 167.929688 127.796875 C 167.996094 128.109375 168.089844 128.414062 168.21875 128.707031 C 168.34375 129 168.496094 129.277344 168.675781 129.539062 C 168.859375 129.800781 169.0625 130.046875 169.289062 130.269531 C 169.519531 130.492188 169.765625 130.6875 170.035156 130.863281 C 170.300781 131.035156 170.582031 131.183594 170.878906 131.300781 C 171.175781 131.417969 171.480469 131.507812 171.792969 131.566406 C 172.105469 131.625 172.421875 131.652344 172.742188 131.648438 C 173.058594 131.644531 173.375 131.609375 173.6875 131.542969 C 174 131.480469 174.300781 131.382812 174.59375 131.257812 C 174.886719 131.132812 175.164062 130.980469 175.429688 130.800781 C 175.691406 130.621094 175.933594 130.414062 176.15625 130.1875 C 176.382812 129.960938 176.578125 129.710938 176.753906 129.445312 C 176.929688 129.179688 177.074219 128.894531 177.195312 128.601562 C 177.3125 128.304688 177.402344 128 177.460938 127.6875 C 177.519531 127.375 177.546875 127.058594 177.546875 126.738281 C 177.523438 124.492188 177.136719 122.308594 176.382812 120.195312 C 175.335938 117.238281 173.683594 114.675781 171.425781 112.503906 C 172.453125 111.617188 173.597656 110.941406 174.863281 110.46875 C 176.132812 109.996094 177.441406 109.757812 178.792969 109.757812 C 181.070312 109.765625 183.148438 110.410156 185.03125 111.691406 C 183.433594 114.671875 182.632812 117.851562 182.640625 121.234375 C 182.640625 121.554688 182.671875 121.871094 182.730469 122.183594 C 182.792969 122.496094 182.886719 122.800781 183.007812 123.097656 C 183.132812 123.390625 183.28125 123.671875 183.457031 123.9375 C 183.636719 124.203125 183.835938 124.449219 184.0625 124.675781 C 184.289062 124.902344 184.535156 125.101562 184.800781 125.28125 C 185.066406 125.457031 185.34375 125.605469 185.640625 125.730469 C 185.933594 125.851562 186.238281 125.945312 186.550781 126.003906 C 186.863281 126.066406 187.179688 126.097656 187.5 126.097656 C 187.820312 126.097656 188.136719 126.066406 188.449219 126.003906 C 188.761719 125.945312 189.066406 125.851562 189.359375 125.730469 C 189.65625 125.605469 189.933594 125.457031 190.199219 125.28125 C 190.464844 125.101562 190.710938 124.902344 190.9375 124.675781 C 191.164062 124.449219 191.363281 124.203125 191.542969 123.9375 C 191.71875 123.671875 191.867188 123.390625 191.992188 123.097656 C 192.113281 122.800781 192.207031 122.496094 192.269531 122.183594 C 192.328125 121.871094 192.359375 121.554688 192.359375 121.234375 C 192.351562 120.582031 192.40625 119.9375 192.523438 119.292969 C 192.640625 118.652344 192.816406 118.027344 193.054688 117.417969 C 193.292969 116.8125 193.585938 116.234375 193.9375 115.683594 C 194.285156 115.132812 194.6875 114.621094 195.136719 114.144531 C 195.585938 113.671875 196.074219 113.246094 196.605469 112.871094 C 197.140625 112.492188 197.703125 112.167969 198.296875 111.898438 C 198.890625 111.632812 199.507812 111.421875 200.140625 111.273438 C 200.777344 111.125 201.417969 111.039062 202.070312 111.011719 C 202.671875 111.023438 203.269531 111.082031 203.859375 111.1875 C 204.453125 111.292969 205.03125 111.441406 205.601562 111.636719 C 206.171875 111.828125 206.722656 112.066406 207.253906 112.34375 C 207.785156 112.625 208.292969 112.941406 208.777344 113.296875 C 209.261719 113.65625 209.714844 114.046875 210.136719 114.476562 C 210.558594 114.902344 210.949219 115.359375 211.300781 115.847656 C 211.652344 116.332031 211.964844 116.84375 212.238281 117.378906 C 212.511719 117.914062 212.742188 118.46875 212.933594 119.039062 C 213.035156 119.335938 213.164062 119.621094 213.320312 119.894531 C 213.476562 120.167969 213.65625 120.421875 213.863281 120.660156 C 214.070312 120.894531 214.296875 121.109375 214.542969 121.304688 C 214.792969 121.496094 215.054688 121.664062 215.335938 121.808594 C 215.617188 121.949219 215.90625 122.0625 216.210938 122.148438 C 216.511719 122.234375 216.820312 122.289062 217.132812 122.316406 C 217.445312 122.34375 217.757812 122.335938 218.070312 122.304688 C 218.382812 122.269531 218.6875 122.203125 218.988281 122.109375 C 220.09375 121.761719 221.226562 121.589844 222.386719 121.589844 C 223.035156 121.597656 223.683594 121.660156 224.324219 121.773438 C 224.964844 121.890625 225.589844 122.058594 226.203125 122.277344 C 226.816406 122.5 227.40625 122.769531 227.972656 123.085938 C 228.539062 123.40625 229.078125 123.769531 229.585938 124.175781 C 230.09375 124.585938 230.5625 125.03125 230.996094 125.519531 C 231.425781 126.003906 231.816406 126.523438 232.164062 127.074219 C 232.511719 127.625 232.808594 128.203125 233.058594 128.804688 C 233.308594 129.402344 233.507812 130.023438 233.65625 130.65625 C 233.632812 130.742188 233.597656 130.816406 233.578125 130.902344 C 233.378906 131.925781 233.027344 132.898438 232.523438 133.8125 C 232.023438 134.726562 231.394531 135.542969 230.636719 136.265625 C 229.878906 136.984375 229.03125 137.570312 228.09375 138.027344 C 227.15625 138.480469 226.167969 138.78125 225.136719 138.933594 C 224.820312 138.972656 224.511719 139.042969 224.207031 139.148438 C 223.90625 139.25 223.613281 139.378906 223.335938 139.539062 C 223.0625 139.699219 222.800781 139.882812 222.5625 140.09375 C 222.320312 140.304688 222.105469 140.535156 221.910156 140.789062 C 221.714844 141.042969 221.546875 141.3125 221.40625 141.601562 C 221.261719 141.886719 221.152344 142.183594 221.066406 142.492188 C 220.984375 142.800781 220.933594 143.117188 220.914062 143.433594 C 220.890625 143.753906 220.902344 144.070312 220.945312 144.390625 C 220.984375 144.707031 221.058594 145.015625 221.160156 145.316406 C 221.261719 145.621094 221.394531 145.910156 221.554688 146.1875 C 221.714844 146.464844 221.898438 146.722656 222.109375 146.960938 C 222.320312 147.203125 222.554688 147.421875 222.808594 147.613281 C 223.0625 147.808594 223.332031 147.976562 223.617188 148.117188 C 223.90625 148.257812 224.203125 148.371094 224.511719 148.453125 C 224.820312 148.535156 225.132812 148.585938 225.453125 148.605469 C 225.773438 148.625 226.089844 148.613281 226.40625 148.574219 C 227.84375 148.375 229.242188 148.023438 230.601562 147.515625 C 231.960938 147.007812 233.246094 146.359375 234.460938 145.5625 C 235.675781 144.769531 236.785156 143.851562 237.796875 142.8125 C 238.808594 141.773438 239.691406 140.632812 240.449219 139.394531 C 241.847656 140.519531 243.082031 141.800781 244.152344 143.242188 C 245.21875 144.683594 246.089844 146.234375 246.757812 147.902344 C 247.425781 149.566406 247.875 151.289062 248.097656 153.070312 C 248.324219 154.847656 248.320312 156.628906 248.085938 158.410156 C 247.960938 159.40625 247.761719 160.390625 247.488281 161.359375 C 247.21875 162.332031 246.878906 163.273438 246.464844 164.195312 C 246.054688 165.113281 245.582031 165.996094 245.039062 166.847656 C 244.5 167.695312 243.898438 168.5 243.238281 169.261719 C 242.582031 170.019531 241.867188 170.730469 241.105469 171.386719 C 240.339844 172.039062 239.535156 172.636719 238.683594 173.171875 C 237.832031 173.710938 236.945312 174.179688 236.023438 174.585938 C 235.105469 174.992188 234.15625 175.328125 233.1875 175.597656 C 231.304688 176.101562 229.390625 176.3125 227.445312 176.238281 C 225.5 176.160156 223.609375 175.796875 221.773438 175.148438 C 221.351562 175 220.917969 174.914062 220.472656 174.886719 C 220.03125 174.859375 219.589844 174.894531 219.15625 174.988281 C 218.71875 175.082031 218.304688 175.230469 217.910156 175.441406 C 217.515625 175.648438 217.15625 175.90625 216.835938 176.210938 C 215.777344 177.226562 214.566406 178.007812 213.207031 178.558594 C 211.847656 179.105469 210.4375 179.382812 208.96875 179.386719 C 208.785156 179.386719 208.625 179.382812 208.449219 179.382812 C 209.492188 178.152344 210.378906 176.820312 211.105469 175.375 C 211.832031 173.933594 212.375 172.425781 212.742188 170.855469 C 213.105469 169.28125 213.28125 167.6875 213.261719 166.074219 C 213.246094 164.460938 213.039062 162.871094 212.640625 161.304688 C 212.5625 160.996094 212.457031 160.695312 212.316406 160.410156 C 212.179688 160.121094 212.015625 159.847656 211.824219 159.59375 C 211.632812 159.335938 211.417969 159.101562 211.183594 158.886719 C 210.945312 158.675781 210.6875 158.484375 210.414062 158.320312 C 210.140625 158.160156 209.851562 158.023438 209.550781 157.917969 C 209.25 157.8125 208.941406 157.734375 208.625 157.6875 C 208.308594 157.644531 207.992188 157.628906 207.671875 157.644531 C 207.355469 157.664062 207.039062 157.710938 206.730469 157.789062 C 206.421875 157.867188 206.121094 157.976562 205.835938 158.113281 C 205.546875 158.25 205.273438 158.414062 205.019531 158.605469 C 204.761719 158.796875 204.527344 159.011719 204.316406 159.25 C 204.101562 159.488281 203.914062 159.742188 203.75 160.019531 C 203.585938 160.292969 203.453125 160.582031 203.347656 160.882812 C 203.238281 161.183594 203.164062 161.492188 203.117188 161.808594 C 203.070312 162.125 203.058594 162.441406 203.074219 162.761719 C 203.09375 163.082031 203.140625 163.394531 203.21875 163.703125 C 203.390625 164.347656 203.496094 165.003906 203.539062 165.671875 C 203.585938 166.335938 203.5625 167 203.476562 167.660156 C 203.390625 168.324219 203.242188 168.96875 203.03125 169.601562 C 202.820312 170.234375 202.546875 170.84375 202.21875 171.421875 C 201.890625 172.003906 201.507812 172.546875 201.070312 173.050781 C 200.636719 173.554688 200.15625 174.015625 199.632812 174.425781 C 199.105469 174.839844 198.546875 175.195312 197.953125 175.5 C 197.359375 175.800781 196.742188 176.046875 196.097656 176.226562 C 196.054688 176.238281 196.015625 176.261719 195.96875 176.277344 L 192.289062 176.929688 C 189.277344 177.195312 186.40625 177.972656 183.671875 179.261719 C 180.941406 180.554688 178.515625 182.277344 176.398438 184.433594 C 172.796875 188.269531 172.796875 192.914062 172.796875 196.660156 L 172.796875 289.699219 L 166.324219 289.699219 C 165.707031 289.6875 165.109375 289.570312 164.535156 289.34375 C 163.957031 289.121094 163.4375 288.804688 162.976562 288.394531 C 162.511719 287.988281 162.132812 287.511719 161.839844 286.96875 C 161.546875 286.421875 161.355469 285.847656 161.265625 285.234375 C 159.765625 275.605469 157.082031 266.324219 153.210938 257.382812 C 148.332031 246 142.0625 235.445312 134.410156 225.710938 C 131.496094 222.03125 128.066406 218.828125 124.980469 215.308594 C 121.769531 211.65625 118.910156 207.746094 116.40625 203.582031 C 113.898438 199.414062 111.789062 195.054688 110.070312 190.503906 C 108.351562 185.957031 107.054688 181.289062 106.179688 176.507812 C 105.304688 171.722656 104.867188 166.898438 104.863281 162.039062 C 104.863281 117.121094 141.933594 80.578125 187.5 80.578125 C 233.066406 80.578125 270.136719 117.121094 270.136719 162.039062 C 270.140625 167.25 269.644531 172.414062 268.644531 177.53125 C 267.644531 182.648438 266.160156 187.621094 264.195312 192.449219 C 262.230469 197.277344 259.816406 201.871094 256.960938 206.226562 C 254.101562 210.585938 250.851562 214.628906 247.207031 218.355469 Z M 247.207031 218.355469 " fill-opacity="1" fill-rule="nonzero"/><g clip-path="url(#e75e053018)"><path fill="#000000" d="M 187.5 61.125 C 187.820312 61.125 188.136719 61.09375 188.449219 61.03125 C 188.761719 60.96875 189.066406 60.875 189.359375 60.753906 C 189.65625 60.632812 189.933594 60.480469 190.199219 60.304688 C 190.464844 60.128906 190.710938 59.925781 190.9375 59.699219 C 191.164062 59.472656 191.363281 59.226562 191.542969 58.960938 C 191.71875 58.695312 191.867188 58.417969 191.992188 58.121094 C 192.113281 57.828125 192.207031 57.523438 192.269531 57.210938 C 192.328125 56.894531 192.359375 56.582031 192.359375 56.261719 L 192.359375 36.808594 C 192.359375 36.488281 192.328125 36.171875 192.269531 35.859375 C 192.207031 35.546875 192.113281 35.242188 191.992188 34.945312 C 191.867188 34.652344 191.71875 34.371094 191.542969 34.105469 C 191.363281 33.839844 191.164062 33.59375 190.9375 33.367188 C 190.710938 33.144531 190.464844 32.941406 190.199219 32.765625 C 189.933594 32.585938 189.65625 32.4375 189.359375 32.316406 C 189.066406 32.191406 188.761719 32.101562 188.449219 32.039062 C 188.136719 31.976562 187.820312 31.945312 187.5 31.945312 C 187.179688 31.945312 186.863281 31.976562 186.550781 32.039062 C 186.238281 32.101562 185.933594 32.191406 185.640625 32.316406 C 185.34375 32.4375 185.066406 32.585938 184.800781 32.765625 C 184.535156 32.941406 184.289062 33.144531 184.0625 33.367188 C 183.835938 33.59375 183.636719 33.839844 183.457031 34.105469 C 183.28125 34.371094 183.132812 34.652344 183.007812 34.945312 C 182.886719 35.242188 182.792969 35.546875 182.730469 35.859375 C 182.671875 36.171875 182.640625 36.488281 182.640625 36.808594 L 182.640625 56.261719 C 182.640625 56.582031 182.671875 56.894531 182.730469 57.210938 C 182.792969 57.523438 182.886719 57.828125 183.007812 58.121094 C 183.132812 58.417969 183.28125 58.695312 183.457031 58.960938 C 183.636719 59.226562 183.835938 59.472656 184.0625 59.699219 C 184.289062 59.925781 184.535156 60.128906 184.800781 60.304688 C 185.066406 60.480469 185.34375 60.632812 185.640625 60.753906 C 185.933594 60.875 186.238281 60.96875 186.550781 61.03125 C 186.863281 61.09375 187.179688 61.125 187.5 61.125 Z M 187.5 61.125 " fill-opacity="1" fill-rule="nonzero"/></g><path fill="#000000" d="M 142.082031 66.269531 C 142.207031 66.5625 142.355469 66.84375 142.535156 67.109375 C 142.710938 67.375 142.914062 67.621094 143.136719 67.84375 C 143.363281 68.070312 143.609375 68.273438 143.875 68.449219 C 144.140625 68.628906 144.421875 68.777344 144.714844 68.898438 C 145.011719 69.019531 145.3125 69.113281 145.628906 69.175781 C 145.941406 69.238281 146.257812 69.269531 146.574219 69.269531 C 146.894531 69.269531 147.210938 69.238281 147.523438 69.175781 C 147.835938 69.113281 148.140625 69.019531 148.4375 68.898438 C 148.730469 68.777344 149.011719 68.625 149.277344 68.449219 C 149.542969 68.273438 149.785156 68.070312 150.011719 67.84375 C 150.238281 67.617188 150.441406 67.371094 150.617188 67.105469 C 150.792969 66.839844 150.945312 66.5625 151.066406 66.265625 C 151.1875 65.972656 151.28125 65.667969 151.34375 65.355469 C 151.40625 65.039062 151.4375 64.722656 151.4375 64.40625 C 151.4375 64.085938 151.40625 63.769531 151.34375 63.457031 C 151.28125 63.144531 151.1875 62.839844 151.066406 62.542969 L 143.625 44.570312 C 143.503906 44.277344 143.351562 43.996094 143.175781 43.730469 C 142.996094 43.464844 142.796875 43.21875 142.570312 42.992188 C 142.34375 42.765625 142.097656 42.566406 141.832031 42.386719 C 141.566406 42.210938 141.289062 42.0625 140.992188 41.9375 C 140.699219 41.816406 140.394531 41.722656 140.082031 41.664062 C 139.769531 41.601562 139.453125 41.570312 139.132812 41.570312 C 138.8125 41.570312 138.496094 41.601562 138.183594 41.664062 C 137.871094 41.726562 137.566406 41.816406 137.273438 41.9375 C 136.976562 42.0625 136.699219 42.210938 136.433594 42.390625 C 136.167969 42.566406 135.921875 42.769531 135.695312 42.992188 C 135.46875 43.21875 135.269531 43.464844 135.089844 43.730469 C 134.914062 43.996094 134.765625 44.277344 134.640625 44.570312 C 134.519531 44.867188 134.429688 45.171875 134.367188 45.484375 C 134.304688 45.796875 134.273438 46.113281 134.273438 46.433594 C 134.273438 46.753906 134.304688 47.070312 134.367188 47.382812 C 134.429688 47.695312 134.519531 48 134.644531 48.292969 Z M 142.082031 66.269531 " fill-opacity="1" fill-rule="nonzero"/><path fill="#000000" d="M 107.148438 89.769531 C 108.425781 91.179688 110.003906 92.039062 111.882812 92.351562 C 112.453125 92.394531 113 92.304688 113.527344 92.082031 C 114.082031 91.871094 114.578125 91.570312 115.023438 91.179688 C 115.46875 90.785156 115.828125 90.328125 116.105469 89.804688 C 116.378906 89.28125 116.554688 88.722656 116.628906 88.136719 C 116.703125 87.546875 116.667969 86.964844 116.53125 86.390625 C 115.953125 84.921875 115.0625 83.679688 113.859375 82.660156 C 110.167969 78.976562 106.472656 75.292969 102.78125 71.609375 C 101.949219 70.664062 100.96875 69.914062 99.839844 69.355469 C 99.410156 69.179688 98.960938 69.066406 98.496094 69.019531 C 98.03125 68.976562 97.570312 68.996094 97.113281 69.089844 C 96.652344 69.179688 96.21875 69.332031 95.804688 69.554688 C 95.394531 69.773438 95.023438 70.046875 94.691406 70.375 C 94.359375 70.703125 94.082031 71.074219 93.859375 71.484375 C 93.636719 71.894531 93.480469 72.328125 93.382812 72.789062 C 93.289062 73.246094 93.265625 73.707031 93.304688 74.171875 C 93.347656 74.636719 93.457031 75.085938 93.628906 75.519531 C 94.191406 76.679688 94.957031 77.683594 95.925781 78.53125 C 99.667969 82.277344 103.40625 86.023438 107.148438 89.769531 Z M 107.148438 89.769531 " fill-opacity="1" fill-rule="nonzero"/><path fill="#000000" d="M 90.558594 117.816406 L 72.59375 110.371094 C 72.300781 110.25 71.996094 110.15625 71.683594 110.09375 C 71.367188 110.03125 71.054688 110 70.734375 110 C 70.414062 110 70.097656 110.03125 69.785156 110.09375 C 69.472656 110.15625 69.167969 110.25 68.875 110.371094 C 68.578125 110.492188 68.296875 110.644531 68.03125 110.820312 C 67.769531 111 67.523438 111.199219 67.296875 111.425781 C 67.070312 111.652344 66.867188 111.898438 66.691406 112.164062 C 66.515625 112.429688 66.363281 112.707031 66.242188 113.003906 C 66.121094 113.296875 66.027344 113.601562 65.964844 113.914062 C 65.902344 114.230469 65.871094 114.542969 65.871094 114.863281 C 65.871094 115.183594 65.902344 115.5 65.964844 115.8125 C 66.027344 116.125 66.121094 116.429688 66.242188 116.726562 C 66.363281 117.019531 66.511719 117.300781 66.691406 117.566406 C 66.867188 117.832031 67.070312 118.078125 67.296875 118.304688 C 67.519531 118.527344 67.765625 118.730469 68.03125 118.90625 C 68.296875 119.085938 68.578125 119.234375 68.871094 119.359375 C 68.871094 119.359375 86.804688 126.789062 86.835938 126.800781 C 87.132812 126.917969 87.433594 127.007812 87.746094 127.066406 C 88.058594 127.125 88.375 127.152344 88.691406 127.148438 C 89.011719 127.148438 89.324219 127.113281 89.636719 127.050781 C 89.949219 126.988281 90.25 126.894531 90.542969 126.773438 C 90.835938 126.652344 91.117188 126.503906 91.382812 126.328125 C 91.648438 126.152344 91.894531 125.953125 92.121094 125.730469 C 92.34375 125.507812 92.546875 125.265625 92.726562 125.003906 C 92.90625 124.738281 93.0625 124.464844 93.1875 124.171875 C 93.308594 123.875 93.402344 123.570312 93.464844 123.257812 C 93.527344 122.945312 93.558594 122.628906 93.558594 122.308594 C 93.558594 121.992188 93.527344 121.675781 93.464844 121.359375 C 93.402344 121.046875 93.308594 120.742188 93.1875 120.449219 C 93.066406 120.152344 92.914062 119.875 92.738281 119.609375 C 92.5625 119.34375 92.359375 119.097656 92.132812 118.871094 C 91.910156 118.644531 91.664062 118.445312 91.398438 118.265625 C 91.132812 118.089844 90.851562 117.9375 90.558594 117.816406 Z M 90.558594 117.816406 " fill-opacity="1" fill-rule="nonzero"/><g clip-path="url(#b246a15fa5)"><path fill="#000000" d="M 80.554688 158.390625 L 61.113281 158.390625 C 60.792969 158.390625 60.476562 158.421875 60.164062 158.484375 C 59.851562 158.546875 59.546875 158.636719 59.25 158.761719 C 58.957031 158.882812 58.675781 159.03125 58.410156 159.210938 C 58.144531 159.386719 57.898438 159.589844 57.675781 159.8125 C 57.449219 160.039062 57.246094 160.285156 57.070312 160.550781 C 56.894531 160.816406 56.742188 161.097656 56.621094 161.390625 C 56.5 161.6875 56.40625 161.992188 56.34375 162.304688 C 56.28125 162.617188 56.25 162.933594 56.25 163.253906 C 56.25 163.574219 56.28125 163.886719 56.34375 164.203125 C 56.40625 164.515625 56.5 164.820312 56.621094 165.113281 C 56.742188 165.410156 56.894531 165.6875 57.070312 165.953125 C 57.246094 166.21875 57.449219 166.464844 57.675781 166.691406 C 57.898438 166.917969 58.144531 167.121094 58.410156 167.296875 C 58.675781 167.472656 58.957031 167.625 59.25 167.746094 C 59.546875 167.867188 59.851562 167.960938 60.164062 168.023438 C 60.476562 168.085938 60.792969 168.117188 61.113281 168.117188 L 80.554688 168.117188 C 80.875 168.117188 81.191406 168.085938 81.503906 168.023438 C 81.816406 167.960938 82.121094 167.867188 82.417969 167.746094 C 82.710938 167.625 82.992188 167.472656 83.257812 167.296875 C 83.523438 167.121094 83.769531 166.917969 83.992188 166.691406 C 84.21875 166.464844 84.421875 166.21875 84.597656 165.953125 C 84.773438 165.6875 84.925781 165.410156 85.046875 165.113281 C 85.167969 164.820312 85.261719 164.515625 85.324219 164.203125 C 85.386719 163.886719 85.417969 163.574219 85.417969 163.253906 C 85.417969 162.933594 85.386719 162.617188 85.324219 162.304688 C 85.261719 161.992188 85.167969 161.6875 85.046875 161.390625 C 84.925781 161.097656 84.773438 160.816406 84.597656 160.550781 C 84.421875 160.285156 84.21875 160.039062 83.992188 159.8125 C 83.769531 159.589844 83.523438 159.386719 83.257812 159.210938 C 82.992188 159.03125 82.710938 158.882812 82.417969 158.761719 C 82.121094 158.636719 81.816406 158.546875 81.503906 158.484375 C 81.191406 158.421875 80.875 158.390625 80.554688 158.390625 Z M 80.554688 158.390625 " fill-opacity="1" fill-rule="nonzero"/></g><g clip-path="url(#5ee8084b05)"><path fill="#000000" d="M 313.886719 158.390625 L 294.445312 158.390625 C 294.125 158.390625 293.808594 158.421875 293.496094 158.484375 C 293.183594 158.546875 292.878906 158.636719 292.582031 158.761719 C 292.289062 158.882812 292.007812 159.03125 291.742188 159.210938 C 291.476562 159.386719 291.230469 159.589844 291.007812 159.8125 C 290.78125 160.039062 290.578125 160.285156 290.402344 160.550781 C 290.226562 160.816406 290.074219 161.097656 289.953125 161.390625 C 289.832031 161.6875 289.738281 161.992188 289.675781 162.304688 C 289.613281 162.617188 289.582031 162.933594 289.582031 163.253906 C 289.582031 163.574219 289.613281 163.886719 289.675781 164.203125 C 289.738281 164.515625 289.832031 164.820312 289.953125 165.113281 C 290.074219 165.410156 290.226562 165.6875 290.402344 165.953125 C 290.578125 166.21875 290.78125 166.464844 291.007812 166.691406 C 291.230469 166.917969 291.476562 167.121094 291.742188 167.296875 C 292.007812 167.472656 292.289062 167.625 292.582031 167.746094 C 292.878906 167.867188 293.183594 167.960938 293.496094 168.023438 C 293.808594 168.085938 294.125 168.117188 294.445312 168.117188 L 313.886719 168.117188 C 314.207031 168.117188 314.523438 168.085938 314.835938 168.023438 C 315.148438 167.960938 315.453125 167.867188 315.75 167.746094 C 316.042969 167.625 316.324219 167.472656 316.589844 167.296875 C 316.855469 167.121094 317.101562 166.917969 317.324219 166.691406 C 317.550781 166.464844 317.753906 166.21875 317.929688 165.953125 C 318.105469 165.6875 318.257812 165.410156 318.378906 165.113281 C 318.5 164.820312 318.59375 164.515625 318.65625 164.203125 C 318.71875 163.886719 318.75 163.574219 318.75 163.253906 C 318.75 162.933594 318.71875 162.617188 318.65625 162.304688 C 318.59375 161.992188 318.5 161.6875 318.378906 161.390625 C 318.257812 161.097656 318.105469 160.816406 317.929688 160.550781 C 317.753906 160.285156 317.550781 160.039062 317.324219 159.8125 C 317.101562 159.589844 316.855469 159.386719 316.589844 159.210938 C 316.324219 159.03125 316.042969 158.882812 315.75 158.761719 C 315.453125 158.636719 315.148438 158.546875 314.835938 158.484375 C 314.523438 158.421875 314.207031 158.390625 313.886719 158.390625 Z M 313.886719 158.390625 " fill-opacity="1" fill-rule="nonzero"/></g><path fill="#000000" d="M 308.757812 113.003906 C 308.636719 112.707031 308.484375 112.429688 308.308594 112.164062 C 308.132812 111.898438 307.929688 111.652344 307.703125 111.425781 C 307.476562 111.199219 307.234375 111 306.96875 110.820312 C 306.703125 110.644531 306.421875 110.492188 306.125 110.371094 C 305.832031 110.25 305.527344 110.15625 305.214844 110.09375 C 304.902344 110.03125 304.585938 110 304.265625 110 C 303.945312 110 303.632812 110.03125 303.316406 110.09375 C 303.003906 110.15625 302.699219 110.25 302.40625 110.371094 L 284.441406 117.816406 C 284.148438 117.9375 283.867188 118.089844 283.601562 118.265625 C 283.335938 118.445312 283.089844 118.644531 282.867188 118.871094 C 282.640625 119.097656 282.4375 119.34375 282.261719 119.609375 C 282.085938 119.875 281.933594 120.152344 281.8125 120.449219 C 281.691406 120.742188 281.597656 121.046875 281.535156 121.363281 C 281.472656 121.675781 281.441406 121.992188 281.441406 122.308594 C 281.441406 122.628906 281.472656 122.945312 281.535156 123.257812 C 281.597656 123.570312 281.691406 123.875 281.8125 124.171875 C 281.933594 124.464844 282.085938 124.746094 282.261719 125.011719 C 282.441406 125.277344 282.640625 125.523438 282.867188 125.75 C 283.09375 125.972656 283.339844 126.175781 283.605469 126.355469 C 283.867188 126.53125 284.148438 126.679688 284.445312 126.804688 C 284.738281 126.925781 285.042969 127.015625 285.355469 127.078125 C 285.667969 127.140625 285.984375 127.171875 286.304688 127.171875 C 286.625 127.171875 286.941406 127.140625 287.253906 127.078125 C 287.566406 127.015625 287.871094 126.925781 288.164062 126.800781 L 306.128906 119.359375 C 306.421875 119.234375 306.703125 119.085938 306.96875 118.910156 C 307.234375 118.730469 307.480469 118.527344 307.703125 118.304688 C 307.929688 118.078125 308.132812 117.832031 308.308594 117.566406 C 308.488281 117.300781 308.636719 117.019531 308.757812 116.726562 C 308.878906 116.429688 308.972656 116.125 309.035156 115.8125 C 309.097656 115.5 309.128906 115.183594 309.128906 114.863281 C 309.128906 114.542969 309.097656 114.230469 309.035156 113.914062 C 308.972656 113.601562 308.878906 113.296875 308.757812 113.003906 Z M 308.757812 113.003906 " fill-opacity="1" fill-rule="nonzero"/><path fill="#000000" d="M 280.308594 70.402344 C 280.082031 70.179688 279.835938 69.976562 279.570312 69.800781 C 279.304688 69.621094 279.023438 69.472656 278.730469 69.351562 C 278.433594 69.226562 278.132812 69.136719 277.816406 69.074219 C 277.503906 69.011719 277.1875 68.980469 276.871094 68.980469 C 276.550781 68.980469 276.234375 69.011719 275.921875 69.074219 C 275.609375 69.136719 275.304688 69.226562 275.007812 69.351562 C 274.714844 69.472656 274.433594 69.621094 274.167969 69.800781 C 273.902344 69.976562 273.660156 70.179688 273.433594 70.402344 L 259.683594 84.160156 C 259.457031 84.386719 259.253906 84.632812 259.078125 84.898438 C 258.898438 85.164062 258.75 85.441406 258.628906 85.738281 C 258.503906 86.035156 258.414062 86.335938 258.351562 86.652344 C 258.289062 86.964844 258.253906 87.28125 258.253906 87.601562 C 258.253906 87.921875 258.285156 88.238281 258.347656 88.550781 C 258.410156 88.863281 258.503906 89.167969 258.625 89.464844 C 258.746094 89.757812 258.898438 90.039062 259.074219 90.304688 C 259.25 90.570312 259.453125 90.816406 259.679688 91.042969 C 259.90625 91.269531 260.152344 91.46875 260.417969 91.648438 C 260.683594 91.824219 260.960938 91.976562 261.257812 92.097656 C 261.554688 92.21875 261.855469 92.3125 262.171875 92.375 C 262.484375 92.4375 262.800781 92.46875 263.121094 92.464844 C 263.4375 92.464844 263.753906 92.433594 264.070312 92.371094 C 264.382812 92.308594 264.6875 92.21875 264.980469 92.09375 C 265.277344 91.972656 265.554688 91.820312 265.820312 91.644531 C 266.085938 91.464844 266.332031 91.265625 266.558594 91.039062 L 280.308594 77.28125 C 280.53125 77.054688 280.734375 76.808594 280.910156 76.542969 C 281.089844 76.277344 281.238281 76 281.359375 75.703125 C 281.484375 75.410156 281.574219 75.105469 281.636719 74.792969 C 281.699219 74.476562 281.730469 74.160156 281.730469 73.84375 C 281.730469 73.523438 281.699219 73.207031 281.636719 72.894531 C 281.574219 72.582031 281.484375 72.277344 281.359375 71.980469 C 281.238281 71.6875 281.089844 71.40625 280.910156 71.140625 C 280.734375 70.875 280.53125 70.628906 280.308594 70.402344 Z M 280.308594 70.402344 " fill-opacity="1" fill-rule="nonzero"/><path fill="#000000" d="M 226.566406 68.898438 C 226.859375 69.023438 227.164062 69.113281 227.476562 69.175781 C 227.789062 69.238281 228.105469 69.269531 228.425781 69.273438 C 228.746094 69.273438 229.0625 69.242188 229.375 69.179688 C 229.6875 69.117188 229.992188 69.023438 230.285156 68.902344 C 230.582031 68.78125 230.863281 68.628906 231.128906 68.453125 C 231.394531 68.273438 231.636719 68.074219 231.863281 67.847656 C 232.089844 67.621094 232.289062 67.375 232.46875 67.109375 C 232.644531 66.84375 232.792969 66.5625 232.914062 66.269531 L 240.355469 48.292969 C 240.480469 48 240.570312 47.695312 240.632812 47.382812 C 240.695312 47.070312 240.726562 46.753906 240.726562 46.433594 C 240.726562 46.113281 240.695312 45.796875 240.632812 45.484375 C 240.570312 45.171875 240.480469 44.867188 240.359375 44.570312 C 240.234375 44.277344 240.085938 43.996094 239.910156 43.730469 C 239.730469 43.464844 239.53125 43.21875 239.304688 42.992188 C 239.078125 42.769531 238.832031 42.566406 238.566406 42.390625 C 238.300781 42.210938 238.023438 42.0625 237.726562 41.9375 C 237.433594 41.816406 237.128906 41.726562 236.816406 41.664062 C 236.503906 41.601562 236.1875 41.570312 235.867188 41.570312 C 235.546875 41.570312 235.230469 41.601562 234.917969 41.664062 C 234.605469 41.722656 234.300781 41.816406 234.007812 41.9375 C 233.710938 42.0625 233.429688 42.210938 233.167969 42.386719 C 232.902344 42.566406 232.65625 42.765625 232.429688 42.992188 C 232.203125 43.21875 232.003906 43.464844 231.824219 43.730469 C 231.648438 43.996094 231.496094 44.277344 231.375 44.570312 L 223.933594 62.542969 C 223.8125 62.839844 223.71875 63.144531 223.65625 63.457031 C 223.59375 63.769531 223.5625 64.085938 223.5625 64.40625 C 223.5625 64.726562 223.59375 65.042969 223.65625 65.355469 C 223.71875 65.667969 223.8125 65.972656 223.933594 66.265625 C 224.054688 66.5625 224.207031 66.84375 224.382812 67.109375 C 224.5625 67.371094 224.761719 67.617188 224.988281 67.84375 C 225.214844 68.070312 225.460938 68.273438 225.726562 68.449219 C 225.992188 68.625 226.269531 68.777344 226.566406 68.898438 Z M 226.566406 68.898438 " fill-opacity="1" fill-rule="nonzero"/><path fill="#000000" d="M 211.804688 304.289062 L 163.195312 304.289062 C 162.875 304.289062 162.558594 304.320312 162.246094 304.382812 C 161.933594 304.445312 161.628906 304.535156 161.335938 304.660156 C 161.039062 304.78125 160.757812 304.929688 160.492188 305.109375 C 160.226562 305.285156 159.984375 305.488281 159.757812 305.710938 C 159.53125 305.9375 159.328125 306.183594 159.152344 306.449219 C 158.976562 306.714844 158.824219 306.996094 158.703125 307.289062 C 158.582031 307.585938 158.488281 307.890625 158.425781 308.203125 C 158.363281 308.515625 158.332031 308.832031 158.332031 309.152344 C 158.332031 309.472656 158.363281 309.785156 158.425781 310.101562 C 158.488281 310.414062 158.582031 310.71875 158.703125 311.011719 C 158.824219 311.308594 158.976562 311.585938 159.152344 311.851562 C 159.328125 312.117188 159.53125 312.363281 159.757812 312.589844 C 159.984375 312.816406 160.226562 313.019531 160.492188 313.195312 C 160.757812 313.371094 161.039062 313.523438 161.335938 313.644531 C 161.628906 313.765625 161.933594 313.859375 162.246094 313.921875 C 162.558594 313.984375 162.875 314.015625 163.195312 314.015625 L 211.804688 314.015625 C 212.125 314.015625 212.441406 313.984375 212.753906 313.921875 C 213.066406 313.859375 213.371094 313.765625 213.664062 313.644531 C 213.960938 313.523438 214.242188 313.371094 214.507812 313.195312 C 214.769531 313.019531 215.015625 312.816406 215.242188 312.589844 C 215.46875 312.363281 215.667969 312.117188 215.847656 311.851562 C 216.023438 311.585938 216.175781 311.308594 216.296875 311.011719 C 216.417969 310.71875 216.511719 310.414062 216.574219 310.101562 C 216.636719 309.785156 216.667969 309.472656 216.667969 309.152344 C 216.667969 308.832031 216.636719 308.515625 216.574219 308.203125 C 216.511719 307.890625 216.417969 307.585938 216.296875 307.289062 C 216.175781 306.996094 216.023438 306.714844 215.847656 306.449219 C 215.667969 306.183594 215.46875 305.9375 215.242188 305.710938 C 215.015625 305.488281 214.769531 305.285156 214.507812 305.109375 C 214.242188 304.929688 213.960938 304.78125 213.664062 304.660156 C 213.371094 304.535156 213.066406 304.445312 212.753906 304.382812 C 212.441406 304.320312 212.125 304.289062 211.804688 304.289062 Z M 211.804688 304.289062 " fill-opacity="1" fill-rule="nonzero"/><path fill="#000000" d="M 206.945312 318.878906 L 168.054688 318.878906 C 167.738281 318.878906 167.421875 318.910156 167.105469 318.972656 C 166.792969 319.035156 166.492188 319.125 166.195312 319.25 C 165.902344 319.371094 165.621094 319.519531 165.355469 319.699219 C 165.089844 319.875 164.84375 320.078125 164.617188 320.300781 C 164.394531 320.527344 164.191406 320.773438 164.015625 321.039062 C 163.835938 321.304688 163.6875 321.585938 163.566406 321.878906 C 163.441406 322.175781 163.351562 322.480469 163.289062 322.792969 C 163.226562 323.105469 163.195312 323.421875 163.195312 323.742188 C 163.195312 324.0625 163.226562 324.375 163.289062 324.691406 C 163.351562 325.003906 163.441406 325.308594 163.566406 325.601562 C 163.6875 325.898438 163.835938 326.175781 164.015625 326.441406 C 164.191406 326.707031 164.394531 326.953125 164.617188 327.179688 C 164.84375 327.40625 165.089844 327.609375 165.355469 327.785156 C 165.621094 327.960938 165.902344 328.113281 166.195312 328.234375 C 166.492188 328.355469 166.792969 328.449219 167.105469 328.511719 C 167.421875 328.574219 167.738281 328.605469 168.054688 328.605469 L 206.945312 328.605469 C 207.261719 328.605469 207.578125 328.574219 207.894531 328.511719 C 208.207031 328.449219 208.507812 328.355469 208.804688 328.234375 C 209.097656 328.113281 209.378906 327.960938 209.644531 327.785156 C 209.910156 327.609375 210.15625 327.40625 210.382812 327.179688 C 210.605469 326.953125 210.808594 326.707031 210.984375 326.441406 C 211.164062 326.175781 211.3125 325.898438 211.433594 325.601562 C 211.558594 325.308594 211.648438 325.003906 211.710938 324.691406 C 211.773438 324.375 211.804688 324.0625 211.804688 323.742188 C 211.804688 323.421875 211.773438 323.105469 211.710938 322.792969 C 211.648438 322.480469 211.558594 322.175781 211.433594 321.878906 C 211.3125 321.585938 211.164062 321.304688 210.984375 321.039062 C 210.808594 320.773438 210.605469 320.527344 210.382812 320.300781 C 210.15625 320.078125 209.910156 319.875 209.644531 319.699219 C 209.378906 319.519531 209.097656 319.371094 208.804688 319.25 C 208.507812 319.125 208.207031 319.035156 207.894531 318.972656 C 207.578125 318.910156 207.261719 318.878906 206.945312 318.878906 Z M 206.945312 318.878906 " fill-opacity="1" fill-rule="nonzero"/><g clip-path="url(#e8e53b8209)"><path fill="#000000" d="M 197.222656 333.46875 L 177.777344 333.46875 C 177.457031 333.46875 177.140625 333.5 176.828125 333.5625 C 176.515625 333.625 176.210938 333.714844 175.917969 333.839844 C 175.621094 333.960938 175.34375 334.109375 175.078125 334.289062 C 174.8125 334.464844 174.566406 334.667969 174.339844 334.890625 C 174.113281 335.117188 173.914062 335.363281 173.734375 335.628906 C 173.558594 335.894531 173.410156 336.175781 173.285156 336.46875 C 173.164062 336.765625 173.074219 337.070312 173.011719 337.382812 C 172.949219 337.695312 172.917969 338.011719 172.917969 338.332031 C 172.917969 338.652344 172.949219 338.964844 173.011719 339.28125 C 173.074219 339.59375 173.164062 339.898438 173.285156 340.191406 C 173.410156 340.488281 173.558594 340.765625 173.734375 341.03125 C 173.914062 341.296875 174.113281 341.542969 174.339844 341.769531 C 174.566406 341.996094 174.8125 342.199219 175.078125 342.375 C 175.34375 342.550781 175.621094 342.703125 175.917969 342.824219 C 176.210938 342.945312 176.515625 343.039062 176.828125 343.101562 C 177.140625 343.164062 177.457031 343.195312 177.777344 343.195312 L 197.222656 343.195312 C 197.542969 343.195312 197.859375 343.164062 198.171875 343.101562 C 198.484375 343.039062 198.789062 342.945312 199.082031 342.824219 C 199.378906 342.703125 199.65625 342.550781 199.921875 342.375 C 200.1875 342.199219 200.433594 341.996094 200.660156 341.769531 C 200.886719 341.542969 201.085938 341.296875 201.265625 341.03125 C 201.441406 340.765625 201.589844 340.488281 201.714844 340.191406 C 201.835938 339.898438 201.925781 339.59375 201.988281 339.28125 C 202.050781 338.964844 202.082031 338.652344 202.082031 338.332031 C 202.082031 338.011719 202.050781 337.695312 201.988281 337.382812 C 201.925781 337.070312 201.835938 336.765625 201.714844 336.46875 C 201.589844 336.175781 201.441406 335.894531 201.265625 335.628906 C 201.085938 335.363281 200.886719 335.117188 200.660156 334.890625 C 200.433594 334.667969 200.1875 334.464844 199.921875 334.289062 C 199.65625 334.109375 199.378906 333.960938 199.082031 333.839844 C 198.789062 333.714844 198.484375 333.625 198.171875 333.5625 C 197.859375 333.5 197.542969 333.46875 197.222656 333.46875 Z M 197.222656 333.46875 " fill-opacity="1" fill-rule="nonzero"/></g></svg>