<svg xmlns="http://www.w3.org/2000/svg" xmlns:xlink="http://www.w3.org/1999/xlink" width="500" zoomAndPan="magnify" viewBox="0 0 375 374.999991" height="500" preserveAspectRatio="xMidYMid meet" version="1.0"><defs><clipPath id="5f4f6f37ca"><path d="M 56.25 61 L 318 61 L 318 315.703125 L 56.25 315.703125 Z M 56.25 61 " clip-rule="nonzero"/></clipPath></defs><g clip-path="url(#5f4f6f37ca)"><path fill="#000000" d="M 303.761719 150.570312 C 303.789062 150.492188 303.789062 150.414062 303.8125 150.335938 C 303.839844 150.285156 303.839844 150.230469 303.867188 150.179688 C 304.128906 149.136719 304.308594 148.066406 304.46875 147.046875 C 304.882812 144.046875 304.832031 141.304688 303.710938 139.738281 C 303.371094 139.269531 303.03125 138.878906 302.691406 138.539062 C 301.960938 137.808594 300.941406 137.570312 299.949219 137.886719 C 298.957031 138.199219 298.277344 138.980469 298.097656 140 C 297 146.289062 294.492188 152.816406 293.1875 154.824219 C 292.378906 156.078125 290.679688 156.417969 289.453125 155.609375 C 288.226562 154.800781 287.859375 153.101562 288.667969 151.875 C 289.898438 150.023438 292.402344 143.105469 293.082031 136.996094 C 293.449219 133.65625 293.316406 130.734375 292.0625 129.6875 C 290.757812 128.59375 289.21875 128.226562 287.753906 128.226562 C 286.945312 128.226562 286.265625 128.539062 285.71875 129.140625 C 285.195312 129.742188 284.960938 130.472656 285.066406 131.28125 C 286.136719 139.738281 281.253906 150.519531 281.226562 150.570312 C 280.628906 151.929688 279.035156 152.554688 277.675781 151.953125 C 276.320312 151.355469 275.691406 149.761719 276.292969 148.40625 C 276.320312 148.351562 282.351562 134.910156 279.035156 129.296875 C 278.980469 129.191406 278.902344 129.089844 278.824219 129.011719 C 278.773438 128.957031 278.746094 128.90625 278.695312 128.828125 C 278.617188 128.722656 278.539062 128.617188 278.460938 128.515625 C 278.304688 128.359375 278.144531 128.203125 277.988281 128.042969 C 275.875 126.296875 273.316406 125.800781 270.941406 125.851562 C 269.765625 125.878906 268.773438 126.609375 268.40625 127.730469 C 268.042969 128.855469 268.40625 130.027344 269.347656 130.734375 C 270 131.230469 270.390625 131.984375 270.417969 132.769531 C 270.417969 132.796875 270.417969 132.820312 270.417969 132.847656 C 270.574219 135.171875 271.355469 155.058594 249.683594 171.660156 C 249.660156 171.6875 249.632812 171.6875 249.605469 171.714844 L 249.527344 171.765625 L 249.503906 171.765625 L 249.449219 171.792969 C 248.457031 172.445312 247.203125 172.367188 246.289062 171.660156 C 246.265625 171.636719 246.238281 171.636719 246.238281 171.609375 C 245.613281 171.140625 242.660156 168.945312 238.5625 165.917969 C 237.777344 165.34375 236.8125 165.214844 235.925781 165.605469 C 235.011719 165.972656 234.4375 166.726562 234.277344 167.695312 C 234.121094 168.765625 234.121094 169.730469 234.277344 170.644531 C 234.644531 172.964844 235.871094 174.871094 236.785156 176.074219 C 237.253906 176.699219 238.144531 177.691406 239.214844 178.917969 C 243.210938 183.40625 249.476562 190.507812 249.320312 194.839844 C 249.1875 198.675781 238.796875 230.105469 235.0625 241.328125 C 234.644531 242.554688 235.140625 243.859375 236.238281 244.511719 C 250.992188 253.335938 263.367188 251.558594 268.511719 250.175781 C 269.425781 249.914062 270.105469 249.289062 270.390625 248.375 C 272.375 242.085938 277.519531 225.953125 282.0625 214.261719 C 286.085938 203.898438 290 201.207031 294.230469 198.335938 C 296.191406 197.007812 298.199219 195.621094 300.261719 193.246094 C 303.316406 189.699219 305.617188 185.390625 307.390625 180.640625 C 309.246094 175.757812 310.578125 170.382812 311.699219 164.847656 C 312.089844 162.917969 312.039062 161.300781 311.699219 159.941406 C 311.414062 158.765625 310.421875 157.957031 309.21875 157.878906 C 308.019531 157.800781 306.949219 158.507812 306.53125 159.628906 C 305.929688 161.195312 305.355469 162.527344 304.910156 163.515625 C 304.308594 164.875 302.71875 165.476562 301.332031 164.875 C 299.976562 164.273438 299.375 162.683594 299.976562 161.300781 C 300.96875 159.054688 302.664062 154.957031 303.710938 150.703125 C 303.761719 150.675781 303.761719 150.625 303.761719 150.570312 Z M 249.632812 164.71875 C 262.582031 153.285156 264.75 141.121094 265.039062 135.824219 C 265.089844 134.859375 264.671875 134.023438 263.890625 133.472656 C 258.535156 129.664062 244.828125 119.796875 235.035156 111.835938 C 226.417969 104.8125 225.085938 100.246094 223.652344 95.339844 C 223 93.09375 222.320312 90.746094 220.675781 88.03125 C 218.246094 84.035156 214.851562 80.539062 210.882812 77.328125 C 206.808594 74.066406 202.109375 71.140625 197.199219 68.347656 C 195.476562 67.382812 193.910156 66.941406 192.527344 66.835938 C 191.324219 66.757812 190.253906 67.4375 189.8125 68.558594 C 189.367188 69.679688 189.679688 70.90625 190.621094 71.664062 C 191.925781 72.707031 193.023438 73.675781 193.832031 74.40625 C 194.929688 75.398438 195.03125 77.121094 194.015625 78.214844 C 193.023438 79.3125 191.300781 79.417969 190.203125 78.398438 C 188.402344 76.753906 185.03125 73.933594 181.351562 71.613281 C 181.296875 71.585938 181.246094 71.535156 181.167969 71.507812 C 181.089844 71.457031 181.011719 71.429688 180.933594 71.378906 L 180.878906 71.351562 C 180.828125 71.300781 180.777344 71.273438 180.699219 71.246094 C 179.785156 70.699219 178.871094 70.203125 177.957031 69.757812 C 175.242188 68.425781 172.601562 67.644531 170.777344 68.246094 C 170.226562 68.425781 169.757812 68.609375 169.3125 68.84375 C 168.398438 69.316406 167.851562 70.203125 167.824219 71.246094 C 167.824219 72.289062 168.347656 73.179688 169.261719 73.675781 C 174.902344 76.648438 180.332031 81.0625 181.847656 82.941406 C 182.785156 84.089844 182.605469 85.8125 181.429688 86.726562 C 180.28125 87.664062 178.558594 87.480469 177.644531 86.308594 C 176.257812 84.585938 170.460938 80.042969 164.847656 77.511719 C 161.792969 76.128906 158.972656 75.371094 157.5625 76.230469 C 156.101562 77.144531 155.292969 78.476562 154.847656 79.886719 C 154.613281 80.644531 154.691406 81.402344 155.109375 82.105469 C 155.527344 82.785156 156.125 83.226562 156.9375 83.382812 C 165.316406 85.003906 174.066406 92.964844 174.089844 92.988281 C 175.1875 93.980469 175.292969 95.679688 174.300781 96.800781 C 173.308594 97.898438 171.609375 98 170.488281 97.007812 C 170.460938 96.984375 159.574219 87.117188 153.203125 88.5 C 153.070312 88.527344 152.96875 88.550781 152.835938 88.605469 C 152.757812 88.628906 152.707031 88.65625 152.628906 88.683594 C 152.496094 88.710938 152.367188 88.761719 152.234375 88.8125 C 152.054688 88.890625 151.84375 88.996094 151.660156 89.125 C 149.363281 90.589844 148.085938 92.859375 147.40625 95.15625 C 147.066406 96.277344 147.457031 97.453125 148.425781 98.132812 C 149.363281 98.808594 150.589844 98.835938 151.558594 98.15625 C 152.15625 97.742188 152.863281 97.609375 153.542969 97.714844 C 153.59375 97.714844 172.761719 100.820312 184.40625 129.429688 C 184.902344 130.65625 184.433594 132.039062 183.359375 132.71875 C 183.335938 132.742188 183.28125 132.769531 183.257812 132.796875 C 182.5 133.34375 179.550781 135.433594 175.554688 138.304688 C 174.769531 138.878906 174.351562 139.738281 174.429688 140.703125 C 174.507812 141.671875 175.03125 142.480469 175.894531 142.921875 C 176.832031 143.417969 177.773438 143.707031 178.6875 143.835938 C 181.039062 144.203125 183.203125 143.628906 184.640625 143.132812 C 185.320312 142.898438 186.574219 142.347656 188.085938 141.695312 C 193.597656 139.292969 202.265625 135.535156 206.367188 136.996094 C 209.996094 138.304688 236.628906 157.851562 246.160156 164.902344 C 247.257812 165.632812 248.640625 165.578125 249.632812 164.71875 Z M 166.363281 144.90625 C 155.628906 152.683594 143.621094 161.535156 142.339844 163.179688 C 140.980469 164.925781 141.765625 173.019531 142.261719 178.1875 C 142.417969 179.910156 142.574219 181.34375 142.601562 182.3125 C 142.652344 184.425781 142.445312 187.609375 140.851562 190.742188 C 139.652344 193.089844 137.691406 195.386719 134.53125 197.1875 C 133.382812 197.816406 132.886719 199.148438 133.277344 200.398438 C 137.351562 213.007812 142.078125 227.207031 143.226562 228.902344 C 144.453125 230.703125 152.417969 232.480469 157.484375 233.601562 C 159.234375 233.992188 160.671875 234.304688 161.507812 234.542969 C 163.542969 235.140625 166.46875 236.316406 168.972656 238.796875 C 169 238.820312 169.027344 238.847656 169.050781 238.875 L 169.15625 238.980469 C 169.183594 239.003906 169.183594 239.003906 169.207031 239.03125 C 171.011719 240.882812 172.523438 243.414062 173.203125 246.835938 C 173.464844 248.113281 174.5625 249 175.867188 249 C 189.105469 249.027344 204.066406 248.898438 206.050781 248.324219 C 208.167969 247.722656 212.292969 240.703125 214.929688 236.238281 C 215.816406 234.722656 216.574219 233.472656 217.070312 232.714844 C 218.273438 230.964844 220.308594 228.511719 223.46875 226.917969 C 225.84375 225.71875 228.769531 224.988281 232.371094 225.40625 C 233.679688 225.5625 234.851562 224.777344 235.269531 223.550781 C 239.371094 210.972656 243.886719 196.746094 243.941406 194.65625 C 244.019531 192.464844 238.613281 186.355469 235.191406 182.492188 C 234.019531 181.164062 233.050781 180.066406 232.503906 179.363281 C 231.222656 177.691406 229.527344 175.003906 228.953125 171.480469 C 228.535156 168.867188 228.769531 165.839844 230.285156 162.550781 C 230.832031 161.378906 230.464844 159.992188 229.421875 159.238281 C 218.714844 151.433594 206.574219 142.742188 204.617188 142.035156 C 202.554688 141.277344 195.085938 144.542969 190.332031 146.601562 C 188.742188 147.308594 187.410156 147.882812 186.519531 148.195312 C 184.511719 148.898438 181.457031 149.683594 177.929688 149.136719 C 175.320312 148.71875 172.523438 147.570312 169.835938 145.117188 C 168.84375 144.203125 167.433594 144.125 166.363281 144.90625 Z M 149.050781 84.375 C 148.894531 81.140625 149.363281 74.953125 154.769531 71.613281 C 156.046875 70.828125 157.535156 70.488281 159.15625 70.488281 C 160.175781 70.488281 161.035156 69.992188 161.53125 69.105469 C 162.785156 66.886719 165.058594 64.40625 169.183594 63.078125 C 172.523438 62.007812 176.46875 63 180.304688 64.851562 C 181.273438 65.320312 182.34375 65.191406 183.179688 64.539062 C 186.417969 61.953125 192.1875 59.316406 199.835938 63.652344 C 204.980469 66.574219 209.917969 69.65625 214.25 73.125 C 218.664062 76.675781 222.476562 80.617188 225.269531 85.238281 C 227.28125 88.550781 228.0625 91.242188 228.820312 93.824219 C 230.023438 97.898438 231.121094 101.683594 238.429688 107.632812 C 244.382812 112.488281 251.902344 118.101562 258.015625 122.5625 C 258.851562 123.191406 259.894531 123.269531 260.835938 122.796875 C 260.835938 122.796875 260.859375 122.773438 260.859375 122.773438 C 260.886719 122.746094 272.21875 117.289062 280.546875 123.191406 C 281.253906 123.6875 282.0625 123.816406 282.898438 123.582031 C 286.164062 122.589844 291.28125 121.964844 295.511719 125.511719 C 296.660156 126.480469 297.441406 127.785156 297.9375 129.351562 C 298.253906 130.316406 299.007812 130.996094 299.976562 131.175781 C 302.457031 131.671875 305.539062 133.054688 308.070312 136.582031 C 310.132812 139.425781 310.394531 143.496094 309.820312 147.699219 C 309.664062 148.769531 310.105469 149.761719 311.019531 150.335938 C 314.46875 152.605469 318.75 157.277344 317 165.894531 C 315.824219 171.6875 314.414062 177.324219 312.457031 182.519531 C 310.445312 187.820312 307.863281 192.671875 304.335938 196.773438 C 301.804688 199.722656 299.480469 201.289062 297.261719 202.800781 C 293.734375 205.203125 290.472656 207.421875 287.078125 216.191406 C 284.28125 223.371094 281.28125 232.246094 278.902344 239.449219 C 278.5625 240.441406 278.824219 241.457031 279.554688 242.214844 C 279.554688 242.214844 279.582031 242.242188 279.582031 242.242188 C 279.609375 242.265625 288.90625 251.976562 284.933594 262.054688 C 284.933594 262.078125 284.910156 262.105469 284.910156 262.132812 L 284.832031 262.339844 C 286.867188 264.898438 290.105469 270.171875 287.730469 276.015625 C 287.15625 277.402344 286.164062 278.574219 284.832031 279.515625 C 283.996094 280.117188 283.605469 281.027344 283.707031 282.046875 C 283.996094 284.578125 283.628906 287.921875 281.070312 291.390625 C 278.980469 294.238281 275.222656 295.75 271.019531 296.480469 C 269.972656 296.664062 269.164062 297.394531 268.875 298.4375 C 267.78125 302.433594 264.671875 307.941406 255.925781 308.933594 C 250.078125 309.585938 244.28125 310.003906 238.71875 309.742188 L 238.691406 309.742188 C 233.027344 309.480469 227.621094 308.515625 222.683594 306.453125 C 219.132812 304.964844 216.914062 303.242188 214.773438 301.570312 C 211.40625 298.960938 208.296875 296.558594 198.871094 296.039062 C 191.167969 295.621094 181.792969 295.488281 174.25 295.464844 C 173.203125 295.464844 172.316406 296.011719 171.820312 296.925781 C 171.820312 296.925781 171.820312 296.953125 171.792969 296.953125 C 171.769531 296.976562 165.421875 308.828125 154.585938 308.175781 C 154.558594 308.175781 154.535156 308.175781 154.507812 308.175781 L 154.300781 308.148438 C 152.496094 310.890625 148.476562 315.589844 142.15625 315.117188 C 140.644531 315.015625 139.257812 314.414062 137.925781 313.449219 C 137.117188 312.847656 136.097656 312.742188 135.183594 313.160156 C 132.886719 314.230469 129.570312 314.910156 125.472656 313.550781 C 122.128906 312.457031 119.519531 309.324219 117.535156 305.566406 C 117.039062 304.625 116.070312 304.078125 115 304.128906 C 110.875 304.3125 104.660156 303.085938 101.003906 295.046875 C 98.578125 289.695312 96.410156 284.34375 94.921875 278.914062 C 93.40625 273.433594 92.648438 267.976562 93.09375 262.628906 C 93.40625 258.789062 94.371094 256.152344 95.285156 253.597656 C 96.722656 249.601562 98.054688 245.894531 95.625 236.761719 C 93.667969 229.320312 90.875 220.367188 88.578125 213.164062 C 88.261719 212.171875 87.453125 211.492188 86.433594 211.308594 C 86.410156 211.308594 86.382812 211.308594 86.355469 211.308594 C 86.332031 211.308594 73.144531 208.933594 70.402344 198.414062 C 70.402344 198.390625 70.375 198.363281 70.375 198.335938 L 70.324219 198.128906 C 67.164062 197.265625 61.445312 194.890625 59.933594 188.757812 C 59.566406 187.296875 59.722656 185.78125 60.21875 184.242188 C 60.53125 183.277344 60.324219 182.285156 59.644531 181.554688 C 57.921875 179.699219 56.25 176.75 56.277344 172.445312 C 56.300781 168.921875 58.445312 165.5 61.394531 162.421875 C 62.152344 161.636719 62.359375 160.59375 61.96875 159.574219 C 60.507812 155.714844 59.773438 149.421875 66.277344 143.472656 C 70.636719 139.476562 75.101562 135.746094 79.722656 132.691406 C 84.476562 129.558594 89.4375 127.15625 94.660156 125.929688 C 98.421875 125.042969 101.214844 125.121094 103.929688 125.226562 C 108.1875 125.355469 112.128906 125.460938 120.066406 120.34375 C 126.542969 116.167969 134.191406 110.765625 140.328125 106.355469 C 141.164062 105.753906 141.582031 104.789062 141.425781 103.742188 C 141.425781 103.71875 141.425781 103.691406 141.425781 103.664062 C 141.425781 103.640625 139.597656 90.351562 148.738281 84.53125 C 148.761719 84.507812 148.789062 84.507812 148.816406 84.480469 Z M 177.667969 127.390625 C 169.835938 110.894531 159.757812 105.441406 155.1875 103.742188 C 154.300781 103.40625 153.386719 103.535156 152.628906 104.109375 C 147.40625 107.972656 133.644531 118.074219 123.042969 124.914062 C 113.722656 130.917969 108.96875 130.785156 103.851562 130.628906 C 101.5 130.550781 99.074219 130.5 95.964844 131.230469 C 91.394531 132.300781 87.007812 134.441406 82.78125 137.234375 C 78.417969 140.105469 74.1875 143.652344 70.011719 147.464844 C 68.546875 148.796875 67.660156 150.152344 67.136719 151.433594 C 66.695312 152.554688 67.007812 153.78125 67.949219 154.539062 C 68.886719 155.296875 70.140625 155.375 71.160156 154.722656 C 72.570312 153.808594 73.824219 153.050781 74.761719 152.503906 C 76.042969 151.773438 77.714844 152.214844 78.445312 153.496094 C 79.175781 154.773438 78.730469 156.445312 77.453125 157.175781 C 75.285156 158.425781 71.394531 160.828125 68 163.726562 L 67.949219 163.777344 C 67.058594 164.535156 66.199219 165.320312 65.414062 166.128906 C 63.300781 168.292969 61.757812 170.566406 61.757812 172.46875 C 61.757812 173.042969 61.8125 173.566406 61.863281 174.035156 C 62.019531 175.054688 62.699219 175.863281 63.691406 176.175781 C 64.683594 176.515625 65.703125 176.28125 66.433594 175.550781 C 71.003906 171.113281 76.902344 167.300781 79.125 166.441406 C 80.507812 165.917969 82.074219 166.625 82.597656 168.007812 C 83.117188 169.390625 82.414062 170.957031 81.03125 171.480469 C 78.941406 172.261719 72.855469 176.359375 68.707031 180.925781 C 66.433594 183.40625 64.839844 185.859375 65.230469 187.453125 C 65.648438 189.125 66.667969 190.324219 67.871094 191.160156 C 68.523438 191.628906 69.28125 191.785156 70.0625 191.601562 C 70.847656 191.421875 71.445312 190.976562 71.839844 190.273438 C 75.964844 182.808594 86.253906 176.933594 86.277344 176.90625 C 87.558594 176.152344 89.230469 176.59375 89.960938 177.898438 C 90.71875 179.179688 90.273438 180.847656 88.96875 181.582031 C 88.941406 181.605469 76.171875 188.890625 75.519531 195.386719 C 75.496094 195.519531 75.496094 195.648438 75.519531 195.78125 C 75.519531 195.859375 75.519531 195.9375 75.519531 196.015625 C 75.519531 196.171875 75.519531 196.300781 75.546875 196.433594 C 75.574219 196.640625 75.597656 196.851562 75.652344 197.03125 C 77.085938 202.617188 83.433594 204.941406 86.148438 205.671875 C 85 202.226562 84.242188 200.035156 84.242188 200.007812 C 83.929688 199.09375 84.136719 198.101562 84.710938 197.425781 C 84.738281 197.398438 84.765625 197.371094 84.765625 197.347656 C 86.304688 195.363281 98.5 180.535156 123.984375 178.34375 L 124.503906 178.34375 C 124.53125 178.34375 124.558594 178.34375 124.558594 178.34375 L 124.609375 178.34375 C 124.636719 178.34375 124.664062 178.34375 124.6875 178.34375 L 124.765625 178.34375 L 124.820312 178.371094 L 124.871094 178.371094 C 124.898438 178.371094 124.898438 178.371094 124.921875 178.394531 L 125 178.394531 C 125.027344 178.394531 125.027344 178.394531 125.054688 178.421875 L 125.160156 178.449219 L 125.183594 178.449219 L 125.238281 178.472656 L 125.261719 178.472656 L 125.316406 178.5 L 125.339844 178.5 L 125.394531 178.527344 L 125.445312 178.550781 L 125.496094 178.550781 C 125.523438 178.550781 125.523438 178.578125 125.550781 178.578125 L 125.65625 178.628906 L 125.679688 178.628906 L 125.707031 178.65625 C 125.734375 178.65625 125.734375 178.683594 125.757812 178.683594 L 125.914062 178.789062 L 125.941406 178.789062 L 125.96875 178.8125 C 125.96875 178.8125 125.996094 178.839844 125.996094 178.839844 L 126.019531 178.867188 L 126.046875 178.867188 L 126.074219 178.890625 L 126.097656 178.917969 L 126.125 178.945312 L 126.152344 178.96875 L 126.175781 178.996094 L 126.203125 179.023438 L 126.230469 179.046875 L 126.253906 179.074219 L 126.28125 179.101562 L 126.308594 179.125 L 126.332031 179.152344 C 126.359375 179.179688 126.359375 179.179688 126.386719 179.203125 L 126.410156 179.230469 C 126.648438 179.519531 126.804688 179.832031 126.90625 180.195312 C 126.90625 180.222656 126.933594 180.25 126.933594 180.273438 C 127.167969 181.058594 128.292969 184.554688 129.804688 189.359375 C 130.09375 190.296875 130.796875 190.949219 131.765625 191.1875 C 132.703125 191.421875 133.644531 191.160156 134.324219 190.453125 C 135.054688 189.699219 135.628906 188.914062 136.019531 188.105469 C 137.117188 185.964844 137.25 183.746094 137.195312 182.234375 C 137.171875 181.5 137.039062 180.144531 136.882812 178.527344 C 136.308594 172.550781 135.394531 163.125 138.058594 159.707031 C 140.40625 156.679688 166.988281 137.570312 176.753906 130.601562 C 177.878906 129.976562 178.242188 128.59375 177.667969 127.390625 Z M 120.066406 184.320312 C 104.035156 186.800781 94.738281 194.605469 90.976562 198.496094 C 90.246094 199.25 90.039062 200.269531 90.351562 201.234375 C 92.492188 207.65625 97.6875 223.421875 100.875 235.402344 C 103.722656 246.128906 102.101562 250.621094 100.378906 255.421875 C 99.59375 257.617188 98.785156 259.886719 98.5 263.097656 C 98.105469 267.796875 98.785156 272.625 100.117188 277.503906 C 101.476562 282.492188 103.5625 287.632812 105.914062 292.800781 C 106.722656 294.574219 107.714844 295.855469 108.785156 296.742188 C 109.699219 297.527344 110.980469 297.605469 112 296.953125 C 113.015625 296.296875 113.488281 295.125 113.171875 293.949219 C 112.730469 292.332031 112.417969 290.921875 112.179688 289.851562 C 111.867188 288.390625 112.808594 286.953125 114.269531 286.667969 C 115.730469 286.355469 117.167969 287.292969 117.457031 288.753906 C 118.109375 291.863281 119.675781 298.125 122.234375 302.953125 C 123.644531 305.617188 125.316406 307.785156 127.144531 308.382812 C 127.664062 308.566406 128.1875 308.671875 128.65625 308.75 C 129.675781 308.90625 130.640625 308.515625 131.269531 307.679688 C 131.894531 306.84375 131.972656 305.800781 131.53125 304.859375 C 128.734375 299.144531 126.90625 292.382812 126.804688 289.980469 C 126.726562 288.496094 127.875 287.242188 129.363281 287.164062 C 130.851562 287.085938 132.105469 288.234375 132.183594 289.722656 C 132.285156 291.941406 134.324219 298.988281 137.351562 304.363281 C 139.023438 307.289062 140.851562 309.558594 142.46875 309.664062 C 144.167969 309.792969 145.628906 309.167969 146.804688 308.304688 C 147.457031 307.835938 147.824219 307.15625 147.902344 306.375 C 147.980469 305.566406 147.71875 304.859375 147.171875 304.261719 C 141.347656 298.046875 138.945312 286.433594 138.917969 286.378906 C 138.605469 284.917969 139.546875 283.484375 141.007812 283.167969 C 142.46875 282.855469 143.90625 283.796875 144.21875 285.257812 C 144.21875 285.308594 147.222656 299.613281 153.175781 302.277344 C 153.308594 302.328125 153.410156 302.378906 153.566406 302.40625 C 153.644531 302.433594 153.726562 302.457031 153.804688 302.484375 C 153.960938 302.539062 154.0625 302.5625 154.222656 302.617188 C 154.429688 302.667969 154.613281 302.695312 154.820312 302.695312 C 160.617188 303.058594 164.796875 297.707031 166.308594 295.386719 C 162.65625 295.410156 160.355469 295.4375 160.332031 295.4375 C 159.601562 295.4375 158.921875 295.175781 158.449219 294.707031 C 158.398438 294.679688 143.933594 281.238281 152.054688 250.804688 C 152.394531 249.550781 153.566406 248.742188 154.820312 248.792969 C 154.875 248.792969 154.898438 248.792969 154.953125 248.792969 C 155.96875 248.792969 159.546875 248.84375 164.402344 248.871094 C 165.371094 248.871094 166.230469 248.402344 166.726562 247.59375 C 167.25 246.757812 167.277344 245.792969 166.832031 244.929688 C 166.390625 244.070312 165.867188 243.335938 165.292969 242.738281 C 165.265625 242.710938 165.214844 242.660156 165.1875 242.632812 L 165.136719 242.582031 C 165.109375 242.554688 165.109375 242.554688 165.082031 242.527344 C 163.410156 240.859375 161.324219 240.046875 159.886719 239.632812 C 159.078125 239.394531 157.796875 239.109375 156.257812 238.769531 C 150.382812 237.464844 141.140625 235.429688 138.710938 231.828125 C 136.542969 228.617188 126.648438 197.632812 122.992188 186.121094 C 122.652344 184.894531 121.398438 184.113281 120.066406 184.320312 Z M 156.335938 256.46875 C 152.523438 274.789062 157.796875 285.023438 160.617188 288.964844 C 161.140625 289.695312 161.949219 290.113281 162.835938 290.085938 C 169.234375 290.035156 186.46875 289.929688 199.132812 290.632812 C 210.230469 291.234375 213.988281 294.160156 218.039062 297.289062 C 219.890625 298.726562 221.796875 300.214844 224.75 301.441406 C 229.082031 303.242188 233.859375 304.101562 238.925781 304.339844 L 238.953125 304.339844 C 244.148438 304.574219 249.683594 304.179688 255.324219 303.554688 C 257.285156 303.347656 258.796875 302.773438 259.972656 302.042969 C 260.992188 301.414062 261.460938 300.214844 261.175781 299.066406 C 260.859375 297.890625 259.894531 297.109375 258.691406 297.03125 C 257.023438 296.953125 255.585938 296.820312 254.488281 296.691406 C 253 296.535156 251.929688 295.203125 252.085938 293.714844 C 252.242188 292.226562 253.574219 291.15625 255.0625 291.3125 C 258.222656 291.652344 264.671875 292.097656 270.050781 291.15625 C 273.054688 290.632812 275.613281 289.722656 276.738281 288.179688 C 277.074219 287.738281 277.335938 287.265625 277.570312 286.824219 C 278.042969 285.910156 277.964844 284.867188 277.363281 284.003906 C 276.761719 283.167969 275.796875 282.75 274.777344 282.910156 C 268.460938 283.820312 261.460938 283.457031 259.164062 282.828125 C 257.726562 282.4375 256.867188 280.949219 257.257812 279.515625 C 257.648438 278.078125 259.136719 277.21875 260.574219 277.609375 C 262.742188 278.183594 270.078125 278.472656 276.109375 277.21875 C 279.398438 276.539062 282.117188 275.496094 282.742188 273.980469 C 283.394531 272.390625 283.265625 270.824219 282.792969 269.441406 C 282.535156 268.683594 282.035156 268.109375 281.28125 267.796875 C 280.546875 267.480469 279.765625 267.480469 279.035156 267.820312 C 271.304688 271.449219 259.554688 270.144531 259.503906 270.117188 C 258.015625 269.988281 256.945312 268.65625 257.074219 267.167969 C 257.203125 265.679688 258.535156 264.585938 260.023438 264.742188 C 260.078125 264.742188 274.832031 266.332031 279.085938 261.398438 C 279.164062 261.320312 279.21875 261.242188 279.269531 261.140625 C 279.296875 261.085938 279.347656 261.035156 279.375 260.984375 C 279.453125 260.878906 279.503906 260.800781 279.582031 260.695312 C 279.714844 260.488281 279.816406 260.277344 279.894531 260.070312 C 280.914062 257.511719 280.601562 254.925781 279.792969 252.65625 C 279.398438 251.535156 278.40625 250.828125 277.234375 250.828125 C 276.058594 250.828125 275.066406 251.535156 274.671875 252.65625 C 274.414062 253.386719 273.863281 253.960938 273.183594 254.25 C 273.132812 254.273438 253.289062 263.070312 229.734375 246.703125 C 229.710938 246.679688 229.683594 246.679688 229.65625 246.652344 C 229.421875 246.496094 229.214844 246.3125 229.03125 246.078125 L 229.003906 246.027344 L 228.925781 245.921875 L 228.898438 245.894531 C 228.898438 245.871094 228.875 245.871094 228.875 245.84375 L 228.820312 245.765625 L 228.796875 245.710938 L 228.742188 245.609375 C 228.71875 245.53125 228.664062 245.453125 228.640625 245.375 L 228.613281 245.320312 L 228.585938 245.269531 C 228.457031 244.851562 228.402344 244.382812 228.507812 243.910156 L 228.507812 243.859375 C 228.507812 243.832031 228.507812 243.832031 228.507812 243.808594 L 228.535156 243.703125 C 228.535156 243.675781 228.535156 243.675781 228.535156 243.652344 C 228.535156 243.625 228.5625 243.597656 228.5625 243.574219 L 228.5625 243.496094 C 228.691406 243.078125 229.917969 239.449219 231.617188 234.332031 C 231.929688 233.417969 231.746094 232.453125 231.121094 231.722656 C 230.492188 230.992188 229.578125 230.652344 228.613281 230.808594 C 227.566406 230.964844 226.628906 231.304688 225.820312 231.695312 C 223.703125 232.765625 222.269531 234.515625 221.40625 235.742188 C 220.960938 236.367188 220.28125 237.542969 219.472656 238.925781 C 216.417969 244.09375 211.613281 252.265625 207.460938 253.464844 C 203.78125 254.535156 170.878906 254.351562 158.945312 254.273438 C 157.695312 254.300781 156.597656 255.1875 156.335938 256.46875 Z M 156.335938 256.46875 " fill-opacity="1" fill-rule="nonzero"/></g></svg>