<svg xmlns="http://www.w3.org/2000/svg" xmlns:xlink="http://www.w3.org/1999/xlink" width="500" zoomAndPan="magnify" viewBox="0 0 375 374.999991" height="500" preserveAspectRatio="xMidYMid meet" version="1.0"><defs><clipPath id="a6b616f283"><path d="M 56.25 89.0625 L 318.75 89.0625 L 318.75 286.3125 L 56.25 286.3125 Z M 56.25 89.0625 " clip-rule="nonzero"/></clipPath></defs><g clip-path="url(#a6b616f283)"><path fill="#00a2e9" d="M 142.820312 135.101562 C 145.171875 137.269531 148.3125 138.59375 151.761719 138.59375 C 153.972656 138.59375 156.050781 138.050781 157.878906 137.089844 L 180.8125 170.785156 C 178.441406 173.171875 176.980469 176.46875 176.980469 180.105469 L 176.992188 180.660156 L 159.558594 186.992188 C 157.722656 184.675781 154.890625 183.191406 151.710938 183.191406 C 146.183594 183.191406 141.703125 187.679688 141.703125 193.207031 C 141.703125 198.746094 146.183594 203.234375 151.710938 203.234375 C 157.09375 203.234375 161.484375 198.972656 161.710938 193.632812 L 179.105469 187.3125 C 181.464844 190.933594 185.550781 193.332031 190.1875 193.332031 C 197.480469 193.332031 203.390625 187.40625 203.390625 180.105469 C 203.390625 172.792969 197.480469 166.867188 190.1875 166.867188 C 189.035156 166.867188 187.921875 167.015625 186.859375 167.292969 L 163.027344 132.269531 C 164.261719 130.253906 164.964844 127.894531 164.964844 125.355469 L 164.902344 124.007812 C 164.621094 121.246094 163.496094 118.738281 161.785156 116.742188 C 159.363281 113.917969 155.773438 112.128906 151.761719 112.128906 C 144.46875 112.128906 138.554688 118.050781 138.554688 125.355469 C 138.554688 126.785156 138.777344 128.164062 139.199219 129.457031 C 139.90625 131.644531 141.167969 133.578125 142.820312 135.101562 M 139.796875 243.0625 L 138.945312 243.015625 C 137.199219 243.015625 135.574219 243.554688 134.238281 244.464844 C 132.027344 245.972656 130.582031 248.511719 130.582031 251.390625 C 130.582031 255.734375 133.875 259.304688 138.101562 259.726562 L 138.945312 259.765625 C 143.566406 259.765625 147.300781 256.011719 147.300781 251.390625 C 147.300781 249.609375 146.757812 247.964844 145.808594 246.609375 L 147.847656 242.234375 L 153.488281 230.140625 L 154.324219 230.175781 C 158.28125 230.175781 161.671875 227.734375 163.085938 224.277344 L 183.160156 224.1875 C 184.527344 227.480469 187.765625 229.792969 191.546875 229.792969 C 196.5625 229.792969 200.632812 225.71875 200.632812 220.691406 C 200.632812 215.671875 196.5625 211.59375 191.546875 211.59375 C 187.757812 211.59375 184.507812 213.925781 183.144531 217.230469 L 163.15625 217.3125 C 161.796875 213.746094 158.355469 211.21875 154.324219 211.21875 C 151.199219 211.21875 148.429688 212.730469 146.707031 215.066406 L 130.160156 205.992188 C 130.324219 205.203125 130.414062 204.382812 130.414062 203.550781 C 130.414062 199.988281 128.808594 196.808594 126.277344 194.6875 L 133.203125 177.535156 L 135.398438 177.679688 C 144.847656 177.679688 152.507812 170.003906 152.507812 160.542969 C 152.507812 151.070312 144.847656 143.402344 135.398438 143.402344 C 125.953125 143.402344 118.296875 151.070312 118.296875 160.542969 C 118.296875 166.785156 121.632812 172.261719 126.617188 175.25 L 119.835938 192.042969 L 118.890625 192.003906 C 112.523438 192.003906 107.363281 197.171875 107.363281 203.558594 C 107.363281 209.933594 112.523438 215.105469 118.890625 215.105469 C 121.910156 215.105469 124.648438 213.945312 126.703125 212.046875 L 144.960938 222.0625 C 145.222656 223.957031 146.054688 225.660156 147.265625 227.011719 L 140.734375 241.042969 Z M 134.066406 267.035156 C 128.769531 267.035156 124.460938 271.347656 124.460938 276.660156 C 124.460938 281.976562 128.769531 286.285156 134.066406 286.285156 C 139.375 286.285156 143.667969 281.976562 143.667969 276.660156 C 143.671875 271.347656 139.378906 267.035156 134.066406 267.035156 Z M 98.824219 269.792969 C 104.128906 269.792969 108.429688 265.488281 108.429688 260.175781 C 108.429688 254.859375 104.128906 250.550781 98.824219 250.550781 C 93.515625 250.550781 89.226562 254.855469 89.226562 260.175781 C 89.226562 265.488281 93.519531 269.792969 98.824219 269.792969 Z M 95.25 232.117188 C 99.71875 232.117188 103.351562 228.480469 103.351562 224 C 103.351562 219.515625 99.722656 215.878906 95.25 215.878906 C 90.773438 215.878906 87.148438 219.515625 87.148438 224 C 87.148438 228.476562 90.773438 232.117188 95.25 232.117188 Z M 64.5 207.78125 C 69.0625 207.78125 72.757812 204.074219 72.757812 199.503906 C 72.757812 194.945312 69.0625 191.242188 64.5 191.242188 C 59.953125 191.242188 56.25 194.941406 56.25 199.503906 C 56.25 204.074219 59.953125 207.78125 64.5 207.78125 Z M 99.195312 188.988281 C 103.46875 187.4375 106.53125 183.328125 106.53125 178.519531 C 106.53125 175.019531 104.917969 171.902344 102.398438 169.863281 C 100.492188 168.316406 98.058594 167.386719 95.414062 167.386719 C 89.273438 167.386719 84.304688 172.371094 84.304688 178.519531 C 84.304688 184.660156 89.273438 189.648438 95.414062 189.648438 C 96.742188 189.648438 98.015625 189.414062 99.195312 188.988281 Z M 97.96875 134.847656 C 97.96875 140.539062 102.570312 145.152344 108.25 145.152344 C 113.925781 145.152344 118.53125 140.535156 118.53125 134.847656 C 118.53125 129.160156 113.925781 124.550781 108.25 124.550781 C 102.570312 124.546875 97.96875 129.160156 97.96875 134.847656 Z M 72.191406 153.023438 C 72.191406 149.117188 69.035156 145.960938 65.132812 145.960938 C 61.242188 145.960938 58.082031 149.117188 58.082031 153.023438 C 58.082031 156.921875 61.242188 160.089844 65.132812 160.089844 C 69.03125 160.09375 72.191406 156.925781 72.191406 153.023438 Z M 158.203125 160.546875 C 158.203125 167.285156 155.289062 173.339844 150.660156 177.519531 L 151.710938 177.484375 C 155.042969 177.484375 158.238281 178.542969 160.878906 180.449219 L 171.621094 176.546875 C 172.019531 174.460938 172.757812 172.464844 173.816406 170.632812 L 155.621094 143.902344 C 154.355469 144.164062 153.066406 144.300781 151.761719 144.300781 L 151.421875 144.296875 C 155.613281 148.433594 158.203125 154.1875 158.203125 160.546875 Z M 169.558594 131.742188 L 189.589844 161.175781 L 190.1875 161.164062 C 200.632812 161.164062 209.089844 169.644531 209.089844 180.105469 C 209.089844 190.558594 200.628906 199.035156 190.1875 199.035156 C 185.371094 199.035156 180.816406 197.203125 177.367188 194.015625 L 166.707031 197.886719 C 165.570312 201.550781 163.132812 204.632812 159.945312 206.605469 C 162.523438 207.636719 164.777344 209.367188 166.449219 211.601562 L 179.929688 211.542969 C 182.6875 208.039062 186.9375 205.894531 191.542969 205.894531 C 199.699219 205.894531 206.324219 212.527344 206.324219 220.699219 C 206.324219 228.875 199.703125 235.507812 191.542969 235.507812 C 186.960938 235.507812 182.734375 233.386719 179.980469 229.914062 L 166.316406 229.976562 C 164.105469 232.839844 160.902344 234.839844 157.238281 235.574219 L 154.003906 242.515625 L 264.621094 242.515625 C 294.507812 242.515625 318.734375 218.242188 318.734375 188.300781 C 318.734375 158.355469 294.507812 134.085938 264.621094 134.085938 L 262.300781 134.136719 C 257.949219 108.5625 235.726562 89.09375 208.960938 89.09375 C 190.816406 89.09375 174.753906 98.046875 164.9375 111.785156 C 168.023438 114.789062 170.101562 118.851562 170.566406 123.433594 L 170.589844 123.746094 L 170.65625 125.222656 L 170.65625 125.355469 C 170.65625 127.546875 170.285156 129.707031 169.558594 131.742188 Z M 169.558594 131.742188 " fill-opacity="1" fill-rule="evenodd"/></g></svg>