<svg xmlns="http://www.w3.org/2000/svg" xmlns:xlink="http://www.w3.org/1999/xlink" width="500" zoomAndPan="magnify" viewBox="0 0 375 374.999991" height="500" preserveAspectRatio="xMidYMid meet" version="1.0"><path fill="#000000" d="M 173.792969 72.671875 L 180.195312 79.070312 Z M 72.671875 173.792969 L 66.269531 167.394531 Z M 72.671875 199.394531 L 79.070312 192.996094 Z M 173.792969 300.519531 L 167.394531 306.917969 Z M 199.394531 300.519531 L 192.996094 294.117188 Z M 300.519531 199.394531 L 306.917969 205.796875 Z M 300.519531 173.792969 L 294.117188 180.195312 Z M 199.394531 72.671875 L 205.796875 66.269531 Z M 167.394531 66.269531 L 66.269531 167.394531 L 79.070312 180.195312 L 180.195312 79.070312 Z M 66.269531 205.796875 L 167.394531 306.917969 L 180.195312 294.117188 L 79.070312 192.996094 Z M 205.796875 306.917969 L 306.917969 205.796875 L 294.117188 192.996094 L 192.996094 294.117188 Z M 306.917969 167.394531 L 205.796875 66.269531 L 192.996094 79.070312 L 294.117188 180.195312 Z M 306.917969 205.796875 C 317.523438 195.191406 317.523438 177.996094 306.917969 167.394531 L 294.117188 180.195312 C 297.652344 183.730469 297.652344 189.460938 294.117188 192.996094 Z M 167.394531 306.917969 C 177.996094 317.523438 195.191406 317.523438 205.796875 306.917969 L 192.996094 294.117188 C 189.460938 297.652344 183.730469 297.652344 180.195312 294.117188 Z M 66.269531 167.394531 C 55.664062 177.996094 55.664062 195.191406 66.269531 205.796875 L 79.070312 192.996094 C 75.535156 189.460938 75.535156 183.730469 79.070312 180.195312 Z M 180.195312 79.070312 C 183.730469 75.535156 189.460938 75.535156 192.996094 79.070312 L 205.796875 66.269531 C 195.191406 55.664062 177.996094 55.664062 167.394531 66.269531 Z M 143.988281 102.476562 L 162.089844 120.582031 L 174.890625 107.78125 L 156.789062 89.675781 Z M 186.59375 141.335938 C 181.59375 141.335938 177.542969 137.28125 177.542969 132.285156 L 159.4375 132.285156 C 159.4375 147.28125 171.597656 159.4375 186.59375 159.4375 Z M 195.644531 132.285156 C 195.644531 137.28125 191.59375 141.335938 186.59375 141.335938 L 186.59375 159.4375 C 201.589844 159.4375 213.75 147.28125 213.75 132.285156 Z M 186.59375 123.230469 C 191.59375 123.230469 195.644531 127.285156 195.644531 132.285156 L 213.75 132.285156 C 213.75 117.285156 201.589844 105.128906 186.59375 105.128906 Z M 186.59375 105.128906 C 171.597656 105.128906 159.4375 117.285156 159.4375 132.285156 L 177.542969 132.285156 C 177.542969 127.285156 181.59375 123.230469 186.59375 123.230469 Z M 198.296875 156.789062 L 225.453125 183.941406 L 238.253906 171.140625 L 211.097656 143.988281 Z M 240.90625 195.644531 C 235.90625 195.644531 231.851562 191.59375 231.851562 186.59375 L 213.75 186.59375 C 213.75 201.589844 225.90625 213.75 240.90625 213.75 Z M 249.957031 186.59375 C 249.957031 191.59375 245.902344 195.644531 240.90625 195.644531 L 240.90625 213.75 C 255.902344 213.75 268.058594 201.589844 268.058594 186.59375 Z M 240.90625 177.542969 C 245.902344 177.542969 249.957031 181.59375 249.957031 186.59375 L 268.058594 186.59375 C 268.058594 171.597656 255.902344 159.4375 240.90625 159.4375 Z M 240.90625 159.4375 C 225.90625 159.4375 213.75 171.597656 213.75 186.59375 L 231.851562 186.59375 C 231.851562 181.59375 235.90625 177.542969 240.90625 177.542969 Z M 177.542969 150.386719 L 177.542969 222.800781 L 195.644531 222.800781 L 195.644531 150.386719 Z M 186.59375 249.957031 C 181.59375 249.957031 177.542969 245.902344 177.542969 240.90625 L 159.4375 240.90625 C 159.4375 255.902344 171.597656 268.058594 186.59375 268.058594 Z M 195.644531 240.90625 C 195.644531 245.902344 191.59375 249.957031 186.59375 249.957031 L 186.59375 268.058594 C 201.589844 268.058594 213.75 255.902344 213.75 240.90625 Z M 186.59375 231.851562 C 191.59375 231.851562 195.644531 235.90625 195.644531 240.90625 L 213.75 240.90625 C 213.75 225.90625 201.589844 213.75 186.59375 213.75 Z M 186.59375 213.75 C 171.597656 213.75 159.4375 225.90625 159.4375 240.90625 L 177.542969 240.90625 C 177.542969 235.90625 181.59375 231.851562 186.59375 231.851562 Z M 186.59375 213.75 " fill-opacity="1" fill-rule="nonzero"/></svg>