<svg xmlns="http://www.w3.org/2000/svg" xmlns:xlink="http://www.w3.org/1999/xlink" width="500" zoomAndPan="magnify" viewBox="0 0 375 374.999991" height="500" preserveAspectRatio="xMidYMid meet" version="1.0"><defs><clipPath id="2a41c79e0a"><path d="M 57 47.3125 L 318 47.3125 L 318 327 L 57 327 Z M 57 47.3125 " clip-rule="nonzero"/></clipPath></defs><g clip-path="url(#2a41c79e0a)"><path fill="#000000" d="M 247.59375 245.078125 C 252.410156 256.21875 251.09375 267.835938 251.167969 279.308594 C 251.242188 290.746094 251.238281 302.1875 251.160156 313.628906 C 251.097656 322.132812 244.25 327.804688 236.355469 326.074219 C 230.851562 324.863281 226.980469 320.070312 226.96875 314.144531 C 226.933594 297.980469 226.875 281.8125 227.042969 265.644531 C 227.125 257.589844 224.75 250.597656 219.3125 244.679688 C 215.808594 240.867188 214.535156 236.519531 216.410156 231.621094 C 218.226562 226.875 221.941406 224.671875 226.9375 223.742188 C 236.097656 222.039062 245.398438 220.566406 254.234375 217.734375 C 274.640625 211.183594 286.59375 196.601562 290.957031 175.816406 C 293.628906 163.074219 294.871094 150.203125 291.605469 137.332031 C 289.5 129.03125 285.570312 121.628906 279.726562 115.382812 C 275.453125 110.816406 274.433594 105.976562 276.546875 100.054688 C 279.699219 91.230469 280.023438 82.164062 277.699219 72.476562 C 274.519531 73.558594 271.363281 74.246094 268.574219 75.660156 C 261.519531 79.238281 254.460938 82.875 247.726562 87.011719 C 243.207031 89.785156 238.902344 90.613281 233.765625 89.285156 C 209.039062 82.882812 184.296875 82.894531 159.535156 89.316406 C 154.515625 90.617188 150.183594 89.976562 145.859375 87.046875 C 137.398438 81.3125 128.5 76.355469 118.621094 73.421875 C 117.738281 73.160156 116.828125 72.984375 115.722656 72.71875 C 113.882812 79.484375 113.738281 86.113281 114.984375 92.753906 C 115.542969 95.710938 116.433594 98.613281 117.34375 101.488281 C 118.8125 106.113281 118.195312 110.351562 114.902344 113.910156 C 104.125 125.5625 99.339844 139.3125 99.96875 155.097656 C 100.402344 166.019531 101.726562 176.757812 105.796875 186.992188 C 112.390625 203.578125 124.960938 213.640625 141.597656 218.703125 C 149.414062 221.082031 157.546875 222.523438 165.617188 223.90625 C 173.8125 225.3125 178.660156 230.351562 177.578125 237.777344 C 177.230469 240.148438 176.003906 242.71875 174.414062 244.519531 C 168.667969 251.039062 166.214844 258.457031 166.34375 267.121094 C 166.582031 282.714844 166.460938 298.320312 166.402344 313.917969 C 166.375 321.078125 161.25 326.359375 154.484375 326.449219 C 147.679688 326.539062 142.417969 321.132812 142.347656 313.847656 C 142.285156 307.054688 142.335938 300.261719 142.335938 293.828125 C 136.15625 293.828125 130.222656 294.148438 124.335938 293.765625 C 110.292969 292.851562 98.601562 286.726562 89.066406 276.554688 C 84.742188 271.945312 80.867188 266.914062 76.835938 262.035156 C 73.507812 258.003906 70.046875 254.429688 64.785156 252.609375 C 58.949219 250.585938 56.277344 243.644531 58.289062 237.78125 C 60.355469 231.761719 66.605469 228.449219 72.804688 230.039062 C 80.808594 232.09375 87.054688 236.847656 92.34375 242.957031 C 96.175781 247.382812 99.851562 251.953125 103.472656 256.558594 C 113.601562 269.449219 126.824219 272.128906 141.988281 268.5 C 142.273438 264.464844 142.308594 260.492188 142.894531 256.597656 C 143.464844 252.796875 144.59375 249.078125 145.5 245.234375 C 141.183594 243.917969 136.652344 242.695312 132.230469 241.15625 C 99.902344 229.898438 82.347656 206.578125 77.351562 173.253906 C 75.382812 160.121094 74.714844 146.929688 77.746094 133.800781 C 80.160156 123.347656 84.476562 113.78125 90.851562 105.171875 C 91.949219 103.6875 92.34375 102.375 91.921875 100.523438 C 88.515625 85.527344 89.753906 70.875 95.472656 56.609375 C 97.851562 50.6875 101.777344 48.304688 108.105469 48.007812 C 123.042969 47.3125 136.085938 53.046875 148.363281 60.410156 C 154.246094 63.9375 159.445312 64.574219 166.011719 63.269531 C 188.425781 58.816406 210.902344 59.464844 233.234375 64.273438 C 235.808594 64.828125 237.789062 64.574219 240.066406 63.179688 C 251.144531 56.390625 262.679688 50.539062 275.675781 48.480469 C 279.644531 47.851562 283.800781 47.851562 287.816406 48.214844 C 292.601562 48.648438 295.90625 51.546875 297.730469 56.046875 C 303.617188 70.5625 304.945312 85.457031 301.574219 100.789062 C 301.3125 101.972656 301.605469 103.65625 302.308594 104.621094 C 314.128906 120.820312 318.730469 139 317.523438 158.851562 C 316.71875 172.035156 314.6875 184.953125 309.523438 197.210938 C 299.761719 220.390625 282.054688 234.558594 258.492188 242.003906 C 255.003906 243.105469 251.449219 243.996094 247.59375 245.078125 Z M 247.59375 245.078125 " fill-opacity="1" fill-rule="nonzero"/></g></svg>