<svg xmlns="http://www.w3.org/2000/svg" xmlns:xlink="http://www.w3.org/1999/xlink" width="500" zoomAndPan="magnify" viewBox="0 0 375 374.999991" height="500" preserveAspectRatio="xMidYMid meet" version="1.0"><defs><clipPath id="5cdca8be34"><path d="M 200 189 L 318.75 189 L 318.75 243 L 200 243 Z M 200 189 " clip-rule="nonzero"/></clipPath><clipPath id="eecdd4adef"><path d="M 89 60.84375 L 266 60.84375 L 266 306 L 89 306 Z M 89 60.84375 " clip-rule="nonzero"/></clipPath><clipPath id="bc653ffde3"><path d="M 56.25 119 L 175 119 L 175 173 L 56.25 173 Z M 56.25 119 " clip-rule="nonzero"/></clipPath><clipPath id="0c9f81d7c2"><path d="M 56.25 261 L 176 261 L 176 314.34375 L 56.25 314.34375 Z M 56.25 261 " clip-rule="nonzero"/></clipPath></defs><g clip-path="url(#5cdca8be34)"><path fill="#5b8ae6" d="M 231.171875 234.480469 C 220.695312 234.480469 212.171875 226.269531 212.171875 216.175781 C 212.171875 206.082031 220.691406 197.875 231.171875 197.875 C 235.257812 197.875 239.304688 199.171875 242.570312 201.53125 C 243.980469 202.546875 244.300781 204.519531 243.28125 205.929688 C 242.265625 207.339844 240.296875 207.660156 238.886719 206.640625 C 236.683594 205.050781 233.941406 204.175781 231.171875 204.175781 C 224.175781 204.175781 218.476562 209.5625 218.476562 216.175781 C 218.476562 222.792969 224.175781 228.175781 231.171875 228.175781 C 233.945312 228.175781 236.683594 227.304688 238.886719 225.710938 C 240.296875 224.695312 242.265625 225.011719 243.28125 226.421875 C 244.296875 227.832031 243.980469 229.804688 242.570312 230.824219 C 239.304688 233.183594 235.257812 234.480469 231.171875 234.480469 Z M 200.0625 189.699219 L 200.0625 242.675781 L 318.75 242.675781 L 318.75 189.699219 Z M 294.167969 234.480469 C 287.296875 234.480469 281.6875 229.839844 281.6875 224.128906 C 281.6875 222.386719 283.097656 220.976562 284.839844 220.976562 C 286.578125 220.976562 287.988281 222.386719 287.988281 224.128906 C 287.988281 226.285156 290.875 228.179688 294.160156 228.179688 C 297.453125 228.179688 300.335938 226.285156 300.335938 224.128906 C 300.335938 221.9375 297.554688 220.734375 292.957031 219.003906 C 287.9375 217.113281 281.6875 214.753906 281.6875 208.226562 C 281.6875 202.515625 287.289062 197.875 294.160156 197.875 C 301.039062 197.875 306.632812 202.515625 306.632812 208.226562 C 306.632812 209.96875 305.222656 211.378906 303.484375 211.378906 C 301.746094 211.378906 300.335938 209.96875 300.335938 208.226562 C 300.335938 206.070312 297.453125 204.175781 294.160156 204.175781 C 290.875 204.175781 287.988281 206.070312 287.988281 208.226562 C 287.988281 210.242188 290.835938 211.464844 295.175781 213.109375 C 300.285156 215.03125 306.632812 217.425781 306.632812 224.132812 C 306.644531 229.835938 301.046875 234.480469 294.167969 234.480469 Z M 262.78125 234.480469 C 255.910156 234.480469 250.308594 229.839844 250.308594 224.128906 C 250.308594 222.386719 251.71875 220.976562 253.460938 220.976562 C 255.207031 220.976562 256.609375 222.386719 256.609375 224.128906 C 256.609375 226.285156 259.496094 228.179688 262.78125 228.179688 C 266.074219 228.179688 268.957031 226.285156 268.957031 224.128906 C 268.957031 221.9375 266.175781 220.734375 261.578125 219.003906 C 256.558594 217.113281 250.308594 214.753906 250.308594 208.226562 C 250.308594 202.515625 255.910156 197.875 262.78125 197.875 C 269.660156 197.875 275.253906 202.515625 275.253906 208.226562 C 275.253906 209.96875 273.851562 211.378906 272.105469 211.378906 C 270.367188 211.378906 268.957031 209.96875 268.957031 208.226562 C 268.957031 206.070312 266.074219 204.175781 262.78125 204.175781 C 259.496094 204.175781 256.609375 206.070312 256.609375 208.226562 C 256.609375 210.242188 259.457031 211.464844 263.796875 213.109375 C 268.90625 215.03125 275.253906 217.425781 275.253906 224.132812 C 275.261719 229.835938 269.660156 234.480469 262.78125 234.480469 Z M 262.78125 234.480469 " fill-opacity="1" fill-rule="evenodd"/></g><g clip-path="url(#eecdd4adef)"><path fill="#535353" d="M 178.078125 178.753906 L 89.417969 178.753906 L 89.417969 254.96875 L 178.835938 254.96875 C 180.578125 254.96875 181.984375 256.378906 181.984375 258.121094 L 181.984375 265.421875 L 240.152344 265.421875 C 241.890625 265.421875 243.300781 266.832031 243.300781 268.574219 C 243.300781 270.3125 241.890625 271.722656 240.152344 271.722656 L 181.984375 271.722656 L 181.984375 305.410156 L 249.167969 305.410156 C 258.347656 305.410156 265.808594 297.941406 265.808594 288.753906 L 265.808594 248.976562 L 196.914062 248.976562 C 195.171875 248.976562 193.761719 247.566406 193.761719 245.824219 L 193.761719 203.402344 L 171.664062 203.402344 C 169.921875 203.402344 168.515625 201.992188 168.515625 200.25 C 168.515625 198.507812 169.921875 197.097656 171.664062 197.097656 L 193.761719 197.097656 L 193.761719 186.546875 C 193.761719 184.804688 195.171875 183.394531 196.914062 183.394531 L 265.800781 183.394531 L 265.800781 77.582031 C 265.800781 68.402344 258.335938 60.925781 249.15625 60.925781 L 106.054688 60.925781 C 96.875 60.925781 89.410156 68.394531 89.410156 77.582031 L 89.410156 113.171875 L 178.074219 113.171875 C 179.8125 113.171875 181.222656 114.582031 181.222656 116.320312 L 181.222656 128.777344 L 240.140625 128.777344 C 241.878906 128.777344 243.289062 130.1875 243.289062 131.929688 C 243.289062 133.671875 241.878906 135.082031 240.140625 135.082031 L 181.222656 135.082031 L 181.222656 162.9375 L 240.140625 162.9375 C 241.878906 162.9375 243.289062 164.351562 243.289062 166.089844 C 243.289062 167.832031 241.878906 169.242188 240.140625 169.242188 L 181.222656 169.242188 L 181.222656 175.601562 C 181.226562 177.34375 179.820312 178.753906 178.078125 178.753906 Z M 240.144531 100.914062 L 115.066406 100.914062 C 113.324219 100.914062 111.917969 99.503906 111.917969 97.761719 C 111.917969 96.023438 113.324219 94.609375 115.066406 94.609375 L 240.144531 94.609375 C 241.886719 94.609375 243.292969 96.023438 243.292969 97.761719 C 243.300781 99.503906 241.886719 100.914062 240.144531 100.914062 Z M 115.066406 231.261719 L 177.605469 231.261719 C 179.34375 231.261719 180.753906 232.671875 180.753906 234.410156 C 180.753906 236.152344 179.34375 237.5625 177.605469 237.5625 L 115.066406 237.5625 C 113.324219 237.5625 111.917969 236.152344 111.917969 234.410156 C 111.917969 232.671875 113.332031 231.261719 115.066406 231.261719 Z M 140.777344 203.402344 L 115.066406 203.402344 C 113.324219 203.402344 111.914062 201.992188 111.914062 200.25 C 111.914062 198.511719 113.324219 197.101562 115.066406 197.101562 L 140.777344 197.101562 C 142.515625 197.101562 143.925781 198.511719 143.925781 200.25 C 143.925781 201.992188 142.515625 203.402344 140.777344 203.402344 Z M 140.777344 203.402344 " fill-opacity="1" fill-rule="evenodd"/></g><g clip-path="url(#bc653ffde3)"><path fill="#5b8ae6" d="M 151.714844 133.84375 L 151.714844 154.925781 L 165.191406 154.925781 C 166.929688 154.925781 168.339844 156.335938 168.339844 158.078125 C 168.339844 159.816406 166.929688 161.226562 165.191406 161.226562 L 148.566406 161.226562 C 146.824219 161.226562 145.414062 159.816406 145.414062 158.078125 L 145.414062 133.84375 C 145.414062 132.105469 146.824219 130.695312 148.566406 130.695312 C 150.304688 130.695312 151.714844 132.105469 151.714844 133.84375 Z M 142.757812 133.839844 L 142.757812 158.078125 C 142.757812 159.816406 141.347656 161.226562 139.609375 161.226562 C 137.871094 161.226562 136.460938 159.816406 136.460938 158.078125 L 136.460938 149.476562 L 132.339844 159.300781 C 131.847656 160.472656 130.707031 161.230469 129.433594 161.230469 C 128.167969 161.230469 127.019531 160.46875 126.527344 159.300781 L 122.40625 149.476562 L 122.40625 158.078125 C 122.40625 159.816406 120.996094 161.226562 119.257812 161.226562 C 117.515625 161.226562 116.109375 159.816406 116.109375 158.078125 L 116.109375 133.839844 C 116.109375 132.335938 117.160156 131.042969 118.632812 130.75 C 120.105469 130.449219 121.582031 131.238281 122.164062 132.621094 L 129.441406 149.945312 L 136.710938 132.621094 C 137.292969 131.238281 138.769531 130.457031 140.234375 130.75 C 141.699219 131.050781 142.757812 132.339844 142.757812 133.839844 Z M 174.929688 119.472656 L 56.246094 119.472656 L 56.246094 172.449219 L 174.9375 172.449219 L 174.9375 131.875 Z M 103.273438 158.082031 C 103.273438 159.824219 101.863281 161.234375 100.125 161.234375 C 98.382812 161.234375 96.976562 159.824219 96.976562 158.082031 L 96.976562 137.003906 L 89.941406 137.003906 C 88.203125 137.003906 86.792969 135.59375 86.792969 133.851562 C 86.792969 132.109375 88.203125 130.699219 89.941406 130.699219 L 110.300781 130.699219 C 112.039062 130.699219 113.449219 132.109375 113.449219 133.851562 C 113.449219 135.59375 112.039062 137.003906 110.300781 137.003906 L 103.273438 137.003906 Z M 84.136719 133.84375 L 84.136719 158.078125 C 84.136719 159.820312 82.726562 161.230469 80.984375 161.230469 C 79.246094 161.230469 77.835938 159.820312 77.835938 158.078125 L 77.835938 149.097656 L 69.132812 149.097656 L 69.132812 158.078125 C 69.132812 159.820312 67.722656 161.230469 65.984375 161.230469 C 64.242188 161.230469 62.832031 159.820312 62.832031 158.078125 L 62.832031 133.84375 C 62.832031 132.105469 64.242188 130.695312 65.984375 130.695312 C 67.722656 130.695312 69.132812 132.105469 69.132812 133.84375 L 69.132812 142.792969 L 77.835938 142.792969 L 77.835938 133.84375 C 77.835938 132.105469 79.246094 130.695312 80.984375 130.695312 C 82.726562 130.695312 84.136719 132.105469 84.136719 133.84375 Z M 84.136719 133.84375 " fill-opacity="1" fill-rule="evenodd"/></g><g clip-path="url(#0c9f81d7c2)"><path fill="#5b8ae6" d="M 175.679688 261.273438 L 56.988281 261.273438 L 56.988281 314.253906 L 175.679688 314.253906 Z M 135.375 284.6875 C 140.863281 286.75 147.679688 289.328125 147.679688 296.441406 C 147.679688 302.507812 141.703125 307.445312 134.371094 307.445312 C 127.03125 307.445312 121.058594 302.507812 121.058594 296.441406 C 121.058594 294.695312 122.464844 293.292969 124.207031 293.292969 C 125.945312 293.292969 127.355469 294.695312 127.355469 296.441406 C 127.355469 298.988281 130.566406 301.136719 134.363281 301.136719 C 138.167969 301.136719 141.375 298.984375 141.375 296.441406 C 141.375 293.878906 138.269531 292.519531 133.148438 290.589844 C 127.761719 288.5625 121.050781 286.027344 121.050781 279.113281 C 121.050781 273.039062 127.027344 268.109375 134.367188 268.109375 C 141.703125 268.109375 147.679688 273.039062 147.679688 279.113281 C 147.679688 280.851562 146.269531 282.265625 144.53125 282.265625 C 142.789062 282.265625 141.382812 280.851562 141.382812 279.113281 C 141.382812 276.566406 138.167969 274.421875 134.371094 274.421875 C 130.574219 274.421875 127.363281 276.574219 127.363281 279.113281 C 127.363281 281.492188 130.394531 282.808594 135.375 284.6875 Z M 112.285156 294.046875 C 112.285156 301.429688 106.160156 307.4375 98.632812 307.4375 C 91.105469 307.4375 84.988281 301.429688 84.988281 294.046875 C 84.988281 292.304688 86.390625 290.894531 88.136719 290.894531 C 89.878906 290.894531 91.285156 292.304688 91.285156 294.046875 C 91.285156 297.953125 94.578125 301.136719 98.632812 301.136719 C 102.6875 301.136719 105.984375 297.957031 105.984375 294.046875 L 105.984375 271.242188 C 105.984375 269.503906 107.394531 268.09375 109.132812 268.09375 C 110.875 268.09375 112.28125 269.503906 112.28125 271.242188 Z M 112.285156 294.046875 " fill-opacity="1" fill-rule="evenodd"/></g></svg>