<svg xmlns="http://www.w3.org/2000/svg" xmlns:xlink="http://www.w3.org/1999/xlink" width="500" zoomAndPan="magnify" viewBox="0 0 375 374.999991" height="500" preserveAspectRatio="xMidYMid meet" version="1.0"><defs><clipPath id="7b5e973e89"><path d="M 56.25 46 L 317 46 L 317 329 L 56.25 329 Z M 56.25 46 " clip-rule="nonzero"/></clipPath></defs><g clip-path="url(#7b5e973e89)"><path fill="#000000" d="M 175.066406 46.0625 C 103.996094 46.0625 56.25 72.355469 56.25 96.910156 C 56.25 121.472656 103.996094 147.78125 175.066406 147.78125 C 246.125 147.78125 293.859375 121.472656 293.859375 96.910156 C 293.859375 72.355469 246.125 46.0625 175.066406 46.0625 Z M 56.25 122.96875 L 56.25 154.28125 C 56.25 178.433594 103.996094 204.289062 175.066406 204.289062 C 246.125 204.289062 293.859375 178.433594 293.859375 154.28125 L 293.859375 122.96875 C 273.085938 144.183594 228.304688 159.082031 175.066406 159.082031 C 121.8125 159.082031 77.03125 144.175781 56.25 122.96875 Z M 56.25 181.179688 L 56.25 211.042969 C 56.25 230.5625 87.464844 251.019531 136.957031 258.152344 L 137.507812 255.148438 L 177.097656 255.148438 C 184.035156 255.148438 190.1875 256.910156 195.285156 260.015625 C 195.890625 259.972656 196.507812 259.941406 197.109375 259.894531 L 202.832031 232.546875 L 240.789062 232.546875 L 236.410156 253.484375 C 272.1875 244.160156 293.859375 227.285156 293.859375 211.042969 L 293.859375 181.179688 C 273.085938 202.382812 228.304688 215.59375 175.066406 215.59375 C 121.8125 215.59375 77.03125 202.382812 56.25 181.179688 Z M 56.25 237.941406 L 56.25 267.300781 C 56.25 285.457031 83.25 304.578125 126.84375 312.953125 L 134.867188 269.441406 C 99.808594 264.644531 71.53125 253.539062 56.25 237.941406 Z M 293.859375 237.941406 C 287.414062 244.519531 278.652344 250.300781 268.058594 255.148438 L 293.859375 255.148438 Z M 212.023438 243.847656 L 197.835938 311.660156 L 212.6875 311.660156 L 219.859375 277.753906 L 231.726562 277.753906 C 235.511719 277.753906 238.007812 278.382812 239.175781 279.628906 C 240.332031 280.890625 240.585938 283.269531 239.914062 286.703125 L 234.5 311.660156 L 249.582031 311.660156 L 255.449219 284.664062 C 256.710938 278.191406 255.761719 273.441406 252.621094 270.558594 C 249.425781 267.628906 243.785156 266.453125 235.382812 266.453125 L 222.148438 266.453125 L 226.863281 243.847656 Z M 146.921875 266.453125 L 135.453125 328.613281 L 150.425781 328.613281 L 153.40625 311.660156 L 162.710938 311.660156 C 182.207031 311.660156 192.824219 307.152344 196.789062 290.4375 C 200.199219 276.078125 191.480469 266.453125 177.097656 266.453125 Z M 265.726562 266.453125 L 254.257812 328.613281 L 269.226562 328.613281 L 272.210938 311.660156 L 281.515625 311.660156 C 301.011719 311.660156 311.625 307.152344 315.59375 290.4375 C 319.003906 276.078125 310.28125 266.453125 295.902344 266.453125 Z M 159.785156 277.753906 L 171.441406 277.753906 C 181.101562 277.753906 183.136719 282.105469 182.632812 286.949219 C 181.339844 299.414062 173.558594 300.359375 165.1875 300.359375 L 155.519531 300.359375 Z M 278.585938 277.753906 L 290.246094 277.753906 C 299.90625 277.753906 301.941406 282.105469 301.4375 286.949219 C 300.140625 299.414062 292.363281 300.359375 283.992188 300.359375 L 274.324219 300.359375 Z M 278.585938 277.753906 " fill-opacity="1" fill-rule="nonzero"/></g></svg>