<svg xmlns="http://www.w3.org/2000/svg" xmlns:xlink="http://www.w3.org/1999/xlink" width="500" zoomAndPan="magnify" viewBox="0 0 375 374.999991" height="500" preserveAspectRatio="xMidYMid meet" version="1.0"><defs><clipPath id="67e97198ae"><path d="M 56.25 71.671875 L 318.75 71.671875 L 318.75 303.421875 L 56.25 303.421875 Z M 56.25 71.671875 " clip-rule="nonzero"/></clipPath></defs><g clip-path="url(#67e97198ae)"><path fill="#000000" d="M 274.914062 71.65625 L 83.101562 71.65625 L 83.101562 94.847656 L 274.914062 94.847656 Z M 101.03125 86.945312 L 100.859375 86.945312 C 98.828125 86.945312 97.171875 85.296875 97.171875 83.253906 C 97.171875 81.214844 98.828125 79.566406 100.859375 79.566406 L 101.03125 79.566406 C 103.0625 79.566406 104.71875 81.214844 104.71875 83.253906 C 104.71875 85.296875 103.0625 86.945312 101.03125 86.945312 Z M 112.527344 86.945312 L 112.363281 86.945312 C 110.324219 86.945312 108.675781 85.296875 108.675781 83.253906 C 108.675781 81.214844 110.324219 79.566406 112.363281 79.566406 L 112.527344 79.566406 C 114.566406 79.566406 116.214844 81.214844 116.214844 83.253906 C 116.214844 85.296875 114.566406 86.945312 112.527344 86.945312 Z M 124.03125 86.945312 L 123.867188 86.945312 C 121.828125 86.945312 120.179688 85.296875 120.179688 83.253906 C 120.179688 81.214844 121.828125 79.566406 123.867188 79.566406 L 124.03125 79.566406 C 126.070312 79.566406 127.71875 81.214844 127.71875 83.253906 C 127.71875 85.296875 126.070312 86.945312 124.03125 86.945312 Z M 257.140625 86.945312 L 156.132812 86.945312 C 154.09375 86.945312 152.4375 85.296875 152.4375 83.253906 C 152.4375 81.214844 154.09375 79.566406 156.132812 79.566406 L 257.140625 79.566406 C 259.171875 79.566406 260.828125 81.214844 260.828125 83.253906 C 260.828125 85.296875 259.171875 86.945312 257.140625 86.945312 Z M 294.347656 114.175781 L 282.289062 114.175781 L 282.289062 106.789062 L 298.035156 106.789062 C 300.070312 106.789062 301.726562 108.445312 301.726562 110.484375 L 301.726562 182.089844 C 299.390625 180.445312 296.925781 178.972656 294.347656 177.691406 Z M 155.617188 167.730469 L 142.742188 161.171875 L 154.144531 155.367188 L 177.328125 167.164062 C 177.855469 167.429688 178.429688 167.566406 178.996094 167.566406 C 179.570312 167.566406 180.148438 167.429688 180.671875 167.164062 L 203.859375 155.363281 L 215.257812 161.167969 L 178.996094 179.621094 L 156.066406 167.957031 L 155.933594 167.886719 C 155.875 167.851562 155.816406 167.824219 155.757812 167.796875 Z M 155.539062 147.792969 L 142.742188 141.28125 L 178.996094 122.824219 L 215.257812 141.28125 L 202.421875 147.8125 L 202.394531 147.824219 C 202.242188 147.890625 202.09375 147.964844 201.953125 148.050781 L 201.941406 148.058594 L 178.996094 159.730469 L 156.101562 148.074219 C 155.921875 147.964844 155.734375 147.871094 155.539062 147.792969 Z M 235.460938 299.695312 C 235.460938 301.734375 233.8125 303.382812 231.773438 303.382812 L 126.238281 303.382812 C 124.207031 303.382812 122.550781 301.734375 122.550781 299.695312 C 122.550781 297.652344 124.207031 296.003906 126.238281 296.003906 L 146.105469 296.003906 L 146.105469 269.328125 L 59.980469 269.328125 C 57.941406 269.328125 56.292969 267.675781 56.292969 265.640625 L 56.292969 110.484375 C 56.292969 108.445312 57.941406 106.789062 59.980469 106.789062 L 75.726562 106.789062 L 75.726562 114.175781 L 63.667969 114.175781 L 63.667969 242.695312 L 213.492188 242.695312 C 214.113281 245.234375 214.914062 247.695312 215.875 250.082031 C 217.558594 254.304688 219.742188 258.285156 222.34375 261.945312 C 224.214844 264.578125 226.308594 267.046875 228.589844 269.328125 L 211.890625 269.328125 L 211.890625 296.003906 L 231.773438 296.003906 C 233.8125 296.003906 235.460938 297.652344 235.460938 299.695312 Z M 268.9375 179.101562 C 241.5 179.101562 219.183594 201.4375 219.183594 228.890625 C 219.183594 256.339844 241.5 278.667969 268.9375 278.667969 C 296.382812 278.667969 318.707031 256.339844 318.707031 228.890625 C 318.707031 201.4375 296.382812 179.101562 268.9375 179.101562 Z M 252.445312 246.757812 C 251.722656 247.480469 250.777344 247.84375 249.832031 247.84375 C 248.886719 247.84375 247.945312 247.480469 247.222656 246.761719 L 231.957031 231.503906 C 231.265625 230.808594 230.875 229.871094 230.875 228.890625 C 230.875 227.914062 231.265625 226.976562 231.957031 226.28125 L 247.222656 211.007812 C 248.664062 209.570312 251 209.570312 252.4375 211.007812 C 253.882812 212.453125 253.882812 214.789062 252.4375 216.226562 L 239.785156 228.890625 L 252.4375 241.539062 C 253.882812 242.976562 253.882812 245.316406 252.445312 246.757812 Z M 279.714844 213.746094 L 264.910156 247.023438 C 264.300781 248.402344 262.953125 249.21875 261.539062 249.21875 C 261.039062 249.21875 260.527344 249.113281 260.042969 248.898438 C 258.183594 248.070312 257.34375 245.886719 258.171875 244.027344 L 272.972656 210.746094 C 273.800781 208.886719 275.984375 208.042969 277.84375 208.875 C 279.710938 209.703125 280.546875 211.882812 279.714844 213.746094 Z M 290.664062 246.761719 C 289.941406 247.480469 289 247.84375 288.054688 247.84375 C 287.113281 247.84375 286.167969 247.480469 285.445312 246.757812 C 284.007812 245.316406 284.007812 242.976562 285.445312 241.539062 L 298.105469 228.890625 L 285.445312 216.226562 C 284.007812 214.789062 284.007812 212.453125 285.445312 211.007812 C 286.890625 209.570312 289.226562 209.570312 290.664062 211.007812 L 305.929688 226.28125 C 306.625 226.976562 307.007812 227.914062 307.007812 228.890625 C 307.007812 229.871094 306.621094 230.808594 305.929688 231.503906 Z M 268.9375 171.71875 C 270.957031 171.71875 272.949219 171.824219 274.914062 172.03125 L 274.914062 102.234375 L 83.101562 102.234375 L 83.101562 220.101562 L 212.476562 220.101562 C 216.710938 192.730469 240.417969 171.71875 268.9375 171.71875 Z M 178.996094 207.34375 C 178.429688 207.34375 177.855469 207.207031 177.328125 206.945312 L 132.929688 184.351562 C 131.699219 183.71875 130.917969 182.445312 130.917969 181.054688 C 130.917969 179.667969 131.699219 178.398438 132.9375 177.765625 L 146.015625 171.117188 L 132.929688 164.460938 C 131.699219 163.828125 130.917969 162.558594 130.917969 161.171875 C 130.917969 159.777344 131.699219 158.507812 132.929688 157.878906 L 146.011719 151.222656 L 132.929688 144.570312 C 131.699219 143.9375 130.917969 142.667969 130.917969 141.28125 C 130.917969 139.886719 131.699219 138.617188 132.929688 137.992188 L 177.328125 115.394531 C 178.375 114.859375 179.617188 114.859375 180.671875 115.394531 L 225.0625 137.992188 C 226.300781 138.617188 227.082031 139.886719 227.082031 141.28125 C 227.082031 142.667969 226.300781 143.9375 225.0625 144.570312 L 211.996094 151.222656 L 225.066406 157.878906 C 226.300781 158.507812 227.082031 159.777344 227.082031 161.171875 C 227.082031 162.558594 226.300781 163.828125 225.0625 164.460938 L 211.988281 171.113281 L 225.0625 177.765625 C 226.300781 178.398438 227.082031 179.667969 227.082031 181.054688 C 227.082031 182.445312 226.300781 183.71875 225.0625 184.351562 L 180.671875 206.945312 C 180.144531 207.207031 179.570312 207.34375 178.996094 207.34375 Z M 203.847656 175.261719 L 215.253906 181.0625 L 178.996094 199.511719 L 142.75 181.0625 L 154.15625 175.261719 L 177.328125 187.054688 C 177.855469 187.316406 178.429688 187.457031 179 187.457031 C 179.574219 187.457031 180.148438 187.316406 180.675781 187.054688 Z M 203.847656 175.261719 " fill-opacity="1" fill-rule="nonzero"/></g></svg>