<svg xmlns="http://www.w3.org/2000/svg" xmlns:xlink="http://www.w3.org/1999/xlink" width="500" zoomAndPan="magnify" viewBox="0 0 375 374.999991" height="500" preserveAspectRatio="xMidYMid meet" version="1.0"><path fill="#000000" d="M 241.605469 68.210938 C 237.191406 68.0625 232.570312 68.832031 227.933594 70.332031 C 218.667969 73.332031 208.957031 79.179688 198.992188 87.277344 C 195.085938 90.453125 191.144531 94.078125 187.191406 97.929688 C 183.324219 94.175781 179.464844 90.636719 175.644531 87.53125 C 165.6875 79.441406 156 73.601562 146.753906 70.609375 C 137.507812 67.613281 128.308594 67.523438 120.753906 71.878906 C 113.199219 76.238281 108.679688 84.234375 106.652344 93.730469 C 104.625 103.226562 104.835938 114.53125 106.875 127.191406 C 107.582031 131.589844 108.601562 136.199219 109.75 140.902344 C 105.429688 142.207031 101.238281 143.582031 97.351562 145.097656 C 85.617188 149.675781 75.90625 155.152344 68.839844 161.667969 C 61.769531 168.183594 57.203125 176.09375 57.203125 184.777344 C 57.203125 193.464844 61.769531 201.363281 68.839844 207.878906 C 75.90625 214.394531 85.617188 219.882812 97.351562 224.460938 C 101.507812 226.082031 106.007812 227.542969 110.65625 228.921875 C 108.984375 235.160156 107.628906 241.214844 106.707031 246.949219 C 104.667969 259.621094 104.453125 270.929688 106.484375 280.445312 C 108.519531 289.960938 113.039062 298.003906 120.632812 302.382812 C 128.226562 306.761719 137.464844 306.65625 146.734375 303.65625 C 156 300.652344 165.699219 294.816406 175.664062 286.71875 C 179.535156 283.574219 183.449219 279.988281 187.367188 276.179688 C 191.304688 280.011719 195.238281 283.617188 199.125 286.773438 C 209.082031 294.867188 218.777344 300.703125 228.023438 303.699219 C 237.269531 306.691406 246.457031 306.785156 254.015625 302.429688 C 261.570312 298.070312 266.089844 290.074219 268.117188 280.578125 C 270.144531 271.082031 269.917969 259.777344 267.882812 247.117188 C 266.957031 241.363281 265.601562 235.300781 263.925781 229.042969 C 268.722656 227.628906 273.367188 226.128906 277.648438 224.460938 C 289.382812 219.882812 299.09375 214.394531 306.160156 207.878906 C 313.230469 201.363281 317.796875 193.464844 317.796875 184.777344 C 317.796875 176.09375 313.230469 168.183594 306.160156 161.667969 C 299.09375 155.152344 289.382812 149.675781 277.648438 145.097656 C 273.707031 143.558594 269.449219 142.167969 265.0625 140.84375 C 266.222656 136.117188 267.25 131.472656 267.960938 127.046875 C 270 114.378906 270.214844 103.058594 268.183594 93.542969 C 266.152344 84.027344 261.617188 75.992188 254.027344 71.613281 C 250.230469 69.425781 246.019531 68.359375 241.605469 68.210938 Z M 241.085938 79.722656 C 243.855469 79.796875 246.21875 80.457031 248.242188 81.621094 C 252.285156 83.953125 255.273438 88.492188 256.867188 95.960938 C 258.460938 103.429688 258.40625 113.523438 256.523438 125.226562 C 255.878906 129.230469 254.945312 133.476562 253.882812 137.828125 C 242.300781 135.046875 229.613281 132.980469 216.089844 131.765625 C 209.296875 122.363281 202.3125 113.808594 195.273438 106.214844 C 198.996094 102.585938 202.691406 99.191406 206.300781 96.257812 C 215.507812 88.78125 224.222656 83.691406 231.496094 81.335938 C 235.132812 80.15625 238.316406 79.648438 241.085938 79.722656 Z M 133.628906 79.753906 C 136.414062 79.679688 139.601562 80.1875 143.25 81.367188 C 150.542969 83.730469 159.273438 88.816406 168.488281 96.304688 C 172.023438 99.175781 175.640625 102.496094 179.28125 106.035156 C 172.195312 113.695312 165.160156 122.335938 158.324219 131.820312 C 144.847656 133.058594 132.207031 135.144531 120.675781 137.941406 C 119.621094 133.609375 118.695312 129.378906 118.054688 125.390625 C 116.171875 113.675781 116.125 103.574219 117.722656 96.082031 C 119.320312 88.59375 122.335938 84.03125 126.417969 81.679688 C 128.457031 80.5 130.839844 79.832031 133.628906 79.753906 Z M 187.367188 114.355469 C 191.980469 119.367188 196.59375 124.855469 201.171875 130.757812 C 196.671875 130.570312 192.121094 130.460938 187.5 130.460938 C 182.785156 130.460938 178.148438 130.574219 173.566406 130.769531 C 178.140625 124.863281 182.753906 119.371094 187.367188 114.355469 Z M 187.5 141.882812 C 195.199219 141.882812 202.707031 142.199219 210.007812 142.734375 C 215.03125 149.941406 219.941406 157.585938 224.617188 165.679688 C 228.726562 172.789062 232.445312 179.890625 235.832031 186.898438 C 232.410156 194.003906 228.628906 201.199219 224.460938 208.40625 C 220.792969 214.753906 216.964844 220.78125 213.070312 226.589844 C 204.824219 227.28125 196.277344 227.664062 187.5 227.664062 C 178.511719 227.664062 169.773438 227.257812 161.34375 226.535156 C 157.515625 220.808594 153.75 214.863281 150.140625 208.617188 C 145.980469 201.425781 142.21875 194.253906 138.804688 187.164062 C 142.234375 180.035156 146.011719 172.8125 150.195312 165.578125 C 154.847656 157.53125 159.742188 149.929688 164.738281 142.757812 C 172.117188 142.210938 179.710938 141.882812 187.5 141.882812 Z M 224.59375 144.148438 C 233.925781 145.3125 242.6875 146.925781 250.839844 148.867188 C 248.417969 156.789062 245.4375 165.066406 241.828125 173.609375 C 239.480469 169.09375 237.050781 164.5625 234.425781 160.023438 C 231.25 154.523438 227.941406 149.269531 224.59375 144.148438 Z M 149.808594 144.238281 C 146.527344 149.265625 143.300781 154.410156 140.1875 159.800781 C 137.527344 164.402344 135.046875 168.992188 132.675781 173.566406 C 129.09375 165.074219 126.132812 156.84375 123.730469 148.964844 C 131.824219 147.023438 140.539062 145.414062 149.808594 144.238281 Z M 262.042969 151.871094 C 266.058594 153.082031 269.933594 154.347656 273.492188 155.738281 C 284.308594 159.957031 292.863281 164.953125 298.410156 170.0625 C 303.953125 175.175781 306.359375 180.050781 306.359375 184.777344 C 306.359375 189.507812 303.953125 194.382812 298.410156 199.492188 C 292.863281 204.605469 284.308594 209.601562 273.492188 213.820312 C 269.539062 215.363281 265.199219 216.761719 260.683594 218.085938 C 257.464844 208.136719 253.355469 197.757812 248.460938 187.164062 C 254.085938 175 258.628906 163.140625 262.042969 151.871094 Z M 112.769531 151.925781 C 116.144531 163.085938 120.628906 174.828125 126.171875 186.867188 C 121.25 197.523438 117.117188 207.960938 113.886719 217.964844 C 109.53125 216.675781 105.335938 215.3125 101.507812 213.820312 C 90.691406 209.601562 82.136719 204.605469 76.589844 199.492188 C 71.046875 194.382812 68.640625 189.507812 68.640625 184.777344 C 68.640625 180.050781 71.046875 175.175781 76.589844 170.0625 C 82.136719 164.953125 90.691406 159.957031 101.507812 155.738281 C 105.011719 154.371094 108.824219 153.121094 112.769531 151.925781 Z M 187.5 158.796875 C 171.929688 158.796875 159.1875 171.523438 159.1875 187.078125 C 159.1875 202.628906 171.929688 215.355469 187.5 215.355469 C 203.070312 215.355469 215.8125 202.628906 215.8125 187.078125 C 215.8125 171.523438 203.070312 158.796875 187.5 158.796875 Z M 187.5 170.109375 C 196.949219 170.109375 204.488281 177.636719 204.488281 187.078125 C 204.488281 196.515625 196.949219 204.042969 187.5 204.042969 C 178.050781 204.042969 170.511719 196.515625 170.511719 187.078125 C 170.511719 177.636719 178.050781 170.109375 187.5 170.109375 Z M 241.96875 200.441406 C 244.941406 207.464844 247.519531 214.332031 249.691406 220.957031 C 242.878906 222.535156 235.628906 223.863281 228 224.914062 C 230.195312 221.414062 232.367188 217.847656 234.484375 214.1875 C 237.136719 209.59375 239.601562 205.007812 241.96875 200.441406 Z M 132.808594 200.453125 C 135.191406 205.046875 137.671875 209.652344 140.339844 214.273438 C 142.429688 217.890625 144.566406 221.421875 146.734375 224.878906 C 139.128906 223.824219 131.898438 222.492188 125.109375 220.914062 C 127.269531 214.308594 129.851562 207.453125 132.808594 200.453125 Z M 121.847656 231.894531 C 132.097656 234.320312 143.203125 236.183594 154.984375 237.394531 C 162.847656 248.757812 171.035156 258.960938 179.28125 267.886719 C 175.597656 271.476562 171.941406 274.84375 168.367188 277.75 C 159.160156 285.230469 150.433594 290.308594 143.160156 292.664062 C 135.886719 295.019531 130.460938 294.707031 126.417969 292.375 C 122.371094 290.042969 119.394531 285.507812 117.800781 278.035156 C 116.207031 270.566406 116.25 260.488281 118.132812 248.785156 C 118.984375 243.476562 120.261719 237.789062 121.847656 231.894531 Z M 252.964844 231.9375 C 254.5625 237.867188 255.84375 243.578125 256.703125 248.917969 C 258.585938 260.628906 258.632812 270.722656 257.035156 278.214844 C 255.433594 285.703125 252.433594 290.277344 248.351562 292.628906 C 244.269531 294.984375 238.800781 295.300781 231.507812 292.9375 C 224.214844 290.578125 215.484375 285.480469 206.269531 277.992188 C 202.667969 275.066406 198.988281 271.679688 195.273438 268.0625 C 203.574219 259.105469 211.824219 248.84375 219.738281 237.417969 C 231.546875 236.210938 242.6875 234.359375 252.964844 231.9375 Z M 169.761719 238.554688 C 175.574219 238.871094 181.464844 239.085938 187.5 239.085938 C 193.335938 239.085938 199.035156 238.882812 204.664062 238.589844 C 198.910156 246.34375 193.042969 253.394531 187.203125 259.742188 C 181.363281 253.378906 175.507812 246.316406 169.761719 238.554688 Z M 169.761719 238.554688 " fill-opacity="1" fill-rule="nonzero"/></svg>