<svg xmlns="http://www.w3.org/2000/svg" xmlns:xlink="http://www.w3.org/1999/xlink" width="500" zoomAndPan="magnify" viewBox="0 0 375 374.999991" height="500" preserveAspectRatio="xMidYMid meet" version="1.0"><defs><clipPath id="8683dda2ba"><path d="M 57 96 L 318.75 96 L 318.75 279 L 57 279 Z M 57 96 " clip-rule="nonzero"/></clipPath></defs><g clip-path="url(#8683dda2ba)"><path fill="#000000" d="M 192.164062 278.691406 C 156.671875 278.691406 139.597656 261.691406 127.132812 249.277344 C 124.871094 246.457031 122.292969 243.96875 119.398438 241.808594 C 116.503906 239.648438 113.382812 237.886719 110.039062 236.523438 C 102.570312 234.691406 92.5 234.566406 80.9375 249.6875 C 80.484375 250.277344 79.984375 250.828125 79.4375 251.335938 C 78.890625 251.839844 78.308594 252.296875 77.683594 252.703125 C 77.058594 253.109375 76.402344 253.460938 75.71875 253.753906 C 75.03125 254.046875 74.328125 254.28125 73.601562 254.453125 C 72.878906 254.625 72.144531 254.738281 71.398438 254.785156 C 70.65625 254.832031 69.914062 254.8125 69.171875 254.734375 C 68.433594 254.652344 67.703125 254.507812 66.988281 254.304688 C 66.269531 254.097656 65.578125 253.832031 64.90625 253.507812 C 64.234375 253.183594 63.597656 252.804688 62.992188 252.371094 C 62.386719 251.9375 61.820312 251.453125 61.300781 250.921875 C 60.777344 250.390625 60.300781 249.820312 59.878906 249.207031 C 59.453125 248.597656 59.082031 247.953125 58.769531 247.277344 C 58.453125 246.601562 58.199219 245.902344 58.003906 245.183594 C 57.8125 244.464844 57.679688 243.734375 57.609375 242.992188 C 57.539062 242.25 57.535156 241.507812 57.59375 240.765625 C 57.652344 240.023438 57.773438 239.289062 57.957031 238.566406 C 67.558594 200.898438 92.949219 180.988281 131.378906 180.988281 C 166.871094 180.988281 183.945312 197.988281 196.410156 210.402344 C 198.671875 213.21875 201.246094 215.710938 204.140625 217.871094 C 207.039062 220.03125 210.15625 221.792969 213.503906 223.15625 C 220.980469 224.980469 231.042969 225.109375 242.605469 209.992188 C 243.058594 209.398438 243.558594 208.851562 244.101562 208.34375 C 244.648438 207.835938 245.234375 207.378906 245.859375 206.972656 C 246.484375 206.566406 247.140625 206.21875 247.824219 205.921875 C 248.507812 205.628906 249.214844 205.394531 249.9375 205.222656 C 250.664062 205.050781 251.398438 204.941406 252.140625 204.894531 C 252.886719 204.847656 253.628906 204.863281 254.367188 204.945312 C 255.109375 205.023438 255.839844 205.167969 256.554688 205.375 C 257.269531 205.578125 257.964844 205.84375 258.636719 206.167969 C 259.304688 206.492188 259.945312 206.871094 260.550781 207.304688 C 261.15625 207.742188 261.71875 208.222656 262.242188 208.753906 C 262.765625 209.285156 263.238281 209.855469 263.664062 210.46875 C 264.089844 211.082031 264.457031 211.726562 264.773438 212.402344 C 265.085938 213.078125 265.34375 213.773438 265.535156 214.492188 C 265.730469 215.210938 265.863281 215.945312 265.933594 216.683594 C 266 217.425781 266.007812 218.167969 265.949219 218.914062 C 265.890625 219.65625 265.769531 220.386719 265.585938 221.109375 C 255.984375 258.777344 230.59375 278.691406 192.164062 278.691406 Z M 110.800781 210.167969 C 112.632812 210.429688 114.445312 210.78125 116.242188 211.222656 C 121.949219 213.023438 127.289062 215.589844 132.265625 218.917969 C 137.238281 222.25 141.648438 226.210938 145.488281 230.800781 C 156.78125 242.039062 167.429688 252.636719 192.164062 252.636719 C 199.203125 252.785156 206.0625 251.742188 212.742188 249.511719 C 210.910156 249.25 209.097656 248.898438 207.300781 248.453125 C 201.59375 246.652344 196.25 244.085938 191.277344 240.757812 C 186.304688 237.425781 181.894531 233.464844 178.054688 228.875 C 166.761719 217.636719 156.109375 207.039062 131.378906 207.039062 C 124.339844 206.894531 117.480469 207.933594 110.800781 210.167969 Z M 244.273438 194.011719 C 208.78125 194.011719 191.695312 177 179.222656 164.578125 C 176.964844 161.765625 174.390625 159.277344 171.496094 157.121094 C 168.605469 154.964844 165.488281 153.207031 162.148438 151.84375 C 154.679688 150.015625 144.609375 149.890625 133.046875 165.007812 C 132.59375 165.601562 132.09375 166.148438 131.546875 166.65625 C 131 167.164062 130.417969 167.621094 129.792969 168.027344 C 129.167969 168.433594 128.511719 168.78125 127.828125 169.078125 C 127.140625 169.371094 126.4375 169.605469 125.710938 169.777344 C 124.988281 169.949219 124.253906 170.058594 123.507812 170.105469 C 122.765625 170.152344 122.023438 170.136719 121.28125 170.054688 C 120.542969 169.976562 119.8125 169.832031 119.097656 169.625 C 118.378906 169.421875 117.6875 169.15625 117.015625 168.832031 C 116.34375 168.507812 115.707031 168.128906 115.101562 167.695312 C 114.496094 167.257812 113.929688 166.777344 113.410156 166.246094 C 112.886719 165.714844 112.410156 165.144531 111.988281 164.53125 C 111.5625 163.917969 111.191406 163.273438 110.878906 162.597656 C 110.5625 161.921875 110.308594 161.226562 110.113281 160.507812 C 109.921875 159.789062 109.789062 159.054688 109.71875 158.316406 C 109.648438 157.574219 109.644531 156.832031 109.703125 156.085938 C 109.761719 155.34375 109.882812 154.613281 110.066406 153.890625 C 119.667969 116.222656 145.058594 96.308594 183.488281 96.308594 C 218.980469 96.308594 236.050781 113.308594 248.519531 125.722656 C 250.78125 128.542969 253.355469 131.03125 256.25 133.191406 C 259.148438 135.351562 262.265625 137.113281 265.613281 138.476562 C 273.089844 140.300781 283.152344 140.433594 294.714844 125.3125 C 295.167969 124.722656 295.664062 124.171875 296.210938 123.664062 C 296.757812 123.160156 297.34375 122.703125 297.96875 122.296875 C 298.59375 121.890625 299.25 121.539062 299.933594 121.246094 C 300.617188 120.953125 301.324219 120.71875 302.046875 120.546875 C 302.773438 120.371094 303.507812 120.261719 304.25 120.214844 C 304.996094 120.167969 305.738281 120.1875 306.476562 120.265625 C 307.21875 120.347656 307.949219 120.492188 308.664062 120.695312 C 309.378906 120.902344 310.074219 121.167969 310.746094 121.492188 C 311.414062 121.816406 312.054688 122.195312 312.660156 122.628906 C 313.265625 123.0625 313.828125 123.546875 314.351562 124.078125 C 314.875 124.609375 315.347656 125.179688 315.773438 125.792969 C 316.199219 126.402344 316.566406 127.046875 316.882812 127.722656 C 317.195312 128.398438 317.453125 129.097656 317.644531 129.816406 C 317.839844 130.535156 317.972656 131.265625 318.042969 132.007812 C 318.109375 132.75 318.117188 133.492188 318.058594 134.234375 C 318 134.976562 317.878906 135.710938 317.695312 136.433594 C 308.09375 174.101562 282.703125 194.011719 244.273438 194.011719 Z M 162.910156 125.488281 C 164.742188 125.75 166.554688 126.101562 168.351562 126.546875 C 174.058594 128.347656 179.398438 130.914062 184.375 134.242188 C 189.347656 137.574219 193.753906 141.535156 197.597656 146.125 C 208.390625 156.886719 219.539062 167.960938 244.273438 167.960938 C 251.3125 168.105469 258.171875 167.066406 264.847656 164.832031 C 263.019531 164.570312 261.207031 164.21875 259.410156 163.777344 C 253.703125 161.976562 248.359375 159.410156 243.386719 156.082031 C 238.414062 152.75 234.003906 148.789062 230.164062 144.195312 C 218.871094 132.960938 208.21875 122.363281 183.488281 122.363281 C 176.449219 122.214844 169.589844 123.257812 162.910156 125.488281 Z M 162.910156 125.488281 " fill-opacity="1" fill-rule="nonzero"/></g></svg>