<svg width="32" height="32" viewBox="0 0 32 32" fill="none" xmlns="http://www.w3.org/2000/svg">
  <rect width="32" height="32" rx="8" fill="#0A9D8B"/>
  <path d="M11.5 22C10.1193 22 9 20.8807 9 19.5V12.5C9 11.1193 10.1193 10 11.5 10H20.5C21.8807 10 23 11.1193 23 12.5V19.5C23 20.8807 21.8807 22 20.5 22H11.5Z" fill="white" fill-opacity="0.1"/>
  <path d="M16 8C12.6863 8 10 10.6863 10 14C10 17.3137 12.6863 20 16 20C19.3137 20 22 17.3137 22 14C22 10.6863 19.3137 8 16 8ZM16 18C13.7909 18 12 16.2091 12 14C12 11.7909 13.7909 10 16 10C18.2091 10 20 11.7909 20 14C20 16.2091 18.2091 18 16 18Z" fill="white"/>
  <path d="M16 12C14.8954 12 14 12.8954 14 14C14 15.1046 14.8954 16 16 16C17.1046 16 18 15.1046 18 14C18 12.8954 17.1046 12 16 12Z" fill="white"/>
</svg> 