<svg xmlns="http://www.w3.org/2000/svg" xmlns:xlink="http://www.w3.org/1999/xlink" width="500" zoomAndPan="magnify" viewBox="0 0 375 374.999991" height="500" preserveAspectRatio="xMidYMid meet" version="1.0"><defs><clipPath id="49819cbd1f"><path d="M 56.25 43 L 318.75 43 L 318.75 332.722656 L 56.25 332.722656 Z M 56.25 43 " clip-rule="nonzero"/></clipPath><clipPath id="65e6a3e07d"><path d="M 56.25 43 L 315 43 L 315 260 L 56.25 260 Z M 56.25 43 " clip-rule="nonzero"/></clipPath><clipPath id="3499862a28"><path d="M 184 113 L 318.75 113 L 318.75 260 L 184 260 Z M 184 113 " clip-rule="nonzero"/></clipPath></defs><g clip-path="url(#49819cbd1f)"><path fill="#283593" d="M 179.960938 45.128906 C 184.628906 42.507812 190.371094 42.507812 195.03125 45.128906 C 218.09375 58.078125 287.484375 97.0625 310.550781 110.015625 C 315.21875 112.628906 318.089844 117.46875 318.089844 122.710938 C 318.089844 148.613281 318.089844 226.574219 318.089844 252.476562 C 318.089844 257.71875 315.21875 262.558594 310.550781 265.179688 C 287.492188 278.132812 218.101562 317.117188 195.03125 330.066406 C 190.367188 332.6875 184.621094 332.6875 179.960938 330.066406 C 156.898438 317.117188 87.507812 278.132812 64.441406 265.179688 C 59.78125 262.558594 56.910156 257.726562 56.910156 252.484375 C 56.910156 226.582031 56.910156 148.621094 56.910156 122.71875 C 56.910156 117.476562 59.78125 112.632812 64.449219 110.015625 C 87.5 97.0625 156.90625 58.078125 179.960938 45.128906 Z M 179.960938 45.128906 " fill-opacity="1" fill-rule="evenodd"/></g><g clip-path="url(#65e6a3e07d)"><path fill="#5c6bc0" d="M 58.996094 259.15625 C 57.167969 256.707031 56.910156 254.382812 56.910156 251.253906 C 56.910156 225.5 56.910156 147.988281 56.910156 122.230469 C 56.910156 117.015625 59.773438 112.199219 64.429688 109.601562 C 87.40625 96.726562 156.5625 57.96875 179.539062 45.085938 C 184.195312 42.480469 190.496094 42.535156 195.148438 45.140625 C 218.128906 58.015625 287.050781 96.445312 310.027344 109.320312 C 311.886719 110.363281 313.300781 111.625 314.566406 113.28125 Z M 58.996094 259.15625 " fill-opacity="1" fill-rule="evenodd"/></g><path fill="#ffffff" d="M 187.5 91.304688 C 240.609375 91.304688 283.726562 134.453125 283.726562 187.597656 C 283.726562 240.742188 240.609375 283.890625 187.5 283.890625 C 134.390625 283.890625 91.273438 240.742188 91.273438 187.597656 C 91.273438 134.453125 134.390625 91.304688 187.5 91.304688 Z M 187.5 139.453125 C 214.050781 139.453125 235.613281 161.019531 235.613281 187.597656 C 235.613281 214.167969 214.050781 235.742188 187.5 235.742188 C 160.949219 235.742188 139.386719 214.167969 139.386719 187.597656 C 139.386719 161.019531 160.941406 139.453125 187.5 139.453125 Z M 187.5 139.453125 " fill-opacity="1" fill-rule="evenodd"/><g clip-path="url(#3499862a28)"><path fill="#3949ab" d="M 314.550781 113.351562 C 318.097656 116.671875 318.03125 121.679688 318.03125 125.621094 C 318.03125 151.722656 317.808594 225.960938 318.089844 252.066406 C 318.117188 254.789062 317.21875 257.65625 315.871094 259.816406 L 184.703125 187.597656 Z M 314.550781 113.351562 " fill-opacity="1" fill-rule="evenodd"/></g></svg>