<svg xmlns="http://www.w3.org/2000/svg" xmlns:xlink="http://www.w3.org/1999/xlink" width="500" zoomAndPan="magnify" viewBox="0 0 375 374.999991" height="500" preserveAspectRatio="xMidYMid meet" version="1.0"><defs><clipPath id="164037ab13"><path d="M 56.25 279 L 307 279 L 307 330 L 56.25 330 Z M 56.25 279 " clip-rule="nonzero"/></clipPath></defs><path fill="#000000" d="M 181.183594 215.183594 C 164.46875 215.183594 81.148438 214.082031 81.148438 192.328125 C 81.148438 170.574219 164.46875 169.445312 181.183594 169.445312 C 181.578125 169.445312 181.96875 169.484375 182.355469 169.5625 C 182.738281 169.640625 183.113281 169.753906 183.476562 169.902344 C 183.84375 170.054688 184.1875 170.238281 184.515625 170.457031 C 184.839844 170.675781 185.144531 170.925781 185.421875 171.203125 C 185.699219 171.480469 185.949219 171.78125 186.167969 172.109375 C 186.386719 172.4375 186.570312 172.78125 186.722656 173.144531 C 186.871094 173.507812 186.984375 173.882812 187.0625 174.269531 C 187.140625 174.65625 187.179688 175.046875 187.179688 175.4375 C 187.179688 175.832031 187.140625 176.222656 187.0625 176.609375 C 186.984375 176.996094 186.871094 177.367188 186.722656 177.734375 C 186.570312 178.097656 186.386719 178.441406 186.167969 178.769531 C 185.949219 179.097656 185.699219 179.398438 185.421875 179.675781 C 185.144531 179.953125 184.839844 180.203125 184.515625 180.421875 C 184.1875 180.640625 183.84375 180.824219 183.476562 180.976562 C 183.113281 181.125 182.738281 181.238281 182.355469 181.316406 C 181.96875 181.394531 181.578125 181.433594 181.183594 181.433594 C 131.53125 181.433594 102.164062 187.992188 94.511719 192.328125 C 102.164062 196.625 131.53125 203.210938 181.183594 203.210938 C 234.984375 203.210938 265 195.484375 269.359375 191.300781 C 269.472656 190.605469 269.707031 189.949219 270.058594 189.335938 C 270.40625 188.722656 270.851562 188.191406 271.390625 187.738281 C 271.933594 187.285156 272.535156 186.9375 273.199219 186.699219 C 273.863281 186.457031 274.546875 186.34375 275.25 186.347656 C 275.644531 186.347656 276.035156 186.386719 276.421875 186.464844 C 276.808594 186.542969 277.183594 186.65625 277.546875 186.808594 C 277.910156 186.960938 278.253906 187.144531 278.582031 187.363281 C 278.910156 187.582031 279.210938 187.832031 279.488281 188.109375 C 279.769531 188.390625 280.015625 188.691406 280.234375 189.019531 C 280.453125 189.347656 280.636719 189.691406 280.789062 190.058594 C 280.9375 190.421875 281.054688 190.796875 281.128906 191.183594 C 281.207031 191.566406 281.246094 191.957031 281.246094 192.351562 C 281.246094 214.082031 197.886719 215.183594 181.183594 215.183594 Z M 181.183594 215.183594 " fill-opacity="1" fill-rule="nonzero"/><path fill="#000000" d="M 181.183594 244.117188 C 160.867188 244.117188 94.585938 242.644531 94.585938 223.664062 C 94.582031 223.296875 94.613281 222.9375 94.679688 222.578125 C 94.746094 222.21875 94.839844 221.867188 94.96875 221.527344 C 95.097656 221.183594 95.257812 220.855469 95.449219 220.542969 C 95.636719 220.230469 95.851562 219.941406 96.09375 219.667969 C 96.335938 219.394531 96.601562 219.144531 96.890625 218.921875 C 97.179688 218.695312 97.484375 218.5 97.808594 218.332031 C 98.132812 218.164062 98.46875 218.027344 98.820312 217.917969 C 99.167969 217.8125 99.523438 217.738281 99.886719 217.695312 C 100.25 217.65625 100.613281 217.648438 100.976562 217.671875 C 101.339844 217.699219 101.699219 217.753906 102.054688 217.847656 C 102.40625 217.9375 102.75 218.058594 103.082031 218.214844 C 103.414062 218.367188 103.726562 218.550781 104.023438 218.761719 C 104.324219 218.972656 104.597656 219.207031 104.851562 219.46875 C 105.109375 219.730469 105.335938 220.015625 105.539062 220.316406 C 105.742188 220.621094 105.914062 220.941406 106.058594 221.277344 C 106.203125 221.613281 106.316406 221.957031 106.398438 222.3125 C 110.71875 225.832031 136.472656 232.132812 181.183594 232.132812 C 225.898438 232.132812 251.625 225.832031 255.972656 222.3125 C 256.054688 221.957031 256.167969 221.609375 256.3125 221.273438 C 256.457031 220.9375 256.628906 220.617188 256.832031 220.3125 C 257.035156 220.007812 257.265625 219.726562 257.519531 219.464844 C 257.773438 219.203125 258.050781 218.964844 258.347656 218.753906 C 258.648438 218.542969 258.964844 218.359375 259.292969 218.203125 C 259.625 218.050781 259.96875 217.925781 260.324219 217.835938 C 260.679688 217.746094 261.039062 217.6875 261.402344 217.660156 C 261.769531 217.636719 262.132812 217.644531 262.496094 217.6875 C 262.859375 217.726562 263.214844 217.800781 263.566406 217.910156 C 263.917969 218.015625 264.253906 218.152344 264.578125 218.320312 C 264.902344 218.488281 265.210938 218.6875 265.5 218.910156 C 265.789062 219.136719 266.054688 219.386719 266.296875 219.660156 C 266.539062 219.933594 266.753906 220.226562 266.945312 220.539062 C 267.132812 220.851562 267.292969 221.179688 267.421875 221.519531 C 267.550781 221.863281 267.648438 222.214844 267.714844 222.574219 C 267.78125 222.933594 267.8125 223.296875 267.808594 223.664062 C 267.808594 242.644531 201.492188 244.117188 181.183594 244.117188 Z M 181.183594 244.117188 " fill-opacity="1" fill-rule="nonzero"/><path fill="#000000" d="M 181.183594 273.0625 C 159.863281 273.0625 110.261719 271.34375 110.261719 255.410156 C 110.257812 254.691406 110.382812 253.996094 110.632812 253.324219 C 110.878906 252.652344 111.238281 252.042969 111.703125 251.5 C 112.167969 250.957031 112.714844 250.507812 113.34375 250.160156 C 113.96875 249.8125 114.636719 249.585938 115.34375 249.476562 C 116.054688 249.367188 116.757812 249.386719 117.460938 249.53125 C 118.164062 249.675781 118.820312 249.9375 119.425781 250.316406 C 120.035156 250.695312 120.558594 251.167969 120.996094 251.734375 C 121.433594 252.304688 121.761719 252.929688 121.972656 253.613281 C 126.109375 256.398438 146.328125 261.042969 181.183594 261.042969 C 216.039062 261.042969 236.261719 256.363281 240.421875 253.613281 C 240.636719 252.933594 240.964844 252.3125 241.40625 251.75 C 241.84375 251.1875 242.367188 250.71875 242.972656 250.34375 C 243.582031 249.96875 244.234375 249.710938 244.933594 249.566406 C 245.632812 249.425781 246.332031 249.40625 247.039062 249.515625 C 247.742188 249.625 248.40625 249.851562 249.03125 250.195312 C 249.65625 250.542969 250.199219 250.984375 250.667969 251.523438 C 251.132812 252.066406 251.492188 252.667969 251.742188 253.335938 C 251.992188 254.003906 252.117188 254.695312 252.121094 255.410156 C 252.121094 271.34375 202.496094 273.0625 181.183594 273.0625 Z M 181.183594 273.0625 " fill-opacity="1" fill-rule="nonzero"/><path fill="#000000" d="M 181.183594 298.445312 C 155.976562 298.445312 125.949219 295.871094 125.949219 283.589844 C 125.949219 282.898438 126.0625 282.230469 126.292969 281.582031 C 126.523438 280.929688 126.855469 280.339844 127.292969 279.804688 C 127.726562 279.269531 128.238281 278.824219 128.828125 278.464844 C 129.414062 278.105469 130.046875 277.855469 130.722656 277.71875 C 131.394531 277.578125 132.074219 277.554688 132.757812 277.648438 C 133.441406 277.742188 134.085938 277.945312 134.699219 278.261719 C 135.3125 278.582031 135.851562 278.992188 136.324219 279.496094 C 136.792969 280 137.164062 280.566406 137.4375 281.199219 C 151.710938 285.523438 166.292969 287.269531 181.183594 286.4375 C 196.082031 287.265625 210.671875 285.519531 224.957031 281.199219 C 225.230469 280.566406 225.601562 280 226.074219 279.496094 C 226.542969 278.992188 227.082031 278.582031 227.695312 278.261719 C 228.308594 277.945312 228.953125 277.742188 229.636719 277.648438 C 230.320312 277.554688 231 277.578125 231.671875 277.71875 C 232.347656 277.855469 232.980469 278.105469 233.570312 278.464844 C 234.15625 278.824219 234.667969 279.269531 235.105469 279.804688 C 235.539062 280.339844 235.871094 280.929688 236.101562 281.582031 C 236.332031 282.230469 236.445312 282.898438 236.445312 283.589844 C 236.445312 295.871094 206.394531 298.445312 181.183594 298.445312 Z M 181.183594 298.445312 " fill-opacity="1" fill-rule="nonzero"/><g clip-path="url(#164037ab13)"><path fill="#000000" d="M 181.183594 329.867188 C 168.355469 329.867188 55.765625 329.101562 55.765625 302.433594 C 55.765625 295.695312 60.71875 287.152344 99.5625 280.742188 L 105.492188 279.761719 L 107.4375 291.597656 L 101.507812 292.550781 C 95.671875 292.933594 89.957031 293.960938 84.355469 295.632812 C 78.753906 297.304688 73.410156 299.578125 68.324219 302.457031 C 74.511719 308.101562 112.144531 317.835938 181.183594 317.835938 C 250.226562 317.835938 287.792969 308.101562 294.074219 302.457031 C 288.980469 299.582031 283.632812 297.308594 278.03125 295.636719 C 272.429688 293.964844 266.710938 292.9375 260.875 292.550781 L 254.957031 291.585938 L 256.925781 279.761719 L 262.832031 280.742188 C 301.625 287.140625 306.589844 295.695312 306.589844 302.417969 C 306.589844 329.101562 194.039062 329.867188 181.183594 329.867188 Z M 181.183594 329.867188 " fill-opacity="1" fill-rule="nonzero"/></g><path fill="#000000" d="M 287.792969 244.117188 C 287.402344 244.117188 287.011719 244.078125 286.625 244.003906 C 286.238281 243.925781 285.863281 243.8125 285.5 243.660156 C 285.136719 243.511719 284.792969 243.324219 284.464844 243.105469 C 284.136719 242.886719 283.835938 242.640625 283.558594 242.363281 C 283.277344 242.082031 283.03125 241.78125 282.8125 241.453125 C 282.59375 241.125 282.410156 240.78125 282.257812 240.417969 C 282.109375 240.054688 281.992188 239.679688 281.917969 239.292969 C 281.839844 238.90625 281.800781 238.519531 281.800781 238.125 C 281.800781 237.730469 281.839844 237.339844 281.917969 236.957031 C 281.992188 236.570312 282.109375 236.195312 282.257812 235.832031 C 282.410156 235.46875 282.59375 235.121094 282.8125 234.796875 C 283.03125 234.46875 283.277344 234.164062 283.558594 233.886719 C 283.835938 233.609375 284.136719 233.359375 284.464844 233.140625 C 284.792969 232.921875 285.136719 232.738281 285.5 232.589844 C 285.863281 232.4375 286.238281 232.324219 286.625 232.246094 C 287.011719 232.171875 287.402344 232.132812 287.792969 232.132812 C 288.347656 232.132812 288.902344 232.105469 289.453125 232.050781 C 290.003906 231.996094 290.550781 231.914062 291.09375 231.808594 C 291.636719 231.699219 292.175781 231.566406 292.703125 231.402344 C 293.234375 231.242188 293.753906 231.058594 294.265625 230.84375 C 294.777344 230.632812 295.28125 230.394531 295.769531 230.136719 C 296.257812 229.875 296.730469 229.589844 297.191406 229.28125 C 297.652344 228.972656 298.097656 228.644531 298.523438 228.292969 C 298.953125 227.941406 299.363281 227.570312 299.753906 227.179688 C 300.144531 226.785156 300.519531 226.378906 300.871094 225.949219 C 301.222656 225.519531 301.550781 225.078125 301.859375 224.617188 C 302.164062 224.15625 302.449219 223.679688 302.710938 223.191406 C 302.972656 222.703125 303.210938 222.203125 303.421875 221.691406 C 303.632812 221.179688 303.820312 220.660156 303.980469 220.128906 C 304.140625 219.597656 304.277344 219.0625 304.382812 218.519531 C 304.492188 217.976562 304.574219 217.429688 304.628906 216.878906 C 304.679688 216.328125 304.707031 215.773438 304.707031 215.21875 C 304.707031 214.664062 304.679688 214.113281 304.628906 213.5625 C 304.574219 213.011719 304.492188 212.464844 304.382812 211.921875 C 304.277344 211.378906 304.140625 210.839844 303.980469 210.308594 C 303.820312 209.78125 303.632812 209.257812 303.421875 208.746094 C 303.210938 208.234375 302.972656 207.734375 302.710938 207.246094 C 302.449219 206.757812 302.164062 206.285156 301.859375 205.824219 C 301.550781 205.363281 301.222656 204.917969 300.871094 204.492188 C 300.519531 204.0625 300.144531 203.652344 299.753906 203.261719 C 299.363281 202.867188 298.953125 202.496094 298.523438 202.144531 C 298.097656 201.792969 297.652344 201.464844 297.191406 201.15625 C 296.730469 200.851562 296.257812 200.566406 295.769531 200.304688 C 295.28125 200.042969 294.777344 199.804688 294.265625 199.59375 C 293.753906 199.382812 293.234375 199.195312 292.703125 199.035156 C 292.175781 198.875 291.636719 198.738281 291.09375 198.632812 C 290.550781 198.523438 290.003906 198.441406 289.453125 198.386719 C 288.902344 198.335938 288.347656 198.308594 287.792969 198.308594 L 275.25 198.308594 C 274.859375 198.308594 274.46875 198.269531 274.082031 198.191406 C 273.695312 198.117188 273.320312 198 272.957031 197.851562 C 272.59375 197.699219 272.25 197.515625 271.921875 197.296875 C 271.59375 197.078125 271.292969 196.832031 271.015625 196.550781 C 270.734375 196.273438 270.488281 195.972656 270.269531 195.644531 C 270.050781 195.316406 269.867188 194.972656 269.714844 194.609375 C 269.5625 194.246094 269.449219 193.871094 269.375 193.484375 C 269.296875 193.097656 269.257812 192.707031 269.257812 192.316406 C 269.257812 191.921875 269.296875 191.53125 269.375 191.144531 C 269.449219 190.761719 269.5625 190.386719 269.714844 190.023438 C 269.867188 189.65625 270.050781 189.3125 270.269531 188.984375 C 270.488281 188.660156 270.734375 188.355469 271.015625 188.078125 C 271.292969 187.800781 271.59375 187.550781 271.921875 187.332031 C 272.25 187.113281 272.59375 186.929688 272.957031 186.777344 C 273.320312 186.628906 273.695312 186.515625 274.082031 186.4375 C 274.46875 186.359375 274.859375 186.324219 275.25 186.324219 L 287.792969 186.324219 C 288.742188 186.320312 289.6875 186.367188 290.628906 186.460938 C 291.570312 186.550781 292.507812 186.691406 293.4375 186.875 C 294.363281 187.058594 295.28125 187.289062 296.1875 187.5625 C 297.09375 187.835938 297.984375 188.15625 298.859375 188.515625 C 299.734375 188.878906 300.589844 189.28125 301.425781 189.726562 C 302.261719 190.175781 303.074219 190.660156 303.859375 191.183594 C 304.648438 191.710938 305.40625 192.273438 306.140625 192.875 C 306.871094 193.476562 307.574219 194.109375 308.242188 194.777344 C 308.914062 195.449219 309.546875 196.148438 310.148438 196.878906 C 310.75 197.613281 311.3125 198.371094 311.839844 199.160156 C 312.367188 199.945312 312.851562 200.757812 313.300781 201.59375 C 313.746094 202.425781 314.148438 203.28125 314.511719 204.15625 C 314.875 205.03125 315.195312 205.921875 315.46875 206.828125 C 315.742188 207.734375 315.972656 208.652344 316.160156 209.578125 C 316.34375 210.507812 316.480469 211.445312 316.574219 212.386719 C 316.667969 213.328125 316.714844 214.273438 316.714844 215.21875 C 316.714844 216.167969 316.667969 217.109375 316.574219 218.054688 C 316.480469 218.996094 316.34375 219.929688 316.160156 220.859375 C 315.972656 221.789062 315.742188 222.707031 315.46875 223.613281 C 315.195312 224.519531 314.875 225.40625 314.511719 226.28125 C 314.148438 227.15625 313.746094 228.011719 313.300781 228.847656 C 312.851562 229.683594 312.367188 230.492188 311.839844 231.28125 C 311.3125 232.066406 310.75 232.828125 310.148438 233.558594 C 309.546875 234.289062 308.914062 234.992188 308.242188 235.660156 C 307.574219 236.328125 306.871094 236.964844 306.140625 237.566406 C 305.40625 238.164062 304.648438 238.726562 303.859375 239.253906 C 303.074219 239.78125 302.261719 240.265625 301.425781 240.710938 C 300.589844 241.15625 299.734375 241.5625 298.859375 241.921875 C 297.984375 242.285156 297.09375 242.601562 296.1875 242.878906 C 295.28125 243.152344 294.363281 243.382812 293.4375 243.566406 C 292.507812 243.75 291.570312 243.886719 290.628906 243.980469 C 289.6875 244.070312 288.742188 244.117188 287.792969 244.117188 Z M 287.792969 244.117188 " fill-opacity="1" fill-rule="nonzero"/><path fill="#000000" d="M 181.210938 119.242188 C 180.417969 119.246094 179.652344 119.09375 178.921875 118.796875 C 178.1875 118.496094 177.539062 118.066406 176.976562 117.507812 C 175.816406 116.351562 174.714844 115.144531 173.675781 113.878906 C 172.636719 112.613281 171.660156 111.304688 170.75 109.941406 C 169.839844 108.582031 168.996094 107.183594 168.226562 105.738281 C 167.453125 104.296875 166.75 102.820312 166.125 101.308594 C 165.496094 99.796875 164.945312 98.257812 164.46875 96.691406 C 163.992188 95.125 163.59375 93.539062 163.273438 91.933594 C 162.957031 90.328125 162.714844 88.710938 162.554688 87.082031 C 162.394531 85.453125 162.3125 83.820312 162.3125 82.183594 C 162.3125 80.546875 162.394531 78.914062 162.554688 77.285156 C 162.714844 75.65625 162.957031 74.042969 163.273438 72.4375 C 163.59375 70.832031 163.992188 69.246094 164.46875 67.679688 C 164.945312 66.113281 165.496094 64.574219 166.125 63.0625 C 166.75 61.550781 167.453125 60.074219 168.226562 58.632812 C 168.996094 57.1875 169.839844 55.785156 170.75 54.425781 C 171.660156 53.066406 172.636719 51.753906 173.675781 50.492188 C 174.714844 49.226562 175.816406 48.019531 176.976562 46.863281 C 177.257812 46.601562 177.5625 46.367188 177.886719 46.167969 C 178.214844 45.964844 178.554688 45.792969 178.914062 45.65625 C 179.273438 45.519531 179.640625 45.417969 180.019531 45.351562 C 180.398438 45.285156 180.78125 45.257812 181.164062 45.261719 C 181.546875 45.269531 181.925781 45.3125 182.304688 45.394531 C 182.679688 45.476562 183.042969 45.589844 183.394531 45.742188 C 183.75 45.890625 184.085938 46.074219 184.402344 46.289062 C 184.722656 46.503906 185.015625 46.746094 185.289062 47.019531 C 185.5625 47.289062 185.804688 47.585938 186.019531 47.902344 C 186.234375 48.222656 186.417969 48.554688 186.566406 48.910156 C 186.714844 49.261719 186.832031 49.628906 186.914062 50.003906 C 186.992188 50.378906 187.035156 50.757812 187.042969 51.144531 C 187.050781 51.527344 187.019531 51.90625 186.953125 52.285156 C 186.890625 52.664062 186.789062 53.03125 186.648438 53.390625 C 186.511719 53.75 186.34375 54.09375 186.140625 54.417969 C 185.9375 54.746094 185.707031 55.050781 185.445312 55.332031 C 184.5625 56.210938 183.726562 57.128906 182.9375 58.089844 C 182.144531 59.050781 181.40625 60.046875 180.710938 61.082031 C 180.019531 62.113281 179.378906 63.179688 178.792969 64.277344 C 178.203125 65.371094 177.671875 66.496094 177.195312 67.644531 C 176.71875 68.792969 176.300781 69.960938 175.9375 71.152344 C 175.574219 72.34375 175.273438 73.546875 175.03125 74.769531 C 174.785156 75.988281 174.605469 77.21875 174.480469 78.457031 C 174.359375 79.695312 174.296875 80.933594 174.296875 82.179688 C 174.296875 83.421875 174.359375 84.664062 174.480469 85.902344 C 174.605469 87.140625 174.785156 88.371094 175.03125 89.589844 C 175.273438 90.808594 175.574219 92.015625 175.9375 93.203125 C 176.300781 94.394531 176.71875 95.566406 177.195312 96.714844 C 177.671875 97.863281 178.203125 98.984375 178.792969 100.082031 C 179.378906 101.179688 180.019531 102.242188 180.710938 103.277344 C 181.40625 104.3125 182.144531 105.308594 182.9375 106.269531 C 183.726562 107.230469 184.5625 108.148438 185.445312 109.027344 C 185.863281 109.445312 186.214844 109.914062 186.492188 110.4375 C 186.773438 110.960938 186.96875 111.511719 187.085938 112.09375 C 187.203125 112.671875 187.230469 113.257812 187.171875 113.847656 C 187.117188 114.4375 186.972656 115.003906 186.746094 115.550781 C 186.519531 116.097656 186.21875 116.601562 185.84375 117.058594 C 185.464844 117.515625 185.03125 117.910156 184.539062 118.238281 C 184.046875 118.566406 183.515625 118.816406 182.949219 118.988281 C 182.382812 119.15625 181.800781 119.242188 181.210938 119.242188 Z M 181.210938 119.242188 " fill-opacity="1" fill-rule="nonzero"/><path fill="#000000" d="M 181.210938 181.433594 C 180.617188 181.429688 180.042969 181.339844 179.476562 181.164062 C 178.910156 180.992188 178.382812 180.738281 177.894531 180.410156 C 177.402344 180.078125 176.972656 179.6875 176.597656 179.230469 C 176.222656 178.773438 175.921875 178.269531 175.695312 177.722656 C 175.472656 177.179688 175.328125 176.613281 175.269531 176.023438 C 175.210938 175.433594 175.238281 174.851562 175.351562 174.273438 C 175.464844 173.691406 175.660156 173.140625 175.9375 172.617188 C 176.214844 172.097656 176.558594 171.625 176.976562 171.203125 C 177.851562 170.324219 178.683594 169.402344 179.46875 168.441406 C 180.257812 167.476562 180.996094 166.476562 181.683594 165.445312 C 182.371094 164.410156 183.007812 163.34375 183.59375 162.246094 C 184.175781 161.148438 184.707031 160.027344 185.179688 158.875 C 185.65625 157.726562 186.070312 156.558594 186.433594 155.367188 C 186.792969 154.179688 187.09375 152.972656 187.332031 151.753906 C 187.574219 150.535156 187.757812 149.308594 187.878906 148.070312 C 188 146.832031 188.0625 145.59375 188.0625 144.351562 C 188.0625 143.109375 188 141.867188 187.878906 140.628906 C 187.757812 139.394531 187.574219 138.164062 187.332031 136.945312 C 187.09375 135.726562 186.792969 134.523438 186.433594 133.332031 C 186.070312 132.144531 185.65625 130.972656 185.179688 129.824219 C 184.707031 128.675781 184.175781 127.550781 183.59375 126.457031 C 183.007812 125.359375 182.371094 124.292969 181.683594 123.257812 C 180.996094 122.222656 180.257812 121.222656 179.46875 120.261719 C 178.683594 119.300781 177.851562 118.378906 176.976562 117.496094 C 176.679688 117.222656 176.414062 116.921875 176.179688 116.59375 C 175.945312 116.265625 175.746094 115.917969 175.582031 115.550781 C 175.417969 115.183594 175.289062 114.800781 175.203125 114.410156 C 175.113281 114.015625 175.066406 113.617188 175.058594 113.214844 C 175.050781 112.8125 175.085938 112.414062 175.15625 112.015625 C 175.230469 111.621094 175.34375 111.234375 175.492188 110.863281 C 175.644531 110.488281 175.832031 110.132812 176.054688 109.796875 C 176.273438 109.460938 176.527344 109.152344 176.8125 108.867188 C 177.097656 108.582031 177.410156 108.328125 177.746094 108.105469 C 178.082031 107.882812 178.4375 107.695312 178.808594 107.546875 C 179.183594 107.394531 179.570312 107.28125 179.964844 107.210938 C 180.359375 107.136719 180.761719 107.105469 181.164062 107.113281 C 181.566406 107.121094 181.964844 107.167969 182.359375 107.253906 C 182.75 107.34375 183.132812 107.46875 183.5 107.632812 C 183.867188 107.796875 184.214844 107.996094 184.542969 108.230469 C 184.871094 108.46875 185.171875 108.730469 185.445312 109.027344 C 186.601562 110.183594 187.695312 111.394531 188.730469 112.660156 C 189.769531 113.925781 190.742188 115.238281 191.648438 116.597656 C 192.554688 117.960938 193.394531 119.359375 194.164062 120.804688 C 194.933594 122.246094 195.632812 123.722656 196.257812 125.234375 C 196.882812 126.746094 197.433594 128.285156 197.90625 129.847656 C 198.378906 131.414062 198.777344 133 199.097656 134.601562 C 199.414062 136.207031 199.652344 137.824219 199.8125 139.449219 C 199.972656 141.078125 200.054688 142.710938 200.054688 144.34375 C 200.054688 145.980469 199.972656 147.609375 199.8125 149.238281 C 199.652344 150.867188 199.414062 152.480469 199.097656 154.085938 C 198.777344 155.691406 198.378906 157.273438 197.90625 158.839844 C 197.433594 160.40625 196.882812 161.941406 196.257812 163.453125 C 195.632812 164.964844 194.933594 166.441406 194.164062 167.882812 C 193.394531 169.328125 192.554688 170.730469 191.648438 172.089844 C 190.742188 173.449219 189.769531 174.761719 188.730469 176.027344 C 187.695312 177.292969 186.601562 178.503906 185.445312 179.660156 C 184.882812 180.226562 184.238281 180.660156 183.503906 180.96875 C 182.769531 181.273438 182.003906 181.429688 181.210938 181.433594 Z M 181.210938 181.433594 " fill-opacity="1" fill-rule="nonzero"/><path fill="#000000" d="M 224.089844 126.433594 C 223.296875 126.4375 222.53125 126.289062 221.796875 125.984375 C 221.0625 125.683594 220.414062 125.25 219.855469 124.6875 C 218.953125 123.789062 218.097656 122.847656 217.289062 121.863281 C 216.480469 120.878906 215.71875 119.859375 215.011719 118.800781 C 214.304688 117.742188 213.648438 116.652344 213.046875 115.527344 C 212.445312 114.40625 211.902344 113.253906 211.414062 112.078125 C 210.925781 110.902344 210.496094 109.703125 210.125 108.484375 C 209.753906 107.265625 209.445312 106.035156 209.199219 104.785156 C 208.949219 103.535156 208.761719 102.277344 208.636719 101.007812 C 208.511719 99.742188 208.449219 98.472656 208.449219 97.195312 C 208.449219 95.921875 208.511719 94.652344 208.636719 93.386719 C 208.761719 92.117188 208.949219 90.859375 209.199219 89.609375 C 209.445312 88.359375 209.753906 87.128906 210.125 85.910156 C 210.496094 84.691406 210.925781 83.492188 211.414062 82.316406 C 211.902344 81.140625 212.445312 79.988281 213.046875 78.867188 C 213.648438 77.742188 214.304688 76.652344 215.011719 75.59375 C 215.71875 74.535156 216.480469 73.515625 217.289062 72.53125 C 218.097656 71.546875 218.953125 70.605469 219.855469 69.707031 C 220.132812 69.425781 220.433594 69.179688 220.761719 68.960938 C 221.089844 68.742188 221.433594 68.558594 221.796875 68.410156 C 222.160156 68.257812 222.535156 68.144531 222.917969 68.070312 C 223.304688 67.992188 223.695312 67.957031 224.085938 67.957031 C 224.480469 67.957031 224.871094 67.996094 225.253906 68.070312 C 225.640625 68.148438 226.015625 68.261719 226.378906 68.414062 C 226.738281 68.5625 227.085938 68.746094 227.410156 68.964844 C 227.738281 69.183594 228.039062 69.433594 228.316406 69.710938 C 228.59375 69.988281 228.84375 70.292969 229.0625 70.617188 C 229.277344 70.945312 229.464844 71.289062 229.613281 71.652344 C 229.761719 72.015625 229.875 72.390625 229.953125 72.777344 C 230.03125 73.160156 230.066406 73.550781 230.066406 73.945312 C 230.066406 74.335938 230.027344 74.726562 229.953125 75.109375 C 229.875 75.496094 229.761719 75.871094 229.609375 76.234375 C 229.460938 76.597656 229.273438 76.941406 229.054688 77.265625 C 228.835938 77.59375 228.589844 77.894531 228.3125 78.171875 C 227.6875 78.796875 227.097656 79.449219 226.539062 80.128906 C 225.980469 80.8125 225.457031 81.515625 224.96875 82.25 C 224.480469 82.980469 224.027344 83.738281 223.613281 84.515625 C 223.195312 85.289062 222.820312 86.085938 222.484375 86.898438 C 222.148438 87.714844 221.851562 88.542969 221.59375 89.382812 C 221.339844 90.226562 221.125 91.082031 220.953125 91.945312 C 220.78125 92.808594 220.652344 93.679688 220.566406 94.554688 C 220.480469 95.433594 220.4375 96.308594 220.4375 97.191406 C 220.4375 98.070312 220.480469 98.949219 220.566406 99.828125 C 220.652344 100.703125 220.78125 101.574219 220.953125 102.4375 C 221.125 103.300781 221.339844 104.15625 221.59375 104.996094 C 221.851562 105.839844 222.148438 106.667969 222.484375 107.480469 C 222.820312 108.296875 223.195312 109.089844 223.613281 109.867188 C 224.027344 110.644531 224.480469 111.398438 224.96875 112.132812 C 225.457031 112.863281 225.980469 113.570312 226.539062 114.253906 C 227.097656 114.933594 227.6875 115.585938 228.3125 116.207031 C 228.730469 116.628906 229.078125 117.097656 229.355469 117.617188 C 229.636719 118.140625 229.832031 118.691406 229.949219 119.273438 C 230.0625 119.851562 230.09375 120.4375 230.035156 121.027344 C 229.976562 121.613281 229.835938 122.183594 229.609375 122.730469 C 229.382812 123.277344 229.085938 123.777344 228.710938 124.238281 C 228.335938 124.695312 227.902344 125.089844 227.410156 125.417969 C 226.917969 125.746094 226.390625 126 225.824219 126.171875 C 225.257812 126.347656 224.679688 126.433594 224.089844 126.433594 Z M 224.089844 126.433594 " fill-opacity="1" fill-rule="nonzero"/><path fill="#000000" d="M 224.089844 172.9375 C 223.5 172.9375 222.921875 172.847656 222.355469 172.675781 C 221.789062 172.503906 221.261719 172.253906 220.769531 171.925781 C 220.28125 171.59375 219.847656 171.203125 219.472656 170.746094 C 219.097656 170.289062 218.796875 169.785156 218.570312 169.242188 C 218.34375 168.695312 218.203125 168.128906 218.144531 167.539062 C 218.085938 166.953125 218.113281 166.367188 218.226562 165.789062 C 218.339844 165.207031 218.535156 164.65625 218.8125 164.136719 C 219.089844 163.613281 219.4375 163.144531 219.855469 162.722656 C 220.476562 162.101562 221.066406 161.449219 221.625 160.769531 C 222.179688 160.085938 222.703125 159.378906 223.191406 158.648438 C 223.679688 157.914062 224.132812 157.160156 224.546875 156.382812 C 224.960938 155.609375 225.335938 154.8125 225.671875 154 C 226.011719 153.1875 226.304688 152.359375 226.5625 151.515625 C 226.816406 150.671875 227.03125 149.820312 227.203125 148.957031 C 227.371094 148.09375 227.5 147.222656 227.585938 146.347656 C 227.675781 145.472656 227.71875 144.59375 227.71875 143.714844 C 227.71875 142.832031 227.675781 141.953125 227.585938 141.078125 C 227.5 140.203125 227.371094 139.332031 227.203125 138.46875 C 227.03125 137.605469 226.816406 136.753906 226.5625 135.910156 C 226.304688 135.066406 226.011719 134.238281 225.671875 133.425781 C 225.335938 132.613281 224.960938 131.816406 224.546875 131.042969 C 224.132812 130.265625 223.679688 129.511719 223.191406 128.777344 C 222.703125 128.046875 222.179688 127.339844 221.625 126.65625 C 221.066406 125.976562 220.476562 125.324219 219.855469 124.703125 C 219.59375 124.421875 219.359375 124.117188 219.15625 123.792969 C 218.953125 123.464844 218.785156 123.125 218.644531 122.765625 C 218.507812 122.40625 218.40625 122.039062 218.339844 121.660156 C 218.273438 121.28125 218.242188 120.898438 218.25 120.515625 C 218.257812 120.132812 218.300781 119.753906 218.378906 119.375 C 218.457031 119 218.574219 118.636719 218.722656 118.28125 C 218.871094 117.929688 219.054688 117.59375 219.269531 117.273438 C 219.484375 116.957031 219.726562 116.660156 219.996094 116.386719 C 220.269531 116.117188 220.5625 115.871094 220.882812 115.65625 C 221.199219 115.441406 221.535156 115.257812 221.886719 115.109375 C 222.242188 114.957031 222.605469 114.839844 222.980469 114.761719 C 223.355469 114.679688 223.738281 114.636719 224.121094 114.628906 C 224.503906 114.621094 224.886719 114.648438 225.265625 114.714844 C 225.644531 114.78125 226.011719 114.882812 226.371094 115.019531 C 226.730469 115.15625 227.074219 115.324219 227.398438 115.527344 C 227.726562 115.726562 228.03125 115.960938 228.3125 116.222656 C 229.210938 117.121094 230.066406 118.0625 230.871094 119.046875 C 231.679688 120.035156 232.4375 121.054688 233.144531 122.113281 C 233.851562 123.171875 234.503906 124.265625 235.101562 125.386719 C 235.703125 126.511719 236.246094 127.660156 236.734375 128.835938 C 237.21875 130.011719 237.648438 131.210938 238.019531 132.429688 C 238.386719 133.648438 238.695312 134.878906 238.945312 136.128906 C 239.191406 137.378906 239.378906 138.636719 239.503906 139.902344 C 239.628906 141.167969 239.691406 142.441406 239.691406 143.714844 C 239.691406 144.984375 239.628906 146.257812 239.503906 147.523438 C 239.378906 148.789062 239.191406 150.046875 238.945312 151.296875 C 238.695312 152.546875 238.386719 153.777344 238.019531 154.996094 C 237.648438 156.214844 237.21875 157.414062 236.734375 158.589844 C 236.246094 159.765625 235.703125 160.914062 235.101562 162.039062 C 234.503906 163.160156 233.851562 164.253906 233.144531 165.3125 C 232.4375 166.371094 231.679688 167.390625 230.871094 168.378906 C 230.066406 169.363281 229.210938 170.304688 228.3125 171.203125 C 227.75 171.761719 227.105469 172.191406 226.375 172.492188 C 225.640625 172.792969 224.878906 172.941406 224.089844 172.9375 Z M 224.089844 172.9375 " fill-opacity="1" fill-rule="nonzero"/><path fill="#000000" d="M 252.171875 185.890625 C 251.375 185.894531 250.609375 185.742188 249.875 185.4375 C 249.140625 185.132812 248.496094 184.695312 247.9375 184.132812 C 247.660156 183.851562 247.410156 183.550781 247.191406 183.222656 C 246.972656 182.898438 246.785156 182.550781 246.636719 182.1875 C 246.484375 181.824219 246.371094 181.449219 246.292969 181.066406 C 246.21875 180.679688 246.179688 180.289062 246.179688 179.898438 C 246.179688 179.503906 246.21875 179.113281 246.292969 178.726562 C 246.371094 178.34375 246.484375 177.96875 246.636719 177.605469 C 246.785156 177.242188 246.972656 176.894531 247.191406 176.570312 C 247.410156 176.242188 247.660156 175.941406 247.9375 175.664062 C 249.105469 174.488281 250.214844 173.261719 251.265625 171.980469 C 252.316406 170.695312 253.300781 169.367188 254.21875 167.988281 C 255.136719 166.609375 255.988281 165.1875 256.765625 163.726562 C 257.546875 162.265625 258.253906 160.769531 258.886719 159.238281 C 259.519531 157.707031 260.074219 156.148438 260.554688 154.5625 C 261.035156 152.976562 261.4375 151.371094 261.757812 149.746094 C 262.082031 148.121094 262.324219 146.484375 262.488281 144.832031 C 262.648438 143.183594 262.730469 141.53125 262.730469 139.875 C 262.730469 138.21875 262.648438 136.566406 262.488281 134.917969 C 262.324219 133.265625 262.082031 131.628906 261.757812 130.003906 C 261.4375 128.378906 261.035156 126.773438 260.554688 125.1875 C 260.074219 123.601562 259.519531 122.042969 258.886719 120.511719 C 258.253906 118.980469 257.546875 117.484375 256.765625 116.023438 C 255.988281 114.5625 255.136719 113.140625 254.21875 111.761719 C 253.300781 110.382812 252.316406 109.054688 251.265625 107.769531 C 250.214844 106.488281 249.105469 105.261719 247.9375 104.085938 C 247.660156 103.808594 247.410156 103.507812 247.191406 103.179688 C 246.972656 102.851562 246.789062 102.507812 246.636719 102.144531 C 246.484375 101.78125 246.371094 101.40625 246.292969 101.019531 C 246.21875 100.632812 246.179688 100.246094 246.179688 99.851562 C 246.179688 99.457031 246.214844 99.066406 246.292969 98.683594 C 246.371094 98.296875 246.484375 97.921875 246.632812 97.558594 C 246.785156 97.195312 246.96875 96.847656 247.1875 96.519531 C 247.40625 96.195312 247.652344 95.890625 247.929688 95.613281 C 248.207031 95.335938 248.511719 95.085938 248.839844 94.867188 C 249.164062 94.648438 249.511719 94.460938 249.875 94.3125 C 250.238281 94.160156 250.613281 94.046875 250.996094 93.96875 C 251.382812 93.894531 251.773438 93.855469 252.167969 93.855469 C 252.5625 93.855469 252.949219 93.890625 253.335938 93.96875 C 253.722656 94.046875 254.097656 94.160156 254.460938 94.308594 C 254.824219 94.457031 255.171875 94.644531 255.496094 94.863281 C 255.824219 95.078125 256.128906 95.328125 256.40625 95.605469 C 257.851562 97.058594 259.226562 98.578125 260.523438 100.164062 C 261.820312 101.746094 263.039062 103.394531 264.175781 105.097656 C 265.3125 106.804688 266.363281 108.5625 267.324219 110.367188 C 268.289062 112.175781 269.164062 114.027344 269.945312 115.921875 C 270.730469 117.816406 271.417969 119.742188 272.011719 121.703125 C 272.605469 123.667969 273.101562 125.652344 273.5 127.660156 C 273.898438 129.671875 274.199219 131.695312 274.398438 133.734375 C 274.601562 135.773438 274.699219 137.820312 274.699219 139.867188 C 274.699219 141.917969 274.601562 143.960938 274.398438 146 C 274.199219 148.039062 273.898438 150.066406 273.5 152.074219 C 273.101562 154.085938 272.605469 156.070312 272.011719 158.03125 C 271.417969 159.992188 270.730469 161.921875 269.945312 163.816406 C 269.164062 165.710938 268.289062 167.558594 267.324219 169.367188 C 266.363281 171.175781 265.3125 172.933594 264.175781 174.636719 C 263.039062 176.34375 261.820312 177.988281 260.523438 179.574219 C 259.226562 181.160156 257.851562 182.679688 256.40625 184.132812 C 255.847656 184.695312 255.199219 185.128906 254.464844 185.433594 C 253.730469 185.738281 252.964844 185.890625 252.171875 185.890625 Z M 252.171875 185.890625 " fill-opacity="1" fill-rule="nonzero"/></svg>