<svg xmlns="http://www.w3.org/2000/svg" xmlns:xlink="http://www.w3.org/1999/xlink" width="500" zoomAndPan="magnify" viewBox="0 0 375 374.999991" height="500" preserveAspectRatio="xMidYMid meet" version="1.0"><path fill="#000000" d="M 132.949219 255.554688 C 128.476562 255.554688 124.84375 251.925781 124.84375 247.453125 L 124.84375 219.800781 C 125.167969 201.554688 136.71875 190.742188 155.730469 190.742188 L 215.035156 190.742188 C 239.71875 190.742188 254.453125 176.847656 254.453125 153.582031 L 254.453125 125.925781 C 254.453125 121.453125 258.082031 117.824219 262.554688 117.824219 C 267.027344 117.824219 270.65625 121.453125 270.65625 125.925781 L 270.65625 152.933594 C 270.65625 186 248.824219 206.945312 215.035156 206.945312 L 155.730469 206.945312 C 142.992188 206.945312 141.15625 213.511719 141.050781 219.949219 L 141.050781 247.453125 C 141.050781 251.925781 137.417969 255.554688 132.949219 255.554688 Z M 132.949219 255.554688 " fill-opacity="1" fill-rule="nonzero"/><path fill="#000000" d="M 188.785156 317.667969 C 178.351562 317.667969 167.699219 316.847656 157.554688 315.195312 C 137.667969 311.824219 124.84375 296.5625 124.84375 276.296875 L 124.84375 219.800781 C 124.84375 215.328125 128.476562 211.699219 132.949219 211.699219 C 137.417969 211.699219 141.050781 215.328125 141.050781 219.800781 L 141.050781 276.285156 C 141.050781 288.609375 148.210938 297.167969 160.214844 299.199219 C 178.976562 302.242188 199.589844 302.222656 216.699219 299.089844 C 226.820312 297.359375 233.160156 294.800781 236.164062 291.246094 C 238.605469 288.363281 239.644531 283.890625 239.644531 276.273438 L 239.644531 250.132812 L 195.039062 250.132812 C 190.566406 250.132812 186.9375 246.503906 186.9375 242.03125 C 186.9375 237.558594 190.566406 233.929688 195.039062 233.929688 L 247.746094 233.929688 C 252.21875 233.929688 255.847656 237.558594 255.847656 242.03125 L 255.847656 276.273438 C 255.847656 284.105469 255.015625 294.054688 248.523438 301.714844 C 242.882812 308.367188 233.667969 312.613281 219.519531 315.035156 C 210.011719 316.792969 199.511719 317.667969 188.785156 317.667969 Z M 188.785156 317.667969 " fill-opacity="1" fill-rule="nonzero"/><path fill="#000000" d="M 270.007812 250.15625 L 247.757812 250.15625 C 243.285156 250.15625 239.65625 246.523438 239.65625 242.050781 C 239.65625 237.582031 243.285156 233.949219 247.757812 233.949219 L 270.007812 233.949219 C 285.628906 233.949219 293.050781 228.417969 296.484375 214.226562 C 301.703125 192.414062 301.703125 179.742188 296.476562 157.71875 C 291.742188 138.058594 284.667969 134.027344 275.519531 134.027344 L 270.65625 134.027344 L 270.65625 152.933594 C 270.65625 157.40625 267.027344 161.359375 262.554688 161.359375 C 258.082031 161.359375 254.453125 158.042969 254.453125 153.570312 L 254.453125 125.925781 C 254.453125 121.453125 258.082031 117.824219 262.554688 117.824219 L 275.519531 117.824219 C 300.632812 117.824219 308.5 138.433594 312.234375 153.949219 C 318.015625 178.316406 318.015625 193.875 312.234375 218.015625 C 307.082031 239.339844 292.878906 250.15625 270.007812 250.15625 Z M 270.007812 250.15625 " fill-opacity="1" fill-rule="nonzero"/><path fill="#000000" d="M 208.554688 293.363281 C 198.128906 293.363281 189.648438 284.875 189.648438 274.4375 C 189.648438 264.023438 198.128906 255.554688 208.554688 255.554688 C 218.976562 255.554688 227.457031 264.023438 227.457031 274.4375 C 227.351562 284.917969 218.871094 293.363281 208.554688 293.363281 Z M 208.554688 271.757812 C 207.0625 271.757812 205.851562 272.957031 205.851562 274.4375 C 205.851562 277.375 211.222656 277.417969 211.253906 274.363281 C 211.253906 272.957031 210.035156 271.757812 208.554688 271.757812 Z M 208.554688 271.757812 " fill-opacity="1" fill-rule="nonzero"/><path fill="#000000" d="M 111.363281 258.257812 C 106.890625 258.257812 103.261719 254.625 103.261719 250.15625 L 103.261719 223.148438 C 103.261719 190.082031 125.09375 169.136719 158.882812 169.136719 L 218.191406 169.136719 C 230.925781 169.136719 232.761719 162.566406 232.871094 156.140625 L 232.871094 128.625 C 232.871094 124.15625 236.5 120.523438 240.972656 120.523438 C 245.445312 120.523438 249.074219 124.15625 249.074219 128.625 L 249.074219 156.292969 C 248.75 174.535156 237.203125 185.339844 218.191406 185.339844 L 158.882812 185.339844 C 134.199219 185.339844 119.464844 199.230469 119.464844 222.5 L 119.464844 250.15625 C 119.464844 254.625 115.835938 258.257812 111.363281 258.257812 Z M 111.363281 258.257812 " fill-opacity="1" fill-rule="nonzero"/><path fill="#000000" d="M 240.972656 164.394531 C 236.5 164.394531 232.871094 160.765625 232.871094 156.292969 L 232.871094 99.785156 C 232.871094 87.457031 225.707031 78.902344 213.707031 76.871094 C 194.941406 73.824219 174.332031 73.847656 157.21875 76.980469 C 147.097656 78.707031 140.757812 81.269531 137.742188 84.8125 C 135.300781 87.695312 134.265625 92.167969 134.265625 99.785156 L 134.265625 125.925781 L 178.867188 125.925781 C 183.339844 125.925781 186.96875 129.554688 186.96875 134.027344 C 186.96875 138.5 183.339844 142.128906 178.867188 142.128906 L 126.164062 142.128906 C 121.691406 142.128906 118.0625 138.5 118.0625 134.027344 L 118.0625 99.785156 C 118.0625 91.953125 118.894531 82.003906 125.386719 74.34375 C 131.023438 67.691406 140.238281 63.445312 154.390625 61.023438 C 173.1875 57.609375 195.796875 57.546875 216.363281 60.894531 C 236.261719 64.265625 249.085938 79.53125 249.085938 99.792969 L 249.085938 156.292969 C 249.074219 160.765625 245.457031 164.394531 240.972656 164.394531 Z M 240.972656 164.394531 " fill-opacity="1" fill-rule="nonzero"/><path fill="#000000" d="M 111.363281 258.257812 L 98.402344 258.257812 C 73.285156 258.257812 65.421875 237.644531 61.683594 222.132812 C 55.90625 197.761719 55.90625 182.207031 61.683594 158.0625 C 66.835938 136.738281 81.042969 125.925781 103.910156 125.925781 L 126.164062 125.925781 C 130.636719 125.925781 134.265625 129.554688 134.265625 134.027344 C 134.265625 138.5 130.636719 142.128906 126.164062 142.128906 L 103.910156 142.128906 C 88.289062 142.128906 80.867188 147.660156 77.433594 161.855469 C 72.214844 183.664062 72.214844 196.335938 77.445312 218.363281 C 82.175781 238.023438 89.25 242.050781 98.402344 242.050781 L 103.261719 242.050781 L 103.261719 223.148438 C 103.261719 218.675781 106.890625 214.722656 111.363281 214.722656 C 115.835938 214.722656 119.464844 218.039062 119.464844 222.511719 L 119.464844 250.164062 C 119.464844 254.625 115.835938 258.257812 111.363281 258.257812 Z M 111.363281 258.257812 " fill-opacity="1" fill-rule="nonzero"/><path fill="#000000" d="M 165.367188 120.523438 C 154.941406 120.523438 146.460938 112.054688 146.460938 101.640625 C 146.558594 91.164062 155.039062 82.714844 165.367188 82.714844 C 175.789062 82.714844 184.269531 91.207031 184.269531 101.640625 C 184.269531 112.054688 175.789062 120.523438 165.367188 120.523438 Z M 165.367188 98.917969 C 163.863281 98.917969 162.675781 100.152344 162.664062 101.71875 C 162.664062 104.527344 168.066406 104.601562 168.066406 101.640625 C 168.066406 100.195312 166.8125 98.917969 165.367188 98.917969 Z M 165.367188 98.917969 " fill-opacity="1" fill-rule="nonzero"/></svg>