<svg xmlns="http://www.w3.org/2000/svg" xmlns:xlink="http://www.w3.org/1999/xlink" width="500" zoomAndPan="magnify" viewBox="0 0 375 374.999991" height="500" preserveAspectRatio="xMidYMid meet" version="1.0"><defs><clipPath id="67dff887d3"><path d="M 56.25 56.25 L 318.75 56.25 L 318.75 318.75 L 56.25 318.75 Z M 56.25 56.25 " clip-rule="nonzero"/></clipPath></defs><g clip-path="url(#67dff887d3)"><path stroke-linecap="butt" transform="matrix(5.468749, 0, 0, 5.468749, 56.250001, 56.249996)" fill="none" stroke-linejoin="miter" d="M 24.000003 24.332861 C 24.000003 24.332861 29.000003 16.000003 35.665719 16.000003 C 40.250005 16.000003 44.000005 19.750003 44.000005 24.332861 C 44.000005 28.915719 40.250005 32.665719 35.665719 32.665719 C 29.000003 32.665719 24.000003 24.332861 24.000003 24.332861 Z M 24.000003 24.332861 " stroke="#009688" stroke-width="4" stroke-opacity="1" stroke-miterlimit="10"/><path stroke-linecap="butt" transform="matrix(5.468749, 0, 0, 5.468749, 56.250001, 56.249996)" fill="none" stroke-linejoin="miter" d="M 24.000003 24.332861 C 24.000003 24.332861 19.000002 32.665719 12.332859 32.665719 C 7.750001 32.665719 4 28.915719 4 24.332861 C 4 19.750003 7.750001 16.000003 12.332859 16.000003 C 19.167145 16.000003 24.000003 24.332861 24.000003 24.332861 Z M 24.000003 24.332861 " stroke="#009688" stroke-width="4" stroke-opacity="1" stroke-miterlimit="10"/></g><path fill="#009688" d="M 110.9375 182.03125 L 143.765625 182.03125 L 143.765625 192.96875 L 110.9375 192.96875 Z M 110.9375 182.03125 " fill-opacity="1" fill-rule="nonzero"/><path fill="#009688" d="M 231.25 182.03125 L 264.078125 182.03125 L 264.078125 192.96875 L 231.25 192.96875 Z M 231.25 182.03125 " fill-opacity="1" fill-rule="nonzero"/><path fill="#009688" d="M 242.1875 171.09375 L 253.125 171.09375 L 253.125 203.90625 L 242.1875 203.90625 Z M 242.1875 171.09375 " fill-opacity="1" fill-rule="nonzero"/></svg>