<svg xmlns="http://www.w3.org/2000/svg" xmlns:xlink="http://www.w3.org/1999/xlink" width="500" zoomAndPan="magnify" viewBox="0 0 375 374.999991" height="500" preserveAspectRatio="xMidYMid meet" version="1.0"><defs><clipPath id="4f918e03d7"><path d="M 56.25 56.25 L 318.75 56.25 L 318.75 318.75 L 56.25 318.75 Z M 56.25 56.25 " clip-rule="nonzero"/></clipPath></defs><g clip-path="url(#4f918e03d7)"><path fill="#000000" d="M 154.6875 154.601562 C 142.625 154.601562 132.8125 164.410156 132.8125 176.476562 C 132.8125 179.492188 135.261719 181.945312 138.28125 181.945312 C 141.300781 181.945312 143.75 179.492188 143.75 176.476562 C 143.75 170.4375 148.660156 165.539062 154.6875 165.539062 C 160.714844 165.539062 165.625 170.4375 165.625 176.476562 C 165.625 182.511719 160.714844 187.414062 154.6875 187.414062 C 151.667969 187.414062 149.21875 189.863281 149.21875 192.882812 C 149.21875 195.898438 151.667969 198.351562 154.6875 198.351562 C 160.714844 198.351562 165.625 203.25 165.625 209.289062 C 165.625 215.324219 160.714844 220.226562 154.6875 220.226562 C 148.660156 220.226562 143.75 215.324219 143.75 209.289062 C 143.75 206.269531 141.300781 203.820312 138.28125 203.820312 C 135.261719 203.820312 132.8125 206.269531 132.8125 209.289062 C 132.8125 221.351562 142.625 231.164062 154.6875 231.164062 C 166.75 231.164062 176.5625 221.351562 176.5625 209.289062 C 176.5625 202.757812 173.6875 196.894531 169.136719 192.882812 C 173.6875 188.867188 176.5625 183.003906 176.5625 176.476562 C 176.5625 164.410156 166.75 154.601562 154.6875 154.601562 Z M 198.425781 176.476562 C 198.425781 179.492188 200.875 181.945312 203.894531 181.945312 C 206.914062 181.945312 209.363281 179.492188 209.363281 176.476562 C 209.363281 170.4375 214.273438 165.539062 220.300781 165.539062 C 226.328125 165.539062 231.238281 170.4375 231.238281 176.476562 C 231.238281 185.597656 227.683594 194.171875 221.242188 200.625 L 200.035156 221.820312 C 198.46875 223.386719 198 225.738281 198.851562 227.78125 C 199.695312 229.828125 201.695312 231.164062 203.90625 231.164062 L 236.71875 231.164062 C 239.738281 231.164062 242.175781 228.710938 242.175781 225.695312 C 242.175781 222.675781 239.726562 220.226562 236.707031 220.226562 L 217.109375 220.226562 L 228.976562 208.359375 C 237.484375 199.835938 242.175781 188.515625 242.175781 176.476562 C 242.175781 164.410156 232.367188 154.601562 220.300781 154.601562 C 208.238281 154.601562 198.425781 164.410156 198.425781 176.476562 Z M 313.28125 165.625 C 316.300781 165.625 318.75 163.175781 318.75 160.15625 C 318.75 157.136719 316.300781 154.6875 313.28125 154.6875 L 296.953125 154.6875 L 296.953125 121.875 L 313.28125 121.875 C 316.300781 121.875 318.75 119.425781 318.75 116.40625 C 318.75 113.386719 316.300781 110.9375 313.28125 110.9375 L 296.953125 110.9375 L 296.953125 100.085938 C 296.953125 88.023438 287.140625 78.210938 275.078125 78.210938 L 264.0625 78.210938 L 264.0625 61.71875 C 264.0625 58.699219 261.613281 56.25 258.59375 56.25 C 255.574219 56.25 253.125 58.699219 253.125 61.71875 L 253.125 78.210938 L 220.3125 78.210938 L 220.3125 61.71875 C 220.3125 58.699219 217.863281 56.25 214.84375 56.25 C 211.824219 56.25 209.375 58.699219 209.375 61.71875 L 209.375 78.210938 L 165.625 78.210938 L 165.625 61.71875 C 165.625 58.699219 163.175781 56.25 160.15625 56.25 C 157.136719 56.25 154.6875 58.699219 154.6875 61.71875 L 154.6875 78.210938 L 121.875 78.210938 L 121.875 61.71875 C 121.875 58.699219 119.425781 56.25 116.40625 56.25 C 113.386719 56.25 110.9375 58.699219 110.9375 61.71875 L 110.9375 78.210938 L 100.078125 78.210938 C 88.011719 78.210938 78.203125 88.023438 78.203125 100.085938 L 78.203125 110.9375 L 61.71875 110.9375 C 58.699219 110.9375 56.25 113.386719 56.25 116.40625 C 56.25 119.425781 58.699219 121.875 61.71875 121.875 L 78.203125 121.875 L 78.203125 154.6875 L 61.71875 154.6875 C 58.699219 154.6875 56.25 157.136719 56.25 160.15625 C 56.25 163.175781 58.699219 165.625 61.71875 165.625 L 78.203125 165.625 L 78.203125 209.375 L 61.71875 209.375 C 58.699219 209.375 56.25 211.824219 56.25 214.84375 C 56.25 217.863281 58.699219 220.3125 61.71875 220.3125 L 78.203125 220.3125 L 78.203125 253.125 L 61.71875 253.125 C 58.699219 253.125 56.25 255.574219 56.25 258.59375 C 56.25 261.613281 58.699219 264.0625 61.71875 264.0625 L 78.203125 264.0625 L 78.203125 275.085938 C 78.203125 287.152344 88.011719 296.960938 100.078125 296.960938 L 110.9375 296.960938 L 110.9375 313.28125 C 110.9375 316.300781 113.386719 318.75 116.40625 318.75 C 119.425781 318.75 121.875 316.300781 121.875 313.28125 L 121.875 296.960938 L 154.6875 296.960938 L 154.6875 313.28125 C 154.6875 316.300781 157.136719 318.75 160.15625 318.75 C 163.175781 318.75 165.625 316.300781 165.625 313.28125 L 165.625 296.960938 L 209.375 296.960938 L 209.375 313.28125 C 209.375 316.300781 211.824219 318.75 214.84375 318.75 C 217.863281 318.75 220.3125 316.300781 220.3125 313.28125 L 220.3125 296.960938 L 253.125 296.960938 L 253.125 313.28125 C 253.125 316.300781 255.574219 318.75 258.59375 318.75 C 261.613281 318.75 264.0625 316.300781 264.0625 313.28125 L 264.0625 296.960938 L 275.078125 296.960938 C 287.140625 296.960938 296.953125 287.140625 296.953125 275.085938 L 296.953125 264.0625 L 313.28125 264.0625 C 316.300781 264.0625 318.75 261.613281 318.75 258.59375 C 318.75 255.574219 316.300781 253.125 313.28125 253.125 L 296.953125 253.125 L 296.953125 220.3125 L 313.28125 220.3125 C 316.300781 220.3125 318.75 217.863281 318.75 214.84375 C 318.75 211.824219 316.300781 209.375 313.28125 209.375 L 296.953125 209.375 L 296.953125 165.625 Z M 286.015625 116.023438 C 286.003906 116.15625 285.9375 116.273438 285.9375 116.40625 C 285.9375 116.539062 286.003906 116.65625 286.015625 116.789062 L 286.015625 159.785156 C 286.003906 159.90625 285.9375 160.023438 285.9375 160.15625 C 285.9375 160.289062 286.003906 160.40625 286.015625 160.539062 L 286.015625 214.472656 C 286.003906 214.59375 285.9375 214.710938 285.9375 214.84375 C 285.9375 214.976562 286.003906 215.09375 286.015625 215.226562 L 286.015625 258.222656 C 286.003906 258.34375 285.9375 258.460938 285.9375 258.59375 C 285.9375 258.726562 286.003906 258.84375 286.015625 258.976562 L 286.015625 275.085938 C 286.015625 281.125 281.101562 286.023438 275.078125 286.023438 L 259.457031 286.023438 C 259.164062 285.980469 258.898438 285.851562 258.59375 285.851562 C 258.289062 285.851562 258.023438 285.980469 257.730469 286.023438 L 215.707031 286.023438 C 215.414062 285.980469 215.148438 285.851562 214.84375 285.851562 C 214.539062 285.851562 214.273438 285.980469 213.980469 286.023438 L 161.019531 286.023438 C 160.726562 285.980469 160.460938 285.851562 160.15625 285.851562 C 159.851562 285.851562 159.585938 285.980469 159.292969 286.023438 L 117.269531 286.023438 C 116.976562 285.980469 116.710938 285.851562 116.40625 285.851562 C 116.101562 285.851562 115.835938 285.980469 115.542969 286.023438 L 100.078125 286.023438 C 94.050781 286.023438 89.140625 281.125 89.140625 275.085938 L 89.140625 100.085938 C 89.140625 94.050781 94.050781 89.148438 100.078125 89.148438 L 275.078125 89.148438 C 281.101562 89.148438 286.015625 94.050781 286.015625 100.085938 Z M 240.601562 101.507812 C 239.574219 100.492188 238.183594 99.914062 236.730469 99.914062 L 105.554688 100.085938 C 102.539062 100.085938 100.085938 102.539062 100.085938 105.554688 L 100.085938 269.445312 C 100.085938 272.460938 102.539062 274.914062 105.554688 274.914062 L 269.453125 274.914062 C 272.472656 274.914062 274.921875 272.472656 274.933594 269.445312 L 275.011719 138.195312 C 275.011719 136.738281 274.441406 135.351562 273.414062 134.320312 Z M 263.984375 263.976562 L 111.015625 263.976562 L 111.015625 111.015625 L 234.453125 110.851562 L 264.0625 140.457031 Z M 263.984375 263.976562 " fill-opacity="1" fill-rule="nonzero"/></g></svg>