<svg xmlns="http://www.w3.org/2000/svg" xmlns:xlink="http://www.w3.org/1999/xlink" width="500" zoomAndPan="magnify" viewBox="0 0 375 374.999991" height="500" preserveAspectRatio="xMidYMid meet" version="1.0"><defs><clipPath id="486fd51741"><path d="M 71 39 L 304 39 L 304 337.5 L 71 337.5 Z M 71 39 " clip-rule="nonzero"/></clipPath></defs><g clip-path="url(#486fd51741)"><path fill="#000000" d="M 134.082031 39.980469 C 132.582031 40.027344 130.957031 40.585938 129.125 42.039062 C 124.625 40.300781 120.261719 39.695312 116.355469 43.226562 C 110.316406 42.445312 108.359375 44.058594 106.871094 45.941406 C 105.546875 45.917969 96.980469 44.589844 93.039062 50.453125 C 83.15625 49.289062 80.03125 56.269531 83.566406 62.777344 C 81.546875 65.902344 79.460938 69 84.171875 74.949219 C 82.5 78.273438 83.542969 81.867188 87.472656 86.230469 C 86.441406 90.890625 88.488281 94.191406 92.144531 96.757812 C 91.460938 103.140625 97.996094 106.847656 99.953125 108.171875 C 100.699219 111.890625 102.273438 115.402344 109.734375 117.347656 C 110.960938 122.886719 115.449219 123.84375 119.800781 125.007812 C 105.433594 133.363281 93.113281 144.347656 93.199219 171.308594 L 91.089844 175.066406 C 74.617188 185.082031 59.789062 217.289062 82.972656 243.457031 C 84.484375 251.652344 87.023438 257.542969 89.28125 264.050781 C 92.664062 290.28125 114.730469 302.566406 120.558594 304.027344 C 129.085938 310.523438 138.171875 316.6875 150.457031 321.011719 C 162.050781 332.960938 174.59375 337.511719 187.214844 337.511719 C 187.402344 337.511719 212.949219 332.960938 224.542969 321.011719 C 236.839844 316.699219 245.914062 310.523438 254.441406 304.027344 C 260.257812 302.578125 282.324219 290.28125 285.707031 264.050781 C 287.960938 257.542969 290.503906 251.652344 292.015625 243.457031 C 315.199219 217.289062 300.371094 185.082031 283.898438 175.066406 L 281.789062 171.308594 C 281.875 144.347656 269.554688 133.363281 255.1875 125.007812 C 259.539062 123.84375 264.023438 122.886719 265.253906 117.347656 C 272.714844 115.402344 274.289062 111.890625 275.03125 108.171875 C 276.992188 106.847656 283.523438 103.140625 282.84375 96.757812 C 286.5 94.191406 288.546875 90.90625 287.503906 86.230469 C 291.433594 81.878906 292.476562 78.273438 290.800781 74.949219 C 295.523438 69 293.429688 65.902344 291.410156 62.777344 C 294.941406 56.269531 291.832031 49.277344 281.9375 50.453125 C 278.007812 44.589844 269.429688 45.917969 268.101562 45.941406 C 266.617188 44.058594 264.65625 42.445312 258.632812 43.226562 C 254.726562 39.695312 250.363281 40.300781 245.863281 42.039062 C 240.519531 37.824219 236.976562 41.195312 232.945312 42.484375 C 226.476562 40.363281 224.988281 43.265625 221.8125 44.441406 C 214.761719 42.953125 212.617188 46.203125 209.230469 49.625 L 205.289062 49.550781 C 194.640625 55.824219 189.359375 68.601562 187.476562 75.160156 C 185.601562 68.589844 180.324219 55.824219 169.671875 49.550781 L 165.730469 49.625 C 162.371094 46.191406 160.226562 42.941406 153.171875 44.441406 C 149.988281 43.253906 148.511719 40.363281 142.027344 42.472656 C 139.386719 41.640625 136.945312 39.890625 134.082031 39.980469 Z M 134.082031 39.980469 " fill-opacity="1" fill-rule="nonzero"/></g><path fill="#75a928" d="M 112.882812 67.585938 C 141.125 82.152344 157.550781 93.929688 166.550781 103.957031 C 161.9375 122.429688 137.902344 123.273438 129.113281 122.753906 C 130.910156 121.910156 132.421875 120.90625 132.953125 119.367188 C 130.746094 117.804688 122.925781 119.207031 117.472656 116.132812 C 119.566406 115.699219 120.546875 115.277344 121.523438 113.726562 C 116.367188 112.089844 110.8125 110.664062 107.542969 107.9375 C 109.300781 107.960938 110.949219 108.335938 113.257812 106.734375 C 108.632812 104.242188 103.710938 102.273438 99.878906 98.46875 C 102.273438 98.40625 104.839844 98.441406 105.59375 97.5625 C 101.367188 94.957031 97.796875 92.046875 94.847656 88.859375 C 98.183594 89.257812 99.59375 88.910156 100.402344 88.328125 C 97.214844 85.054688 93.160156 82.289062 91.238281 78.261719 C 93.71875 79.117188 95.988281 79.4375 97.625 78.1875 C 96.53125 75.730469 91.882812 74.292969 89.207031 68.566406 C 91.824219 68.8125 94.585938 69.136719 95.144531 68.566406 C 93.929688 63.621094 91.847656 60.84375 89.8125 57.96875 C 95.40625 57.878906 103.871094 57.992188 103.488281 57.519531 L 100.027344 53.988281 C 105.496094 52.511719 111.074219 54.222656 115.140625 55.488281 C 116.960938 54.050781 115.101562 52.226562 112.882812 50.378906 C 117.519531 51 121.722656 52.066406 125.515625 53.527344 C 127.539062 51.707031 124.203125 49.871094 122.589844 48.039062 C 129.757812 49.402344 132.792969 51.308594 135.816406 53.21875 C 138 51.136719 135.929688 49.351562 134.453125 47.515625 C 139.859375 49.523438 142.648438 52.101562 145.574219 54.65625 C 146.566406 53.316406 148.101562 52.328125 146.257812 49.089844 C 150.097656 51.296875 152.988281 53.914062 155.121094 56.828125 C 157.5 55.328125 156.53125 53.257812 156.546875 51.359375 C 160.539062 54.609375 163.066406 58.054688 166.164062 61.425781 C 166.785156 60.96875 167.332031 59.429688 167.8125 56.988281 C 177.335938 66.222656 190.773438 89.480469 171.273438 98.703125 C 154.671875 85.003906 134.851562 75.050781 112.882812 67.585938 Z M 262.746094 67.585938 C 234.507812 82.152344 218.082031 93.929688 209.09375 103.957031 C 213.707031 122.417969 237.730469 123.261719 246.519531 122.753906 C 244.722656 121.910156 243.222656 120.90625 242.691406 119.367188 C 244.898438 117.804688 252.71875 119.207031 258.171875 116.132812 C 256.078125 115.699219 255.097656 115.277344 254.121094 113.726562 C 259.277344 112.078125 264.832031 110.664062 268.101562 107.9375 C 266.34375 107.960938 264.695312 108.335938 262.386719 106.734375 C 267.011719 104.242188 271.933594 102.273438 275.765625 98.46875 C 273.371094 98.40625 270.804688 98.441406 270.050781 97.5625 C 274.277344 94.957031 277.835938 92.046875 280.796875 88.859375 C 277.449219 89.269531 276.050781 88.921875 275.230469 88.339844 C 278.429688 85.066406 282.472656 82.300781 284.40625 78.273438 C 281.925781 79.128906 279.65625 79.449219 278.019531 78.199219 C 279.113281 75.742188 283.761719 74.304688 286.4375 68.578125 C 283.824219 68.828125 281.058594 69.148438 280.5 68.578125 C 281.714844 63.632812 283.796875 60.855469 285.832031 57.980469 C 280.238281 57.890625 271.773438 58.003906 272.15625 57.53125 L 275.617188 54 C 270.148438 52.523438 264.570312 54.234375 260.503906 55.5 C 258.683594 54.0625 260.542969 52.238281 262.761719 50.390625 C 258.125 51.011719 253.921875 52.078125 250.140625 53.554688 C 248.121094 51.730469 251.453125 49.898438 253.066406 48.0625 C 245.902344 49.425781 242.863281 51.335938 239.839844 53.242188 C 237.644531 51.148438 239.714844 49.363281 241.191406 47.527344 C 235.785156 49.539062 232.996094 52.117188 230.070312 54.667969 C 229.078125 53.332031 227.542969 52.339844 229.386719 49.101562 C 225.546875 51.308594 222.65625 53.925781 220.523438 56.839844 C 218.144531 55.328125 219.113281 53.257812 219.097656 51.347656 C 215.105469 54.59375 212.578125 58.042969 209.480469 61.414062 C 208.859375 60.953125 208.3125 59.417969 207.832031 56.976562 C 198.308594 66.210938 184.871094 89.46875 204.371094 98.691406 C 220.945312 85.003906 240.78125 75.050781 262.746094 67.585938 Z M 262.746094 67.585938 " fill-opacity="1" fill-rule="nonzero"/><path fill="#bc1142" d="M 222.023438 255.605469 C 222.125 272.839844 207.050781 286.882812 188.367188 286.972656 C 169.6875 287.058594 154.449219 273.171875 154.351562 255.941406 C 154.351562 255.832031 154.351562 255.71875 154.351562 255.605469 C 154.253906 238.375 169.3125 224.332031 188.007812 224.242188 C 206.703125 224.15625 221.925781 238.042969 222.023438 255.273438 Z M 168.609375 166.488281 C 182.628906 175.671875 185.15625 196.488281 174.246094 212.988281 C 163.351562 229.488281 143.144531 235.414062 129.125 226.226562 C 115.101562 217.042969 112.574219 196.226562 123.484375 179.726562 C 134.390625 163.226562 154.597656 157.300781 168.609375 166.488281 Z M 206.453125 164.8125 C 192.433594 174 189.90625 194.8125 200.8125 211.3125 C 211.710938 227.8125 231.917969 233.738281 245.9375 224.554688 C 259.957031 215.367188 262.488281 194.554688 251.578125 178.054688 C 240.667969 161.566406 220.476562 155.640625 206.453125 164.8125 Z M 98.554688 181.5 C 113.691406 177.445312 103.660156 244.117188 91.351562 238.648438 C 77.800781 227.753906 73.4375 195.84375 98.554688 181.5 Z M 273.457031 180.667969 C 258.324219 176.617188 268.351562 243.285156 280.660156 237.816406 C 294.210938 226.921875 298.574219 195.011719 273.457031 180.667969 Z M 222.039062 131.019531 C 248.15625 126.609375 269.886719 142.128906 269.007812 170.453125 C 268.152344 181.3125 212.40625 132.632812 222.039062 131.019531 Z M 149.863281 130.191406 C 123.742188 125.777344 102.011719 141.296875 102.890625 169.625 C 103.746094 180.472656 159.484375 131.800781 149.863281 130.191406 Z M 187.386719 123.582031 C 171.792969 123.171875 156.84375 135.148438 156.804688 142.101562 C 156.769531 150.546875 169.128906 159.1875 187.5 159.410156 C 206.257812 159.546875 218.230469 152.492188 218.28125 143.777344 C 218.34375 133.898438 201.222656 123.433594 187.386719 123.582031 Z M 188.34375 296.652344 C 201.929688 296.058594 220.175781 301.027344 220.214844 307.625 C 220.4375 314.03125 203.675781 328.5 187.449219 328.214844 C 170.640625 328.945312 154.164062 314.453125 154.375 309.421875 C 154.117188 302.070312 174.832031 296.316406 188.34375 296.652344 Z M 138.136719 257.578125 C 147.816406 269.230469 152.230469 289.722656 144.148438 295.761719 C 136.511719 300.371094 117.953125 298.476562 104.765625 279.519531 C 95.875 263.628906 97.015625 247.449219 103.265625 242.691406 C 112.597656 237 127.027344 244.6875 138.136719 257.578125 Z M 236.601562 253.882812 C 226.128906 266.144531 220.300781 288.519531 227.9375 295.722656 C 235.238281 301.3125 254.851562 300.53125 269.332031 280.4375 C 279.84375 266.9375 276.324219 244.402344 270.324219 238.425781 C 261.398438 231.519531 248.578125 240.347656 236.601562 253.882812 Z M 236.601562 253.882812 " fill-opacity="1" fill-rule="nonzero"/><path fill="#000000" d="M 263.09375 68.949219 C 261.421875 69.816406 259.921875 70.636719 258.335938 71.480469 C 259.773438 70.972656 261.136719 70.375 262.585938 69.878906 Z M 263.09375 68.949219 " fill-opacity="1" fill-rule="nonzero"/></svg>